<svg fill="none" height="73" viewBox="0 0 73 73" width="73" xmlns="http://www.w3.org/2000/svg" xmlns:xlink="http://www.w3.org/1999/xlink"><filter id="a" color-interpolation-filters="sRGB" filterUnits="userSpaceOnUse" height="73" width="73" x="0" y="0"><feFlood flood-opacity="0" result="BackgroundImageFix"/><feColorMatrix in="SourceAlpha" type="matrix" values="0 0 0 0 0 0 0 0 0 0 0 0 0 0 0 0 0 0 127 0"/><feOffset dy="4"/><feGaussianBlur stdDeviation="2"/><feColorMatrix type="matrix" values="0 0 0 0 0 0 0 0 0 0.341954 0 0 0 0 0.583333 0 0 0 0.3 0"/><feBlend in2="BackgroundImageFix" mode="normal" result="effect1_dropShadow"/><feBlend in="SourceGraphic" in2="effect1_dropShadow" mode="normal" result="shape"/></filter><g filter="url(#a)"><circle cx="36.5" cy="32.5" fill="#fff" r="32.5"/></g><path d="m37.9585 42.7083v-16.2896l7.1166 7.1167c.5688.5687 1.5021.5687 2.0709 0 .5687-.5688.5687-1.4875 0-2.0563l-9.6104-9.6104c-.5688-.5687-1.4876-.5687-2.0563 0l-9.625 9.5959c-.5688.5687-.5688 1.4875 0 2.0562.5687.5688 1.4875.5688 2.0562 0l7.1313-7.1021v16.2896c0 .8021.6562 1.4584 1.4583 1.4584s1.4584-.6563 1.4584-1.4584z" fill="#0d3857"/></svg>