<svg enable-background="new 0 0 891.8 372.8" viewBox="0 0 891.8 372.8" xmlns="http://www.w3.org/2000/svg" xmlns:xlink="http://www.w3.org/1999/xlink"><radialGradient id="a" cx="130.38" cy="157.1674" fx="118.2098" fy="157.3799" gradientUnits="userSpaceOnUse" r="30.76"><stop offset="0" stop-color="#ffdb00"/><stop offset=".050726" stop-color="#fdd603"/><stop offset="1" stop-color="#df7531"/></radialGradient><path d="m18.1 368.1c-6.9 0-12.5-5.6-12.5-12.5v-336.7c0-6.9 5.6-12.5 12.5-12.5h854.7c6.9 0 12.5 5.6 12.5 12.5v336.7c0 6.9-5.6 12.5-12.5 12.5z" fill="#fff"/><path d="m872.9 6.9c6.6 0 12 5.4 12 12v336.7c0 6.6-5.4 12-12 12h-854.8c-6.6 0-12-5.4-12-12v-336.7c0-6.6 5.4-12 12-12zm0-1h-854.8c-7.2 0-13 5.8-13 13v336.7c0 7.2 5.8 13 13 13h854.7c7.2 0 13-5.8 13-13v-336.7c.1-7.2-5.8-13-12.9-13z" fill="#fff"/><g clip-rule="evenodd" fill-rule="evenodd"><path d="m171.9 206.9 7.5 14.1h-15.3zm-23.7 28h8.7l3.9-7.5h21.9l4.2 7.5h9l-19.4-34.9h-8.5z" fill="#ec6d05"/><path d="m625.1 210.8c1.8 0 3 .6 3 2.4v3.3c0 2.1-1.2 2.4-3 2.4h-13.2v-8.1zm-21 24.1h7.8v-10.8h4.8l11.7 10.8h10.5l-12.9-10.8h3c4.2 0 6.3-1.8 6.3-5.7v-6.9c0-4.2-2.1-5.7-6.3-5.7h-24.9z" fill="#e5381d"/><path d="m395.8 210.8c2.1 0 3 .6 3 2.4v3.3c0 2.1-.9 2.4-3 2.4h-13.2v-8.1zm-20.7 24.1h7.5v-10.8h5.1l11.4 10.8h10.5l-12.9-10.8h3c4.5 0 6.6-1.8 6.6-5.7v-6.9c0-4.2-2.1-5.7-6.6-5.7h-24.6z" fill="#ec6d05"/><path d="m224.5 210.8c2.1 0 3 .6 3 2.4v3.3c0 2.1-.9 2.4-3 2.4h-12.9v-8.1zm-20.7 24.1h7.8v-10.8h4.8l11.7 10.8h10.2l-12.6-10.8h2.7c4.5 0 6.6-1.8 6.6-5.7v-6.9c0-4.2-2.1-5.7-6.6-5.7h-24.6z" fill="#ec6d05"/><path d="m263.2 234.9h-7.8v-23.8h-13.2v-5.4h34.2v5.4h-13.2z" fill="#ec6d05"/><path d="m284.5 205.7h7.8v11.2h18.9v-11.2h7.8v29.2h-7.8v-12.6h-18.9v12.6h-7.8z" fill="#ec6d05"/><path d="m338.5 229.2h17.1v-23.4h7.8v22.2c0 5.7-1.8 6.9-7.2 6.9h-18.3c-5.4 0-6.9-1.2-6.9-6.9v-22.2h7.5z" fill="#ec6d05"/><path d="m473.6 205.7h4.5l22.2 18.7v-18.7h7.2v29.2h-4.5l-22.5-18.7v18.7h-6.9z" fill="#e5381d"/><path d="m728.6 205.7h4.8l22.3 18.7v-18.7h6.9v29.2h-4.5l-22.3-18.7v18.7h-7.2z" fill="#e5381d"/><path d="m563.9 205.7h29.7v5.1h-21.9v6.3h13.2v5.5h-13.2v6.6h21.9v5.7h-29.7z" fill="#e5381d"/><path d="m689.3 205.7h29.4v5.1h-21.6v6.3h13.2v5.5h-13.2v6.6h21.9v5.7h-29.7z" fill="#e5381d"/><path d="m653.9 210.8v6.3h16.8c5.4 0 7.2 1.5 7.2 6.9v3.9c0 5.7-1.8 6.9-7.2 6.9h-17.7c-5.4 0-7.2-1.2-7.2-6.9v-.6l6.9-1.2v3.3h18.3v-6.6h-16.8c-5.4 0-7.2-1.5-7.2-6.9v-3.3c0-5.4 1.8-6.9 7.2-6.9h16.2c5.1 0 7.2 1.5 7.2 6.3v.6l-6.9 1.5v-3.3z" fill="#e5381d"/><path d="m527 229.5v-18.3h10.2c6.6 0 9.3 4.5 9.3 9 0 6-3.6 9.3-9.3 9.3zm-7.8 5.4h18.6c12.6 0 16.5-7.2 16.5-14.7 0-8.1-4.8-14.4-16.5-14.4h-18.6z" fill="#e5381d"/><path d="m441.4 206.9 7.5 14.1h-15.3l7.5-14.1zm-23.7 28h8.4l4.2-7.5h21.9l4.2 7.5h9l-19.5-34.9h-8.4z" fill="#e5381d"/></g><circle cx="130.4" cy="157.2" fill="url(#a)" r="30.8"/></svg>