<svg width="40" height="40" viewBox="0 0 40 40" fill="none" xmlns="http://www.w3.org/2000/svg">
<path d="M39.3341 33.3329H38.0008V32.6663C37.9973 31.8218 37.4637 31.0704 36.6675 30.7889V17.2103C37.4637 16.9288 37.9973 16.1775 38.0008 15.333V14.6663C39.1054 14.6663 40.0008 13.7709 40.0008 12.6663C40.0008 11.5618 39.1054 10.6663 38.0008 10.6663H37.5228L20.3502 0.0983863C20.136 -0.0334465 19.8658 -0.0334465 19.6516 0.0983863L2.47897 10.6663H2.00097C0.896389 10.6663 0.000976562 11.5618 0.000976562 12.6663C0.000976562 13.7709 0.896389 14.6663 2.00097 14.6663V15.333C2.00447 16.1775 2.53805 16.9288 3.3343 17.2103V30.7889C2.53805 31.0704 2.00447 31.8218 2.00097 32.6663V33.3329H0.66764C0.299475 33.3329 0.000976562 33.6314 0.000976562 33.9996V39.3329C0.000976562 39.7011 0.299475 39.9996 0.66764 39.9996H39.3341C39.7023 39.9996 40.0008 39.7011 40.0008 39.3329V33.9996C40.0008 33.6314 39.7023 33.3329 39.3341 33.3329ZM36.6675 15.333C36.6675 15.7012 36.369 15.9997 36.0008 15.9997H33.3342C32.966 15.9997 32.6675 15.7012 32.6675 15.333V14.6663H36.6675V15.333ZM36.0008 31.9996C36.369 31.9996 36.6675 32.2981 36.6675 32.6663V33.3329H32.6675V32.6663C32.6675 32.2981 32.966 31.9996 33.3342 31.9996H36.0008ZM34.0008 30.6663V17.333H35.3342V30.6663H34.0008ZM2.00097 13.333C1.6328 13.333 1.3343 13.0345 1.3343 12.6663C1.3343 12.2982 1.6328 11.9997 2.00097 11.9997H6.66762V10.6663H5.02296L20.0009 1.44905L34.9788 10.6663H10.6676V11.9997H38.0008C38.369 11.9997 38.6675 12.2982 38.6675 12.6663C38.6675 13.0345 38.369 13.333 38.0008 13.333H2.00097ZM15.3342 30.7889V17.2103C16.1305 16.9288 16.6641 16.1775 16.6676 15.333V14.6663H23.3342V15.333C23.3377 16.1775 23.8713 16.9288 24.6675 17.2103V30.7889C23.8713 31.0704 23.3377 31.8218 23.3342 32.6663V33.3329H16.6676V32.6663C16.6641 31.8218 16.1305 31.0704 15.3342 30.7889ZM14.6676 31.9996C15.0357 31.9996 15.3342 32.2981 15.3342 32.6663V33.3329H11.3343V32.6663C11.3343 32.2981 11.6328 31.9996 12.0009 31.9996H14.6676ZM12.6676 30.6663V17.333H14.0009V30.6663H12.6676ZM14.6676 15.9997H12.0009C11.6328 15.9997 11.3343 15.7012 11.3343 15.333V14.6663H15.3342V15.333C15.3342 15.7012 15.0357 15.9997 14.6676 15.9997ZM24.6675 32.6663C24.6675 32.2981 24.966 31.9996 25.3342 31.9996H28.0009C28.369 31.9996 28.6675 32.2981 28.6675 32.6663V33.3329H24.6675V32.6663ZM26.0009 30.6663V17.333H27.3342V30.6663H26.0009ZM28.0009 15.9997H25.3342C24.966 15.9997 24.6675 15.7012 24.6675 15.333V14.6663H28.6675V15.333C28.6675 15.7012 28.369 15.9997 28.0009 15.9997ZM4.00096 15.9997C3.63279 15.9997 3.3343 15.7012 3.3343 15.333V14.6663H7.33428V15.333C7.33428 15.7012 7.03578 15.9997 6.66762 15.9997H4.00096ZM6.00095 17.333V30.6663H4.66762V17.333H6.00095ZM3.3343 32.6663C3.3343 32.2981 3.63279 31.9996 4.00096 31.9996H6.66762C7.03578 31.9996 7.33428 32.2981 7.33428 32.6663V33.3329H3.3343V32.6663ZM8.66761 38.6662H1.3343V34.6662H8.66761V38.6662ZM7.33428 30.7889V17.2103C8.13053 16.9288 8.66411 16.1775 8.66761 15.333V14.6663H10.0009V15.333C10.0044 16.1775 10.538 16.9288 11.3343 17.2103V30.7889C10.538 31.0704 10.0044 31.8218 10.0009 32.6663V33.3329H8.66761V32.6663C8.66411 31.8218 8.13053 31.0704 7.33428 30.7889ZM30.0009 38.6662H10.0009V37.3329H26.0009V35.9996H10.0009V34.6662H30.0009V38.6662ZM28.6675 30.7889V17.2103C29.4638 16.9288 29.9974 16.1775 30.0009 15.333V14.6663H31.3342V15.333C31.3377 16.1775 31.8713 16.9288 32.6675 17.2103V30.7889C31.8713 31.0704 31.3377 31.8218 31.3342 32.6663V33.3329H30.0009V32.6663C29.9974 31.8218 29.4638 31.0704 28.6675 30.7889ZM38.6675 38.6662H31.3342V34.6662H38.6675V38.6662Z" fill="white"/>
</svg>
