<svg enable-background="new 0 0 891.8 372.8" viewBox="0 0 891.8 372.8" xmlns="http://www.w3.org/2000/svg"><path d="m18.1 368.1c-6.9 0-12.5-5.6-12.5-12.5v-336.7c0-6.9 5.6-12.5 12.5-12.5h854.7c6.9 0 12.5 5.6 12.5 12.5v336.7c0 6.9-5.6 12.5-12.5 12.5z"/><g fill="#fff"><path d="m872.9 6.9c6.6 0 12 5.4 12 12v336.7c0 6.6-5.4 12-12 12h-854.8c-6.6 0-12-5.4-12-12v-336.7c0-6.6 5.4-12 12-12zm0-1h-854.8c-7.2 0-13 5.8-13 13v336.7c0 7.2 5.8 13 13 13h854.7c7.2 0 13-5.8 13-13v-336.7c.1-7.2-5.8-13-12.9-13z"/><path d="m260.9 167.1v54.2h30.3l-4.1 10.5h-39.4v-64.6zm254.9 29.4c8.4-3.2 18.2-10.5 18.2-22.5 0-15-13-22.5-31.4-22.5h-24.1v80.3h14.3v-33h8.4l22.3 33h16.2zm-16-8h-7.1v-27.5h8.9c11.6 0 18 3.6 18 13.7 0 10.6-7.7 13.8-19.8 13.8m-183.4-21.4 2 5-25 59.6h12.3l5.5-13.2h28.5l5.7 13.2h14.6l-28.7-64.6zm-1.2 41.7 9.8-23.9 10 23.9zm-92.6-20c7.1-2.3 13.9-7.7 13.9-17.8 0-19.6-23.7-19.6-31.2-19.6h-25.3v80.3h24.1c14.1 0 36.9-3.4 36.9-23.2 0-10.9-6.6-17.9-18.4-19.7zm-19.1-27.6c10.7 0 18 1.1 18 10.7 0 13-13.2 12.3-19.6 12.3h-7.3v-23.2zm.2 60.1-9.1-.2v-26.4h8.4c12.7 0 23 1.8 23 13.2 0 11.1-8.4 13.4-22.3 13.4m213.7-54.2h13.4v64.6h-13.4zm41.5 0-27.3 31 27.5 33.7h15.2l-27.8-34.4 25.7-30.3zm-102 30.3c0 21.2 13.2 35.5 31.2 35.5 9.3 0 15.5-2.3 21.6-6.6l-3.2-6.4c-5.2 2.5-9.8 3.9-15 3.9-11.6 0-20-8.4-20-25.9 0-14.1 5.2-22.5 15.2-22.5 5.5 0 10 1.8 11.8 7.3l11.6-3c-1.1-4.6-7.3-13.4-24.1-13.4-15.4-.1-29.1 10.4-29.1 31.1m307-30.3h13.2v64.6h-13.2zm41.5 0-27.5 31 27.5 33.7h15.7l-28-34.4 25.7-30.3zm-102.2 30.3c0 21.2 13 35.5 30.7 35.5 9.6 0 15.9-2.3 21.9-6.6l-3.2-6.4c-5.2 2.5-9.8 3.9-15.2 3.9-11.6 0-19.8-8.4-19.8-25.9 0-14.1 5.2-22.5 15.5-22.5 5.2 0 9.8 1.8 11.8 7.3l11.4-3c-1.1-4.6-7.1-13.4-23.9-13.4-15.8-.1-29.2 10.4-29.2 31.1"/><path d="m567.4 166.2c-17.5 0-30.3 10.5-30.3 33.2s12.1 33.5 30.3 33.5 30.3-10.7 30.3-33.5-12.7-33.2-30.3-33.2zm0 57.6c-13.4 0-16.6-10.9-16.6-24.4 0-13.2 3.2-24.6 16.6-24.6s16.6 11.4 16.6 24.6c.1 13.5-3.1 24.4-16.6 24.4"/></g></svg>