<svg fill="none" height="748" viewBox="0 0 375 748" width="375" xmlns="http://www.w3.org/2000/svg" xmlns:xlink="http://www.w3.org/1999/xlink"><linearGradient id="a" gradientUnits="userSpaceOnUse" x1="187.5" x2="187.5" y1="0" y2="748"><stop offset="0" stop-color="#fff"/><stop offset=".479167" stop-color="#fff"/><stop offset="1" stop-color="#d2f2ff"/></linearGradient><linearGradient id="b" gradientUnits="userSpaceOnUse" x1="62.6665" x2="62.6665" y1="691.333" y2="908"><stop offset="0" stop-color="#0a98c1"/><stop offset="1" stop-color="#2db5b3" stop-opacity=".16"/></linearGradient><linearGradient id="c"><stop offset="0" stop-color="#0a98c1"/><stop offset="1" stop-color="#2db5b3" stop-opacity="0"/></linearGradient><linearGradient id="d" gradientUnits="userSpaceOnUse" x1="294.202" x2="294.202" xlink:href="#c" y1="43.5931" y2="317.603"/><linearGradient id="e" gradientUnits="userSpaceOnUse" x1="294.202" x2="294.202" xlink:href="#c" y1="72.0901" y2="289.106"/><linearGradient id="f" gradientUnits="userSpaceOnUse" x1="294.202" x2="294.202" xlink:href="#c" y1="103.875" y2="257.321"/><linearGradient id="g" gradientUnits="userSpaceOnUse" x1="294.202" x2="294.202" xlink:href="#c" y1="129.416" y2="231.874"/><linearGradient id="h" gradientUnits="userSpaceOnUse" x1="415.862" x2="415.862" y1="14" y2="156.485"><stop offset="0" stop-color="#2db5b3"/><stop offset=".838542" stop-color="#0a98c1" stop-opacity=".46"/></linearGradient><mask id="i" height="748" maskUnits="userSpaceOnUse" width="375" x="0" y="0"><path d="m0 0h375v748h-375z" fill="url(#a)"/></mask><g mask="url(#i)"><circle cx="62.6665" cy="799.667" fill="url(#b)" opacity=".1" r="108.333"/><circle cx="19.3333" cy="756.333" fill="#2db5b3" opacity=".1" r="108.333"/><circle cx="-67" cy="701" r="128.5" stroke="#fff" stroke-opacity=".7"/><circle cx="-67" cy="701" r="116.773" stroke="#fff" stroke-opacity=".7"/><circle cx="-67" cy="701" r="105.045" stroke="#fff" stroke-opacity=".7"/><circle cx="-67" cy="701" r="93.3182" stroke="#fff" stroke-opacity=".7"/><circle cx="-66.9996" cy="701" r="81.5909" stroke="#fff" stroke-opacity=".7"/><circle cx="294.202" cy="180.598" fill="url(#d)" opacity=".08" r="137.005"/><circle cx="294.202" cy="180.598" fill="url(#e)" opacity=".1" r="108.508"/><circle cx="294.202" cy="180.598" fill="url(#f)" opacity=".1" r="76.7227" transform="matrix(.25881905 -.96592583 .96592583 .25881905 43.612647 418.033108)"/><circle cx="294.202" cy="180.645" fill="url(#g)" opacity=".1" r="51.2289" transform="matrix(.25881905 -.96592583 .96592583 .25881905 43.567248 418.067944)"/><circle cx="415.862" cy="85.2426" fill="url(#h)" opacity=".08" r="71.2425" transform="matrix(-1 0 0 -1 831.724 170.4852)"/><g stroke="#fff"><circle cx="447.342" cy="263.342" r="81.9283"/><circle cx="447.342" cy="263.342" r="180.842"/><circle cx="447.342" cy="263.342" r="164.357"/><circle cx="447.342" cy="263.342" r="147.871"/><circle cx="447.343" cy="263.342" r="131.385"/><circle cx="447.343" cy="263.342" r="114.9"/><circle cx="447.342" cy="263.342" r="98.414"/></g></g></svg>