<svg fill="none" height="548" viewBox="0 0 1440 548" width="1440" xmlns="http://www.w3.org/2000/svg" xmlns:xlink="http://www.w3.org/1999/xlink"><linearGradient id="a" gradientUnits="userSpaceOnUse" x1="720" x2="720" y1="0" y2="548"><stop offset="0" stop-color="#fff"/><stop offset=".869792" stop-color="#caefff"/></linearGradient><linearGradient id="b" gradientUnits="userSpaceOnUse" x1="46.2499" x2="46.2499" y1="374.5" y2="762"><stop offset="0" stop-color="#0a98c1"/><stop offset="1" stop-color="#2db5b3" stop-opacity=".16"/></linearGradient><linearGradient id="c"><stop offset="0" stop-color="#0a98c1"/><stop offset="1" stop-color="#2db5b3" stop-opacity="0"/></linearGradient><linearGradient id="d" gradientUnits="userSpaceOnUse" x1="1322.05" x2="1322.05" xlink:href="#c" y1="22.7708" y2="492.871"/><linearGradient id="e" gradientUnits="userSpaceOnUse" x1="1322.05" x2="1322.05" xlink:href="#c" y1="71.6612" y2="443.98"/><linearGradient id="f" gradientUnits="userSpaceOnUse" x1="1322.05" x2="1322.05" xlink:href="#c" y1="126.193" y2="389.449"/><linearGradient id="g" gradientUnits="userSpaceOnUse" x1="1322.05" x2="1322.05" xlink:href="#c" y1="170.012" y2="345.792"/><linearGradient id="h" gradientUnits="userSpaceOnUse" x1="1530.77" x2="1530.77" y1="-28" y2="216.452"><stop offset="0" stop-color="#2db5b3"/><stop offset=".838542" stop-color="#0a98c1" stop-opacity=".46"/></linearGradient><mask id="i" height="548" maskUnits="userSpaceOnUse" width="1440" x="0" y="0"><path d="m0 0h1440v548h-1440z" fill="url(#a)"/></mask><g mask="url(#i)"><circle cx="46.2499" cy="568.25" fill="url(#b)" opacity=".1" r="193.75"/><circle cx="-31.2499" cy="490.75" fill="#2db5b3" opacity=".1" r="193.75"/><circle cx="-46.5" cy="353.5" r="192" stroke="#fff" stroke-opacity=".7"/><circle cx="-46.5" cy="353.5" r="174.5" stroke="#fff" stroke-opacity=".7"/><circle cx="-46.5" cy="353.5" r="157" stroke="#fff" stroke-opacity=".7"/><circle cx="-46.5" cy="353.5" r="139.5" stroke="#fff" stroke-opacity=".7"/><circle cx="-46.4995" cy="353.5" r="122" stroke="#fff" stroke-opacity=".7"/><circle cx="1322.05" cy="257.821" fill="url(#d)" opacity=".08" r="235.05"/><circle cx="1322.05" cy="257.821" fill="url(#e)" opacity=".1" r="186.16"/><circle cx="1322.05" cy="257.821" fill="url(#f)" opacity=".1" r="131.628" transform="matrix(.25881905 -.96592583 .96592583 .25881905 730.842319 1468.094254)"/><circle cx="1322.05" cy="257.902" fill="url(#g)" opacity=".1" r="87.8899" transform="matrix(.25881905 -.96592583 .96592583 .25881905 730.764079 1468.154289)"/><circle cx="1530.77" cy="94.2259" fill="url(#h)" opacity=".08" r="122.226" transform="matrix(-1 0 0 -1 3061.54 188.4518)"/><g stroke="#fff"><circle cx="1461.5" cy="431.5" r="45.7727"/><circle cx="1461.5" cy="431.5" r="68.9091"/><circle cx="1461.5" cy="431.5" r="92.0455"/><circle cx="1461.5" cy="431.5" r="115.182"/><circle cx="1461.5" cy="431.5" r="254"/><circle cx="1461.5" cy="431.5" r="230.864"/><circle cx="1461.5" cy="431.5" r="207.727"/><circle cx="1461.5" cy="431.5" r="184.591"/><circle cx="1461.5" cy="431.5" r="161.455"/><circle cx="1461.5" cy="431.5" r="138.318"/></g></g></svg>