<svg enable-background="new 0 0 891.8 372.8" viewBox="0 0 891.8 372.8" xmlns="http://www.w3.org/2000/svg"><path d="m18.1 368.1c-6.9 0-12.5-5.6-12.5-12.5v-336.7c0-6.9 5.6-12.5 12.5-12.5h854.7c6.9 0 12.5 5.6 12.5 12.5v336.7c0 6.9-5.6 12.5-12.5 12.5z" fill="#fff"/><path d="m872.9 6.9c6.6 0 12 5.4 12 12v336.7c0 6.6-5.4 12-12 12h-854.8c-6.6 0-12-5.4-12-12v-336.7c0-6.6 5.4-12 12-12zm0-1h-854.8c-7.2 0-13 5.8-13 13v336.7c0 7.2 5.8 13 13 13h854.7c7.2 0 13-5.8 13-13v-336.7c.1-7.2-5.8-13-12.9-13z" fill="#fff"/><g fill="#030303"><path d="m253.9 279.9c0-65.8 0-131.3 0-197.1h3.4c22.1 0 44.2-.2 66.3.1 14.2.1 28.1 2.6 39.8 11.3 14.7 11 22.9 25.5 21.1 44.3-1.4 14.5-8.2 26-21.2 33.4-.2.1-.4.4-.7.8 7 3 13 7.1 18.3 12.5 8.1 8.4 12.7 18.3 13.6 29.9 1 13.6-2.3 26.3-9.7 37.6-9 13.8-22.2 22-38.3 24.8-9.1 1.6-18.4 2.1-27.6 2.2-20.1.3-40.2.1-60.3.1-1.6.1-3.1.1-4.7.1zm39.2-33.8c13.6-.5 26.8-.8 40.1-1.7 10-.7 17.3-7.4 19.3-17 3.1-14.9-2.8-26-17.9-29.4-4-.9-8.4-.8-12.6-.8-9.6-.1-19.1 0-28.9 0zm0-129.7v45.6h1.3c9.4 0 18.8.5 28.1-.1 12.3-.8 23.2-9.8 22.3-24-.6-9.1-7-17.5-15.8-19.7-11.7-3.1-23.7-1.1-35.9-1.8z"/><path d="m411 266.1c1.9-12.5 3.8-24.9 5.7-37.1 7 3.9 13.6 8.2 20.7 11.6 11.3 5.4 23.2 8.2 35.8 6.9 9-.9 17-4.2 22.2-12.1 5.9-8.9 2.8-20-7.3-25.7-11.5-6.5-23.2-12.4-34.9-18.7-11.2-6-21.7-12.9-29.6-23.2-5.4-7-8.2-15-9.2-23.8-1.2-10.7.1-21.1 4.7-30.8 7-14.8 19-24.1 34.3-28.7 23.5-7.1 46.3-4.8 68.5 5.3 1.8.8 3.6 1.9 5.5 2.5 3 1 3.5 2.8 3.1 5.7-1.3 8.8-2.4 17.7-3.6 26.5-.1.9-.4 1.8-.7 2.7-4.9-2.4-9.7-4.8-14.5-7-9-4.1-18.5-6.6-28.3-6.6-7.8 0-15.4 1.5-22 6.6-8.3 6.4-9.1 19-2.5 26.7 5.1 6 12.2 9.1 18.9 12.7 12.5 6.8 25.4 12.8 37.5 20.1 10.9 6.6 19 16.1 22.2 28.8 4.7 18.3 1.1 35-10.7 49.7-10.4 12.9-24.4 19.3-40.4 21.9-25 4.1-48.7.3-71.1-11.5-.7-.4-1.4-.7-2.1-1.1s-1.4-.9-2.2-1.4z"/><path d="m556.4 279.5c.6-13.9.9-27.7 1.8-41.4.5-7.6 1.6-15.2 3-22.6 3.2-17.4 10.2-33.3 21-47.2 4.5-5.9 10-11 15.1-16.4.6-.7 1.5-1.2 2.6-1.9v129.6c-14.3-.1-28.5-.1-43.5-.1z"/></g><path d="m600 144.4c0-21.4 0-42.1 0-63h44.1c-5.5 27.4-21.3 47.4-44.1 63z" fill="#c20524"/></svg>