<svg enable-background="new 0 0 881.2 362.5" viewBox="0 0 881.2 362.5" xmlns="http://www.w3.org/2000/svg"><path d="m-558.2-283.9h2204.7v941.8h-2204.7z" fill="#ff10ff"/><path d="m13.1 362.1c-6.9 0-12.5-5.6-12.5-12.5v-336.7c0-6.9 5.6-12.5 12.5-12.5h854.7c6.9 0 12.5 5.6 12.5 12.5v336.7c0 6.9-5.6 12.5-12.5 12.5z" fill="#fff"/><path d="m867.9.9c6.6 0 12 5.4 12 12v336.7c0 6.6-5.4 12-12 12h-854.8c-6.6 0-12-5.4-12-12v-336.7c0-6.6 5.4-12 12-12zm0-1h-854.8c-7.2 0-13 5.8-13 13v336.7c0 7.2 5.8 13 13 13h854.7c7.2 0 13-5.8 13-13v-336.7c.1-7.2-5.8-13-12.9-13z" fill="#fff"/><path d="m283.2 192.8h16.2c-6 38-38.9 67.1-78.7 67.1-44 0-79.7-35.7-79.7-79.7s35.7-79.7 79.7-79.7c40.7 0 74.2 30.4 79.1 69.8h-16.1c.5 3.2.8 6.5.8 9.9-.1 4.4-.5 8.6-1.3 12.6z" fill="#0d3857"/><path d="m266.8 192.8h16.4c-5.8 29.2-31.6 51.2-62.5 51.2-35.2 0-63.8-28.5-63.8-63.8 0-35.2 28.5-63.8 63.8-63.8 31.8 0 58.2 23.3 63 53.9h-16.2c.7 3.2 1 6.5 1 9.9 0 4.4-.6 8.6-1.7 12.6z" fill="#0598c1"/><path d="m250 192.8h16.8c-5.5 20.3-24.1 35.3-46.1 35.3-26.4 0-47.8-21.4-47.8-47.8s21.4-47.8 47.8-47.8c23 0 42.2 16.3 46.8 37.9h-16.5c1 3.1 1.6 6.4 1.6 9.9-.1 4.4-1 8.7-2.6 12.5z" fill="#2db4b3"/><path d="m220.6 192.8h29.4c-4.9 11.4-16.1 19.3-29.3 19.3-17.6 0-31.9-14.3-31.9-31.9s14.3-31.9 31.9-31.9c14.1 0 26.1 9.2 30.3 22h-30.4z" fill="#d8d9d9"/><circle cx="219.8" cy="180.3" fill="#fff" r="15.9"/><path d="m252.5 178.9c0 4.5-.9 8.7-2.6 12.5h-29.4v-22.4h30.5c1 3.2 1.5 6.5 1.5 9.9z" fill="none"/><path d="m268.5 178.9c0 4.3-.6 8.5-1.7 12.5h-16.8c1.7-3.8 2.6-8.1 2.6-12.5 0-3.5-.5-6.8-1.6-9.9h16.5c.6 3.2 1 6.6 1 9.9z" fill="none"/><path d="m284.4 178.9c0 4.3-.4 8.5-1.3 12.5h-16.4c1.1-4 1.7-8.2 1.7-12.5 0-3.4-.4-6.7-1-9.9h16.2c.6 3.3.8 6.6.8 9.9z" fill="none"/><path d="m300.4 179.1c0 4.3-.3 8.5-1 12.5h-16.2c.8-4 1.3-8.3 1.3-12.5 0-3.4-.3-6.7-.8-9.9h16.1c.3 3.3.6 6.6.6 9.9z" fill="none"/><path d="m461.1 158.7c.3.3.5.6.6.9 0 .3 0 .7-.3 1-.2.3-.5.5-.8.5s-.6-.1-.9-.2c-1.8-1.3-3.8-2.3-5.9-3s-4.4-1.1-6.9-1.1c-2.8 0-5.4.5-7.8 1.5s-4.5 2.5-6.3 4.3c-1.8 1.9-3.3 4.1-4.3 6.6-1 2.6-1.6 5.4-1.6 8.4 0 3.1.5 5.9 1.6 8.4 1 2.6 2.5 4.8 4.3 6.6 1.8 1.9 3.9 3.3 6.3 4.3s5 1.5 7.8 1.5c2.4 0 4.7-.4 6.8-1.1s4.1-1.7 5.9-2.9c.3-.2.6-.3 1-.3.3 0 .6.2.8.5s.3.6.3 1c0 .3-.2.6-.5.8-1 .7-2.3 1.5-3.9 2.1-1.6.7-3.3 1.2-5 1.7-1.8.4-3.6.6-5.3.6-3.1 0-6-.6-8.8-1.8-2.7-1.2-5.1-2.8-7.2-4.9s-3.7-4.6-4.9-7.4-1.8-5.9-1.8-9.3.6-6.5 1.8-9.3 2.8-5.3 4.9-7.4 4.5-3.7 7.2-4.9 5.7-1.8 8.8-1.8c2.6 0 5.2.4 7.6 1.2 2.4 1 4.6 2.1 6.5 3.5z" fill="#0d3857"/><path d="m495.4 168c.4 0 .7.1.9.4s.4.6.4.9v29.8c0 .3-.1.7-.4.9-.3.3-.6.4-.9.4-.4 0-.7-.1-.9-.4s-.4-.6-.4-.9v-9.2l1-.8c0 1.4-.3 2.8-1 4.2s-1.6 2.7-2.9 3.9c-1.2 1.2-2.6 2.1-4.3 2.8-1.6.7-3.4 1.1-5.3 1.1-2.9 0-5.5-.8-7.8-2.3s-4.1-3.6-5.4-6.2-2-5.5-2-8.8.7-6.2 2-8.7 3.1-4.5 5.4-6 4.8-2.2 7.7-2.2c1.9 0 3.6.3 5.3 1 1.6.7 3.1 1.6 4.3 2.8s2.2 2.6 2.9 4.3c.7 1.6 1 3.4 1 5.3l-1-1.6v-9.4c0-.3.1-.7.4-.9.3-.3.7-.4 1-.4zm-13.6 30.6c2.4 0 4.6-.6 6.5-1.9s3.4-3 4.5-5.3c1.1-2.2 1.6-4.8 1.6-7.6 0-2.7-.5-5.1-1.6-7.3s-2.6-3.9-4.5-5.2-4.1-1.9-6.5-1.9-4.5.6-6.4 1.9-3.4 2.9-4.5 5.1-1.7 4.7-1.7 7.5.5 5.3 1.6 7.6c1.1 2.2 2.6 4 4.5 5.3 1.9 1.1 4.1 1.8 6.5 1.8z" fill="#0d3857"/><path d="m508.3 200.4c-.4 0-.7-.1-.9-.4s-.4-.6-.4-.9v-29.8c0-.3.1-.7.4-.9.3-.3.6-.4.9-.4.4 0 .7.1.9.4s.4.6.4.9v11l-1.1 1.7c0-1.7.3-3.4.9-5.1s1.4-3.3 2.6-4.8c1.1-1.5 2.5-2.7 4.1-3.6s3.5-1.4 5.6-1.4c.6 0 1.3.1 1.9.3.7.2 1 .6 1 1.2 0 .4-.1.7-.3 1s-.5.4-.8.4-.6-.1-.9-.3c-.4-.2-.9-.3-1.6-.3-1.4 0-2.7.4-4.1 1.2-1.3.8-2.6 1.9-3.7 3.3s-2 2.8-2.6 4.5-1 3.2-1 4.7v16.2c0 .3-.1.7-.4.9-.2 0-.5.2-.9.2z" fill="#0d3857"/><path d="m543.3 201c-3.2 0-6.1-.7-8.6-2.1s-4.5-3.3-5.9-5.9c-1.4-2.5-2.1-5.5-2.1-8.9 0-3.6.7-6.7 2.1-9.3s3.2-4.5 5.5-5.9c2.2-1.4 4.6-2 7.1-2 1.8 0 3.6.3 5.3.9s3.3 1.5 4.6 2.7c1.4 1.2 2.5 2.8 3.3 4.6s1.3 4 1.4 6.6c0 .3-.1.7-.4.9-.3.3-.6.4-.9.4h-26.5l-.4-2.5h26.2l-.7.6v-1.1c-.2-2.3-.9-4.2-2.2-5.8-1.2-1.6-2.7-2.7-4.5-3.5s-3.5-1.2-5.4-1.2c-1.3 0-2.7.3-4.1.9s-2.8 1.5-4 2.7-2.2 2.7-3 4.5-1.1 3.9-1.1 6.4c0 2.6.5 5.1 1.6 7.3s2.6 4 4.7 5.3 4.7 2 7.8 2c1.5 0 2.9-.3 4.2-.7 1.3-.5 2.5-1.2 3.5-2s1.9-1.7 2.5-2.7c.3-.4.7-.6 1.1-.6.3 0 .6.1.8.4.2.2.3.5.3.8s-.1.6-.3.8c-1.3 1.7-3.1 3.3-5.2 4.5-1.8 1.3-4.1 1.9-6.7 1.9z" fill="#0d3857"/><path d="m578.4 201c-3.2 0-6.1-.7-8.6-2.1s-4.5-3.3-5.9-5.9c-1.4-2.5-2.1-5.5-2.1-8.9 0-3.6.7-6.7 2.1-9.3s3.2-4.5 5.5-5.9c2.2-1.4 4.6-2 7.1-2 1.8 0 3.6.3 5.3.9s3.3 1.5 4.6 2.7c1.4 1.2 2.5 2.8 3.3 4.6s1.3 4 1.4 6.6c0 .3-.1.7-.4.9-.3.3-.6.4-.9.4h-26.5l-.4-2.5h26.2l-.7.6v-1.1c-.2-2.3-.9-4.2-2.2-5.8-1.2-1.6-2.7-2.7-4.5-3.5s-3.5-1.2-5.4-1.2c-1.3 0-2.7.3-4.1.9s-2.8 1.5-4 2.7-2.2 2.7-3 4.5-1.1 3.9-1.1 6.4c0 2.6.5 5.1 1.6 7.3s2.6 4 4.7 5.3 4.7 2 7.8 2c1.5 0 2.9-.3 4.2-.7 1.3-.5 2.5-1.2 3.5-2s1.9-1.7 2.5-2.7c.3-.4.7-.6 1.1-.6.3 0 .6.1.8.4.2.2.3.5.3.8s-.1.6-.3.8c-1.3 1.7-3.1 3.3-5.2 4.5-1.8 1.3-4.1 1.9-6.7 1.9z" fill="#0d3857"/><path d="m600.4 200.4c-.4 0-.7-.1-.9-.4s-.4-.6-.4-.9v-29.8c0-.3.1-.7.4-.9.3-.3.6-.4.9-.4.4 0 .7.1.9.4s.4.6.4.9v11l-1.1 1.7c0-1.7.3-3.4.9-5.1s1.4-3.3 2.6-4.8c1.1-1.5 2.5-2.7 4.1-3.6s3.5-1.4 5.6-1.4c.6 0 1.3.1 1.9.3.7.2 1 .6 1 1.2 0 .4-.1.7-.3 1s-.5.4-.8.4-.6-.1-.9-.3c-.4-.2-.9-.3-1.6-.3-1.4 0-2.7.4-4.1 1.2-1.3.8-2.6 1.9-3.7 3.3s-2 2.8-2.6 4.5c-.7 1.6-1 3.2-1 4.7v16.2c0 .3-.1.7-.4.9-.2 0-.5.2-.9.2z" fill="#0d3857"/><g fill="#0598c1"><path d="m653.1 194c.9 0 1.7.3 2.3.9s.9 1.4.9 2.3-.3 1.7-.9 2.3-1.4.9-2.3.9h-21.8c-1 0-1.7-.3-2.4-.9-.6-.6-.9-1.4-.9-2.4v-38.9c0-1 .3-1.7 1-2.4.7-.6 1.5-.9 2.5-.9.9 0 1.6.3 2.3.9s1 1.4 1 2.4v36.9l-1.4-1.1z"/><path d="m680.1 163.3-14.6 35.1c-.3.7-.7 1.2-1.2 1.6s-1.1.6-1.8.6c-1 0-1.7-.3-2.1-.8-.5-.5-.7-1.2-.8-2 0-.3.1-.7.2-1l16.5-39.9c.3-.7.7-1.3 1.3-1.7s1.2-.6 1.9-.5c.7 0 1.3.2 1.8.6.6.4 1 .9 1.2 1.6l16.3 39.3c.2.4.3.9.3 1.3 0 1-.3 1.7-.9 2.3s-1.3.9-2.1.9c-.6 0-1.2-.2-1.8-.6-.5-.4-.9-.9-1.2-1.6l-14.7-34.9zm-12 25.9 2.9-6.2h18.4l1.1 6.2z"/><path d="m725.5 154.9c4 0 7 1 9.1 2.9 2.1 2 3.1 4.8 3.1 8.5 0 2-.5 3.7-1.4 5.3s-2.3 2.8-4.1 3.7-4 1.4-6.7 1.4l.1-2.4c1.4 0 3 .2 4.6.6 1.7.4 3.2 1.1 4.7 2 1.5 1 2.7 2.2 3.6 3.9 1 1.6 1.4 3.6 1.4 6.1 0 2.6-.4 4.8-1.3 6.6s-2 3.1-3.4 4.1-3 1.7-4.7 2.1-3.4.6-5 .6h-16.6c-.9 0-1.7-.3-2.3-.9-.7-.6-1-1.4-1-2.4v-38.9c0-1 .3-1.7 1-2.4.7-.6 1.4-.9 2.3-.9zm-.9 6.4h-12.8l.8-1v14l-.7-.7h12.9c1.6 0 2.9-.6 4.1-1.6s1.8-2.5 1.8-4.5-.5-3.6-1.6-4.6c-1.2-1.1-2.6-1.6-4.5-1.6zm.5 18.5h-12.9l.5-.5v15.3l-.5-.6h13.4c2.3 0 4.1-.6 5.5-1.8s2.1-3 2.1-5.4c0-2-.4-3.6-1.2-4.5-.8-1-1.8-1.7-3.1-2-1.4-.3-2.6-.5-3.8-.5z"/><path d="m350.8 159.3c.3.3.5.6.6.9 0 .3 0 .7-.2 1s-.5.5-.8.5-.6-.1-.9-.2c-1.7-1.3-3.6-2.3-5.6-3s-4.2-1.1-6.5-1.1c-2.6 0-5.1.5-7.3 1.5-2.3 1-4.3 2.5-6 4.3-1.7 1.9-3.1 4.1-4 6.6s-1.5 5.4-1.5 8.4c0 3.1.5 5.9 1.5 8.4 1 2.6 2.3 4.8 4 6.6 1.7 1.9 3.7 3.3 6 4.3s4.7 1.5 7.3 1.5c2.3 0 4.4-.4 6.4-1.1s3.9-1.7 5.6-2.9c.3-.2.6-.3.9-.3s.6.2.8.5.3.6.2 1c0 .3-.2.6-.5.8-1 .7-2.2 1.5-3.7 2.1-1.5.7-3.1 1.2-4.8 1.7-1.7.4-3.4.6-5 .6-2.9 0-5.7-.6-8.3-1.8s-4.8-2.8-6.8-4.9-3.5-4.6-4.6-7.4-1.7-5.9-1.7-9.3.6-6.5 1.7-9.3 2.7-5.3 4.6-7.4c2-2.1 4.2-3.7 6.8-4.9s5.3-1.8 8.3-1.8c2.5 0 4.9.4 7.2 1.2 2.4 1 4.4 2.1 6.3 3.5z"/><path d="m360.2 163.2c-.7 0-1.2-.2-1.6-.6s-.6-.9-.6-1.5v-.5c0-.6.2-1.1.6-1.5s.9-.6 1.6-.6c.6 0 1.1.2 1.4.6.4.4.6.9.6 1.5v.5c0 .6-.2 1.1-.6 1.5-.3.4-.8.6-1.4.6zm1.2 36.5c0 .3-.1.7-.4.9-.2.3-.5.4-.9.4s-.7-.1-.9-.4-.3-.6-.3-.9v-30.9c0-.3.1-.7.4-.9s.5-.4.9-.4.7.1.9.4.3.6.3.9z"/><path d="m369.1 168.3h14.2c.3 0 .6.1.8.4s.3.5.3.8-.1.6-.3.9c-.2.2-.5.4-.8.4h-14.2c-.3 0-.6-.1-.8-.4s-.4-.5-.4-.8.1-.6.4-.9c.3-.2.5-.4.8-.4zm6.3-9.5c.4 0 .7.1.9.4s.3.6.3.9v33.9c0 1.4.2 2.5.5 3.2s.8 1.1 1.3 1.3 1 .3 1.5.3c.3 0 .5 0 .7-.1s.5-.1.7-.1.5.1.7.4c.2.2.3.5.3.8 0 .4-.2.7-.7 1s-1.1.4-1.8.4c-.2 0-.7 0-1.3 0s-1.3-.2-2-.6-1.3-1-1.8-2-.7-2.4-.7-4.3v-34c0-.3.1-.7.4-.9.4-.5.7-.6 1-.6z"/><path d="m414.8 167.6c.4 0 .7.1.9.4s.3.6.3.9v29c0 3.3-.6 6.2-1.9 8.6s-3 4.3-5.2 5.6-4.6 1.9-7.4 1.9c-1.9 0-3.6-.2-5.1-.7s-2.7-1.1-3.7-1.8c-.3-.2-.5-.5-.7-.8s-.2-.6 0-1c.2-.3.4-.6.7-.7s.6-.1.9.1c.7.4 1.8 1 3.2 1.6s3 .9 4.8.9c2.4 0 4.4-.6 6.2-1.8s3.2-2.8 4.2-4.9 1.5-4.5 1.5-7.2v-4.7l.1 1.6c-.6 1.3-1.4 2.5-2.6 3.5-1.2 1.1-2.5 1.9-3.9 2.5-1.5.6-3 .9-4.5.9-2.5 0-4.6-.5-6.2-1.6s-2.8-2.5-3.6-4.4-1.1-4-1.1-6.6v-20.3c0-.3.1-.7.3-.9.2-.3.5-.4.9-.4s.7.1.9.4.3.6.3.9v20.3c0 3.1.6 5.5 1.9 7.3s3.5 2.7 6.5 2.7c1.8 0 3.6-.5 5.2-1.5 1.7-1 3-2.2 4.1-3.8s1.6-3.2 1.6-4.8v-20.3c0-.3.1-.7.3-.9.4.1.7 0 1.1 0z"/></g></svg>