<svg width="70" height="70" viewBox="0 0 70 70" fill="none" xmlns="http://www.w3.org/2000/svg">
<circle cx="35" cy="35" r="7" stroke="white" stroke-width="1.5"/>
<path d="M58.9362 29.75C56.5328 18.7419 46.7289 10.5 35 10.5C21.469 10.5 10.5 21.469 10.5 35C10.5 48.531 21.469 59.5 35 59.5C46.7289 59.5 56.5328 51.2581 58.9362 40.25" stroke="white" stroke-width="1.5"/>
<path d="M49.8538 29.75C47.6917 23.6327 41.8576 19.25 35 19.25C26.3015 19.25 19.25 26.3015 19.25 35C19.25 43.6985 26.3015 50.75 35 50.75C41.8576 50.75 47.6917 46.3673 49.8538 40.25" stroke="white" stroke-width="1.5"/>
<path d="M39.375 29.75H67.8379C65.3208 13.8811 51.5771 1.75 35 1.75C16.6365 1.75 1.75 16.6365 1.75 35C1.75 53.3635 16.6365 68.25 35 68.25C51.5771 68.25 65.3207 56.1189 67.8379 40.25L39.375 40.25" stroke="white" stroke-width="1.5"/>
</svg>
