<svg enable-background="new 0 0 891.8 372.8" viewBox="0 0 891.8 372.8" xmlns="http://www.w3.org/2000/svg" xmlns:xlink="http://www.w3.org/1999/xlink"><linearGradient id="a" gradientUnits="userSpaceOnUse" x1="445.4987" x2="445.4987" y1="6.3851" y2="368.0941"><stop offset=".00000024942" stop-color="#23bbee"/><stop offset=".2506" stop-color="#25ade4"/><stop offset=".494" stop-color="#188bcc"/><stop offset=".791" stop-color="#07589e"/><stop offset="1" stop-color="#0e4582"/></linearGradient><path clip-rule="evenodd" d="m130 126.4c17 0 30.8 13.8 30.8 30.8s-13.8 30.8-30.8 30.8-30.8-13.8-30.8-30.8c0-16.9 13.9-30.8 30.8-30.8z" fill="#fff" fill-rule="evenodd"/><path clip-rule="evenodd" d="m683.8 157.4c0 5.9-4 9.2-12.6 9.2h-2v-15.2c0-1.3 0-2.6.7-2.6h4c6.6 0 9.9 2.6 9.9 8.6zm133.5-10.6c0-1.3-.7-1.3-1.3-1.3h-13.2c-.7 0-1.3 0-1.3 1.3 0 0 .7.7 1.3.7 4 0 5.3.7 4 2l-10.6 18.5-11.2-18.5c-.7-1.3.7-2 4-2 .7 0 1.3-.7 1.3-.7 0-1.3-.7-1.3-1.3-1.3h-15.2c-.7 0-.7 0-.7 1.3 0 0 0 .7.7.7 1.3 0 2.6.7 3.3 2l13.9 21.8v14.5c0 2.6-1.3 4-4 4h-.7c-.7 0-.7.7-.7.7 0 .7 0 1.3.7 1.3h15.8c.7 0 .7-.7.7-1.3 0 0 0-.7-.7-.7h-.7c-2.6 0-4-1.3-4-4v-14.5l12.5-20.5c1.3-2 2.6-3.3 4.6-3.3h1.3c.8-.1 1.5-.7 1.5-.7zm-40.3 32.4c0-.7 0-.7-.7-.7s-.7 0-.7.7c-4 5.9-8.6 9.2-15.2 9.2h-5.3c-3.3 0-5.3-.7-5.3-2.6v-16.5h8.6c4 0 6 2 6 6.6v.7s0 .7.7.7 1.3-.7 1.3-1.3v-16c0-.7-.7-.7-1.3-.7-.7 0-.7 0-.7.7v.7c0 4-2 5.9-6 5.9h-8.6v-15.2c0-1.3.7-2 .7-2.6.7 0 1.3-.7 2.6-.7h9.2c5.3 0 8.6 3.3 9.3 8.6 0 .7 0 .7.7.7s1.3-.7 1.3-.7l-2-12.6c-1.9.9-3.9 1.3-6 1.3h-41c-.7 0-.7 0-.7 1.3 0 0 0 .7.7.7h1.3c2.6 0 4.6 1.3 4.6 4v27.1l-28.4-34.4c-1.9.9-3.9 1.3-5.9 1.3h-3.3c-.7 0-1.3 0-1.3 1.3 0 0 .7.7 1.3.7 1.3 0 2.6.7 4 1.3 1.3.7 2 2 2 2.6v34.4c0 2-.7 4-2 4l-1.3-1.3-14.5-20.5c6.6-2 9.9-5.9 9.9-11.2 0-7.9-5.9-11.2-16.5-11.2h-15.9c-.7 0-1.3 0-1.3 1.3 0 0 .7.7 1.3.7 2.6 0 4 1.3 4 4v34.4c0 2-.7 4-1.3 4-1.3-1.3-2-1.3-2-2l-16.5-43.6c-1.9.9-3.9 1.3-5.9 1.3h-2.6c-.7 0-1.3 0-1.3 1.3 0 0 .7.7 1.3.7 2.6 0 4 .7 3.3 3.3l-13.2 33.7c-2 3.3-3.3 5.3-5.3 5.3h-.7c-.7 0-.7.7-.7.7 0 .7 0 1.3.7 1.3h12.6c.7 0 .7-.7.7-1.3 0 0 0-.7-.7-.7h-.7c-3.3 0-4-1.3-4-4l6.6-16.5h12.6l5.9 16.5c.7.7.7 1.3.7 2 0 1.3-1.3 2-4 2-.7 0-1.3.7-1.3.7 0 .7.6 1.3 1.3 1.3h25.8c.7 0 .7-.7.7-1.3 0 0 0-.7-.7-.7h-.7c-2.6 0-4-1.3-4-4v-16.5h4.6l15.2 22.5h18.5c.7 0 .7-.7.7-1.3 0 0 0-.7-.7-.7h-2c-2.6 0-4-1.3-4-4v-31.7l31.7 39v-41.6c0-2.6 1.3-4 4-4h2c2.6 0 4.6 1.3 4.6 4v34.4c0 2.6-2 4-4.6 4-.7 0-1.3.7-1.3.7 0 .7.6 1.3 1.3 1.3h33c3.4-8.2 4.8-12.8 4.8-12.8zm-154-4c0-4.6-2-8.6-6.6-11.9-2.6-2-6-3.3-9.3-3.3 3.3 0 6-.7 8.6-2.6 3.3-2 5.3-5.3 5.3-9.2 0-8.6-7.3-12.6-21.1-12.6h-18.5c-.7 0-.7 0-.7.7s0 .7.7.7h1.3c2.6 0 4.6 1.3 4.6 4.6v44.3c0 2.6-2 4-4.6 4h-1.3c-.7 0-.7.7-.7.7 0 .7 0 1.3.7 1.3h19.8c6.6 0 11.9-1.3 15.9-4.6 4-2.9 5.9-6.8 5.9-12.1zm-49.5-28.4c0-1.3 0-1.3-1.3-1.3h-15.2c-.7 0-1.3 0-1.3 1.3 0 0 .7.7 1.3.7h.7c2.6 0 4 1.3 4 4v15.2h-19.8v-15.2c0-2.6 1.3-4 4-4 .7 0 1.3-.7 1.3-.7 0-1.3-.7-1.3-1.3-1.3h-15.8s-.7 0-.7 1.3l.7.7h.7c2.6 0 4 1.3 4 4v34.4c0 2.6-1.3 4-4 4h-.7l-.7.7c0 .7.7 1.3.7 1.3h15.8c.7 0 1.3-.6 1.3-1.3 0 0-.7-.7-1.3-.7h-.7c-2.6 0-3.3-1.3-3.3-4v-16.5h19.8v16.5c0 2.6-1.3 4-4 4h-.7c-.7 0-1.3.7-1.3.7 0 .7.6 1.3 1.3 1.3h15.2c1.3 0 1.3-.7 1.3-1.3 0 0 0-.7-1.3-.7-2.6 0-4-1.3-4-4v-34.4c0-2.6 1.3-4 4-4 1.3-.1 1.3-.7 1.3-.7zm-44.9 9.9-2-12.6c-1.9.9-3.9 1.3-6 1.3h-20.5c-2.1 0-4.1-.4-6-1.3l-2 12.6s.7.7 1.3.7c.7 0 .7 0 .7-.7.7-5.3 4-8.6 9.3-8.6h3.3v37.7c0 2.6-1.3 4-4 4-.7 0-1.3.7-1.3.7 0 .7.7 1.3 1.3 1.3h15.9s.7-.7.7-1.3l-.7-.7h-.6c-2.6 0-4-1.3-4-4v-37.7h3.3c5.3 0 8.6 3.3 9.3 8.6 0 .7 0 .7.7.7.6 0 1.3-.7 1.3-.7zm-36.4-9.9c0-1.3 0-1.3-.7-1.3h-15.8c-.7 0-.7 0-.7 1.3 0 0 0 .7.7.7h.7c2.6 0 4 1.3 4 4v34.4c0 2.6-1.3 4-4 4h-.7c-.7 0-.7.7-.7.7 0 .7 0 1.3.7 1.3h15.8c.7 0 .7-.7.7-1.3 0 0 0-.7-.7-.7h-.7c-2.6 0-4-1.3-4-4v-34.4c0-2.6 1.3-4 4-4h.7c.7-.1.7-.7.7-.7zm-21.1 43.6s0-.7-.7-.7c-2.6 0-4.6-1.3-4.6-4v-34.4c0-2.6 2-4 4.6-4 .7 0 1.3-.7 1.3-.7 0-1.3-.7-1.3-1.3-1.3h-3.3c-2.6 0-4.6-.7-6.6-1.3l-15.2 37-16.5-37c-1.3.7-3.3 1.3-5.9 1.3h-4c-.7 0-.7 0-.7 1.3 0 0 0 .7.7.7 2 0 2.6.7 4 1.3.7 1.3 1.3 2.6 1.3 4v33c0 2.6-2 4-5.3 4-.7 0-.7.7-.7.7 0 .7 0 1.3.7 1.3h13.2c.7 0 1.3-.7 1.3-1.3 0 0-.7-.7-1.3-.7h-1.3c-2.6 0-4.6-1.3-4.6-4v-30.4l16.5 37.7 16.5-38.3v31c0 2.6-1.3 4-4 4-.7 0-1.3.7-1.3.7 0 .7.7 1.3 1.3 1.3h15.2c.7 0 1.3-.6 1.3-1.3zm-389.1 16.5h731.3v-3.3h-731.3zm335.6-30.4c0-6.6-3.3-11.9-9.2-14.5l-10.6-4.6c-5.9-2.6-9.2-5.9-9.2-10.6 0-5.9 3.3-8.6 9.9-8.6 3.3 0 5.9 1.3 9.2 4 2.6 2.6 4.6 5.9 5.9 10.6.7 0 .7.7 1.3.7.7 0 1.3-.6 1.3-1.3l-3.3-16.5c0-.7-.7-1.3-.7-1.3-.7 0-1.3.7-2 2 0 1.3-.7 2-2 2-.7 0-2.6-.7-4.6-2-2-.7-4-.7-5.9-.7-4.6 0-8.6 1.3-11.2 4-3.3 2.6-4.6 5.9-4.6 9.9 0 5.9 4 10.6 11.9 13.9l9.9 4.6c4.6 2 7.3 5.3 7.3 10.6 0 6.6-4 10.6-10.6 10.6-7.9 0-13.9-5.3-17.2-16.5 0-.7-.7-.7-1.3-.7-.7 0-1.3 0-.7.7l3.3 18.5c0 .7 0 1.3.7 1.3s1.3-.7 1.3-1.3c0-1.3.7-2 2-2 .7 0 2.6.7 4.6 1.3 2.6 1.3 4.6 1.3 7.3 1.3 4.6 0 8.6-1.3 11.9-4.6 3.3-2.9 5.3-6.8 5.3-10.8zm-43.6-29.7c0-1.3-.7-1.3-.7-1.3h-13.9c-.7 0-.7 0-.7 1.3 0 0 0 .7.7.7h1.3c2.6 0 4.6 1.3 4.6 4v27.1l-28.3-34.5c-1.3.7-3.3 1.3-5.9 1.3h-3.3c-1.3 0-1.3 0-1.3 1.3 0 0 0 .7 1.3.7s2.6.7 4 1.3c1.3.7 2 2 2 2.6v34.4c0 2.6-1.3 4-4.6 4h-.7l-.7.7c0 .7.6 1.3 1.3 1.3h13.2c.7 0 .7-.7.7-1.3 0 0 0-.7-.7-.7h-2c-2.6 0-4-1.3-4-4v-31.7l31.7 39v-41.6c0-2.6 1.3-4 4.6-4h.7zm-43.6 21.8c0-6.6-2-11.9-5.9-17.2-4-4.6-8.6-7.3-14.5-7.3s-10.6 2.6-15.2 7.3c-3.3 5.3-5.9 10.6-5.9 17.2s2.6 12.6 5.9 17.2c4.6 4.6 9.2 7.3 15.2 7.3 5.9 0 10.6-2.6 14.5-7.3s5.9-10.6 5.9-17.2zm-39.7 21.8s-.7-.7-1.3-.7h-.7c-2.6 0-3.3-1.3-3.3-4v-34.4c0-2.6 1.3-4 4-4 .7 0 1.3-.7 1.3-.7 0-1.3-.7-1.3-1.3-1.3h-3.3c-2.1 0-4.1-.4-5.9-1.3l-15.9 37-16.5-37c-1.3.7-3.3 1.3-5.9 1.3h-4c-.7 0-1.3 0-1.3 1.3 0 0 .7.7 1.3.7h.7c.7 0 2 .7 3.3 1.3.7 1.3 1.3 2.6 1.3 4v33c0 2.6-2 4-4.6 4h-.7c-.7 0-1.3.7-1.3.7 0 .7.7 1.3 1.3 1.3h13.2c.7 0 1.3-.7 1.3-1.3 0 0-.7-.7-1.3-.7h-2c-2.6 0-3.3-1.3-3.3-4v-30.4l15.9 37.7 16.5-38.3v31c0 2.6-1.3 4-4 4h-.7l-.7.7c0 .7.7 1.3.7 1.3h15.9c.7.1 1.3-.5 1.3-1.2zm-52.1-21.8c0-6.6-2-11.9-5.9-17.2-4-4.6-8.6-7.3-14.5-7.3s-11.2 2.6-14.5 7.3c-4.6 5.3-6.6 10.6-6.6 17.2s2.6 12.6 6.6 17.2 8.6 7.3 14.5 7.3 10.6-2.6 14.5-7.3 5.9-10.6 5.9-17.2zm-41.7 10.6c0-.7 0-.7-.7-.7 0 0-.7 0-.7.7-3.3 5.9-8.6 9.2-15.2 9.2h-5.3c-3.3 0-4.6-.7-4.6-2.6v-34.4c0-2.6 1.3-4 4-4h.7l.7-.7c0-1.3-.7-1.3-.7-1.3h-15.9c-.7 0-.7 0-.7 1.3 0 0 0 .7.7.7h.7c2.6 0 4 1.3 4 4v34.4c0 2.6-1.3 4-4 4-.7 0-2-.7-2.6-2l-16.5-43.6c-1.3.7-3.3 1.3-5.9 1.3h-2.6c-.7 0-1.3 0-1.3 1.3 0 0 .7.7 1.3.7h.7c2.6 0 3.3.7 2.6 3.3l-13.2 33.7c-1.3 3.3-3.3 5.3-5.3 5.3-.7 0-1.3.7-1.3.7 0 .7.7 1.3 1.3 1.3h11.9c.7 0 1.3-.6 1.3-1.3 0 0-.7-.7-1.3-.7h-.7c-2.6 0-4-1.3-3.3-4l5.9-16.5h12.6l5.9 16.5c.7.7.7 1.3.7 2 0 1.3-1.3 2-4 2-.7 0-.7.7-.7.7 0 .7 0 1.3.7 1.3h46.3c3.2-8 4.5-12.6 4.5-12.6zm-78.6-2.7c0-6.6-3.3-11.9-9.2-14.5l-10.6-4.6c-5.9-2.6-9.2-5.9-9.2-10.6 0-5.9 3.3-8.6 9.9-8.6 3.3 0 5.9 1.3 9.2 4 2.6 2.6 4.6 5.9 5.9 10.6 0 0 .7.7 1.3.7.7 0 1.3-.7 1.3-1.3l-3.3-16.5c0-.7 0-1.3-1.3-1.3 0 0-.7.7-.7 2-.7 1.3-1.3 2-2.6 2-.7 0-2.6-.7-4.6-2-2-.7-4-.7-5.9-.7-4.6 0-8.6 1.3-11.2 4-3.3 2.6-4.6 5.9-4.6 9.9 0 5.9 4 10.6 11.2 13.9l10.6 4.6c4.6 2 7.3 5.3 7.3 10.6 0 6.6-4 10.6-10.6 10.6-7.9 0-13.9-5.3-17.2-16.5-.7-.7-.7-.7-1.3-.7s-1.3 0-.7.7l3.3 18.5c0 .7 0 1.3.7 1.3s1.3-.7 1.3-1.3c0-1.3.7-2 2-2 .7 0 2.6.7 4.6 1.3 2.6 1.3 4.6 1.3 7.3 1.3 4.6 0 8.6-1.3 11.9-4.6 3.2-2.9 5.2-6.8 5.2-10.8zm525.9-9.9h-10.6l5.3-13.9zm-31.1-18.5c0 7.3-4.6 11.2-13.2 11.2h-5.3v-17.8c0-1.3 0-2.6.7-2.6 0-.7 1.3-.7 3.3-.7h1.3c8.6 0 13.2 3.3 13.2 9.9zm1.4 28.4c0 4-1.3 7.3-4 9.2-2.6 2-5.9 2.6-9.2 2.6h-3.3c-1.3 0-2.6 0-2.6-.7-.7 0-.7-1.3-.7-2.6v-23h4.6c10.5 0 15.2 4.6 15.2 14.5zm-293.4-7.9c0 7.9-.7 13.2-2.6 16.5-1.3 4-4.6 5.3-8.6 5.3-4.6 0-7.3-2-8.6-5.3-2-3.3-2.6-8.6-2.6-16.5s.7-13.2 2.6-17.2c1.3-3.3 4-4.6 8.6-4.6 4 0 7.3 1.3 8.6 4.6 2 4 2.6 9.3 2.6 17.2zm-91.8 0c0 7.9-.7 13.2-2 16.5-2 4-5.3 5.3-9.2 5.3s-7.3-2-8.6-5.3c-2-3.3-2.6-8.6-2.6-16.5s.7-13.2 2.6-17.2c1.3-3.3 4.6-4.6 8.6-4.6s7.3 1.3 8.6 4.6c1.9 4 2.6 9.3 2.6 17.2zm-87.2-2h-9.9l4.6-13.9z" fill="#1467a3" fill-rule="evenodd"/><path clip-rule="evenodd" d="m500.8 251.2h-3.3l-2-5.9h-9.9l-2 5.9h-2.6l8.6-23.8h2.6zm-5.9-8.6-2.6-7.9c-.7-2-1.3-4-1.3-4.6 0 .7-.7 2.6-1.3 4.6l-2.6 7.9zm33 8.6h2.6v-11.2c0-4.6-2-7.3-5.9-7.3-2.6 0-4 1.3-5.3 3.3-1.3-2-2.6-3.3-5.3-3.3-2 0-3.3 1.3-4.6 2.6v-2h-2.6v17.8h2.6v-10.6c0-4 1.3-5.9 4-5.9 2.6 0 4 2 4 5.9v10.6h2.6v-10.6c0-4 1.3-5.9 4-5.9 2.6 0 4 2 4 5.9zm18.5-10.6c-.7-4-2-5.9-5.3-5.9-2.6 0-4 2.6-4.6 5.9zm2 1.3v1.3h-11.9c0 4 2 6 5.3 6 1.3 0 2.6 0 4.6-1.3l1.3 2c-2 .7-4.6 2-6.6 2-4.6 0-7.3-3.3-7.3-9.9 0-6 2.6-9.3 7.9-9.3 4.7 0 6.7 3.3 6.7 9.2zm25.1 9.3h2v-11.2c0-4.6-2-7.3-5.9-7.3-2.6 0-4 1.3-5.3 3.3-1.3-2-2.6-3.3-5.3-3.3-2 0-3.3 1.3-4.6 2.6v-2h-2.6v17.8h3.3v-10.6c0-4 .7-5.9 3.3-5.9s4.6 2 4.6 5.9v10.6h2.6v-10.6c0-4 .7-5.9 3.3-5.9s4.6 2 4.6 5.9zm18.5-9.3c0-4.6-2-7.3-4.6-7.3-2 0-3.3 1.3-5.3 2.6v9.2c1.3 2 3.3 2.6 5.3 2.6 2.6.2 4.6-1.8 4.6-7.1zm2.6 0c0 6.6-2.6 9.9-7.3 9.9-2 0-3.3-1.3-5.3-2.6v2h-2.6v-23.2l2.6-2v9.2c2-1.3 4-2.6 5.9-2.6 4.1.1 6.7 3.4 6.7 9.3zm14.6-1.3c-.7-4-2-5.9-5.3-5.9-2.6 0-4 2.6-4.6 5.9zm1.9 1.3v1.3h-11.9c.7 4 2 6 5.3 6 1.3 0 3.3 0 4.6-1.3l1.3 2c-2 .7-4.6 2-6.6 2-4.6 0-7.3-3.3-7.3-9.9 0-6 2.6-9.3 7.3-9.3 5.4 0 7.3 3.3 7.3 9.2zm12.6-5.9.7-2.6s-1.3-.7-2.6-.7c-2 0-3.3 1.3-4.6 2.6v-2h-2.6v17.8h2.6v-10.6c0-3.3 1.3-5.3 4-5.3 1.2.1 1.8.1 2.5.8zm19.2 6.6c0-5.3-2-7.9-5.3-7.9-4 0-5.3 2.6-5.3 7.9 0 4.6 2 6.6 5.3 6.6s5.3-2 5.3-7.3zm2.6-.7c0 6.6-2.6 9.9-7.9 9.9s-7.9-3.3-7.9-9.9c0-6 2.6-9.3 7.9-9.3 5.3.1 7.9 3.4 7.9 9.3zm8.6-13.2c.7 0 1.3 0 2 .7v-2.6h-2.6c-2.6 0-4 1.3-4 4v2.6h-2.6v2h2.6v15.9h2.6v-15.9h3.3v-2h-3.3v-2.6c0-1.4.7-2.1 2-2.1zm23.8 17.2 2 2.6c-1.3 2-3.3 3.3-6.6 3.3-2.6 0-4.6-1.3-6.6-2.6-2-2-2.6-4-2.6-7.3 0-2.6.7-4.6 2.6-6.6 2-1.3 4-2.6 7.3-2.6 2.6 0 4.6 1.3 5.9 3.3l-2 2.6c-1.3-1.3-2.6-2-4.6-2-3.3 0-5.3 1.3-5.3 6 0 3.3 2 5.3 6 5.3 1.2 0 2.6-.7 3.9-2zm3.9-12.6h4v17.8h-4zm17.9 13.9h.7l-1.3 3.3c0 .7-1.3 1.3-3.3 1.3-2.6 0-4-2-4-4.6v-10.6h-3.3v-3.3h3.3v-4l3.3-2v5.9h4v3.3h-4v9.9c0 1.3.7 1.3 2 1.3.6.2 1.9.2 2.6-.5zm2.6-13.9h4v17.8h-4zm96.5-15.8v2c9.9.7 15.9 4.6 17.8 11.9-3.3-1.3-5.3-2-6.6-2-3.3 0-4.6.7-5.9 1.3-2.6-1.3-4.6-2-6-2-2.6 0-4.6.7-5.9 2-2.6-.7-4.6-1.3-5.9-1.3-2.6 0-4.6.7-6.6 2 1.3-5.3 4.6-8.6 10.6-10.6 2-.7 4.6-1.3 7.3-1.3l.7-2zm-2.7 34.3c-2.6 0-4-1.3-4-4 0-.7.7-.7 1.3-.7.7 0 .7 0 .7.7 0 1.3.7 2 2 2 .7 0 1.3-.7 1.3-2v-17.2c.7-.7 1.3-.7 2 0v17.2c0 2.7-1.3 4-3.3 4zm-75.3-5.9v-7.3c-1.3-2-2.6-2.6-4.6-2.6-2.6 0-4 2-4 6 0 4.6 2 6.6 4.6 6.6 1.4-.1 2.7-.7 4-2.7zm3.3 3.9c0 5.3-2.6 7.9-8.6 7.9l-1.3-2.6c4.6 0 6.6-2 6.6-5.3-1.3 1.3-3.3 2-4.6 2-5.3 0-7.3-3.3-7.3-9.9 0-6 2-9.3 7.3-9.3 2 0 3.3.7 4.6 2v-1.3h3.3zm13.2-12.5 1.3-4c-.7 0-2-.7-3.3-.7-2 0-3.3.7-4 2v-1.3h-4v17.8h4v-10.6c0-2.6 1.3-4 3.3-4 1.4.1 2.1.1 2.7.8zm13.9 5.3c0-4.6-1.3-6.6-4.6-6.6s-4.6 2-4.6 6c0 4.6 1.3 5.9 4.6 5.9s4.6-1.3 4.6-5.9zm4-.7c0 6.6-3.3 9.9-8.6 9.9-2.6 0-4.6-1.3-6-2.6-2-2-2.6-4-2.6-7.3 0-6 3.3-9.3 8.6-9.3 5.3.1 8.6 3.4 8.6 9.3zm12.5 9.3h4v-17.8h-4v10.6c0 3.3-.7 4.6-3.3 4.6s-4-2-4-5.3v-9.9h-4v10.6c0 5.3 2.6 7.9 7.3 7.9 1.3 0 3.3-.7 4-2zm19.2-8.6c0-4.6-1.3-6.6-4.6-6.6-1.3 0-2.6.7-4 2v7.9c1.3 2 2.6 2.6 4.6 2.6 2.7 0 4-2 4-5.9zm3.3 0c0 5.9-2 9.2-7.3 9.2-2 0-3.3-.7-4.6-2v6l-4 2v-24.4h4v1.3c2-1.3 3.3-2 4.6-2 5.3 0 7.3 3.3 7.3 9.9z" fill-rule="evenodd"/><path d="m16.7 368.1c-6.9 0-12.5-5.6-12.5-12.5v-336.7c0-6.9 5.6-12.5 12.5-12.5h857.6c6.9 0 12.5 5.6 12.5 12.5v336.7c0 6.9-5.6 12.5-12.5 12.5z" fill="url(#a)"/><path d="m874.3 6.9c6.6 0 12 5.4 12 12v336.7c0 6.6-5.4 12-12 12h-857.6c-6.6 0-12-5.4-12-12v-336.7c0-6.6 5.4-12 12-12zm0-1h-857.6c-7.2 0-13 5.8-13 13v336.7c0 7.2 5.8 13 13 13h857.6c7.2 0 13-5.8 13-13v-336.7c0-7.2-5.8-13-13-13z" fill="#fff"/><path d="m543.8 138.9c-15.3-23.1-43.7-39.4-73.9-39.3-29.8 0-58.1 15.8-73.9 39.3h21.1c14.4-14.9 33.1-23 52.8-23 19.3 0 38.3 8.1 52.8 23" fill="#e42528"/><g fill="#fff"><path d="m387.2 217-.4.4c-6.5 6.7-14 10.2-21.8 10.2-16.2 0-27.9-12.2-27.9-29s11.7-29 27.9-29c7.8 0 15.3 3.5 21.8 10.2l.4.4 10.4-12.6-.3-.3c-8.7-10.3-19.1-15.3-31.8-15.3-12.8 0-24.5 4.3-33 12.1-9.2 8.5-14 20.4-14 34.5s4.8 26.1 14 34.5c8.5 7.8 20.2 12.1 33 12.1s23.2-5 31.8-15.3l.3-.3"/><path d="m408.2 243.5h18.4v-90h-18.4z"/><path d="m498.6 224c-4.9 3-9.5 4.5-13.6 4.5-6 0-8.6-3.1-8.6-10.2v-47.8h18.7v-17h-18.7v-28l-18.1 9.7v18.4h-15.6v17h15.6v50.9c0 13.9 8.2 23.3 20.4 23.6 8.3.1 13.3-2.3 16.3-4.1l.2-.1 4.4-17.4"/><path d="m513.8 243.5h18.4v-90h-18.4z"/><path d="m573.6 134.8c0-5.6-4.3-9.9-9.9-9.9s-9.9 4.3-9.9 9.9 4.3 9.9 9.9 9.9c5.6.1 9.9-4.2 9.9-9.9m-1.6 0c0 4.7-3.6 8.3-8.3 8.3s-8.3-3.6-8.3-8.3 3.6-8.3 8.3-8.3 8.3 3.6 8.3 8.3m-3.8-2.3c0-2.3-1.6-3.3-3.6-3.3h-4.8v10.8h1.8v-4.2h2.1l2.1 4.2h2.2l-2.2-4.4c1.5-.3 2.4-1.4 2.4-3.1m-1.8.1c0 1.1-.7 1.5-1.7 1.5h-2.9v-3.1h2.9c.9 0 1.7.5 1.7 1.6"/></g></svg>