<svg fill="none" height="1303" viewBox="0 0 1440 1303" width="1440" xmlns="http://www.w3.org/2000/svg" xmlns:xlink="http://www.w3.org/1999/xlink"><linearGradient id="a" gradientUnits="userSpaceOnUse" x1="720" x2="720" y1="0" y2="1303"><stop offset="0" stop-color="#fff"/><stop offset="1" stop-color="#e9f8ff"/></linearGradient><linearGradient id="b"><stop offset="0" stop-color="#0a98c1"/><stop offset="1" stop-color="#0a98c1" stop-opacity=".5"/></linearGradient><linearGradient id="c" gradientUnits="userSpaceOnUse" x1="332.917" x2="332.917" xlink:href="#b" y1="0" y2="665.833"/><linearGradient id="d" gradientUnits="userSpaceOnUse" x1="273" x2="273" xlink:href="#b" y1="0" y2="546"/><linearGradient id="e" gradientUnits="userSpaceOnUse" x1="201" x2="201" xlink:href="#b" y1="0" y2="402"/><linearGradient id="f" gradientUnits="userSpaceOnUse" x1="95" x2="95" y1="0" y2="190"><stop offset="0" stop-color="#0a98c1"/><stop offset="1" stop-color="#0a98c1" stop-opacity="0"/></linearGradient><linearGradient id="g" gradientUnits="userSpaceOnUse" x1="1476.82" x2="1109.5" y1="1423.52" y2="1543"><stop offset="0" stop-color="#fff"/><stop offset="1" stop-color="#fff" stop-opacity="0"/></linearGradient><linearGradient id="h"><stop offset="0" stop-color="#0a98c1"/><stop offset="1" stop-color="#2db5b3" stop-opacity="0"/></linearGradient><linearGradient id="i" gradientUnits="userSpaceOnUse" x1="31.4561" x2="31.4561" xlink:href="#h" y1="145.19" y2="492.103"/><linearGradient id="j" gradientUnits="userSpaceOnUse" x1="31.4561" x2="31.4561" xlink:href="#h" y1="171.181" y2="466.112"/><linearGradient id="k" gradientUnits="userSpaceOnUse" x1="31.4554" x2="31.4554" xlink:href="#h" y1="196.041" y2="441.252"/><linearGradient id="l" gradientUnits="userSpaceOnUse" x1="168.187" x2="168.187" y1="74" y2="257.626"><stop offset="0" stop-color="#2db5b3"/><stop offset="1" stop-color="#0a98c1"/></linearGradient><linearGradient id="m" gradientUnits="userSpaceOnUse" x1="51" x2="469.5" y1="215" y2="295"><stop offset="0" stop-color="#fff"/><stop offset=".739583" stop-color="#fff" stop-opacity="0"/></linearGradient><mask id="n" height="1303" maskUnits="userSpaceOnUse" width="1440" x="0" y="0"><path d="m0 0h1440v1303h-1440z" fill="url(#a)"/></mask><g mask="url(#n)"><circle fill="url(#c)" opacity=".1" r="332.917" transform="matrix(1 0 0 -1 1439.92 1328.92)"/><circle fill="url(#d)" opacity=".1" r="273" transform="matrix(1 0 0 -1 1439.83 1329)"/><circle fill="url(#e)" opacity=".1" r="201" transform="matrix(1 0 0 -1 1439.83 1329)"/><circle fill="url(#f)" opacity=".1" r="95" transform="matrix(1 0 0 -1 1275 1040)"/><path clip-rule="evenodd" d="m1109.5 1542c117.91 0 213.5-95.59 213.5-213.5s-95.59-213.5-213.5-213.5c-117.913 0-213.5 95.59-213.5 213.5s95.587 213.5 213.5 213.5zm0 1c118.47 0 214.5-96.03 214.5-214.5s-96.03-214.5-214.5-214.5c-118.465 0-214.5 96.03-214.5 214.5s96.035 214.5 214.5 214.5zm96.5-214.5c0 53.3-43.2 96.5-96.5 96.5s-96.5-43.2-96.5-96.5 43.2-96.5 96.5-96.5 96.5 43.2 96.5 96.5zm1 0c0 53.85-43.65 97.5-97.5 97.5s-97.5-43.65-97.5-97.5 43.65-97.5 97.5-97.5 97.5 43.65 97.5 97.5zm-97.5 77c42.53 0 77-34.47 77-77s-34.47-77-77-77-77 34.47-77 77 34.47 77 77 77zm0 1c43.08 0 78-34.92 78-78s-34.92-78-78-78-78 34.92-78 78 34.92 78 78 78zm57.5-78c0 31.76-25.74 57.5-57.5 57.5s-57.5-25.74-57.5-57.5 25.74-57.5 57.5-57.5 57.5 25.74 57.5 57.5zm1 0c0 32.31-26.19 58.5-58.5 58.5s-58.5-26.19-58.5-58.5 26.19-58.5 58.5-58.5 58.5 26.19 58.5 58.5zm-20.5 0c0 20.99-17.01 38-38 38s-38-17.01-38-38 17.01-38 38-38 38 17.01 38 38zm1 0c0 21.54-17.46 39-39 39s-39-17.46-39-39 17.46-39 39-39 39 17.46 39 39zm155 0c0 107.14-86.86 194-194 194s-194-86.86-194-194 86.86-194 194-194 194 86.86 194 194zm1 0c0 107.7-87.3 195-195 195s-195-87.3-195-195 87.3-195 195-195 195 87.3 195 195zm-195 174.5c96.37 0 174.5-78.13 174.5-174.5s-78.13-174.5-174.5-174.5-174.5 78.13-174.5 174.5 78.13 174.5 174.5 174.5zm0 1c96.93 0 175.5-78.57 175.5-175.5s-78.57-175.5-175.5-175.5-175.5 78.57-175.5 175.5 78.57 175.5 175.5 175.5zm155-175.5c0 85.6-69.4 155-155 155s-155-69.4-155-155 69.4-155 155-155 155 69.4 155 155zm1 0c0 86.16-69.84 156-156 156s-156-69.84-156-156 69.84-156 156-156 156 69.84 156 156zm-156 135.5c74.83 0 135.5-60.67 135.5-135.5s-60.67-135.5-135.5-135.5-135.5 60.67-135.5 135.5 60.67 135.5 135.5 135.5zm0 1c75.39 0 136.5-61.11 136.5-136.5s-61.11-136.5-136.5-136.5-136.5 61.11-136.5 136.5 61.11 136.5 136.5 136.5zm116-136.5c0 64.06-51.93 116-116 116s-116-51.94-116-116c0-64.07 51.93-116 116-116s116 51.93 116 116zm1 0c0 64.62-52.38 117-117 117s-117-52.38-117-117 52.38-117 117-117 117 52.38 117 117z" fill="url(#g)" fill-rule="evenodd"/><circle cx="31.4561" cy="318.647" fill="url(#i)" opacity=".1" r="173.456"/><circle cx="31.4561" cy="318.647" fill="url(#j)" opacity=".1" r="147.466"/><circle cx="31.4554" cy="318.647" fill="url(#k)" opacity=".1" r="122.606"/><circle cx="168.187" cy="165.813" fill="url(#l)" opacity=".1" r="91.8131" transform="matrix(-1 0 0 -1 336.374 331.626)"/><path clip-rule="evenodd" d="m251.875 672.25c144.768 0 262.125-117.357 262.125-262.125s-117.357-262.125-262.125-262.125-262.125 117.357-262.125 262.125 117.357 262.125 262.125 262.125zm0 1c145.32 0 263.125-117.805 263.125-263.125s-117.805-263.125-263.125-263.125-263.125 117.805-263.125 263.125 117.805 263.125 263.125 263.125zm118.602-263.125c0 65.502-53.1 118.602-118.602 118.602s-118.602-53.1-118.602-118.602 53.1-118.602 118.602-118.602 118.602 53.1 118.602 118.602zm1 0c0 66.055-53.547 119.602-119.602 119.602-66.054 0-119.602-53.547-119.602-119.602s53.548-119.602 119.602-119.602c66.055 0 119.602 53.547 119.602 119.602zm-119.602 94.682c52.291 0 94.682-42.391 94.682-94.682s-42.391-94.682-94.682-94.682-94.682 42.391-94.682 94.682 42.391 94.682 94.682 94.682zm0 1c52.844 0 95.682-42.838 95.682-95.682s-42.838-95.682-95.682-95.682-95.682 42.838-95.682 95.682 42.838 95.682 95.682 95.682zm70.762-95.682c0 39.08-31.681 70.761-70.762 70.761-39.08 0-70.761-31.681-70.761-70.761s31.681-70.761 70.761-70.761c39.081 0 70.762 31.681 70.762 70.761zm1 0c0 39.633-32.129 71.761-71.762 71.761s-71.761-32.128-71.761-71.761 32.128-71.761 71.761-71.761 71.762 32.128 71.762 71.761zm-24.921 0c0 25.87-20.972 46.841-46.841 46.841-25.87 0-46.841-20.971-46.841-46.841s20.971-46.841 46.841-46.841c25.869 0 46.841 20.971 46.841 46.841zm1 0c0 26.422-21.419 47.841-47.841 47.841s-47.841-21.419-47.841-47.841 21.419-47.841 47.841-47.841 47.841 21.419 47.841 47.841zm190.363 0c0 131.557-106.647 238.205-238.204 238.205s-238.2046-106.648-238.2046-238.205 106.6476-238.205 238.2046-238.205 238.204 106.648 238.204 238.205zm1 0c0 132.109-107.095 239.205-239.204 239.205s-239.2046-107.096-239.2046-239.205 107.0956-239.205 239.2046-239.205 239.204 107.096 239.204 239.205zm-239.204 214.284c118.346 0 214.284-95.938 214.284-214.284s-95.938-214.284-214.284-214.284-214.2839 95.938-214.2839 214.284 95.9379 214.284 214.2839 214.284zm0 1c118.898 0 215.284-96.386 215.284-215.284s-96.386-215.284-215.284-215.284-215.2839 96.386-215.2839 215.284 96.3859 215.284 215.2839 215.284zm190.363-215.284c0 105.135-85.228 190.364-190.363 190.364s-190.3638-85.229-190.3638-190.364 85.2288-190.364 190.3638-190.364 190.363 85.229 190.363 190.364zm1 0c0 105.687-85.676 191.364-191.363 191.364s-191.3638-85.677-191.3638-191.364 85.6768-191.364 191.3638-191.364 191.363 85.677 191.363 191.364zm-191.363 166.443c91.924 0 166.443-74.519 166.443-166.443s-74.519-166.443-166.443-166.443-166.4431 74.519-166.4431 166.443 74.5191 166.443 166.4431 166.443zm0 1c92.476 0 167.443-74.967 167.443-167.443s-74.967-167.443-167.443-167.443-167.4431 74.967-167.4431 167.443 74.9671 167.443 167.4431 167.443zm142.523-167.443c0 78.713-63.81 142.523-142.523 142.523s-142.523-63.81-142.523-142.523 63.81-142.523 142.523-142.523 142.523 63.81 142.523 142.523zm1 0c0 79.265-64.258 143.523-143.523 143.523-79.266 0-143.523-64.258-143.523-143.523s64.257-143.523 143.523-143.523c79.265 0 143.523 64.258 143.523 143.523z" fill="url(#m)" fill-rule="evenodd"/></g></svg>