<svg fill="none" height="2659" viewBox="0 0 375 2659" width="375" xmlns="http://www.w3.org/2000/svg" xmlns:xlink="http://www.w3.org/1999/xlink"><linearGradient id="a" gradientUnits="userSpaceOnUse" x1="187.5" x2="187.5" y1="0" y2="2659"><stop offset="0" stop-color="#fff"/><stop offset="1" stop-color="#d9f4ff"/></linearGradient><linearGradient id="b"><stop offset="0" stop-color="#0a98c1"/><stop offset="1" stop-color="#2db5b3" stop-opacity="0"/></linearGradient><linearGradient id="c" gradientUnits="userSpaceOnUse" x1="-1.27255" x2="-1.27255" xlink:href="#b" y1="89.5558" y2="409.011"/><linearGradient id="d" gradientUnits="userSpaceOnUse" x1="-1.27208" x2="-1.27208" xlink:href="#b" y1="113.489" y2="385.078"/><linearGradient id="e" gradientUnits="userSpaceOnUse" x1="-1.27203" x2="-1.27203" xlink:href="#b" y1="136.381" y2="362.185"/><linearGradient id="f" gradientUnits="userSpaceOnUse" x1="124.637" x2="124.637" y1="23.9999" y2="193.093"><stop offset="0" stop-color="#2db5b3"/><stop offset="1" stop-color="#0a98c1"/></linearGradient><linearGradient id="g" gradientUnits="userSpaceOnUse" x1="16.7254" x2="402.102" y1="153.84" y2="227.508"><stop offset="0" stop-color="#fff"/><stop offset=".739583" stop-color="#fff" stop-opacity="0"/></linearGradient><linearGradient id="h"><stop offset="0" stop-color="#0a98c1"/><stop offset="1" stop-color="#0a98c1" stop-opacity=".5"/></linearGradient><linearGradient id="i" gradientUnits="userSpaceOnUse" x1="178.979" x2="178.979" xlink:href="#h" y1="0" y2="357.958"/><linearGradient id="j" gradientUnits="userSpaceOnUse" x1="146.767" x2="146.767" xlink:href="#h" y1="0" y2="293.535"/><linearGradient id="k" gradientUnits="userSpaceOnUse" x1="108.059" x2="108.059" xlink:href="#h" y1="0" y2="216.119"/><linearGradient id="l" gradientUnits="userSpaceOnUse" x1="51.0729" x2="51.0729" y1="0" y2="102.146"><stop offset="0" stop-color="#0a98c1"/><stop offset="1" stop-color="#0a98c1" stop-opacity="0"/></linearGradient><linearGradient id="m" gradientUnits="userSpaceOnUse" x1="329.79" x2="132.317" y1="2698.26" y2="2762.49"><stop offset="0" stop-color="#fff"/><stop offset="1" stop-color="#fff" stop-opacity="0"/></linearGradient><mask id="n" height="2659" maskUnits="userSpaceOnUse" width="375" x="0" y="0"><path d="m0 0h375v2659h-375z" fill="url(#a)"/></mask><g mask="url(#n)"><circle cx="-1.27255" cy="249.283" fill="url(#c)" opacity=".1" r="159.727"/><circle cx="-1.27208" cy="249.283" fill="url(#d)" opacity=".1" r="135.794"/><circle cx="-1.27203" cy="249.283" fill="url(#e)" opacity=".1" r="112.902"/><circle cx="124.637" cy="108.546" fill="url(#f)" opacity=".1" r="84.5463" transform="matrix(-1 0 0 -1 249.274 217.092)"/><path clip-rule="evenodd" d="m201.702 574.821c133.266 0 241.299-108.034 241.299-241.3 0-133.265-108.033-241.2988-241.299-241.2988-133.2663 0-241.2997 108.0338-241.2997 241.2988 0 133.266 108.0334 241.3 241.2997 241.3zm0 1c133.818 0 242.299-108.481 242.299-242.3 0-133.818-108.481-242.2988-242.299-242.2988-133.8186 0-242.2997 108.4808-242.2997 242.2988 0 133.819 108.4811 242.3 242.2997 242.3zm109.136-242.3c0 60.275-48.862 109.136-109.136 109.136s-109.1362-48.861-109.1362-109.136c0-60.274 48.8622-109.136 109.1362-109.136s109.136 48.862 109.136 109.136zm1 0c0 60.827-49.31 110.136-110.136 110.136-60.827 0-110.1362-49.309-110.1362-110.136 0-60.826 49.3092-110.136 110.1362-110.136 60.826 0 110.136 49.31 110.136 110.136zm-110.136 87.109c48.109 0 87.109-39 87.109-87.109 0-48.108-39-87.108-87.109-87.108s-87.109 39-87.109 87.108c0 48.109 39 87.109 87.109 87.109zm0 1c48.661 0 88.109-39.447 88.109-88.109 0-48.661-39.448-88.108-88.109-88.108s-88.109 39.447-88.109 88.108c0 48.662 39.448 88.109 88.109 88.109zm65.081-88.109c0 35.944-29.138 65.082-65.081 65.082-35.944 0-65.082-29.138-65.082-65.082 0-35.943 29.138-65.081 65.082-65.081 35.943 0 65.081 29.138 65.081 65.081zm1 0c0 36.496-29.585 66.082-66.081 66.082s-66.082-29.586-66.082-66.082c0-36.495 29.586-66.081 66.082-66.081s66.081 29.586 66.081 66.081zm-23.027 0c0 23.779-19.276 43.055-43.054 43.055-23.779 0-43.055-19.276-43.055-43.055 0-23.778 19.276-43.054 43.055-43.054 23.778 0 43.054 19.276 43.054 43.054zm1 0c0 24.331-19.724 44.055-44.054 44.055-24.331 0-44.055-19.724-44.055-44.055 0-24.33 19.724-44.054 44.055-44.054 24.33 0 44.054 19.724 44.054 44.054zm175.218 0c0 121.101-98.172 219.272-219.272 219.272-121.101 0-219.2725-98.171-219.2725-219.272 0-121.1 98.1715-219.272 219.2725-219.272 121.1 0 219.272 98.172 219.272 219.272zm1 0c0 121.653-98.62 220.272-220.272 220.272-121.6533 0-220.2725-98.619-220.2725-220.272s98.6192-220.272 220.2725-220.272c121.652 0 220.272 98.619 220.272 220.272zm-220.272 197.245c108.935 0 197.244-88.309 197.244-197.245 0-108.935-88.309-197.244-197.244-197.244-108.9358 0-197.24532 88.309-197.24532 197.244 0 108.936 88.30952 197.245 197.24532 197.245zm0 1c109.487 0 198.244-88.757 198.244-198.245 0-109.487-88.757-198.244-198.244-198.244-109.4881 0-198.24532 88.757-198.24532 198.244 0 109.488 88.75722 198.245 198.24532 198.245zm175.217-198.245c0 96.77-78.447 175.218-175.218 175.218-96.77 0-175.2172-78.448-175.2172-175.218s78.4472-175.217 175.2172-175.217c96.771 0 175.218 78.447 175.218 175.217zm1 0c0 97.323-78.895 176.218-176.218 176.218-97.322 0-176.2172-78.895-176.2172-176.218 0-97.322 78.8952-176.217 176.2172-176.217 97.323 0 176.218 78.895 176.218 176.217zm-176.218 153.191c84.605 0 153.191-68.586 153.191-153.19 0-84.605-68.586-153.191-153.191-153.191-84.604 0-153.19 68.586-153.19 153.191 0 84.604 68.586 153.19 153.19 153.19zm0 1c85.158 0 154.191-69.033 154.191-154.19 0-85.158-69.033-154.191-154.191-154.191-85.157 0-154.19 69.033-154.19 154.191 0 85.157 69.033 154.19 154.19 154.19zm131.164-154.191c0 72.44-58.724 131.164-131.164 131.164-72.439 0-131.1628-58.724-131.1628-131.164 0-72.439 58.7238-131.163 131.1628-131.163 72.44 0 131.164 58.724 131.164 131.163zm1 0c0 72.992-59.172 132.164-132.164 132.164-72.991 0-132.1628-59.172-132.1628-132.164 0-72.991 59.1718-132.163 132.1628-132.163 72.992 0 132.164 59.172 132.164 132.163z" fill="url(#g)" fill-rule="evenodd"/><circle fill="url(#i)" opacity=".1" r="178.979" transform="matrix(1 0 0 -1 309.952 2647.4)"/><circle fill="url(#j)" opacity=".1" r="146.767" transform="matrix(1 0 0 -1 309.908 2647.44)"/><circle fill="url(#k)" opacity=".1" r="108.059" transform="matrix(1 0 0 -1 309.907 2647.44)"/><circle fill="url(#l)" opacity=".1" r="51.0729" transform="matrix(1 0 0 -1 221.292 2492.07)"/><path clip-rule="evenodd" d="m132.317 2761.49c63.136 0 114.317-51.18 114.317-114.32 0-63.13-51.181-114.31-114.317-114.31-63.1355 0-114.317 51.18-114.317 114.31 0 63.14 51.1815 114.32 114.317 114.32zm0 1c63.688 0 115.317-51.63 115.317-115.32 0-63.68-51.629-115.31-115.317-115.31-63.6877 0-115.317 51.63-115.317 115.31 0 63.69 51.6293 115.32 115.317 115.32zm51.417-115.32c0 28.4-23.02 51.42-51.417 51.42s-51.4167-23.02-51.4167-51.42c0-28.39 23.0197-51.41 51.4167-51.41s51.417 23.02 51.417 51.41zm1 0c0 28.95-23.468 52.42-52.417 52.42s-52.4167-23.47-52.4167-52.42 23.4677-52.41 52.4167-52.41 52.417 23.46 52.417 52.41zm-52.417 40.94c22.607 0 40.933-18.33 40.933-40.94 0-22.6-18.326-40.93-40.933-40.93s-40.9336 18.33-40.9336 40.93c0 22.61 18.3266 40.94 40.9336 40.94zm0 1c23.159 0 41.933-18.78 41.933-41.94s-18.774-41.93-41.933-41.93-41.9336 18.77-41.9336 41.93 18.7746 41.94 41.9336 41.94zm30.45-41.94c0 16.82-13.633 30.45-30.45 30.45s-30.45-13.63-30.45-30.45c0-16.81 13.633-30.45 30.45-30.45s30.45 13.64 30.45 30.45zm1 0c0 17.37-14.081 31.45-31.45 31.45-17.37 0-31.45-14.08-31.45-31.45s14.08-31.45 31.45-31.45c17.369 0 31.45 14.08 31.45 31.45zm-11.483 0c0 11.03-8.939 19.97-19.967 19.97-11.027 0-19.967-8.94-19.967-19.97 0-11.02 8.94-19.96 19.967-19.96 11.028 0 19.967 8.94 19.967 19.96zm1 0c0 11.58-9.387 20.97-20.967 20.97-11.579 0-20.967-9.39-20.967-20.97s9.388-20.96 20.967-20.96c11.58 0 20.967 9.38 20.967 20.96zm82.867 0c0 57.35-46.488 103.84-103.834 103.84-57.3459 0-103.8338-46.49-103.8338-103.84 0-57.34 46.4879-103.83 103.8338-103.83 57.346 0 103.834 46.49 103.834 103.83zm1 0c0 57.9-46.936 104.84-104.834 104.84-57.8981 0-104.8338-46.94-104.8338-104.84 0-57.89 46.9357-104.83 104.8338-104.83 57.898 0 104.834 46.94 104.834 104.83zm-104.834 93.35c51.556 0 93.35-41.79 93.35-93.35 0-51.55-41.794-93.35-93.35-93.35-51.5563 0-93.3507 41.8-93.3507 93.35 0 51.56 41.7944 93.35 93.3507 93.35zm0 1c52.108 0 94.35-42.24 94.35-94.35s-42.242-94.35-94.35-94.35c-52.1085 0-94.3507 42.24-94.3507 94.35s42.2422 94.35 94.3507 94.35zm82.867-94.35c0 45.77-37.101 82.87-82.867 82.87s-82.8669-37.1-82.8669-82.87c0-45.76 37.1009-82.86 82.8669-82.86s82.867 37.1 82.867 82.86zm1 0c0 46.32-37.548 83.87-83.867 83.87-46.3183 0-83.8669-37.55-83.8669-83.87s37.5486-83.86 83.8669-83.86c46.319 0 83.867 37.54 83.867 83.86zm-83.867 72.39c39.976 0 72.384-32.41 72.384-72.39 0-39.97-32.408-72.38-72.384-72.38-39.9764 0-72.3837 32.41-72.3837 72.38 0 39.98 32.4073 72.39 72.3837 72.39zm0 1c40.529 0 73.384-32.86 73.384-73.39s-32.855-73.38-73.384-73.38c-40.5287 0-73.3837 32.85-73.3837 73.38s32.855 73.39 73.3837 73.39zm61.9-73.39c0 34.19-27.714 61.9-61.9 61.9-34.1868 0-61.9005-27.71-61.9005-61.9 0-34.18 27.7137-61.9 61.9005-61.9 34.186 0 61.9 27.72 61.9 61.9zm1 0c0 34.74-28.161 62.9-62.9 62.9-34.7391 0-62.9005-28.16-62.9005-62.9s28.1614-62.9 62.9005-62.9c34.739 0 62.9 28.16 62.9 62.9z" fill="url(#m)" fill-rule="evenodd"/></g></svg>