<svg fill="none" height="1903" viewBox="0 0 1440 1903" width="1440" xmlns="http://www.w3.org/2000/svg" xmlns:xlink="http://www.w3.org/1999/xlink"><linearGradient id="a" gradientUnits="userSpaceOnUse" x1="720" x2="720" y1="0" y2="1903"><stop offset="0" stop-color="#e9f8ff"/><stop offset=".442708" stop-color="#fff"/><stop offset="1" stop-color="#e9f8ff"/></linearGradient><linearGradient id="b"><stop offset="0" stop-color="#0a98c1"/><stop offset="1" stop-color="#2db5b3" stop-opacity="0"/></linearGradient><linearGradient id="c" gradientUnits="userSpaceOnUse" x1="1400.92" x2="1400.92" xlink:href="#b" y1="1127.31" y2="1569.15"/><linearGradient id="d"><stop offset="0" stop-color="#2db5b3"/><stop offset="1" stop-color="#0a98c1" stop-opacity="0"/></linearGradient><linearGradient id="e" gradientUnits="userSpaceOnUse" x1="1496.36" x2="1496.36" xlink:href="#d" y1="1095.49" y2="1392.41"/><linearGradient id="f" gradientUnits="userSpaceOnUse" x1="1496.29" x2="1496.29" xlink:href="#d" y1="1125.1" y2="1362.94"/><linearGradient id="g" gradientUnits="userSpaceOnUse" x1="1241.86" x2="1241.86" y1="1410.35" y2="1534.07"><stop offset="0" stop-color="#2db5b3"/><stop offset="1" stop-color="#0a98c1"/></linearGradient><linearGradient id="h" gradientUnits="userSpaceOnUse" x1="1445.05" x2="1445.05" xlink:href="#b" y1="110.771" y2="580.871"/><linearGradient id="i" gradientUnits="userSpaceOnUse" x1="1445.05" x2="1445.05" xlink:href="#b" y1="159.661" y2="531.98"/><linearGradient id="j" gradientUnits="userSpaceOnUse" x1="1445.05" x2="1445.05" xlink:href="#b" y1="214.193" y2="477.449"/><linearGradient id="k" gradientUnits="userSpaceOnUse" x1="1445.05" x2="1445.05" xlink:href="#b" y1="258.012" y2="433.792"/><linearGradient id="l" gradientUnits="userSpaceOnUse" x1="66.2499" x2="66.2499" y1="664.5" y2="1052"><stop offset="0" stop-color="#0a98c1"/><stop offset="1" stop-color="#2db5b3" stop-opacity=".16"/></linearGradient><mask id="m" height="1903" maskUnits="userSpaceOnUse" width="1440" x="0" y="0"><path d="m0 0h1440v1903h-1440z" fill="url(#a)"/></mask><g mask="url(#m)"><circle cx="1400.92" cy="1348.23" fill="url(#c)" opacity=".1" r="220.921"/><ellipse cx="1496.36" cy="1243.95" fill="url(#e)" opacity=".1" rx="148.459" ry="148.459" transform="matrix(.70710678 -.70710678 .70710678 .70710678 -441.331784 1422.430823)"/><circle cx="1496.29" cy="1244.02" fill="url(#f)" opacity=".1" r="118.918"/><ellipse cx="1241.86" cy="1472.21" fill="url(#g)" opacity=".05" rx="61.8579" ry="61.8579" transform="matrix(-1 0 0 -1 2483.72 2944.42)"/><circle cx="1445.05" cy="345.821" fill="url(#h)" opacity=".08" r="235.05"/><circle cx="1445.05" cy="345.821" fill="url(#i)" opacity=".1" r="186.16"/><circle cx="1445.05" cy="345.821" fill="url(#j)" opacity=".1" r="131.628" transform="matrix(.25881905 -.96592583 .96592583 .25881905 737.006104 1652.127054)"/><circle cx="1445.05" cy="345.902" fill="url(#k)" opacity=".1" r="87.8899" transform="matrix(.25881905 -.96592583 .96592583 .25881905 736.927864 1652.18709)"/><g stroke="#fff"><circle cx="1274.5" cy="400.5" r="45.7727"/><circle cx="1274.5" cy="400.5" r="68.9091"/><circle cx="1274.5" cy="400.5" r="92.0455"/><circle cx="1274.5" cy="400.5" r="115.182"/><circle cx="1274.5" cy="400.5" r="254"/><circle cx="1274.5" cy="400.5" r="230.864"/><circle cx="1274.5" cy="400.5" r="207.727"/><circle cx="1274.5" cy="400.5" r="184.591"/><circle cx="1274.5" cy="400.5" r="161.455"/><circle cx="1274.5" cy="400.5" r="138.318"/></g><circle cx="66.2499" cy="858.25" fill="url(#l)" opacity=".1" r="193.75"/><circle cx="-11.2499" cy="780.75" fill="#2db5b3" opacity=".1" r="193.75"/><g opacity=".1" stroke="#2db5b3"><circle cx="-.500011" cy="1353.5" r="34.8636"/><circle cx="-.500015" cy="1353.5" r="52.5455"/><circle cx="-.500023" cy="1353.5" r="70.2273"/><circle cx="-.499969" cy="1353.5" r="87.9091"/><circle cx="-.5" cy="1353.5" r="194"/><circle cx="-.5" cy="1353.5" r="176.318"/><circle cx="-.499985" cy="1353.5" r="158.636"/><circle cx="-.499985" cy="1353.5" r="140.955"/><circle cx="-.499977" cy="1353.5" r="123.273"/><circle cx="-.500031" cy="1353.5" r="105.591"/></g></g></svg>