<svg fill="none" height="1567" viewBox="0 0 375 1567" width="375" xmlns="http://www.w3.org/2000/svg" xmlns:xlink="http://www.w3.org/1999/xlink"><linearGradient id="a" gradientUnits="userSpaceOnUse" x1="187.5" x2="187.5" y1="0" y2="1567"><stop offset="0" stop-color="#e7f8ff"/><stop offset=".479167" stop-color="#fff"/><stop offset="1" stop-color="#d2f2ff"/></linearGradient><linearGradient id="b"><stop offset="0" stop-color="#0a98c1"/><stop offset="1" stop-color="#2db5b3" stop-opacity="0"/></linearGradient><linearGradient id="c" gradientUnits="userSpaceOnUse" x1="335.092" x2="335.092" xlink:href="#b" y1="1201.79" y2="1465.97"/><linearGradient id="d"><stop offset="0" stop-color="#2db5b3"/><stop offset="1" stop-color="#0a98c1" stop-opacity="0"/></linearGradient><linearGradient id="e" gradientUnits="userSpaceOnUse" x1="392.155" x2="392.155" xlink:href="#d" y1="1182.77" y2="1360.3"/><linearGradient id="f" gradientUnits="userSpaceOnUse" x1="392.116" x2="392.116" xlink:href="#d" y1="1200.47" y2="1342.68"/><linearGradient id="g" gradientUnits="userSpaceOnUse" x1="239.986" x2="239.986" y1="1371.03" y2="1445"><stop offset="0" stop-color="#2db5b3"/><stop offset="1" stop-color="#0a98c1"/></linearGradient><linearGradient id="h" gradientUnits="userSpaceOnUse" x1="62.6665" x2="62.6665" y1="635.333" y2="852"><stop offset="0" stop-color="#0a98c1"/><stop offset="1" stop-color="#2db5b3" stop-opacity=".16"/></linearGradient><linearGradient id="i" gradientUnits="userSpaceOnUse" x1="383.005" x2="383.005" xlink:href="#b" y1="29.593" y2="303.603"/><linearGradient id="j" gradientUnits="userSpaceOnUse" x1="383.005" x2="383.005" xlink:href="#b" y1="58.0901" y2="275.106"/><linearGradient id="k" gradientUnits="userSpaceOnUse" x1="383.005" x2="383.005" xlink:href="#b" y1="89.8752" y2="243.321"/><linearGradient id="l" gradientUnits="userSpaceOnUse" x1="383.005" x2="383.005" xlink:href="#b" y1="115.416" y2="217.874"/><mask id="m" height="1567" maskUnits="userSpaceOnUse" width="375" x="0" y="0"><path d="m0 0h375v1567h-375z" fill="url(#a)"/></mask><g mask="url(#m)"><circle cx="335.092" cy="1333.88" fill="url(#c)" opacity=".1" r="132.092"/><ellipse cx="392.155" cy="1271.53" fill="url(#e)" opacity=".1" rx="88.7656" ry="88.7656" transform="matrix(.70710678 -.70710678 .70710678 .70710678 -784.247945 649.717974)"/><circle cx="392.116" cy="1271.57" fill="url(#f)" opacity=".1" r="71.1029"/><ellipse cx="239.986" cy="1408.01" fill="url(#g)" opacity=".05" rx="36.9857" ry="36.9857" transform="matrix(-1 0 0 -1 479.972 2816.02)"/><circle cx="62.6665" cy="743.667" fill="url(#h)" opacity=".1" r="108.333"/><circle cx="19.3333" cy="700.333" fill="#2db5b3" opacity=".1" r="108.333"/><circle cx="-67" cy="645" r="128.5" stroke="#fff" stroke-opacity=".7"/><circle cx="-67" cy="645" r="116.773" stroke="#fff" stroke-opacity=".7"/><circle cx="-67" cy="645" r="105.045" stroke="#fff" stroke-opacity=".7"/><circle cx="-67" cy="645" r="93.3182" stroke="#fff" stroke-opacity=".7"/><circle cx="-66.9997" cy="645" r="81.5909" stroke="#fff" stroke-opacity=".7"/><circle cx="383.005" cy="166.598" fill="url(#i)" opacity=".08" r="137.005"/><circle cx="383.005" cy="166.598" fill="url(#j)" opacity=".1" r="108.508"/><circle cx="383.005" cy="166.598" fill="url(#k)" opacity=".1" r="76.7227" transform="matrix(.25881905 -.96592583 .96592583 .25881905 122.954701 493.433686)"/><circle cx="383.005" cy="166.645" fill="url(#l)" opacity=".1" r="51.2289" transform="matrix(.25881905 -.96592583 .96592583 .25881905 122.909302 493.468521)"/><g stroke="#fff"><circle cx="398.545" cy="249.455" r="29.376"/><circle cx="398.545" cy="249.455" r="39.3347"/><circle cx="398.545" cy="249.455" r="49.2934"/><circle cx="398.545" cy="249.455" r="109.045"/><circle cx="398.545" cy="249.455" r="99.0868"/><circle cx="398.545" cy="249.455" r="89.1281"/><circle cx="398.546" cy="249.455" r="79.1694"/><circle cx="398.546" cy="249.455" r="69.2107"/><circle cx="398.546" cy="249.454" r="59.2521"/></g></g></svg>