<svg width="40" height="38" viewBox="0 0 40 38" fill="none" xmlns="http://www.w3.org/2000/svg">
<path d="M39.3333 32.3334H38.6667V8.33337C38.6667 6.86062 37.4728 5.66671 36 5.66671H29.3333V1.00004C29.3333 0.631874 29.0348 0.333374 28.6667 0.333374H11.3333C10.9652 0.333374 10.6667 0.631874 10.6667 1.00004V5.66671H4C2.52725 5.66671 1.33333 6.86062 1.33333 8.33337V32.3334H0.666667C0.2985 32.3334 0 32.6319 0 33V35C0 36.4728 1.19392 37.6667 2.66667 37.6667H37.3333C38.8061 37.6667 40 36.4728 40 35V33C40 32.6319 39.7015 32.3334 39.3333 32.3334ZM12 1.66671H28V19H26.6667V6.33337C26.6667 5.96521 26.3682 5.66671 26 5.66671H24V3.66671C24 3.29854 23.7015 3.00004 23.3333 3.00004H16.6667C16.2985 3.00004 16 3.29854 16 3.66671V5.66671H14C13.6318 5.66671 13.3333 5.96521 13.3333 6.33337V19H12V1.66671ZM19.3367 16.3967C18.0249 16.663 16.9997 17.6883 16.7333 19H14.6667V7.00004H16.6667C17.0348 7.00004 17.3333 6.70154 17.3333 6.33337V4.33337H22.6667V6.33337C22.6667 6.70154 22.9652 7.00004 23.3333 7.00004H25.3333V19H23.2667C22.9003 17.1959 21.1408 16.0304 19.3367 16.3967ZM21.8773 19H18.1227C18.4839 17.9632 19.6173 17.4155 20.654 17.7767C21.2272 17.9764 21.6777 18.427 21.8773 19ZM32 20.3334V19H29.3333V10.3334H34V28.3334H6V10.3334H10.6667V19H8V20.3334H32ZM2.66667 8.33337C2.66667 7.59696 3.26358 7.00004 4 7.00004H10.6667V9.00004H5.33333C4.96517 9.00004 4.66667 9.29854 4.66667 9.66671V29C4.66667 29.3682 4.96517 29.6667 5.33333 29.6667H34.6667C35.0348 29.6667 35.3333 29.3682 35.3333 29V9.66671C35.3333 9.29854 35.0348 9.00004 34.6667 9.00004H29.3333V7.00004H36C36.7364 7.00004 37.3333 7.59696 37.3333 8.33337V32.3334H26C25.8232 32.3334 25.6537 32.4037 25.5287 32.5287L24.3907 33.6667H15.6093L14.4713 32.5287C14.3463 32.4037 14.1768 32.3334 14 32.3334H2.66667V8.33337ZM38.6667 35C38.6667 35.7365 38.0698 36.3334 37.3333 36.3334H2.66667C1.93025 36.3334 1.33333 35.7365 1.33333 35V33.6667H13.724L14.862 34.8047C14.987 34.9297 15.1565 35 15.3333 35H24.6667C24.8435 35 25.013 34.9297 25.138 34.8047L26.276 33.6667H38.6667V35Z" fill="white"/>
</svg>
