<svg fill="none" height="24" viewBox="0 0 24 24" width="24" xmlns="http://www.w3.org/2000/svg"><g fill="#2db5b3"><path d="m16.999 23.9901c.1083.0049.2116.0099.3198.0099 1.1563 0 2.1207-.4183 2.8785-1.24.0049-.0049.0147-.0147.0196-.0197.2707-.3247.5757-.6199.9005-.9299.2214-.2116.4477-.4281.6593-.6544 1.0087-1.053 1.0038-2.3864-.0098-3.4l-2.8047-2.8046c-.4821-.5019-1.0578-.7676-1.668-.7676-.6052 0-1.1858.2608-1.6827.7577l-1.6582 1.6582c-.1476-.0837-.3002-.1575-.4478-.2313-.1869-.0935-.3592-.182-.5117-.2755-1.5204-.9644-2.8981-2.224-4.21676-3.8428-.66426-.8365-1.10217-1.5352-1.41215-2.25358.43299-.39363.83646-.80202 1.22517-1.20057.14269-.14269.28539-.29031.433-.43792 1.05294-1.05296 1.05294-2.35687 0-3.40491l-1.39247-1.39247c-.16238-.16237-.31983-.32475-.47728-.4822-.30999-.3149-.62981-.64457-.94964-.93979-.4822-.4822-1.05296-.73314-1.65817-.73314-.60029 0-1.18089.25094-1.68277.73314l-1.74674 1.74182c-.639654.63965-1.003763 1.41707-1.0824891 2.3175-.088567 1.12185.1180891 2.31259.6494921 3.74934.821707 2.21908 2.056727 4.28078 3.887107 6.48508 2.22894 2.657 4.90563 4.758 7.9661 6.2391 1.1662.556 2.7259 1.2055 4.4628 1.3186zm-11.49894-8.3302c-1.74182-2.0961-2.90796-4.0446-3.68046-6.13081-.47727-1.28423-.65441-2.28307-.5806-3.2327.05412-.61505.2903-1.12677.73314-1.56469l1.73689-1.7369c.26571-.25586.55601-.38871.84139-.38871.28046 0 .556.13285.82171.39363.30998.29031.61012.59537.92503.9152.15745.16237.31983.32966.48712.49204l1.39247 1.39247c.57077.57076.57077 1.13169 0 1.70245-.14761.14762-.29522.29523-.43791.44284-.433.43792-.83647.85123-1.28423 1.24978-.00984.00984-.01476.01476-.0246.0246-.39855.39855-.33951.7823-.2411 1.0677.00492.0148.00984.0246.01476.0394.35919.866.86599 1.6877 1.64341 2.6718 1.40232 1.727 2.87842 3.0703 4.51202 4.1085.2017.1279.4133.2362.62.3395.1869.0935.3591.1821.5117.2755.0197.0099.0344.0197.0541.0296.1574.0787.31.1181.4674.1181.3887 0 .6348-.2461.7135-.3297l1.7467-1.7468c.2657-.2657.5511-.4034.8316-.4034.3444 0 .6249.2165.8069.4034l2.8145 2.8145c.6888.6889.3739 1.3088-.0148 1.7172-.1968.2116-.4034.4084-.6199.62-.3297.3149-.6692.6446-.9792 1.0136-.5314.5708-1.1612.8365-1.9829.8365-.0787 0-.1624-.005-.2411-.0099-1.5303-.0984-2.9473-.6938-4.0151-1.2006-2.9128-1.4023-5.45667-3.395-7.57244-5.9241z"/><path d="m13.1902 4.39218c-.3297-.05413-.6396.16729-.6938.49204-.0541.32966.1673.63965.4921.69377 1.3531.23126 2.5832.87091 3.5672 1.85007.9792.97916 1.6189 2.21418 1.8501 3.56724.0492.2953.3051.5019.5954.5019.0344 0 .0689-.0049.1033-.0098.3297-.0541.5511-.369.4921-.6938-.2707-1.59912-1.0284-3.06048-2.1847-4.21677-1.1661-1.16121-2.6226-1.91403-4.2217-2.18465z"/><path d="m23.3817 11.2906c.0345 0 .0689-.0049.1034-.0098.3296-.0542.551-.3691.492-.6938-.4478-2.64718-1.6975-5.05325-3.6116-6.96729-1.9189-1.91403-4.325-3.163809-6.9722-3.61156517-.3296-.05412433-.6396.16729317-.6937.49203917-.0542.329666.1672.639656.492.693776 2.3962.40839 4.5809 1.54008 6.3178 3.27698s2.8686 3.92155 3.277 6.31776c.0492.2952.305.5019.5953.5019z"/></g></svg>