<svg fill="none" height="60" viewBox="0 0 60 60" width="60" xmlns="http://www.w3.org/2000/svg" xmlns:xlink="http://www.w3.org/1999/xlink"><clipPath id="a"><path d="m13 13h34v34h-34z"/></clipPath><circle cx="30" cy="30" fill="#0a98c1" r="30"/><g clip-path="url(#a)" fill="#fff"><path d="m46.5309 29.0228-5.8008-4.6801c-.3789-.3312-.9202-.4122-1.3857-.2058-.4662.2067-.7558.6479-.7558 1.1513v2.0553h-3.2761c-.9891 0-1.9241.3596-2.6563 1.0169v-6.9492h2.0552.0006c.4865 0 .9217-.2781 1.1357-.7258.2186-.4572.1576-.9848-.1589-1.3766l-4.7033-5.8294c-.239-.3021-.5948-.4768-.9771-.4796-.3833-.0016-.7422.1681-.9854.4691l-4.68 5.8007c-.3313.3787-.4125.9201-.2059 1.3859.2066.4661.6478.7557 1.1513.7557h2.0553v6.9492c-.7322-.6573-1.6671-1.0169-2.6563-1.0169h-3.276v-2.0552c0-.5034-.2896-.9446-.7559-1.1514-.4655-.2064-1.007-.1254-1.3857.2059l-5.8009 4.6804c-.3007.2429-.4717.602-.4689.9852.0028.3823.1776.7381.4798.9771l5.8289 4.7028c.3922.3168.92.3778 1.3769.1592.448-.2142.7261-.6496.7258-1.136v-2.0553h1.948v13.6796c0 .3667.2974.664.664.664h11.9532c.3667 0 .6641-.2973.6641-.664v-13.6796h1.9479v2.055c-.0003.4867.2778.9222.7258 1.1362.4571.2187.9849.1577 1.3766-.1589l5.8292-4.7031c.3023-.2389.477-.5947.4798-.9771.0028-.3831-.1681-.7422-.4691-.9855zm-15.2027-8.2756v24.9245h-2.6563v-3.5192c0-.3667-.2973-.6641-.664-.6641s-.6641.2974-.6641.6641v3.5192h-2.6562v-13.6796c0-.3667-.2974-.6641-.6641-.6641h-3.2761c-.3667 0-.664.2974-.664.6641v2.6147l-5.71-4.6069 5.71-4.607v2.6148c0 .3667.2973.664.664.664h3.9402c.7078 0 1.3744.2768 1.8769.7792.5025.5027.7793 1.1693.7793 1.8771v4.848c0 .3667.2974.664.6641.664s.664-.2973.664-.664v-15.4288c0-.3667-.2973-.6641-.664-.6641h-2.6147l4.6069-5.71 4.607 5.71h-2.6149c-.3667 0-.664.2974-.664.6641zm8.5886 13.8596v-2.6147c0-.3667-.2974-.6641-.6641-.6641h-3.276c-.3667 0-.6641.2974-.6641.6641v13.6796h-2.6563v-14.3437c0-.7078.2768-1.3744.7793-1.877.5025-.5025 1.1691-.7793 1.877-.7793h3.9401c.3667 0 .6641-.2973.6641-.664v-2.6148l5.71 4.607z"/><path d="m28.0078 38.5003c-.3667 0-.664.2975-.664.6643 0 .3667.2973.664.664.664s.6641-.2973.6641-.664v-.0005c0-.3667-.2974-.6638-.6641-.6638z"/></g></svg>