<svg fill="none" height="38" viewBox="0 0 38 38" width="38" xmlns="http://www.w3.org/2000/svg"><circle cx="19" cy="19" fill="#fff" r="16"/><g fill="#2db5b3"><path d="m21.1103 17.6465-2.6127-.5799c-.9938-.2264-2.1378-.5256-2.1378-1.4626 0-.9391.8024-1.5951 2.2512-1.5951 2.9197 0 2.653 2.0065 4.1026 2.0065.7627 0 1.4304-.4485 1.4304-1.2197 0-1.7995-2.88-3.1499-5.3231-3.1499-2.6522 0-5.4766 1.1263-5.4766 4.1261 0 1.4446.5161 2.9815 3.359 3.6944l3.53.8813c1.0684.2633 1.3357.8643 1.3357 1.4064 0 .9016-.8956 1.7824-2.5179 1.7824-3.1691 0-2.7293-2.4388-4.4277-2.4388-.763 0-1.3168.5256-1.3168 1.2757 0 1.4623 1.7755 3.4137 5.7445 3.4137 3.7761 0 5.6472-1.8201 5.6472-4.2577 0-1.5739-.7256-3.245-3.588-3.8828z"/><path d="m19 0c-10.49181 0-19 8.50819-19 19 0 10.4918 8.50819 19 19 19 10.4918 0 19-8.5082 19-19 0-10.49181-8.5082-19-19-19zm9.8923 28.8641c-1.2493 1.2499-2.9094 1.9367-4.6755 1.9367-1.144 0-2.2643-.2975-3.2538-.8573-.6421.1139-1.3.1739-1.9563.1739-1.5082 0-2.9717-.2957-4.3485-.8793-1.3313-.5613-2.5255-1.3675-3.5521-2.3935-1.0254-1.0258-1.83079-2.2199-2.39293-3.5506-.58332-1.3777-.87845-2.8404-.87845-4.3488 0-.6459.05798-1.2927.16815-1.9256-.54302-.9768-.83206-2.0819-.83206-3.2065 0-1.7665.68826-3.4274 1.93693-4.67637 1.24926-1.24954 2.91016-1.93751 4.67666-1.93751 1.082 0 2.1512.26991 3.1015.77524.0018-.00029.0038-.00029.0052-.00087.6929-.13278 1.4047-.19976 2.1156-.19976 1.5078 0 2.971.29543 4.3479.87787 1.3298.56273 2.5254 1.3681 3.5506 2.3938 1.0266 1.0261 1.8317 2.2208 2.3944 3.5512.5833 1.3774.8784 2.8404.8784 4.3485 0 .6799-.064 1.3603-.1861 2.0251.5468.9805.8376 2.0894.8376 3.2178-.0003 1.7664-.6877 3.4277-1.9372 4.676z"/></g></svg>