<svg width="1440" height="1303" viewBox="0 0 1440 1303" fill="none" xmlns="http://www.w3.org/2000/svg">
<mask id="mask0" mask-type="alpha" maskUnits="userSpaceOnUse" x="0" y="0" width="1440" height="1303">
<rect width="1440" height="1303" fill="url(#paint0_linear)"/>
</mask>
<g mask="url(#mask0)">
<circle opacity="0.1" r="332.917" transform="matrix(1 0 0 -1 1439.92 1328.92)" fill="url(#paint1_linear)"/>
<circle opacity="0.1" r="273" transform="matrix(1 0 0 -1 1439.83 1329)" fill="url(#paint2_linear)"/>
<circle opacity="0.1" r="201" transform="matrix(1 0 0 -1 1439.83 1329)" fill="url(#paint3_linear)"/>
<circle opacity="0.1" r="95" transform="matrix(1 0 0 -1 1275 1040)" fill="url(#paint4_linear)"/>
<path fill-rule="evenodd" clip-rule="evenodd" d="M1109.5 1542C1227.41 1542 1323 1446.41 1323 1328.5C1323 1210.59 1227.41 1115 1109.5 1115C991.587 1115 896 1210.59 896 1328.5C896 1446.41 991.587 1542 1109.5 1542ZM1109.5 1543C1227.97 1543 1324 1446.97 1324 1328.5C1324 1210.03 1227.97 1114 1109.5 1114C991.035 1114 895 1210.03 895 1328.5C895 1446.97 991.035 1543 1109.5 1543ZM1206 1328.5C1206 1381.8 1162.8 1425 1109.5 1425C1056.2 1425 1013 1381.8 1013 1328.5C1013 1275.2 1056.2 1232 1109.5 1232C1162.8 1232 1206 1275.2 1206 1328.5ZM1207 1328.5C1207 1382.35 1163.35 1426 1109.5 1426C1055.65 1426 1012 1382.35 1012 1328.5C1012 1274.65 1055.65 1231 1109.5 1231C1163.35 1231 1207 1274.65 1207 1328.5ZM1109.5 1405.5C1152.03 1405.5 1186.5 1371.03 1186.5 1328.5C1186.5 1285.97 1152.03 1251.5 1109.5 1251.5C1066.97 1251.5 1032.5 1285.97 1032.5 1328.5C1032.5 1371.03 1066.97 1405.5 1109.5 1405.5ZM1109.5 1406.5C1152.58 1406.5 1187.5 1371.58 1187.5 1328.5C1187.5 1285.42 1152.58 1250.5 1109.5 1250.5C1066.42 1250.5 1031.5 1285.42 1031.5 1328.5C1031.5 1371.58 1066.42 1406.5 1109.5 1406.5ZM1167 1328.5C1167 1360.26 1141.26 1386 1109.5 1386C1077.74 1386 1052 1360.26 1052 1328.5C1052 1296.74 1077.74 1271 1109.5 1271C1141.26 1271 1167 1296.74 1167 1328.5ZM1168 1328.5C1168 1360.81 1141.81 1387 1109.5 1387C1077.19 1387 1051 1360.81 1051 1328.5C1051 1296.19 1077.19 1270 1109.5 1270C1141.81 1270 1168 1296.19 1168 1328.5ZM1147.5 1328.5C1147.5 1349.49 1130.49 1366.5 1109.5 1366.5C1088.51 1366.5 1071.5 1349.49 1071.5 1328.5C1071.5 1307.51 1088.51 1290.5 1109.5 1290.5C1130.49 1290.5 1147.5 1307.51 1147.5 1328.5ZM1148.5 1328.5C1148.5 1350.04 1131.04 1367.5 1109.5 1367.5C1087.96 1367.5 1070.5 1350.04 1070.5 1328.5C1070.5 1306.96 1087.96 1289.5 1109.5 1289.5C1131.04 1289.5 1148.5 1306.96 1148.5 1328.5ZM1303.5 1328.5C1303.5 1435.64 1216.64 1522.5 1109.5 1522.5C1002.36 1522.5 915.5 1435.64 915.5 1328.5C915.5 1221.36 1002.36 1134.5 1109.5 1134.5C1216.64 1134.5 1303.5 1221.36 1303.5 1328.5ZM1304.5 1328.5C1304.5 1436.2 1217.2 1523.5 1109.5 1523.5C1001.8 1523.5 914.5 1436.2 914.5 1328.5C914.5 1220.8 1001.8 1133.5 1109.5 1133.5C1217.2 1133.5 1304.5 1220.8 1304.5 1328.5ZM1109.5 1503C1205.87 1503 1284 1424.87 1284 1328.5C1284 1232.13 1205.87 1154 1109.5 1154C1013.13 1154 935 1232.13 935 1328.5C935 1424.87 1013.13 1503 1109.5 1503ZM1109.5 1504C1206.43 1504 1285 1425.43 1285 1328.5C1285 1231.57 1206.43 1153 1109.5 1153C1012.57 1153 934 1231.57 934 1328.5C934 1425.43 1012.57 1504 1109.5 1504ZM1264.5 1328.5C1264.5 1414.1 1195.1 1483.5 1109.5 1483.5C1023.9 1483.5 954.5 1414.1 954.5 1328.5C954.5 1242.9 1023.9 1173.5 1109.5 1173.5C1195.1 1173.5 1264.5 1242.9 1264.5 1328.5ZM1265.5 1328.5C1265.5 1414.66 1195.66 1484.5 1109.5 1484.5C1023.34 1484.5 953.5 1414.66 953.5 1328.5C953.5 1242.34 1023.34 1172.5 1109.5 1172.5C1195.66 1172.5 1265.5 1242.34 1265.5 1328.5ZM1109.5 1464C1184.33 1464 1245 1403.33 1245 1328.5C1245 1253.67 1184.33 1193 1109.5 1193C1034.67 1193 974 1253.67 974 1328.5C974 1403.33 1034.67 1464 1109.5 1464ZM1109.5 1465C1184.89 1465 1246 1403.89 1246 1328.5C1246 1253.11 1184.89 1192 1109.5 1192C1034.11 1192 973 1253.11 973 1328.5C973 1403.89 1034.11 1465 1109.5 1465ZM1225.5 1328.5C1225.5 1392.56 1173.57 1444.5 1109.5 1444.5C1045.43 1444.5 993.5 1392.56 993.5 1328.5C993.5 1264.43 1045.43 1212.5 1109.5 1212.5C1173.57 1212.5 1225.5 1264.43 1225.5 1328.5ZM1226.5 1328.5C1226.5 1393.12 1174.12 1445.5 1109.5 1445.5C1044.88 1445.5 992.5 1393.12 992.5 1328.5C992.5 1263.88 1044.88 1211.5 1109.5 1211.5C1174.12 1211.5 1226.5 1263.88 1226.5 1328.5Z" fill="url(#paint5_linear)"/>
<circle opacity="0.1" cx="31.4561" cy="318.647" r="173.456" fill="url(#paint6_linear)"/>
<circle opacity="0.1" cx="31.4561" cy="318.647" r="147.466" fill="url(#paint7_linear)"/>
<circle opacity="0.1" cx="31.4554" cy="318.647" r="122.606" fill="url(#paint8_linear)"/>
<circle opacity="0.1" cx="168.187" cy="165.813" r="91.8131" transform="rotate(-180 168.187 165.813)" fill="url(#paint9_linear)"/>
<path fill-rule="evenodd" clip-rule="evenodd" d="M251.875 672.25C396.643 672.25 514 554.893 514 410.125C514 265.357 396.643 148 251.875 148C107.107 148 -10.25 265.357 -10.25 410.125C-10.25 554.893 107.107 672.25 251.875 672.25ZM251.875 673.25C397.195 673.25 515 555.445 515 410.125C515 264.805 397.195 147 251.875 147C106.555 147 -11.25 264.805 -11.25 410.125C-11.25 555.445 106.555 673.25 251.875 673.25ZM370.477 410.125C370.477 475.627 317.377 528.727 251.875 528.727C186.373 528.727 133.273 475.627 133.273 410.125C133.273 344.623 186.373 291.523 251.875 291.523C317.377 291.523 370.477 344.623 370.477 410.125ZM371.477 410.125C371.477 476.18 317.93 529.727 251.875 529.727C185.821 529.727 132.273 476.18 132.273 410.125C132.273 344.07 185.821 290.523 251.875 290.523C317.93 290.523 371.477 344.07 371.477 410.125ZM251.875 504.807C304.166 504.807 346.557 462.416 346.557 410.125C346.557 357.834 304.166 315.443 251.875 315.443C199.584 315.443 157.193 357.834 157.193 410.125C157.193 462.416 199.584 504.807 251.875 504.807ZM251.875 505.807C304.719 505.807 347.557 462.969 347.557 410.125C347.557 357.281 304.719 314.443 251.875 314.443C199.031 314.443 156.193 357.281 156.193 410.125C156.193 462.969 199.031 505.807 251.875 505.807ZM322.637 410.125C322.637 449.205 290.956 480.886 251.875 480.886C212.795 480.886 181.114 449.205 181.114 410.125C181.114 371.045 212.795 339.364 251.875 339.364C290.956 339.364 322.637 371.045 322.637 410.125ZM323.637 410.125C323.637 449.758 291.508 481.886 251.875 481.886C212.242 481.886 180.114 449.758 180.114 410.125C180.114 370.492 212.242 338.364 251.875 338.364C291.508 338.364 323.637 370.492 323.637 410.125ZM298.716 410.125C298.716 435.995 277.744 456.966 251.875 456.966C226.005 456.966 205.034 435.995 205.034 410.125C205.034 384.255 226.005 363.284 251.875 363.284C277.744 363.284 298.716 384.255 298.716 410.125ZM299.716 410.125C299.716 436.547 278.297 457.966 251.875 457.966C225.453 457.966 204.034 436.547 204.034 410.125C204.034 383.703 225.453 362.284 251.875 362.284C278.297 362.284 299.716 383.703 299.716 410.125ZM490.079 410.125C490.079 541.682 383.432 648.33 251.875 648.33C120.318 648.33 13.6704 541.682 13.6704 410.125C13.6704 278.568 120.318 171.92 251.875 171.92C383.432 171.92 490.079 278.568 490.079 410.125ZM491.079 410.125C491.079 542.234 383.984 649.33 251.875 649.33C119.766 649.33 12.6704 542.234 12.6704 410.125C12.6704 278.016 119.766 170.92 251.875 170.92C383.984 170.92 491.079 278.016 491.079 410.125ZM251.875 624.409C370.221 624.409 466.159 528.471 466.159 410.125C466.159 291.779 370.221 195.841 251.875 195.841C133.529 195.841 37.5911 291.779 37.5911 410.125C37.5911 528.471 133.529 624.409 251.875 624.409ZM251.875 625.409C370.773 625.409 467.159 529.023 467.159 410.125C467.159 291.227 370.773 194.841 251.875 194.841C132.977 194.841 36.5911 291.227 36.5911 410.125C36.5911 529.023 132.977 625.409 251.875 625.409ZM442.238 410.125C442.238 515.26 357.01 600.489 251.875 600.489C146.74 600.489 61.5112 515.26 61.5112 410.125C61.5112 304.99 146.74 219.761 251.875 219.761C357.01 219.761 442.238 304.99 442.238 410.125ZM443.238 410.125C443.238 515.812 357.562 601.489 251.875 601.489C146.188 601.489 60.5112 515.812 60.5112 410.125C60.5112 304.438 146.188 218.761 251.875 218.761C357.562 218.761 443.238 304.438 443.238 410.125ZM251.875 576.568C343.799 576.568 418.318 502.049 418.318 410.125C418.318 318.201 343.799 243.682 251.875 243.682C159.951 243.682 85.4319 318.201 85.4319 410.125C85.4319 502.049 159.951 576.568 251.875 576.568ZM251.875 577.568C344.351 577.568 419.318 502.601 419.318 410.125C419.318 317.649 344.351 242.682 251.875 242.682C159.399 242.682 84.4319 317.649 84.4319 410.125C84.4319 502.601 159.399 577.568 251.875 577.568ZM394.398 410.125C394.398 488.838 330.588 552.648 251.875 552.648C173.162 552.648 109.352 488.838 109.352 410.125C109.352 331.412 173.162 267.602 251.875 267.602C330.588 267.602 394.398 331.412 394.398 410.125ZM395.398 410.125C395.398 489.39 331.14 553.648 251.875 553.648C172.609 553.648 108.352 489.39 108.352 410.125C108.352 330.86 172.609 266.602 251.875 266.602C331.14 266.602 395.398 330.86 395.398 410.125Z" fill="url(#paint10_linear)"/>
</g>
<defs>
<linearGradient id="paint0_linear" x1="720" y1="0" x2="720" y2="1303" gradientUnits="userSpaceOnUse">
<stop stop-color="white"/>
<stop offset="1" stop-color="#E9F8FF"/>
</linearGradient>
<linearGradient id="paint1_linear" x1="332.917" y1="0" x2="332.917" y2="665.833" gradientUnits="userSpaceOnUse">
<stop stop-color="#0A98C1"/>
<stop offset="1" stop-color="#0A98C1" stop-opacity="0.5"/>
</linearGradient>
<linearGradient id="paint2_linear" x1="273" y1="0" x2="273" y2="546" gradientUnits="userSpaceOnUse">
<stop stop-color="#0A98C1"/>
<stop offset="1" stop-color="#0A98C1" stop-opacity="0.5"/>
</linearGradient>
<linearGradient id="paint3_linear" x1="201" y1="0" x2="201" y2="402" gradientUnits="userSpaceOnUse">
<stop stop-color="#0A98C1"/>
<stop offset="1" stop-color="#0A98C1" stop-opacity="0.5"/>
</linearGradient>
<linearGradient id="paint4_linear" x1="95" y1="0" x2="95" y2="190" gradientUnits="userSpaceOnUse">
<stop stop-color="#0A98C1"/>
<stop offset="1" stop-color="#0A98C1" stop-opacity="0"/>
</linearGradient>
<linearGradient id="paint5_linear" x1="1476.82" y1="1423.52" x2="1109.5" y2="1543" gradientUnits="userSpaceOnUse">
<stop stop-color="white"/>
<stop offset="1" stop-color="white" stop-opacity="0"/>
</linearGradient>
<linearGradient id="paint6_linear" x1="31.4561" y1="145.19" x2="31.4561" y2="492.103" gradientUnits="userSpaceOnUse">
<stop stop-color="#0A98C1"/>
<stop offset="1" stop-color="#2DB5B3" stop-opacity="0"/>
</linearGradient>
<linearGradient id="paint7_linear" x1="31.4561" y1="171.181" x2="31.4561" y2="466.112" gradientUnits="userSpaceOnUse">
<stop stop-color="#0A98C1"/>
<stop offset="1" stop-color="#2DB5B3" stop-opacity="0"/>
</linearGradient>
<linearGradient id="paint8_linear" x1="31.4554" y1="196.041" x2="31.4554" y2="441.252" gradientUnits="userSpaceOnUse">
<stop stop-color="#0A98C1"/>
<stop offset="1" stop-color="#2DB5B3" stop-opacity="0"/>
</linearGradient>
<linearGradient id="paint9_linear" x1="168.187" y1="74" x2="168.187" y2="257.626" gradientUnits="userSpaceOnUse">
<stop stop-color="#2DB5B3"/>
<stop offset="1" stop-color="#0A98C1"/>
</linearGradient>
<linearGradient id="paint10_linear" x1="51" y1="215" x2="469.5" y2="295" gradientUnits="userSpaceOnUse">
<stop stop-color="white"/>
<stop offset="0.739583" stop-color="white" stop-opacity="0"/>
</linearGradient>
</defs>
</svg>
