<svg fill="none" height="38" viewBox="0 0 38 38" width="38" xmlns="http://www.w3.org/2000/svg"><circle cx="19" cy="19" fill="#fff" r="16"/><path d="m19 0c-10.49181 0-19 8.50819-19 19 0 10.4918 8.50819 19 19 19 10.4918 0 19-8.5082 19-19 0-10.49181-8.5082-19-19-19zm-5.5212 28.7227h-4.62734v-13.9216h4.62734zm-2.3135-15.8226h-.0302c-1.55276 0-2.55704-1.0689-2.55704-2.4048 0-1.3661 1.03501-2.40546 2.61794-2.40546 1.583 0 2.5571 1.03936 2.5872 2.40546 0 1.3359-1.0042 2.4048-2.6179 2.4048zm18.9988 15.8226h-4.6268v-7.4477c0-1.8717-.67-3.1482-2.3442-3.1482-1.2783 0-2.0396.861-2.3742 1.6922-.1223.2975-.1522.7132-.1522 1.1292v7.7745h-4.627s.0606-12.6155 0-13.9216h4.627v1.9712c.6149-.9486 1.7152-2.2979 4.1702-2.2979 3.0444 0 5.3272 1.9897 5.3272 6.2657z" fill="#2db5b3"/></svg>