<svg fill="none" height="60" viewBox="0 0 60 60" width="60" xmlns="http://www.w3.org/2000/svg" xmlns:xlink="http://www.w3.org/1999/xlink"><clipPath id="a"><path d="m13 13h34v34h-34z"/></clipPath><circle cx="30" cy="30" fill="#0a98c1" r="30"/><g clip-path="url(#a)" fill="#fff"><path d="m46.8733 27.2802-5.4453-7.4985c-.125-.1721-.3248-.2739-.5374-.2739h-21.7812c-.2127 0-.4124.1018-.5373.2739l-5.4454 7.4985c-.1919.2642-.1631.6289.0678.8598l16.3359 16.3359c.1246.1245.2935.1945.4696.1945s.345-.07.4695-.1945l6.0558-6.0559c.2593-.2593.2593-.6798 0-.9391-.2594-.2593-.6797-.2592-.9392 0l-4.0667 4.0668 4.4044-13.2132h8.8089l-4.9213 4.9213c-.2594.2593-.2594.6798 0 .9391.2593.2593.6797.2592.9391 0l6.055-6.0549c.2309-.231.2597-.5955.0678-.8598zm-1.8403-.2739h-8.2848l4.1425-5.7043zm-25.9236-5.7043 4.1424 5.7043h-8.2848zm12.1935-.4661h8.2848l-4.1424 5.7043zm2.8395 6.1704h-8.2848l4.1424-5.7043zm-9.5877-.466-4.1424-5.7044h8.2848zm-.4786 1.7942 4.4044 13.2131-13.2133-13.2131zm1.3999 0h9.048l-4.524 13.5719z"/><path d="m16.3203 15.2136c.3668 0 .6641-.2973.6641-.6641v-.8854c0-.3668-.2973-.6641-.6641-.6641-.3667 0-.6641.2973-.6641.6641v.8854c0 .3668.2974.6641.6641.6641z"/><path d="m16.3203 19.6406c.3668 0 .6641-.2973.6641-.664v-.8854c0-.3668-.2973-.6641-.6641-.6641-.3667 0-.6641.2973-.6641.6641v.8854c0 .3667.2974.664.6641.664z"/><path d="m18.0918 16.9844h.8854c.3668 0 .6641-.2973.6641-.6641 0-.3667-.2973-.6641-.6641-.6641h-.8854c-.3668 0-.6641.2974-.6641.6641 0 .3668.2973.6641.6641.6641z"/><path d="m13.6641 16.9844h.8854c.3667 0 .664-.2973.664-.6641 0-.3667-.2973-.6641-.664-.6641h-.8854c-.3668 0-.6641.2974-.6641.6641 0 .3668.2973.6641.6641.6641z"/><path d="m42.75 40.3594c-.3667 0-.6641.2973-.6641.664v.8854c0 .3668.2974.6641.6641.6641.3668 0 .6641-.2973.6641-.6641v-.8854c0-.3667-.2973-.664-.6641-.664z"/><path d="m42.75 44.7865c-.3667 0-.6641.2973-.6641.6641v.8854c0 .3667.2974.664.6641.664.3668 0 .6641-.2973.6641-.664v-.8854c0-.3668-.2973-.6641-.6641-.6641z"/><path d="m45.4069 43.0156h-.8854c-.3668 0-.6641.2973-.6641.6641 0 .3667.2973.6641.6641.6641h.8854c.3667 0 .664-.2974.664-.6641 0-.3668-.2973-.6641-.664-.6641z"/><path d="m40.9791 43.0156h-.8853c-.3667 0-.6641.2973-.6641.6641 0 .3667.2974.6641.6641.6641h.8853c.3667 0 .6641-.2974.6641-.6641 0-.3668-.2973-.6641-.6641-.6641z"/><path d="m38.168 35.1744c-.1747 0-.346.071-.4695.1945-.1235.1236-.1946.2949-.1946.4695 0 .1747.071.346.1946.4695.1235.1235.2948.1946.4695.1946.1746 0 .3459-.0711.4694-.1946s.1946-.2948.1946-.4695c0-.1746-.071-.3459-.1946-.4695-.1235-.1235-.2948-.1945-.4694-.1945z"/></g></svg>