<svg width="24" height="24" viewBox="0 0 24 24" fill="none" xmlns="http://www.w3.org/2000/svg">
<path d="M16.999 23.9901C17.1073 23.995 17.2106 24 17.3188 24C18.4751 24 19.4395 23.5817 20.1973 22.76C20.2022 22.7551 20.212 22.7453 20.2169 22.7403C20.4876 22.4156 20.7926 22.1204 21.1174 21.8104C21.3388 21.5988 21.5651 21.3823 21.7767 21.156C22.7854 20.103 22.7805 18.7696 21.7669 17.756L18.9622 14.9514C18.4801 14.4495 17.9044 14.1838 17.2942 14.1838C16.689 14.1838 16.1084 14.4446 15.6115 14.9415L13.9533 16.5997C13.8057 16.516 13.6531 16.4422 13.5055 16.3684C13.3186 16.2749 13.1463 16.1864 12.9938 16.0929C11.4734 15.1285 10.0957 13.8689 8.77704 12.2501C8.11278 11.4136 7.67487 10.7149 7.36489 9.99652C7.79788 9.60289 8.20135 9.1945 8.59006 8.79595C8.73275 8.65326 8.87545 8.50564 9.02306 8.35803C10.076 7.30507 10.076 6.00116 9.02306 4.95312L7.63059 3.56065C7.46821 3.39828 7.31076 3.2359 7.15331 3.07845C6.84332 2.76355 6.5235 2.43388 6.20367 2.13866C5.72147 1.65646 5.15071 1.40552 4.5455 1.40552C3.94521 1.40552 3.36461 1.65646 2.86273 2.13866L1.11599 3.88048C0.476336 4.52013 0.112227 5.29755 0.0335009 6.19798C-0.0550661 7.31983 0.15159 8.51057 0.682993 9.94732C1.5047 12.1664 2.73972 14.2281 4.5701 16.4324C6.79904 19.0894 9.47573 21.1904 12.5362 22.6715C13.7024 23.2275 15.2621 23.877 16.999 23.9901ZM5.50006 15.6599C3.75824 13.5638 2.5921 11.6153 1.8196 9.52909C1.34233 8.24486 1.16519 7.24602 1.239 6.29639C1.29312 5.68134 1.5293 5.16962 1.97214 4.7317L3.70903 2.9948C3.97474 2.73894 4.26504 2.60609 4.55042 2.60609C4.83088 2.60609 5.10642 2.73894 5.37213 2.99972C5.68211 3.29003 5.98225 3.59509 6.29716 3.91492C6.45461 4.07729 6.61699 4.24458 6.78428 4.40696L8.17675 5.79943C8.74752 6.37019 8.74752 6.93112 8.17675 7.50188C8.02914 7.6495 7.88153 7.79711 7.73884 7.94472C7.30584 8.38264 6.90237 8.79595 6.45461 9.1945C6.44477 9.20434 6.43985 9.20926 6.43001 9.2191C6.03146 9.61765 6.0905 10.0014 6.18891 10.2868C6.19383 10.3016 6.19875 10.3114 6.20367 10.3262C6.56286 11.1922 7.06966 12.0139 7.84708 12.998C9.2494 14.725 10.7255 16.0683 12.3591 17.1065C12.5608 17.2344 12.7724 17.3427 12.9791 17.446C13.166 17.5395 13.3382 17.6281 13.4908 17.7215C13.5105 17.7314 13.5252 17.7412 13.5449 17.7511C13.7023 17.8298 13.8549 17.8692 14.0123 17.8692C14.401 17.8692 14.6471 17.6231 14.7258 17.5395L16.4725 15.7927C16.7382 15.527 17.0236 15.3893 17.3041 15.3893C17.6485 15.3893 17.929 15.6058 18.111 15.7927L20.9255 18.6072C21.6143 19.2961 21.2994 19.916 20.9107 20.3244C20.7139 20.536 20.5073 20.7328 20.2908 20.9444C19.9611 21.2593 19.6216 21.589 19.3116 21.958C18.7802 22.5288 18.1504 22.7945 17.3287 22.7945C17.25 22.7945 17.1663 22.7895 17.0876 22.7846C15.5573 22.6862 14.1403 22.0908 13.0725 21.584C10.1597 20.1817 7.61583 18.189 5.50006 15.6599Z" fill="#2DB5B3"/>
<path d="M13.1902 4.39218C12.8605 4.33805 12.5506 4.55947 12.4964 4.88422C12.4423 5.21388 12.6637 5.52387 12.9885 5.57799C14.3416 5.80925 15.5717 6.4489 16.5557 7.42806C17.5349 8.40722 18.1746 9.64224 18.4058 10.9953C18.455 11.2906 18.7109 11.4972 19.0012 11.4972C19.0356 11.4972 19.0701 11.4923 19.1045 11.4874C19.4342 11.4333 19.6556 11.1184 19.5966 10.7936C19.3259 9.19448 18.5682 7.73312 17.4119 6.57683C16.2458 5.41562 14.7893 4.6628 13.1902 4.39218Z" fill="#2DB5B3"/>
<path d="M23.3817 11.2906C23.4162 11.2906 23.4506 11.2857 23.4851 11.2808C23.8147 11.2266 24.0361 10.9117 23.9771 10.587C23.5293 7.93982 22.2796 5.53375 20.3655 3.61971C18.4466 1.70568 16.0405 0.455901 13.3933 0.00814483C13.0637 -0.0459795 12.7537 0.175438 12.6996 0.500184C12.6454 0.82985 12.8668 1.13984 13.1916 1.19396C15.5878 1.60235 17.7725 2.73404 19.5094 4.47094C21.2463 6.20784 22.378 8.39249 22.7864 10.7887C22.8356 11.0839 23.0914 11.2906 23.3817 11.2906Z" fill="#2DB5B3"/>
</svg>
