<svg fill="none" height="1222" viewBox="0 0 1440 1222" width="1440" xmlns="http://www.w3.org/2000/svg" xmlns:xlink="http://www.w3.org/1999/xlink"><linearGradient id="a" gradientUnits="userSpaceOnUse" x1="720" x2="720" y1="0" y2="1222"><stop offset="0" stop-color="#fff"/><stop offset="1" stop-color="#d2f2ff"/></linearGradient><linearGradient id="b" gradientUnits="userSpaceOnUse" x1="720" x2="720" y1="0" y2="1222"><stop offset="0" stop-color="#e9f8ff"/><stop offset=".442708" stop-color="#fff"/><stop offset="1" stop-color="#e9f8ff"/></linearGradient><linearGradient id="c"><stop offset="0" stop-color="#0a98c1"/><stop offset="1" stop-color="#2db5b3" stop-opacity="0"/></linearGradient><linearGradient id="d" gradientUnits="userSpaceOnUse" x1="1178.75" x2="1178.75" xlink:href="#c" y1="-31.5907" y2="425.902"/><linearGradient id="e" gradientUnits="userSpaceOnUse" x1="1178.75" x2="1178.75" xlink:href="#c" y1="15.9886" y2="378.323"/><linearGradient id="f" gradientUnits="userSpaceOnUse" x1="1178.75" x2="1178.75" xlink:href="#c" y1="69.0577" y2="325.254"/><linearGradient id="g" gradientUnits="userSpaceOnUse" x1="1178.75" x2="1178.75" xlink:href="#c" y1="111.702" y2="282.768"/><linearGradient id="h" gradientUnits="userSpaceOnUse" x1="1381.87" x2="1381.87" y1="-80.9999" y2="156.896"><stop offset="0" stop-color="#2db5b3"/><stop offset=".838542" stop-color="#0a98c1" stop-opacity=".46"/></linearGradient><linearGradient id="i" gradientUnits="userSpaceOnUse" x1="129.667" x2="129.667" y1="475.333" y2="692"><stop offset="0" stop-color="#0a98c1"/><stop offset="1" stop-color="#2db5b3" stop-opacity=".16"/></linearGradient><mask id="j" height="1222" maskUnits="userSpaceOnUse" width="1440" x="0" y="0"><path d="m0 0h1440v1222h-1440z" fill="url(#b)"/></mask><path d="m0 0h1440v1222h-1440z" fill="url(#a)"/><g mask="url(#j)"><circle cx="1178.75" cy="197.156" fill="url(#d)" opacity=".08" r="228.747"/><circle cx="1178.75" cy="197.156" fill="url(#e)" opacity=".1" r="181.167"/><circle cx="1178.75" cy="197.156" fill="url(#f)" opacity=".1" r="128.098" transform="matrix(.25881905 -.96592583 .96592583 .25881905 683.228978 1284.71334)"/><circle cx="1178.75" cy="197.235" fill="url(#g)" opacity=".1" r="85.533" transform="matrix(.25881905 -.96592583 .96592583 .25881905 683.15267 1284.771893)"/><circle cx="1381.87" cy="37.9483" fill="url(#h)" opacity=".08" r="118.948" transform="matrix(-1 0 0 -1 2763.74 75.8966)"/><g stroke="#fff"><circle cx="1425.23" cy="299.102" r="54.5497"/><circle cx="1425.23" cy="299.103" r="82.0746"/><circle cx="1425.23" cy="299.102" r="109.599"/><circle cx="1425.23" cy="299.103" r="137.124"/><circle cx="1425.23" cy="299.102" r="302.273"/><circle cx="1425.23" cy="299.102" r="274.749"/><circle cx="1425.23" cy="299.102" r="247.224"/><circle cx="1425.23" cy="299.102" r="219.699"/><circle cx="1425.23" cy="299.103" r="192.174"/><circle cx="1425.23" cy="299.102" r="164.649"/></g><circle cx="129.667" cy="583.667" fill="url(#i)" opacity=".1" r="108.333"/><circle cx="86.3333" cy="540.333" fill="#2db5b3" opacity=".1" r="108.333"/><circle cy="485" r="128.5" stroke="#fff" stroke-opacity=".7"/><circle cx="-.00071" cy="485" r="116.773" stroke="#fff" stroke-opacity=".7"/><circle cx=".000534" cy="485" r="105.045" stroke="#fff" stroke-opacity=".7"/><circle cx="-.000183" cy="485" r="93.3182" stroke="#fff" stroke-opacity=".7"/><circle cx=".001068" cy="485" r="81.5909" stroke="#fff" stroke-opacity=".7"/></g></svg>