<svg fill="none" height="60" viewBox="0 0 60 60" width="60" xmlns="http://www.w3.org/2000/svg" xmlns:xlink="http://www.w3.org/1999/xlink"><clipPath id="a"><path d="m13 13h34v34h-34z"/></clipPath><circle cx="30" cy="30" fill="#0a98c1" r="30"/><g clip-path="url(#a)" fill="#fff"><path d="m42.511 32.576c-.2811 0-.5388-.1842-.6289-.4506-.0898-.2653.0001-.5667.2222-.7381.2107-.1627.5037-.1832.735-.0518.2383.1353.3723.4143.3265.685-.0536.3162-.3334.5555-.6548.5555z"/><path d="m46.9743 16.6986c-.0665-.232-.2536-.4097-.4888-.4641l-2.2074-.5104-.5106-2.2072c-.0543-.2351-.232-.4222-.464-.4887-.2322-.0664-.4818-.0018-.6524.1688l-3.6734 3.6728c-.1107.1107-.1787.257-.1921.4129l-.1978 2.3096c-.0167.1952.0536.3878.1921.5263l.082.082-.5856.5855c-.2108-.1932-.4273-.3808-.6495-.5623-2.682-2.1907-6.0697-3.3972-9.5392-3.3972-4.03 0-7.8188 1.5692-10.6685 4.4185s-4.4191 6.6377-4.4191 10.6673 1.5694 7.8178 4.4191 10.6673c2.8497 2.8493 6.6386 4.4184 10.6686 4.4184 3.4748 0 6.8667-1.2099 9.5508-3.4067 2.6467-2.1663 4.4951-5.191 5.2048-8.5168.0765-.3587-.1522-.7115-.5109-.7881-.359-.0763-.7114.1523-.788.5109-1.3442 6.3-7.0036 10.8726-13.4567 10.8726-7.587 0-13.7596-6.1716-13.7596-13.7576s6.1726-13.7577 13.7596-13.7577c3.4981 0 6.7652 1.3459 9.2372 3.5827l-2.0236 2.0233c-1.9224-1.7028-4.4494-2.7378-7.2136-2.7378-6.0053 0-10.8908 4.885-10.8908 10.8895 0 6.0044 4.8855 10.8894 10.8908 10.8894 6.0052 0 10.8909-4.885 10.8909-10.8894 0-2.7639-1.0352-5.2905-2.7381-7.2127l2.0256-2.0252c1.5938 1.7457 2.7514 3.9078 3.2724 6.325.0773.3584.4307.5867.7891.5092.3585-.0773.5865-.4305.5092-.7891-.5619-2.6071-1.8244-5.0282-3.622-6.9937l.5864-.5863.0821.0821c.1251.125.2942.1945.4694.1945.0189 0 .0378-.0008.0567-.0024l2.3099-.1977c.1559-.0134.3022-.0815.4129-.1922l3.6732-3.6728c.1708-.1706.2354-.4204.1689-.6525zm-9.3238 15.2138c0 5.2721-4.2899 9.5613-9.5628 9.5613s-9.5627-4.2892-9.5627-9.5613c0-5.2722 4.2898-9.5614 9.5627-9.5614 2.398 0 4.5926.8871 6.2729 2.3503l-2.0345 2.0342c-1.155-.9472-2.6315-1.5163-4.2384-1.5163-3.6911 0-6.6939 3.0026-6.6939 6.6932s3.0028 6.6931 6.6939 6.6931 6.694-3.0025 6.694-6.6931c0-1.6067-.5692-3.083-1.5164-4.2379l2.0345-2.0342c1.4634 1.6801 2.3507 3.8744 2.3507 6.2721zm-8.3938 0c0 .6444-.5243 1.1687-1.169 1.1687-.6445 0-1.1689-.5243-1.1689-1.1687s.5244-1.1688 1.1689-1.1688c.0719 0 .1423.0066.2107.0191l-.6802.6801c-.2594.2593-.2594.6797-.0001.9391.1297.1297.2997.1946.4696.1946s.3399-.0649.4695-.1945l.6804-.6803c.0125.0683.0191.1388.0191.2107zm.0632-2.1711c-.3637-.2073-.7844-.3258-1.2322-.3258-1.3769 0-2.497 1.1201-2.497 2.4969 0 1.3767 1.1201 2.4968 2.497 2.4968s2.4971-1.12 2.4971-2.4968c0-.4477-.1185-.8684-.3257-1.2321l2.0617-2.0614c.7096.9097 1.1327 2.0531 1.1327 3.2935 0 2.9582-2.4071 5.3649-5.3659 5.3649-2.9587 0-5.3658-2.4067-5.3658-5.3649 0-2.9583 2.4071-5.3651 5.3658-5.3651 1.2406 0 2.3841.4232 3.2939 1.1326zm13.0446-9.8279-1.7606.1508-.6665-.6664.1508-1.7602 2.6552-2.6548.334 1.4446c.0572.2471.2503.4401.4974.4973l1.4447.334z"/></g></svg>