<svg fill="none" height="60" viewBox="0 0 60 60" width="60" xmlns="http://www.w3.org/2000/svg" xmlns:xlink="http://www.w3.org/1999/xlink"><clipPath id="a"><path d="m13 13h34v34h-34z"/></clipPath><circle cx="30" cy="30" fill="#0a98c1" r="30"/><g clip-path="url(#a)" fill="#fff"><path d="m44.1731 33.6331-9.0598-3.4279v-.7917c1.2505-1.2861 2.0223-3.0402 2.0223-4.9714v-4.3065c0-3.9346-3.201-7.1356-7.1356-7.1356s-7.1356 3.201-7.1356 7.1356v4.3065c0 1.9312.7718 3.6853 2.0223 4.9714v.7917l-2.6671 1.0093c-.343.1297-.516.5131-.386.856.1004.2657.353.4293.621.4293.0781 0 .1577-.014.235-.043l2.1971-.8314v3.4015c0 .2514.1422.4814.3671.5938.2249.1125.4941.0884.6954-.0625l1.531-1.1482.6376 1.1666-1.6065 10.0953h-6.8707v-7.2383c0-.3668-.2972-.6641-.664-.6641-.3666 0-.6641.2973-.6641.6641v7.2383h-3.9844v-8.2321c0-1.1053.7728-2.112 1.9689-2.5644l1.4233-.5388c.3429-.1297.5159-.5128.386-.856-.1297-.3429-.5129-.5159-.856-.386l-1.4236.5385c-1.7172.6498-2.8267 2.144-2.8267 3.8067v8.8961c0 .3668.2973.6641.6641.6641h13.4125.0023.0021 5.8378.0023.0023 13.4125c.3666 0 .6641-.2973.6641-.6641v-8.8961c0-1.6627-1.1095-3.1569-2.8269-3.8067zm-13.2901-2.1104c1.0558-.1308 2.0404-.4934 2.9022-1.0348v3.2109zm-6.6904-11.3871c0-3.2023 2.6051-5.8075 5.8074-5.8075s5.8074 2.6052 5.8074 5.8075v.3974l-3.3286-1.9557c-.2796-.1642-.6371-.1024-.8454.1461-1.228 1.4653-3.0287 2.3058-4.9407 2.3058h-2.4999v-.8936zm0 2.2217h2.5001c2.1164 0 4.1197-.8537 5.5799-2.3608l3.5348 2.0768v2.3685c0 3.2023-2.6051 5.8075-5.8074 5.8075s-5.8074-2.6052-5.8074-5.8075zm2.0222 8.1306c.8618.5414 1.8464.904 2.9025 1.0348l-2.9025 2.1761zm3.7852 2.0329 1.4462 1.0843-.6493 1.1878h-1.5938l-.6493-1.1878zm-.6239 3.6005h1.2478l1.5198 9.5506h-4.2874zm16.2958 9.5506h-3.9844v-7.2383c0-.3668-.2973-.6641-.6641-.6641s-.664.2973-.664.6641v7.2383h-6.8707l-1.6065-10.0953.6376-1.1666 1.531 1.1482c.1172.0876.2573.1325.3984.1325.1012 0 .2031-.0231.297-.07.2249-.1126.3671-.3424.3671-.5941v-3.4015l8.5897 3.2501c1.1961.4526 1.9689 1.4591 1.9689 2.5646z"/><path d="m30.0094 28.3419c.5539 0 1.1079-.2109 1.5297-.6326.2594-.2594.2594-.6799 0-.9391-.2594-.2594-.6796-.2594-.9393 0-.3255.3256-.8555.3256-1.181 0-.2594-.2594-.6799-.2594-.9393 0-.2591.2592-.2591.6797 0 .9391.4218.4217.9759.6326 1.5299.6326z"/><path d="m19.9707 33.4391c.1746 0 .346-.0702.4695-.1937.1235-.1243.1946-.295.1946-.4703 0-.1746-.0711-.3453-.1946-.4695-.1235-.1235-.2949-.1946-.4695-.1946s-.346.0711-.4695.1946c-.1235.1234-.1946.2949-.1946.4695 0 .1753.0711.346.1946.4703.1235.1235.2949.1937.4695.1937z"/></g></svg>