<svg fill="none" height="38" viewBox="0 0 38 38" width="38" xmlns="http://www.w3.org/2000/svg"><circle cx="19" cy="19" fill="#fff" r="16"/><path d="m19 0c-10.49181 0-19 8.50819-19 19 0 10.4918 8.50819 19 19 19 10.4918 0 19-8.5082 19-19 0-10.49181-8.5082-19-19-19zm8.6752 14.8142c.0084.187.0125.3748.0125.5636 0 5.7627-4.3865 12.4078-12.4082 12.4081h.0003-.0003c-2.4628 0-4.7546-.7219-6.68462-1.9589.34123.0403.68855.0603 1.04022.0603 2.0433 0 3.9237-.697 5.4165-1.8668-1.9091-.0354-3.5187-1.2962-4.0742-3.0291.2659.0511.5393.0789.8196.0789.3981 0 .7837-.0536 1.1501-.1537-1.9955-.3995-3.49871-2.163-3.49871-4.2748 0-.0197 0-.0374.00058-.0556.58763.3267 1.25973.5233 1.97523.5453-1.171-.7813-1.94073-2.117-1.94073-3.6301 0-.799.21599-1.5475.59053-2.192 2.1506 2.6388 5.3647 4.3742 8.9892 4.5566-.0748-.3195-.1134-.6523-.1134-.9944 0-2.4075 1.9532-4.3607 4.3616-4.3607 1.2544 0 2.3874.5303 3.1832 1.378.9936-.196 1.9265-.5589 2.7693-1.0585-.3261 1.0179-1.0173 1.872-1.9178 2.4121.8822-.1055 1.723-.3395 2.5043-.6868-.5836.8747-1.3237 1.643-2.1752 2.2585z" fill="#2db5b3"/></svg>