<svg fill="none" height="18" viewBox="0 0 24 18" width="24" xmlns="http://www.w3.org/2000/svg"><path d="m22 0h-19.99998c-1.103067 0-2.00002.896953-2.00002 2.00002v13.99998c0 1.103.896953 2 2.00002 2h19.99998c1.103 0 2-.897 2-2v-13.99998c0-1.103067-.897-2.00002-2-2.00002zm-19.99998.999984h19.99998c.0737 0 .1386.026856.2078.042046-1.7315 1.5847-7.473 6.83714-9.4822 8.64741-.1572.14161-.4106.31054-.7256.31054-.3149 0-.5683-.16893-.726-.31101-2.00906-1.80999-7.75083-7.0627-9.48206-8.64684.06928-.01519.13434-.042146.20808-.042146zm-1.000036 15.000016v-13.99998c0-.09797.029536-.18685.055966-.27638 1.32525 1.21294 5.33138 4.87781 7.929 7.23998-2.58918 2.22408-6.59634 6.02318-7.93214 7.29698-.02358-.085-.052826-.1682-.052826-.2606zm21.000016 1h-19.99998c-.07988 0-.1509-.0278-.22547-.0456 1.38033-1.3159 5.41298-5.1369 7.95665-7.31296.3316.30079.6345.57506.8733.79026.4121.3721.8945.5683 1.3955.5683s.9834-.1963 1.395-.5679c.2389-.2152.542-.48973.8738-.79066 2.5438 2.17586 6.5759 5.99656 7.9567 7.31296-.0746.0178-.1455.0456-.2255.0456zm1-1c0 .0924-.0292.1756-.0528.2606-1.3363-1.2744-5.343-5.0731-7.9321-7.29693 2.5977-2.36217 6.6032-6.02672 7.9289-7.24012.0265.08953.056.17845.056.27642z" fill="#2db5b3"/></svg>