<svg fill="none" height="38" viewBox="0 0 38 38" width="38" xmlns="http://www.w3.org/2000/svg"><circle cx="19" cy="19" fill="#fff" r="16"/><g fill="#2db5b3"><path d="m19 0c-10.49181 0-19 8.50819-19 19 0 10.4918 8.50819 19 19 19 10.4918 0 19-8.5082 19-19 0-10.49181-8.5082-19-19-19zm.4027 30.0624c-.0003 0 .0003 0 0 0h-.0046c-1.9033-.0009-3.7736-.4781-5.4345-1.3838l-6.02828 1.5809 1.61339-5.8911c-.99529-1.7239-1.51888-3.6796-1.51801-5.6832.00261-6.2681 5.104-11.36741 11.372-11.36741 3.0418.00116 5.8972 1.18519 8.044 3.33381 2.1472 2.1488 3.3289 5.0051 3.3277 8.0425-.0026 6.2683-5.1046 11.3683-11.3717 11.3683z"/><path d="m19.4071 9.23779c-5.2136 0-9.45361 4.23831-9.45593 9.44811-.00058 1.7853.49923 3.5239 1.44523 5.0283l.2247.3575-.955 3.4868 3.5773-.9382.3453.2047c1.451.8611 3.1146 1.3165 4.8106 1.3171h.0038c5.2095 0 9.4495-4.2386 9.4518-9.4487.0009-2.5249-.9813-4.8987-2.7658-6.6846-1.7844-1.7859-4.1577-2.77014-6.682-2.77101zm5.5595 13.51041c-.2369.6633-1.3719 1.269-1.9178 1.3507-.4897.0731-1.109.1035-1.7897-.1124-.4128-.1311-.9419-.3059-1.6201-.5984-2.8501-1.2304-4.7117-4.0995-4.8537-4.2891-.1421-.1896-1.1603-1.5403-1.1603-2.9386 0-1.3979.7341-2.0853.9944-2.3695.2607-.2844.5685-.3554.7579-.3554.1893 0 .3789.0017.5444.0099.1746.0087.4088-.0664.6393.4876.2369.5688.8051 1.9668.8761 2.1089.0711.1423.1183.3081.0238.4977-.0948.1896-.4097.5987-.7103.9716-.1261.1562-.2905.2954-.1247.5798.1656.2841.7361 1.2145 1.5807 1.9677 1.0854.9677 2.001 1.2675 2.2851 1.4098.2838.1421.4497.1183.6155-.071.1655-.1896.7103-.8295.8996-1.1139s.3789-.2368.6393-.142c.2606.0945 1.6574.7819 1.9415.9239.2842.1424.4735.2134.5445.332.0713.1186.0713.6871-.1655 1.3507z"/></g></svg>