<svg width="1440" height="1222" viewBox="0 0 1440 1222" fill="none" xmlns="http://www.w3.org/2000/svg">
<rect width="1440" height="1222" fill="url(#paint0_linear)"/>
<mask id="mask0" mask-type="alpha" maskUnits="userSpaceOnUse" x="0" y="0" width="1440" height="1222">
<rect width="1440" height="1222" fill="url(#paint1_linear)"/>
</mask>
<g mask="url(#mask0)">
<circle opacity="0.08" cx="1178.75" cy="197.156" r="228.747" fill="url(#paint2_linear)"/>
<circle opacity="0.1" cx="1178.75" cy="197.156" r="181.167" fill="url(#paint3_linear)"/>
<circle opacity="0.1" cx="1178.75" cy="197.156" r="128.098" transform="rotate(-75 1178.75 197.156)" fill="url(#paint4_linear)"/>
<circle opacity="0.1" cx="1178.75" cy="197.235" r="85.533" transform="rotate(-75 1178.75 197.235)" fill="url(#paint5_linear)"/>
<circle opacity="0.08" cx="1381.87" cy="37.9483" r="118.948" transform="rotate(-180 1381.87 37.9483)" fill="url(#paint6_linear)"/>
<circle cx="1425.23" cy="299.102" r="54.5497" stroke="white"/>
<circle cx="1425.23" cy="299.103" r="82.0746" stroke="white"/>
<circle cx="1425.23" cy="299.102" r="109.599" stroke="white"/>
<circle cx="1425.23" cy="299.103" r="137.124" stroke="white"/>
<circle cx="1425.23" cy="299.102" r="302.273" stroke="white"/>
<circle cx="1425.23" cy="299.102" r="274.749" stroke="white"/>
<circle cx="1425.23" cy="299.102" r="247.224" stroke="white"/>
<circle cx="1425.23" cy="299.102" r="219.699" stroke="white"/>
<circle cx="1425.23" cy="299.103" r="192.174" stroke="white"/>
<circle cx="1425.23" cy="299.102" r="164.649" stroke="white"/>
<circle opacity="0.1" cx="129.667" cy="583.667" r="108.333" fill="url(#paint7_linear)"/>
<circle opacity="0.1" cx="86.3333" cy="540.333" r="108.333" fill="#2DB5B3"/>
<circle cy="485" r="128.5" stroke="white" stroke-opacity="0.7"/>
<circle cx="-0.000709534" cy="485" r="116.773" stroke="white" stroke-opacity="0.7"/>
<circle cx="0.000534058" cy="485" r="105.045" stroke="white" stroke-opacity="0.7"/>
<circle cx="-0.000183105" cy="485" r="93.3182" stroke="white" stroke-opacity="0.7"/>
<circle cx="0.00106812" cy="485" r="81.5909" stroke="white" stroke-opacity="0.7"/>
</g>
<defs>
<linearGradient id="paint0_linear" x1="720" y1="0" x2="720" y2="1222" gradientUnits="userSpaceOnUse">
<stop stop-color="white"/>
<stop offset="1" stop-color="#D2F2FF"/>
</linearGradient>
<linearGradient id="paint1_linear" x1="720" y1="0" x2="720" y2="1222" gradientUnits="userSpaceOnUse">
<stop stop-color="#E9F8FF"/>
<stop offset="0.442708" stop-color="white"/>
<stop offset="1" stop-color="#E9F8FF"/>
</linearGradient>
<linearGradient id="paint2_linear" x1="1178.75" y1="-31.5907" x2="1178.75" y2="425.902" gradientUnits="userSpaceOnUse">
<stop stop-color="#0A98C1"/>
<stop offset="1" stop-color="#2DB5B3" stop-opacity="0"/>
</linearGradient>
<linearGradient id="paint3_linear" x1="1178.75" y1="15.9886" x2="1178.75" y2="378.323" gradientUnits="userSpaceOnUse">
<stop stop-color="#0A98C1"/>
<stop offset="1" stop-color="#2DB5B3" stop-opacity="0"/>
</linearGradient>
<linearGradient id="paint4_linear" x1="1178.75" y1="69.0577" x2="1178.75" y2="325.254" gradientUnits="userSpaceOnUse">
<stop stop-color="#0A98C1"/>
<stop offset="1" stop-color="#2DB5B3" stop-opacity="0"/>
</linearGradient>
<linearGradient id="paint5_linear" x1="1178.75" y1="111.702" x2="1178.75" y2="282.768" gradientUnits="userSpaceOnUse">
<stop stop-color="#0A98C1"/>
<stop offset="1" stop-color="#2DB5B3" stop-opacity="0"/>
</linearGradient>
<linearGradient id="paint6_linear" x1="1381.87" y1="-80.9999" x2="1381.87" y2="156.896" gradientUnits="userSpaceOnUse">
<stop stop-color="#2DB5B3"/>
<stop offset="0.838542" stop-color="#0A98C1" stop-opacity="0.46"/>
</linearGradient>
<linearGradient id="paint7_linear" x1="129.667" y1="475.333" x2="129.667" y2="692" gradientUnits="userSpaceOnUse">
<stop stop-color="#0A98C1"/>
<stop offset="1" stop-color="#2DB5B3" stop-opacity="0.16"/>
</linearGradient>
</defs>
</svg>
