<svg width="38" height="38" viewBox="0 0 38 38" fill="none" xmlns="http://www.w3.org/2000/svg">
<circle cx="19" cy="19" r="16" fill="white"/>
<path d="M21.1103 17.6465L18.4976 17.0666C17.5038 16.8402 16.3598 16.541 16.3598 15.604C16.3598 14.6649 17.1622 14.0089 18.611 14.0089C21.5307 14.0089 21.264 16.0154 22.7136 16.0154C23.4763 16.0154 24.144 15.5669 24.144 14.7957C24.144 12.9962 21.264 11.6458 18.8209 11.6458C16.1687 11.6458 13.3443 12.7721 13.3443 15.7719C13.3443 17.2165 13.8604 18.7534 16.7033 19.4663L20.2333 20.3476C21.3017 20.6109 21.569 21.2119 21.569 21.754C21.569 22.6556 20.6734 23.5364 19.0511 23.5364C15.882 23.5364 16.3218 21.0976 14.6234 21.0976C13.8604 21.0976 13.3066 21.6232 13.3066 22.3733C13.3066 23.8356 15.0821 25.787 19.0511 25.787C22.8272 25.787 24.6983 23.9669 24.6983 21.5293C24.6983 19.9554 23.9727 18.2843 21.1103 17.6465Z" fill="#2DB5B3"/>
<path d="M19 0C8.50819 0 0 8.50819 0 19C0 29.4918 8.50819 38 19 38C29.4918 38 38 29.4918 38 19C38 8.50819 29.4918 0 19 0ZM28.8923 28.8641C27.643 30.114 25.9829 30.8008 24.2168 30.8008C23.0728 30.8008 21.9525 30.5033 20.963 29.9435C20.3209 30.0574 19.663 30.1174 19.0067 30.1174C17.4985 30.1174 16.035 29.8217 14.6582 29.2381C13.3269 28.6768 12.1327 27.8706 11.1061 26.8446C10.0807 25.8188 9.27531 24.6247 8.71317 23.294C8.12985 21.9163 7.83472 20.4536 7.83472 18.9452C7.83472 18.2993 7.8927 17.6525 8.00287 17.0196C7.45985 16.0428 7.17081 14.9377 7.17081 13.8131C7.17081 12.0466 7.85907 10.3857 9.10774 9.13673C10.357 7.88719 12.0179 7.19922 13.7844 7.19922C14.8664 7.19922 15.9356 7.46913 16.8859 7.97446C16.8877 7.97417 16.8897 7.97417 16.8911 7.97359C17.584 7.84081 18.2958 7.77383 19.0067 7.77383C20.5145 7.77383 21.9777 8.06926 23.3546 8.6517C24.6844 9.21443 25.88 10.0198 26.9052 11.0455C27.9318 12.0716 28.7369 13.2663 29.2996 14.5967C29.8829 15.9741 30.178 17.4371 30.178 18.9452C30.178 19.6251 30.114 20.3055 29.9919 20.9703C30.5387 21.9508 30.8295 23.0597 30.8295 24.1881C30.8292 25.9545 30.1418 27.6158 28.8923 28.8641Z" fill="#2DB5B3"/>
</svg>
