<svg width="38" height="38" viewBox="0 0 38 38" fill="none" xmlns="http://www.w3.org/2000/svg">
<circle cx="19" cy="19" r="16" fill="white"/>
<path d="M19 0C8.50819 0 0 8.50819 0 19C0 29.4918 8.50819 38 19 38C29.4918 38 38 29.4918 38 19C38 8.50819 29.4918 0 19 0ZM19.4027 30.0624C19.4024 30.0624 19.403 30.0624 19.4027 30.0624H19.3981C17.4948 30.0615 15.6245 29.5843 13.9636 28.6786L7.93532 30.2595L9.54871 24.3684C8.55342 22.6445 8.02983 20.6888 8.0307 18.6852C8.03331 12.4171 13.1347 7.31779 19.4027 7.31779C22.4445 7.31895 25.2999 8.50298 27.4467 10.6516C29.5939 12.8004 30.7756 15.6567 30.7744 18.6941C30.7718 24.9624 25.6698 30.0624 19.4027 30.0624Z" fill="#2DB5B3"/>
<path d="M19.4071 9.23779C14.1935 9.23779 9.95349 13.4761 9.95117 18.6859C9.95059 20.4712 10.4504 22.2098 11.3964 23.7142L11.6211 24.0717L10.6661 27.5585L14.2434 26.6203L14.5887 26.825C16.0397 27.6861 17.7033 28.1415 19.3993 28.1421H19.4031C24.6126 28.1421 28.8526 23.9035 28.8549 18.6934C28.8558 16.1685 27.8736 13.7947 26.0891 12.0088C24.3047 10.2229 21.9314 9.23866 19.4071 9.23779ZM24.9666 22.7482C24.7297 23.4115 23.5947 24.0172 23.0488 24.0989C22.5591 24.172 21.9398 24.2024 21.2591 23.9865C20.8463 23.8554 20.3172 23.6806 19.639 23.3881C16.7889 22.1577 14.9273 19.2886 14.7853 19.099C14.6432 18.9094 13.625 17.5587 13.625 16.1604C13.625 14.7625 14.3591 14.0751 14.6194 13.7909C14.8801 13.5065 15.1879 13.4355 15.3773 13.4355C15.5666 13.4355 15.7562 13.4372 15.9217 13.4454C16.0963 13.4541 16.3305 13.379 16.561 13.933C16.7979 14.5018 17.3661 15.8998 17.4371 16.0419C17.5082 16.1842 17.5554 16.35 17.4609 16.5396C17.3661 16.7292 17.0512 17.1383 16.7506 17.5112C16.6245 17.6674 16.4601 17.8066 16.6259 18.091C16.7915 18.3751 17.362 19.3055 18.2066 20.0587C19.292 21.0264 20.2076 21.3262 20.4917 21.4685C20.7755 21.6106 20.9414 21.5868 21.1072 21.3975C21.2727 21.2079 21.8175 20.568 22.0068 20.2836C22.1961 19.9992 22.3857 20.0468 22.6461 20.1416C22.9067 20.2361 24.3035 20.9235 24.5876 21.0655C24.8718 21.2079 25.0611 21.2789 25.1321 21.3975C25.2034 21.5161 25.2034 22.0846 24.9666 22.7482Z" fill="#2DB5B3"/>
</svg>
