<svg width="13" height="13" viewBox="0 0 13 13" fill="none" xmlns="http://www.w3.org/2000/svg">
<path d="M6.12586 6.24C6.12586 5.97333 6.06919 5.79333 5.95586 5.7C5.84919 5.6 5.65586 5.54333 5.37586 5.53L5.40586 5.21C5.67919 5.16333 6.15586 5.04 6.83586 4.84L7.04586 4.95V9.34C7.22586 9.47333 7.47586 9.57 7.79586 9.63L7.75586 10H5.37586L5.41586 9.61C5.70253 9.56333 5.93919 9.47333 6.12586 9.34V6.24ZM7.09586 3.45C7.09586 3.86333 6.90586 4.07 6.52586 4.07C6.15253 4.07 5.96586 3.86333 5.96586 3.45C5.96586 3.03 6.15253 2.82 6.52586 2.82C6.90586 2.82 7.09586 3.03 7.09586 3.45Z" fill="white"/>
<circle cx="6.5" cy="6.5" r="6" fill="#E1E1E1" fill-opacity="0.5" stroke="white"/>
</svg>
