<svg width="38" height="40" viewBox="0 0 38 40" fill="none" xmlns="http://www.w3.org/2000/svg">
<path d="M37.0001 33.3334H35.6668V32.6667C35.6633 31.8222 35.1297 31.0709 34.3334 30.7894V17.2108C35.1297 16.9293 35.6633 16.1779 35.6668 15.3334V14.6668C36.7714 14.6668 37.6668 13.7713 37.6668 12.6668C37.6668 11.5622 36.7714 10.6668 35.6668 10.6668H35.2001L19.3701 0.112125C19.1461 -0.0373749 18.8541 -0.0373749 18.6301 0.112125L2.80016 10.6668H2.33349C1.22891 10.6668 0.333496 11.5622 0.333496 12.6668C0.333496 13.7713 1.22891 14.6668 2.33349 14.6668V15.3334C2.33699 16.1779 2.87058 16.9293 3.66682 17.2108V30.7894C2.87058 31.0709 2.33699 31.8222 2.33349 32.6667V33.3334H1.00016C0.631996 33.3334 0.333496 33.6319 0.333496 34.0001V39.3334C0.333496 39.7015 0.631996 40 1.00016 40H37.0001C37.3683 40 37.6668 39.7015 37.6668 39.3334V34.0001C37.6668 33.6319 37.3683 33.3334 37.0001 33.3334ZM34.3334 15.3334C34.3334 15.7016 34.0349 16.0001 33.6668 16.0001H31.0001C30.632 16.0001 30.3335 15.7016 30.3335 15.3334V14.6668H34.3334V15.3334ZM33.6668 32.0001C34.0349 32.0001 34.3334 32.2986 34.3334 32.6667V33.3334H30.3335V32.6667C30.3335 32.2986 30.632 32.0001 31.0001 32.0001H33.6668ZM31.6668 30.6667V17.3334H33.0001V30.6667H31.6668ZM19.0001 1.46679L32.8001 10.6668H5.20016L19.0001 1.46679ZM2.33349 13.3334C1.96533 13.3334 1.66683 13.0349 1.66683 12.6668C1.66683 12.2986 1.96533 12.0001 2.33349 12.0001H35.6668C36.0349 12.0001 36.3334 12.2986 36.3334 12.6668C36.3334 13.0349 36.0349 13.3334 35.6668 13.3334H2.33349ZM4.33349 16.0001C3.96532 16.0001 3.66682 15.7016 3.66682 15.3334V14.6668H7.66682V15.3334C7.66682 15.7016 7.36832 16.0001 7.00015 16.0001H4.33349ZM6.33349 17.3334V30.6667H5.00016V17.3334H6.33349ZM3.66682 32.6667C3.66682 32.2986 3.96532 32.0001 4.33349 32.0001H7.00015C7.36832 32.0001 7.66682 32.2986 7.66682 32.6667V33.3334H3.66682V32.6667ZM9.00015 38.6667H1.66683V34.6667H9.00015V38.6667ZM9.00015 33.3334V32.6667C8.99665 31.8222 8.46307 31.0709 7.66682 30.7894V17.2108C8.46307 16.9293 8.99665 16.1779 9.00015 15.3334V14.6668H29.0001V15.3334C29.0036 16.1779 29.5372 16.9293 30.3335 17.2108V30.7894C29.5372 31.0709 29.0036 31.8222 29.0001 32.6667V33.3334H9.66682H9.00015ZM27.6668 38.6667H10.3335V37.3334H27.6668V38.6667ZM27.6668 36.0001H10.3335V34.6667H27.6668V36.0001ZM36.3334 38.6667H29.0001V34.6667H36.3334V38.6667Z" fill="white"/>
</svg>
