<svg fill="none" height="58" viewBox="0 0 58 58" width="58" xmlns="http://www.w3.org/2000/svg" xmlns:xlink="http://www.w3.org/1999/xlink"><clipPath id="a"><path d="m0 0h58v58h-58z"/></clipPath><g clip-path="url(#a)" fill="#0d3857"><path d="m26.7423 40.4298c-.2107-.2117-.5018-.3319-.8009-.3319-.2979 0-.5902.1202-.8009.3319-.2107.2107-.3319.502-.3319.8009 0 .2979.1212.5902.3319.8009.2107.2106.503.3319.8009.3319s.5902-.1212.8009-.3319.3319-.503.3319-.8009c0-.2989-.1212-.5901-.3319-.8009z"/><path d="m48.733 6.1167h-11.5201c-.6257 0-1.1328.50727-1.1328 1.13281s.5071 1.13281 1.1328 1.13281h11.5201c.4876 0 .8842.3941.8842.87838v8.5244c0 .6255.5071 1.1328 1.1328 1.1328.6256 0 1.1328-.5073 1.1328-1.1328v-8.5244c0-1.73365-1.4129-3.144-3.1498-3.144z"/><path d="m33.879 6.44797c-.2107-.2107-.5029-.33078-.8009-.33078-.2979 0-.5902.12008-.8009.33078-.2107.21183-.3319.50285-.3319.80203 0 .29793.1212.59019.3319.80078.2108.21082.503.33203.8009.33203.298 0 .5902-.12121.8009-.33203.2107-.21059.3319-.50285.3319-.80078 0-.29918-.1212-.5902-.3319-.80203z"/><path d="m48.3775 36.511c1.4426-1.4136 2.3399-3.3818 2.3399-5.5562v-8.2986c0-.6256-.5072-1.1328-1.1328-1.1328h-8.2385c-3.4167 0-6.1962 2.7795-6.1962 6.1961v3.2353c0 2.1553.8809 4.1085 2.3013 5.5194h-7.3184v-2.3082c0-4.3076-3.2392-7.8707-7.4092-8.3873.8241-1.0171 1.3192-2.3111 1.3192-3.7191v-4.6492c0-.0452-.0034-.0895-.0085-.1334.0051-.0812.0085-.1628.0085-.2452v-2.9415c0-.6255-.5072-1.1328-1.1328-1.1328h-5.9271c-2.6334 0-4.7756 2.1424-4.7756 4.7756v1.1208.9402 2.2655c0 1.408.495 2.702 1.3191 3.7191-4.17007.5166-7.40922 4.0796-7.40922 8.3873v2.3082h-3.85156v-27.2135c0-.48428.3966-.87838.88416-.87838h1.34374c.62565 0 1.13281-.50727 1.13281-1.13281s-.50716-1.13281-1.13281-1.13281h-1.34374c-1.73671 0-3.14978 1.41035-3.14978 3.144v33.5851c0 1.7337 1.41295 3.144 3.14978 3.144h17.23842v5.2353c-2.8576.2894-5.0953 2.7093-5.0953 5.6421 0 .6255.5072 1.1328 1.1329 1.1328h40.4413c.6256 0 1.1328-.5073 1.1328-1.1328v-9.8809c0-5.497-4.2409-10.0215-9.6224-10.4753zm-10.962-5.5562v-3.2353c0-2.1673 1.7632-3.9305 3.9306-3.9305h7.1057v7.1658c0 3.0426-2.4754 5.5182-5.5182 5.5182-3.0427 0-5.5181-2.4756-5.5181-5.5182zm-22.9427-13.2217c0-1.3841 1.1259-2.51 2.51-2.51h4.7942v1.8087c0 .8985-.731 1.6295-1.6295 1.6295h-5.6747zm0 3.1937h5.6747c.5816 0 1.1334-.129 1.6295-.3585v1.4912h.0001c0 2.0137-1.6383 3.6521-3.6521 3.6521s-3.6522-1.6384-3.6522-3.6521zm4.974 7.0505-1.3218 1.3219-1.3219-1.3219zm-11.064 6.1887c0-3.1048 2.2985-5.6822 5.283-6.1217l3.658 3.6581c.2213.2211.5112.3318.8011.3318.2898 0 .5798-.1107.801-.3318l3.658-3.6581c2.9845.4395 5.283 3.0169 5.283 6.1217v2.3082h-19.4841zm19.4843 21.5682h-10.1151c.4679-1.3226 1.731-2.2726 3.2119-2.2726h6.9032zm0-8.748v4.2097h-5.2133v-5.2062h5.2609c-.031.3282-.0476.6604-.0476.9965zm-24.71732-3.262c-.48756-.0001-.88416-.3941-.88416-.8784v-4.106h29.60108c-1.6046 1.2702-2.831 2.998-3.4809 4.9844zm52.58452 7.4717h-8.666c-.6257 0-1.1328.5072-1.1328 1.1328 0 .6255.5071 1.1328 1.1328 1.1328h8.666v2.2727h-25.6015v-8.748c0-4.5318 3.674-8.2204 8.1997-8.2465h3.3549c.0082 0 .016-.001.0242-.0012h5.7749c4.5478 0 8.2478 3.6998 8.2478 8.2477z"/><path d="m18.1475 0c-.6257 0-1.1329.507273-1.1329 1.13281v6.11718c0 .62553.5072 1.13281 1.1329 1.13281.6256 0 1.1328-.50728 1.1328-1.13281v-6.11718c0-.625537-.5071-1.13281-1.1328-1.13281z"/><path d="m27.7511 4.4435c-.4424-.44225-1.1596-.44225-1.6021 0l-1.9911 1.99115c-.4423.44236-.4423 1.15966 0 1.60213.2213.22101.5112.33169.8012.33169.2899 0 .5799-.11068.801-.3318l1.991-1.99103c.4425-.44236.4425-1.15966 0-1.60214z"/><path d="m12.111 6.4484-2.0102-2.01007c-.44245-.44213-1.15963-.44225-1.60199 0-.44237.44237-.44248 1.15966 0 1.60214l2.01009 2.01006c.2212.22113.5111.3318.801.3318s.5799-.11067.801-.3318c.4423-.44236.4426-1.15966.0001-1.60213z"/><path d="m43.7345 51.5281c-.2107-.2119-.503-.3321-.8009-.3321s-.5902.1202-.8009.3321c-.2107.2106-.3319.5018-.3319.8008 0 .2979.1212.5901.3319.8009.2107.2107.503.3319.8009.3319s.5902-.1211.8009-.3319c.2107-.2109.3319-.503.3319-.8009 0-.2991-.1212-.5902-.3319-.8008z"/></g></svg>