<svg fill="none" height="2586" viewBox="0 0 375 2586" width="375" xmlns="http://www.w3.org/2000/svg" xmlns:xlink="http://www.w3.org/1999/xlink"><linearGradient id="a" gradientUnits="userSpaceOnUse" x1="187.5" x2="187.5" y1="0" y2="2586"><stop offset="0" stop-color="#e7f8ff"/><stop offset=".479167" stop-color="#fff"/><stop offset="1" stop-color="#d2f2ff"/></linearGradient><linearGradient id="b"><stop offset="0" stop-color="#0a98c1"/><stop offset="1" stop-color="#2db5b3" stop-opacity="0"/></linearGradient><linearGradient id="c" gradientUnits="userSpaceOnUse" x1="309.092" x2="309.092" xlink:href="#b" y1="2398.79" y2="2662.97"/><linearGradient id="d"><stop offset="0" stop-color="#2db5b3"/><stop offset="1" stop-color="#0a98c1" stop-opacity="0"/></linearGradient><linearGradient id="e" gradientUnits="userSpaceOnUse" x1="366.155" x2="366.155" xlink:href="#d" y1="2379.77" y2="2557.3"/><linearGradient id="f" gradientUnits="userSpaceOnUse" x1="366.117" x2="366.117" xlink:href="#d" y1="2397.47" y2="2539.68"/><linearGradient id="g" gradientUnits="userSpaceOnUse" x1="213.985" x2="213.985" y1="2568.03" y2="2642"><stop offset="0" stop-color="#2db5b3"/><stop offset="1" stop-color="#0a98c1"/></linearGradient><linearGradient id="h" gradientUnits="userSpaceOnUse" x1="62.6673" x2="62.6673" y1="469.333" y2="686"><stop offset="0" stop-color="#0a98c1"/><stop offset="1" stop-color="#2db5b3" stop-opacity=".16"/></linearGradient><linearGradient id="i" gradientUnits="userSpaceOnUse" x1="248.005" x2="248.005" xlink:href="#b" y1="-42.407" y2="231.603"/><linearGradient id="j" gradientUnits="userSpaceOnUse" x1="248.004" x2="248.004" xlink:href="#b" y1="-13.9099" y2="203.106"/><linearGradient id="k" gradientUnits="userSpaceOnUse" x1="248.005" x2="248.005" xlink:href="#b" y1="17.8752" y2="171.321"/><linearGradient id="l" gradientUnits="userSpaceOnUse" x1="248.004" x2="248.004" xlink:href="#b" y1="43.4163" y2="145.874"/><linearGradient id="m" gradientUnits="userSpaceOnUse" x1="369.666" x2="369.666" y1="-72" y2="70.4851"><stop offset="0" stop-color="#2db5b3"/><stop offset=".838542" stop-color="#0a98c1" stop-opacity=".46"/></linearGradient><mask id="n" height="2586" maskUnits="userSpaceOnUse" width="375" x="0" y="0"><path d="m0 0h375v2586h-375z" fill="url(#a)"/></mask><g mask="url(#n)"><circle cx="309.092" cy="2530.88" fill="url(#c)" opacity=".1" r="132.092"/><ellipse cx="366.155" cy="2468.53" fill="url(#e)" opacity=".1" rx="88.7656" ry="88.7656" transform="matrix(.70710678 -.70710678 .70710678 .70710678 -1638.269986 981.926381)"/><circle cx="366.117" cy="2468.57" fill="url(#f)" opacity=".1" r="71.1029"/><ellipse cx="213.985" cy="2605.01" fill="url(#g)" opacity=".05" rx="36.9857" ry="36.9857" transform="matrix(-1 0 0 -1 427.97 5210.02)"/><circle cx="62.6673" cy="577.667" fill="url(#h)" opacity=".1" r="108.333"/><circle cx="19.3333" cy="534.333" fill="#2db5b3" opacity=".1" r="108.333"/><circle cx="-67" cy="479" r="128.5" stroke="#fff" stroke-opacity=".7"/><circle cx="-67.0007" cy="479" r="116.773" stroke="#fff" stroke-opacity=".7"/><circle cx="-66.9995" cy="479" r="105.045" stroke="#fff" stroke-opacity=".7"/><circle cx="-67.0002" cy="479" r="93.3182" stroke="#fff" stroke-opacity=".7"/><circle cx="-66.9989" cy="479" r="81.5909" stroke="#fff" stroke-opacity=".7"/><circle cx="248.005" cy="94.5979" fill="url(#i)" opacity=".08" r="137.005"/><circle cx="248.004" cy="94.598" fill="url(#j)" opacity=".1" r="108.508"/><circle cx="248.005" cy="94.598" fill="url(#k)" opacity=".1" r="76.7227" transform="matrix(.25881905 -.96592583 .96592583 .25881905 92.441931 309.668671)"/><circle cx="248.004" cy="94.6452" fill="url(#l)" opacity=".1" r="51.2289" transform="matrix(.25881905 -.96592583 .96592583 .25881905 92.395599 309.702688)"/><circle cx="369.666" cy="-.757445" fill="url(#m)" opacity=".08" r="71.2425" transform="matrix(-1 0 0 -1 739.332 -1.51489)"/><g stroke="#fff"><circle cx="401.342" cy="181.342" r="32.4713"/><circle cx="401.342" cy="181.342" r="48.957"/><circle cx="401.343" cy="181.342" r="65.4427"/><circle cx="401.342" cy="181.342" r="81.9283"/><circle cx="401.342" cy="181.342" r="180.842"/><circle cx="401.343" cy="181.342" r="164.357"/><circle cx="401.342" cy="181.342" r="147.871"/><circle cx="401.342" cy="181.342" r="131.385"/><circle cx="401.343" cy="181.342" r="114.9"/><circle cx="401.342" cy="181.342" r="98.414"/></g></g></svg>