<svg width="40" height="40" viewBox="0 0 40 40" fill="none" xmlns="http://www.w3.org/2000/svg">
<path d="M32.2693 15.135L33.4899 14.865C32.9025 12.191 31.3435 9.83021 29.1149 8.23999L28.3887 9.25624C30.3652 10.668 31.7479 12.7626 32.2693 15.135Z" fill="white"/>
<path d="M2.5 35V36.25H5C5 36.4158 5.06585 36.5747 5.18306 36.6919C5.30027 36.8092 5.45924 36.875 5.625 36.875H10.625C10.7908 36.875 10.9497 36.8092 11.0669 36.6919C11.1842 36.5747 11.25 36.4158 11.25 36.25V36.0119L15.9163 37.9494C18.4602 38.9874 21.3038 39.0187 23.87 38.0369L33.5244 34.3556C33.8076 34.2481 34.0664 34.0851 34.2857 33.8761C34.505 33.6671 34.6803 33.4164 34.8013 33.1387C34.9267 32.8572 34.9945 32.5534 35.0009 32.2453C35.0072 31.9371 34.9519 31.6308 34.8381 31.3444C34.6991 30.9809 34.4682 30.6597 34.1679 30.4121C33.8677 30.1645 33.5083 29.9991 33.125 29.9319V17.5C33.125 17.3342 33.0592 17.1753 32.9419 17.0581C32.8247 16.9408 32.6658 16.875 32.5 16.875H31.2431C31.2255 15.6014 30.909 14.3497 30.3192 13.2207C29.7295 12.0917 28.8828 11.117 27.8475 10.375L26.875 9.67875V7.5C26.875 7.33424 26.8092 7.17527 26.6919 7.05806C26.5747 6.94085 26.4158 6.875 26.25 6.875H25.8006L26.4956 4.095C26.5614 3.83161 26.5664 3.55669 26.51 3.29111C26.4537 3.02553 26.3376 2.77628 26.1705 2.56229C26.0035 2.34829 25.7898 2.17518 25.5459 2.05609C25.3019 1.937 25.034 1.87507 24.7625 1.875C24.3759 1.87585 23.9998 2.00121 23.69 2.2325L21.875 3.59375L20.0625 2.2325C19.7521 2.0005 19.375 1.87509 18.9875 1.875C18.716 1.87507 18.4481 1.937 18.2041 2.05609C17.9602 2.17518 17.7465 2.34829 17.5795 2.56229C17.4124 2.77628 17.2963 3.02553 17.24 3.29111C17.1836 3.55669 17.1886 3.83161 17.2544 4.095L17.9494 6.875H17.5C17.3342 6.875 17.1753 6.94085 17.0581 7.05806C16.9408 7.17527 16.875 7.33424 16.875 7.5V9.67875L15.9019 10.375C14.8508 11.1276 13.9941 12.1196 13.4025 13.2691C12.8109 14.4185 12.5016 15.6923 12.5 16.985V27.5H11.25C11.25 27.3342 11.1842 27.1753 11.0669 27.0581C10.9497 26.9408 10.7908 26.875 10.625 26.875H5.625C5.45924 26.875 5.30027 26.9408 5.18306 27.0581C5.06585 27.1753 5 27.3342 5 27.5H2.5V28.75H5V35H2.5ZM20.7769 29.375C20.2867 29.3742 19.8033 29.2602 19.3644 29.0419C18.9606 28.84 18.5456 28.6631 18.125 28.5V28.125H22.5V29.375H20.7769ZM22.5 19.375H18.125V18.125H22.5V19.375ZM18.125 20.625H22.5V21.875H18.125V20.625ZM18.125 23.125H22.5V24.375H18.125V23.125ZM18.125 25.625H22.5V26.875H18.125V25.625ZM23.75 18.125H26.25V29.375H23.75V18.125ZM27.5 23.125H31.875V24.375H27.5V23.125ZM27.5 25.625H31.875V26.875H27.5V25.625ZM27.5 28.125H31.875V29.375H27.5V28.125ZM31.875 21.875H27.5V20.625H31.875V21.875ZM27.5931 30.625H30.5381L27.7881 31.7919C27.8004 31.7159 27.8085 31.6393 27.8125 31.5625C27.8107 31.2375 27.7357 30.9171 27.5931 30.625ZM31.875 19.375H27.5V18.125H31.875V19.375ZM25.625 9.375H18.125V8.125H25.625V9.375ZM18.4669 3.79187C18.4467 3.71289 18.4448 3.63032 18.4613 3.55049C18.4779 3.47065 18.5125 3.39567 18.5625 3.33125C18.6513 3.22223 18.7785 3.15128 18.9179 3.13293C19.0573 3.11457 19.1985 3.15019 19.3125 3.2325L21.5 4.875C21.6082 4.95614 21.7398 5 21.875 5C22.0102 5 22.1418 4.95614 22.25 4.875L24.4375 3.2325C24.5515 3.15019 24.6927 3.11457 24.8321 3.13293C24.9715 3.15128 25.0987 3.22223 25.1875 3.33125C25.2379 3.39545 25.273 3.47034 25.29 3.55018C25.307 3.63002 25.3055 3.7127 25.2856 3.79187L24.5119 6.875H19.2381L18.4669 3.79187ZM16.6288 11.39L17.7 10.625H26.05L27.1213 11.39C27.995 12.0165 28.7098 12.839 29.2085 13.7915C29.7072 14.744 29.9759 15.8 29.9931 16.875H17.5C17.3342 16.875 17.1753 16.9408 17.0581 17.0581C16.9408 17.1753 16.875 17.3342 16.875 17.5V28.0756C15.856 27.782 14.8083 27.5995 13.75 27.5312V16.985C13.7511 15.8908 14.0127 14.8126 14.5133 13.8397C15.0139 12.8667 15.7391 12.027 16.6288 11.39ZM12.8344 28.75C14.907 28.7526 16.9508 29.2352 18.8056 30.16C19.418 30.4651 20.0927 30.6243 20.7769 30.625H25.625C25.8547 30.6263 26.0758 30.7119 26.2466 30.8655C26.4173 31.0191 26.5257 31.2301 26.5513 31.4583C26.5768 31.6866 26.5176 31.9163 26.385 32.1038C26.2524 32.2913 26.0556 32.4236 25.8319 32.4756C25.75 32.4831 25.6694 32.5 25.5863 32.5H18.125V33.75H25.5863C25.5994 33.75 25.6119 33.75 25.625 33.75C25.6375 33.75 25.6494 33.7462 25.6625 33.7462C26.1585 33.7381 26.6482 33.6345 27.105 33.4412L32.33 31.2225C32.4533 31.1696 32.5861 31.1424 32.7203 31.1424C32.8545 31.1424 32.9873 31.1696 33.1106 31.2225C33.2388 31.2766 33.3546 31.356 33.4513 31.456C33.548 31.556 33.6234 31.6745 33.6731 31.8044C33.726 31.937 33.7517 32.0789 33.7488 32.2217C33.7459 32.3645 33.7145 32.5052 33.6562 32.6356C33.6017 32.7618 33.5225 32.8759 33.4232 32.971C33.3239 33.0661 33.2066 33.1403 33.0781 33.1894L23.4231 36.8706C21.1544 37.7395 18.64 37.7122 16.3906 36.7944L11.25 34.6575V28.75H12.8344ZM6.25 28.125H10V35.625H6.25V28.125Z" fill="white"/>
<path d="M11.25 13.75H10V22.5H11.25V13.75Z" fill="white"/>
<path d="M11.25 23.75H10V25H11.25V23.75Z" fill="white"/>
</svg>
