<svg width="350" height="92" viewBox="0 0 350 92" fill="none" xmlns="http://www.w3.org/2000/svg">
<path d="M41.0698 38.0385H34.5272C33.6035 38.0385 32.7177 38.4113 32.0646 39.0748L18.2836 53.0769L9.57715 61.9231L2.25135 69.3664C1.92479 69.6982 1.74133 70.1482 1.74133 70.6174V85.6633C1.74133 87.673 3.38671 89.2793 5.36311 89.199L85.4626 85.9436C87.3304 85.8677 88.806 84.3072 88.806 82.4079V42.4615C88.806 40.5073 87.2468 38.9231 85.3234 38.9231L80.0995 38.9231H73.1344H65.8704C64.9468 38.9231 64.061 39.2959 63.4079 39.9595L56.7415 46.7328C56.0884 47.3964 55.2025 47.7692 54.2789 47.7692H52.8107C51.8871 47.7692 51.0013 47.3964 50.3482 46.7328L47.015 43.3461L42.3011 38.5566C41.9745 38.2249 41.5316 38.0385 41.0698 38.0385Z" fill="#D9D9D9"/>
<path d="M1.74133 65.4616C1.74133 64.4845 2.52094 63.6924 3.48263 63.6924H8.70651C9.6682 63.6924 10.4478 64.4845 10.4478 65.4616V84.9231C10.4478 85.9003 9.6682 86.6924 8.70651 86.6924H3.48263C2.52094 86.6924 1.74133 85.9003 1.74133 84.9231V65.4616Z" fill="#0D3857"/>
<path d="M80.0996 38.9232C80.0996 37.946 80.8792 37.1539 81.8409 37.1539H84.4528H87.0648C88.0265 37.1539 88.8061 37.946 88.8061 38.9232V86.6924H80.0996V38.9232Z" fill="#0D3857"/>
<path d="M33.0847 38.9232C33.0847 37.946 33.8643 37.1539 34.826 37.1539H40.0499C41.0116 37.1539 41.7912 37.946 41.7912 38.9232V86.6924H33.0847V38.9232Z" fill="#0A98C1"/>
<path d="M48.7563 47.7694C48.7563 46.7922 49.536 46.0001 50.4976 46.0001H55.7215C56.6832 46.0001 57.4628 46.7922 57.4628 47.7694V86.6924H48.7563V47.7694Z" fill="#2DB5B3"/>
<path d="M64.428 38.9232C64.428 37.946 65.2076 37.1539 66.1693 37.1539H71.3932C72.3548 37.1539 73.1344 37.946 73.1344 38.9232V86.6924H64.428V38.9232Z" fill="#0A98C1"/>
<path d="M17.4131 53.077C17.4131 52.0999 18.1927 51.3077 19.1544 51.3077H24.3783C25.34 51.3077 26.1196 52.0999 26.1196 53.077V86.6924H17.4131V53.077Z" fill="#2DB5B3"/>
<path d="M1.74133 85.8077C1.74133 83.3649 3.69034 81.3846 6.09457 81.3846H84.4528C86.857 81.3846 88.806 83.3649 88.806 85.8077C88.806 88.2505 86.857 90.2308 84.4528 90.2308H6.09457C3.69034 90.2308 1.74133 88.2505 1.74133 85.8077Z" fill="#0D3857"/>
<path fill-rule="evenodd" clip-rule="evenodd" d="M63.5573 10.6154C61.153 10.6154 59.204 8.63516 59.204 6.19236C59.204 3.74957 61.153 1.76929 63.5573 1.76929H84.4528C86.857 1.76929 88.806 3.74957 88.806 6.19236V26.5385C88.806 28.9813 86.857 30.9616 84.4528 30.9616C82.0486 30.9616 80.0995 28.9813 80.0995 26.5385V16.8706L57.0583 40.2815C55.3907 41.9759 52.6983 42.0129 50.9862 40.3648L37.5199 27.4026L9.17277 56.2046C7.47272 57.9319 4.71641 57.9319 3.01637 56.2046C1.31632 54.4772 1.31632 51.6767 3.01637 49.9494L34.3597 18.1032C36.0273 16.4088 38.7197 16.3719 40.4318 18.0199L53.8981 30.9821L73.9431 10.6154H63.5573Z" fill="#0A98C1"/>
<path fill-rule="evenodd" clip-rule="evenodd" d="M34.4215 24.2955C36.1216 26.0228 36.1216 28.8233 34.4215 30.5507L9.17277 56.2045C7.47272 57.9318 4.71641 57.9318 3.01637 56.2045C1.31632 54.4772 1.31632 51.6767 3.01637 49.9493L28.2651 24.2955C29.9652 22.5682 32.7215 22.5682 34.4215 24.2955Z" fill="#0D3857"/>
<path fill-rule="evenodd" clip-rule="evenodd" d="M59.204 6.19236C59.204 3.74957 61.153 1.76929 63.5573 1.76929H84.4528C86.857 1.76929 88.806 3.74957 88.806 6.19236V26.5385C88.806 28.9813 86.857 30.9616 84.4528 30.9616C82.0486 30.9616 80.0996 28.9813 80.0996 26.5385V16.8706L63.1529 34.0892C61.4528 35.8165 58.6965 35.8165 56.9965 34.0892C55.2964 32.3619 55.2964 29.5613 56.9965 27.834L73.9431 10.6154H63.5573C61.153 10.6154 59.204 8.63516 59.204 6.19236Z" fill="#2DB5B3"/>
<path d="M182.631 15.1093C182.878 15.2349 182.878 15.3605 183.002 15.6116C183.002 15.7372 183.002 15.9883 182.878 16.1139C182.754 16.2395 182.631 16.3651 182.383 16.3651C182.136 16.3651 182.012 16.3651 181.889 16.2395C180.899 15.4861 179.786 14.9838 178.673 14.607C177.436 14.2303 176.2 13.9792 174.963 13.9792C173.479 13.9792 171.995 14.2303 170.634 14.8582C169.274 15.4861 168.161 16.2395 167.171 17.2441C166.182 18.2486 165.44 19.5044 164.822 20.8856C164.203 22.2669 163.956 23.8994 163.956 25.6574C163.956 27.4154 164.203 28.9222 164.822 30.4291C165.44 31.8104 166.182 33.0661 167.171 34.0707C168.161 35.0753 169.274 35.9543 170.634 36.4566C171.995 37.0844 173.355 37.3356 174.963 37.3356C176.323 37.3356 177.56 37.0844 178.673 36.7077C179.786 36.331 180.899 35.7031 181.889 35.0753C182.012 34.9497 182.26 34.9497 182.383 34.9497C182.631 34.9497 182.754 35.0753 182.878 35.2008C183.002 35.3264 183.002 35.5776 183.002 35.7031C183.002 35.9543 182.878 36.0798 182.754 36.2054C182.136 36.5821 181.518 36.9589 180.652 37.4611C179.786 37.8379 178.797 38.2146 177.931 38.3401C176.942 38.5913 175.952 38.7169 174.963 38.7169C173.231 38.7169 171.624 38.3401 170.14 37.7123C168.655 37.0844 167.295 36.2054 166.182 34.9497C165.069 33.8196 164.079 32.4383 163.461 30.8058C162.843 29.1734 162.472 27.541 162.472 25.6574C162.472 23.7738 162.843 22.0158 163.461 20.5089C164.079 18.8765 165.069 17.4952 166.182 16.3651C167.295 15.2349 168.655 14.2303 170.14 13.6025C171.624 12.9746 173.231 12.5979 174.963 12.5979C176.447 12.5979 177.807 12.849 179.168 13.2258C180.405 13.728 181.518 14.2303 182.631 15.1093Z" fill="#0D3857"/>
<path d="M201.554 20.2577C201.801 20.2577 201.925 20.3833 202.048 20.5089C202.172 20.6345 202.296 20.8856 202.296 21.0112V37.7122C202.296 37.9634 202.172 38.0889 202.048 38.2145C201.925 38.3401 201.801 38.4657 201.554 38.4657C201.306 38.4657 201.183 38.3401 201.059 38.2145C200.935 38.0889 200.812 37.9634 200.812 37.7122V32.4382L201.43 31.9359C201.43 32.6894 201.183 33.4428 200.812 34.3218C200.441 35.0752 199.946 35.8287 199.204 36.4565C198.585 37.0844 197.72 37.5867 196.854 38.0889C195.988 38.4657 194.999 38.7168 193.886 38.7168C192.278 38.7168 190.918 38.3401 189.557 37.4611C188.32 36.5821 187.331 35.4519 186.589 34.0706C185.847 32.5638 185.476 30.9314 185.476 29.1733C185.476 27.2898 185.847 25.6573 186.589 24.276C187.331 22.8948 188.32 21.7646 189.557 20.8856C190.794 20.1322 192.278 19.6299 193.762 19.6299C194.752 19.6299 195.741 19.7555 196.607 20.1322C197.472 20.5089 198.338 21.0112 198.956 21.7646C199.575 22.518 200.193 23.2715 200.564 24.1505C200.935 25.0295 201.183 26.034 201.183 27.1642L200.564 26.2852V21.0112C200.564 20.76 200.688 20.6345 200.812 20.5089C201.183 20.3833 201.306 20.2577 201.554 20.2577ZM194.009 37.3355C195.37 37.3355 196.483 36.9588 197.596 36.2054C198.585 35.4519 199.451 34.5729 200.07 33.3172C200.688 32.0615 200.935 30.6802 200.935 29.0478C200.935 27.5409 200.688 26.1596 200.07 24.9039C199.451 23.6482 198.709 22.7692 197.596 22.0158C196.607 21.2623 195.37 20.8856 194.009 20.8856C192.649 20.8856 191.536 21.2623 190.423 21.8902C189.31 22.518 188.568 23.5226 187.949 24.7783C187.331 26.0341 187.084 27.4153 187.084 28.9222C187.084 30.4291 187.331 31.9359 187.949 33.1916C188.568 34.4474 189.31 35.4519 190.423 36.0798C191.536 36.9588 192.649 37.3355 194.009 37.3355Z" fill="#0D3857"/>
<path d="M208.603 38.3403C208.355 38.3403 208.232 38.2147 208.108 38.0891C207.984 37.9635 207.861 37.838 207.861 37.5868V21.0113C207.861 20.7602 207.984 20.6346 208.108 20.509C208.232 20.3835 208.355 20.2579 208.603 20.2579C208.85 20.2579 208.974 20.3835 209.097 20.509C209.221 20.6346 209.345 20.8858 209.345 21.0113V27.1644L208.726 28.1689C208.726 27.1644 208.85 26.2854 209.221 25.2808C209.592 24.2762 209.963 23.3972 210.581 22.5182C211.2 21.6392 211.942 21.0113 212.808 20.509C213.673 20.0068 214.786 19.7556 215.9 19.7556C216.271 19.7556 216.642 19.7556 217.013 19.8812C217.384 20.0068 217.631 20.2579 217.631 20.509C217.631 20.7602 217.631 20.8858 217.507 21.0113C217.384 21.1369 217.26 21.2625 217.013 21.2625C216.889 21.2625 216.642 21.2625 216.518 21.1369C216.271 21.0113 216.023 21.0113 215.652 21.0113C214.91 21.0113 214.168 21.2625 213.426 21.6392C212.684 22.1415 212.066 22.7693 211.447 23.5228C210.829 24.2762 210.334 25.1552 209.963 26.0342C209.592 26.9132 209.468 27.7922 209.468 28.6712V37.7124C209.468 37.9635 209.345 38.0891 209.221 38.2147C208.974 38.3403 208.726 38.3403 208.603 38.3403Z" fill="#0D3857"/>
<path d="M228.639 38.717C226.907 38.717 225.299 38.3402 223.939 37.5868C222.578 36.8334 221.465 35.7032 220.723 34.322C219.981 32.9407 219.487 31.1827 219.487 29.2991C219.487 27.2899 219.858 25.5319 220.6 24.1506C221.342 22.7693 222.331 21.6392 223.568 20.8858C224.805 20.1323 226.041 19.7556 227.525 19.7556C228.515 19.7556 229.504 19.8812 230.494 20.2579C231.483 20.6346 232.349 21.1369 233.091 21.7648C233.833 22.3926 234.451 23.2716 234.946 24.4018C235.441 25.4063 235.688 26.6621 235.688 28.0434C235.688 28.2945 235.564 28.4201 235.441 28.5456C235.317 28.6712 235.193 28.7968 234.946 28.7968H220.352L220.105 27.4155H234.451L234.08 27.7922V27.1644C233.957 25.9086 233.586 24.7785 232.844 23.8995C232.101 23.0205 231.359 22.3926 230.37 21.8903C229.381 21.388 228.639 21.1369 227.525 21.1369C226.783 21.1369 226.041 21.2625 225.299 21.6392C224.557 22.0159 223.815 22.5182 223.073 23.1461C222.455 23.7739 221.836 24.6529 221.465 25.6575C221.094 26.6621 220.847 27.9178 220.847 29.1735C220.847 30.6804 221.094 32.0617 221.713 33.1918C222.331 34.4475 223.197 35.4521 224.31 36.2055C225.423 36.959 226.907 37.3357 228.639 37.3357C229.504 37.3357 230.246 37.2101 230.865 36.959C231.607 36.7078 232.225 36.3311 232.844 35.8288C233.462 35.3265 233.833 34.8242 234.204 34.322C234.451 34.0708 234.575 33.9452 234.822 33.9452C234.946 33.9452 235.07 34.0708 235.193 34.1964C235.317 34.322 235.317 34.4475 235.317 34.6987C235.317 34.8242 235.317 35.0754 235.193 35.0754C234.451 36.08 233.462 36.8334 232.349 37.5868C231.359 38.3402 229.999 38.717 228.639 38.717Z" fill="#0D3857"/>
<path d="M247.932 38.717C246.201 38.717 244.593 38.3402 243.233 37.5868C241.872 36.8334 240.759 35.7032 240.017 34.322C239.275 32.9407 238.78 31.1827 238.78 29.2991C238.78 27.2899 239.151 25.5319 239.893 24.1506C240.635 22.7693 241.625 21.6392 242.862 20.8858C244.098 20.1323 245.335 19.7556 246.819 19.7556C247.809 19.7556 248.798 19.8812 249.787 20.2579C250.777 20.6346 251.643 21.1369 252.385 21.7648C253.127 22.3926 253.745 23.2716 254.24 24.4018C254.734 25.4063 254.982 26.6621 254.982 28.0434C254.982 28.2945 254.858 28.4201 254.734 28.5456C254.611 28.6712 254.487 28.7968 254.24 28.7968H239.646L239.399 27.4155H253.745L253.374 27.7922V27.1644C253.25 25.9086 252.879 24.7785 252.137 23.8995C251.395 23.0205 250.653 22.3926 249.664 21.8903C248.674 21.388 247.685 21.2625 246.696 21.2625C245.953 21.2625 245.211 21.388 244.469 21.7648C243.727 22.1415 242.985 22.6438 242.243 23.2716C241.625 23.8995 241.006 24.7785 240.635 25.7831C240.264 26.7876 240.017 28.0434 240.017 29.2991C240.017 30.8059 240.264 32.1872 240.883 33.3174C241.501 34.5731 242.367 35.5777 243.48 36.3311C244.593 37.0845 246.077 37.4612 247.809 37.4612C248.674 37.4612 249.416 37.3357 250.035 37.0845C250.777 36.8334 251.395 36.4567 252.014 35.9544C252.632 35.4521 253.003 34.9498 253.374 34.4475C253.621 34.1964 253.745 34.0708 253.992 34.0708C254.116 34.0708 254.24 34.1964 254.363 34.322C254.487 34.4475 254.487 34.5731 254.487 34.8242C254.487 34.9498 254.487 35.201 254.363 35.201C253.621 36.2055 252.632 36.959 251.519 37.7124C250.653 38.3403 249.293 38.717 247.932 38.717Z" fill="#0D3857"/>
<path d="M260.052 38.3403C259.805 38.3403 259.681 38.2147 259.557 38.0891C259.433 37.9635 259.31 37.838 259.31 37.5868V21.0113C259.31 20.7602 259.433 20.6346 259.557 20.509C259.681 20.3835 259.805 20.2579 260.052 20.2579C260.299 20.2579 260.423 20.3835 260.547 20.509C260.67 20.6346 260.794 20.8858 260.794 21.0113V27.1644L260.176 28.1689C260.176 27.1644 260.299 26.2854 260.67 25.2808C261.041 24.2762 261.412 23.3972 262.031 22.5182C262.649 21.6392 263.391 21.0113 264.257 20.509C265.123 20.0068 266.236 19.7556 267.349 19.7556C267.72 19.7556 268.091 19.7556 268.462 19.8812C268.833 20.0068 269.08 20.2579 269.08 20.509C269.08 20.7602 269.08 20.8858 268.957 21.0113C268.833 21.1369 268.709 21.2625 268.462 21.2625C268.338 21.2625 268.091 21.2625 267.967 21.1369C267.72 21.0113 267.472 21.0113 267.101 21.0113C266.359 21.0113 265.617 21.2625 264.875 21.6392C264.133 22.1415 263.515 22.7693 262.896 23.5228C262.278 24.2762 261.783 25.1552 261.412 26.0342C261.041 26.9132 260.918 27.7922 260.918 28.6712V37.7124C260.918 37.9635 260.794 38.0891 260.67 38.2147C260.423 38.3403 260.176 38.3403 260.052 38.3403Z" fill="#0D3857"/>
<path d="M277.824 35.3963H289.863V38.1776H274.457V12.3845H277.824V35.3963Z" fill="#0A98C1"/>
<path d="M308.06 31.4459H297.417L295.027 38.1776H291.573L301.273 12.3845H304.205L313.923 38.1776H310.486L308.06 31.4459ZM298.429 28.6469H307.066L302.739 16.583L298.429 28.6469Z" fill="#0A98C1"/>
<path d="M317.342 38.1776V12.3845H325.648C328.404 12.3845 330.475 12.9632 331.859 14.1206C333.255 15.278 333.953 16.9904 333.953 19.2579C333.953 20.4626 333.615 21.5314 332.941 22.4644C332.266 23.3855 331.347 24.1001 330.184 24.6079C331.556 24.9976 332.638 25.7416 333.429 26.84C334.232 27.9265 334.633 29.2256 334.633 30.7373C334.633 33.052 333.894 34.8708 332.417 36.1935C330.94 37.5162 328.852 38.1776 326.153 38.1776H317.342ZM320.692 26.1137V35.3963H326.223C327.782 35.3963 329.009 34.9889 329.905 34.174C330.812 33.3473 331.266 32.2135 331.266 30.7727C331.266 27.6667 329.602 26.1137 326.276 26.1137H320.692ZM320.692 23.3855H325.752C327.218 23.3855 328.387 23.0135 329.259 22.2695C330.143 21.5255 330.585 20.5157 330.585 19.2402C330.585 17.823 330.178 16.7956 329.364 16.1578C328.55 15.5083 327.311 15.1835 325.648 15.1835H320.692V23.3855Z" fill="#0A98C1"/>
<path d="M121.906 15.486C122.03 15.6115 122.153 15.7371 122.153 15.9883C122.153 16.1138 122.153 16.365 122.03 16.4905C121.906 16.6161 121.782 16.7417 121.659 16.7417C121.535 16.7417 121.288 16.7417 121.164 16.6161C120.175 15.8627 119.185 15.3604 118.072 14.9837C116.959 14.607 115.722 14.3558 114.486 14.3558C113.001 14.3558 111.641 14.607 110.404 15.2348C109.167 15.8627 108.054 16.6161 107.065 17.6207C106.323 18.6253 105.581 19.881 104.962 21.2623C104.468 22.6436 104.097 24.276 104.097 26.034C104.097 27.792 104.344 29.2989 104.962 30.8057C105.457 32.187 106.199 33.4427 107.189 34.4473C108.178 35.4519 109.291 36.3309 110.528 36.8332C111.765 37.4611 113.125 37.7122 114.609 37.7122C115.846 37.7122 117.083 37.4611 118.196 37.0843C119.309 36.7076 120.298 36.0798 121.288 35.4519C121.411 35.3263 121.659 35.3263 121.782 35.3263C121.906 35.3263 122.153 35.4519 122.277 35.5775C122.277 35.8286 122.277 35.9542 122.277 36.2053C122.277 36.4565 122.153 36.582 122.03 36.7076C121.535 37.0843 120.793 37.4611 119.927 37.9633C119.062 38.3401 118.196 38.7168 117.33 38.8423C116.464 39.0935 115.475 39.2191 114.609 39.2191C113.001 39.2191 111.517 38.8423 110.033 38.2145C108.673 37.5866 107.312 36.7076 106.323 35.4519C105.21 34.3218 104.344 32.9405 103.726 31.308C103.107 29.6756 102.736 28.0432 102.736 26.1596C102.736 24.276 102.984 22.518 103.726 21.0111C104.344 19.3787 105.21 17.9974 106.323 16.8673C107.436 15.7371 108.673 14.7325 110.033 14.1047C111.394 13.4768 113.001 13.1001 114.609 13.1001C115.97 13.1001 117.33 13.3512 118.567 13.728C119.804 14.1047 120.917 14.607 121.906 15.486Z" fill="#0A98C1"/>
<path d="M127.101 17.6205C126.73 17.6205 126.482 17.4949 126.235 17.2438C125.988 16.9926 125.988 16.7415 125.988 16.3648V16.1136C125.988 15.7369 126.111 15.4858 126.359 15.2346C126.606 14.9835 126.854 14.8579 127.225 14.8579C127.596 14.8579 127.843 14.9835 127.967 15.2346C128.214 15.4858 128.338 15.7369 128.338 16.1136V16.3648C128.338 16.7415 128.214 16.9926 127.967 17.2438C127.719 17.4949 127.472 17.6205 127.101 17.6205ZM127.843 37.9631C127.843 38.2143 127.719 38.3399 127.596 38.4654C127.472 38.591 127.348 38.7166 127.101 38.7166C126.854 38.7166 126.73 38.591 126.606 38.4654C126.482 38.3399 126.359 38.2143 126.359 37.9631V20.7598C126.359 20.5086 126.482 20.3831 126.606 20.2575C126.73 20.1319 126.854 20.0064 127.101 20.0064C127.348 20.0064 127.472 20.1319 127.596 20.2575C127.719 20.3831 127.843 20.6342 127.843 20.7598V37.9631Z" fill="#0A98C1"/>
<path d="M132.048 20.5087H139.839C139.963 20.5087 140.211 20.6343 140.334 20.7599C140.458 20.8854 140.582 21.011 140.582 21.2622C140.582 21.5133 140.582 21.6389 140.334 21.7644C140.211 21.89 140.087 22.0156 139.839 22.0156H132.048C131.924 22.0156 131.801 21.89 131.553 21.7644C131.43 21.6389 131.306 21.5133 131.306 21.2622C131.306 21.011 131.43 20.8854 131.553 20.7599C131.677 20.5087 131.924 20.5087 132.048 20.5087ZM135.511 15.1091C135.758 15.1091 135.882 15.2347 136.006 15.3603C136.129 15.4858 136.253 15.6114 136.253 15.8626V34.8239C136.253 35.5774 136.377 36.2052 136.5 36.5819C136.748 36.9586 136.871 37.2098 137.242 37.3354C137.613 37.4609 137.861 37.4609 138.108 37.4609C138.232 37.4609 138.355 37.4609 138.479 37.3354C138.603 37.2098 138.726 37.2098 138.85 37.2098C138.974 37.2098 139.097 37.3354 139.221 37.4609C139.345 37.5865 139.345 37.7121 139.345 37.9632C139.345 38.2144 139.221 38.3399 138.974 38.4655C138.726 38.5911 138.355 38.7166 137.984 38.7166C137.861 38.7166 137.613 38.7166 137.242 38.7166C136.871 38.7166 136.5 38.5911 136.129 38.3399C135.758 38.0888 135.387 37.7121 135.14 37.2098C134.892 36.7075 134.769 35.8285 134.769 34.8239V15.8626C134.769 15.6114 134.892 15.4858 135.016 15.3603C135.14 15.2347 135.264 15.1091 135.511 15.1091Z" fill="#0A98C1"/>
<path d="M157.154 20.0063C157.401 20.0063 157.525 20.1319 157.648 20.2575C157.772 20.3831 157.896 20.6342 157.896 20.7598V36.9585C157.896 38.8421 157.525 40.4746 156.906 41.7303C156.288 42.986 155.299 44.1162 154.062 44.8696C152.825 45.623 151.465 45.9997 149.981 45.9997C148.991 45.9997 148.002 45.8742 147.26 45.623C146.394 45.3719 145.776 44.9952 145.281 44.6184C145.157 44.4929 145.033 44.3673 144.91 44.2417C144.786 44.1161 144.786 43.865 144.91 43.7394C145.033 43.4883 145.157 43.3627 145.281 43.3627C145.405 43.2371 145.652 43.3627 145.776 43.4883C146.147 43.7394 146.765 43.9906 147.507 44.3673C148.249 44.744 149.115 44.8696 150.104 44.8696C151.465 44.8696 152.578 44.4929 153.567 43.865C154.557 43.2371 155.299 42.3581 155.917 41.1024C156.412 39.9723 156.783 38.591 156.783 37.0841V34.4471L156.906 35.3261C156.535 36.0795 156.164 36.7074 155.422 37.3353C154.804 37.9631 154.062 38.3398 153.32 38.7166C152.578 39.0933 151.712 39.2188 150.846 39.2188C149.486 39.2188 148.249 38.9677 147.383 38.3398C146.518 37.712 145.899 36.9586 145.405 35.8284C145.033 34.8238 144.786 33.5681 144.786 32.1868V20.8853C144.786 20.6342 144.786 20.5086 145.033 20.3831C145.157 20.2575 145.281 20.1319 145.528 20.1319C145.776 20.1319 145.899 20.2575 146.023 20.3831C146.147 20.5086 146.27 20.7598 146.27 20.8853V32.1868C146.27 33.9448 146.641 35.3261 147.383 36.3307C148.125 37.3353 149.238 37.8376 150.97 37.8376C151.959 37.8376 152.949 37.5864 153.814 36.9585C154.68 36.3307 155.422 35.7028 156.041 34.8238C156.659 33.9448 156.906 33.0658 156.906 32.1868V20.8853C156.906 20.6342 157.03 20.5086 157.154 20.3831C157.277 20.2575 156.906 20.0063 157.154 20.0063Z" fill="#0A98C1"/>
<path d="M110.175 74.5906C108.968 74.5906 107.9 74.2226 106.971 73.4866C106.043 72.7506 105.346 71.8071 104.882 70.6559C104.845 70.5426 104.826 70.4483 104.826 70.3728C104.826 70.203 104.882 70.0803 104.993 70.0048C105.123 69.9104 105.253 69.8633 105.383 69.8633C105.532 69.8633 105.643 69.901 105.717 69.9765C105.792 70.0331 105.857 70.118 105.912 70.2313C106.265 71.1748 106.823 71.9486 107.584 72.5525C108.346 73.1564 109.209 73.4583 110.175 73.4583C111.141 73.4583 111.968 73.2602 112.655 72.8639C113.361 72.4676 113.909 71.9108 114.299 71.1937C114.689 70.4766 114.884 69.6368 114.884 68.6743V55.0583C114.884 54.9074 114.939 54.7752 115.051 54.662C115.162 54.5488 115.311 54.4922 115.497 54.4922C115.664 54.4922 115.794 54.5488 115.887 54.662C115.998 54.7752 116.054 54.9074 116.054 55.0583V68.6743C116.054 69.8444 115.803 70.8823 115.302 71.7882C114.819 72.6752 114.131 73.364 113.24 73.8546C112.367 74.3453 111.345 74.5906 110.175 74.5906Z" fill="black"/>
<path d="M133.916 67.174C133.916 68.5705 133.619 69.8349 133.024 70.9673C132.43 72.0807 131.613 72.9677 130.573 73.6282C129.551 74.2698 128.381 74.5906 127.062 74.5906C125.762 74.5906 124.592 74.2698 123.552 73.6282C122.512 72.9677 121.685 72.0807 121.072 70.9673C120.478 69.8349 120.181 68.5705 120.181 67.174C120.181 65.7586 120.478 64.4942 121.072 63.3808C121.685 62.2485 122.512 61.3615 123.552 60.7199C124.592 60.0594 125.762 59.7291 127.062 59.7291C128.381 59.7291 129.551 60.0594 130.573 60.7199C131.613 61.3615 132.43 62.2485 133.024 63.3808C133.619 64.4942 133.916 65.7586 133.916 67.174ZM132.802 67.174C132.802 65.9474 132.551 64.8622 132.049 63.9186C131.566 62.9562 130.888 62.2013 130.015 61.654C129.161 61.0879 128.177 60.8048 127.062 60.8048C125.966 60.8048 124.982 61.0879 124.109 61.654C123.236 62.2013 122.549 62.9562 122.047 63.9186C121.546 64.8622 121.295 65.9474 121.295 67.174C121.295 68.3818 121.546 69.4669 122.047 70.4294C122.549 71.373 123.236 72.1279 124.109 72.694C124.982 73.2413 125.966 73.515 127.062 73.515C128.177 73.515 129.161 73.2413 130.015 72.694C130.888 72.1279 131.566 71.373 132.049 70.4294C132.551 69.4669 132.802 68.3818 132.802 67.174Z" fill="black"/>
<path d="M144.026 59.7291C145.27 59.7291 146.375 60.0499 147.341 60.6916C148.307 61.3143 149.069 62.1824 149.626 63.2959C150.201 64.3904 150.489 65.6548 150.489 67.0891C150.489 68.5045 150.201 69.7783 149.626 70.9106C149.069 72.043 148.298 72.9394 147.313 73.5999C146.347 74.2604 145.252 74.5906 144.026 74.5906C143.413 74.5906 142.818 74.4963 142.243 74.3076C141.685 74.1189 141.165 73.8546 140.682 73.515C140.2 73.1564 139.754 72.7318 139.345 72.2411C138.955 71.7316 138.611 71.1654 138.314 70.5426L138.676 70.1463V73.7414C138.676 73.8924 138.621 74.0245 138.509 74.1377C138.416 74.251 138.286 74.3076 138.119 74.3076C137.971 74.3076 137.841 74.251 137.729 74.1377C137.618 74.0245 137.562 73.8924 137.562 73.7414V53.9543C137.562 53.8033 137.608 53.6712 137.701 53.558C137.813 53.4448 137.952 53.3882 138.119 53.3882C138.286 53.3882 138.416 53.4448 138.509 53.558C138.621 53.6712 138.676 53.8033 138.676 53.9543V64.2017L138.314 64.0036C138.574 63.3053 138.899 62.692 139.289 62.1636C139.679 61.6351 140.125 61.1917 140.627 60.8331C141.128 60.4745 141.667 60.2009 142.243 60.0122C142.818 59.8235 143.413 59.7291 144.026 59.7291ZM143.97 60.8048C142.911 60.8048 141.973 61.0784 141.156 61.6257C140.357 62.1541 139.726 62.8901 139.262 63.8337C138.797 64.7773 138.565 65.8624 138.565 67.0891C138.565 68.3158 138.797 69.4198 139.262 70.4011C139.726 71.3636 140.357 72.1279 141.156 72.694C141.973 73.2413 142.911 73.515 143.97 73.515C145.01 73.515 145.93 73.2319 146.728 72.6657C147.545 72.0996 148.186 71.3353 148.651 70.3728C149.134 69.3915 149.375 68.2969 149.375 67.0891C149.375 65.8624 149.134 64.7773 148.651 63.8337C148.186 62.8901 147.545 62.1541 146.728 61.6257C145.93 61.0784 145.01 60.8048 143.97 60.8048Z" fill="black"/>
<path d="M162.644 54.4922C162.737 54.4922 162.83 54.511 162.922 54.5488C163.015 54.5865 163.099 54.6526 163.173 54.7469L171.169 66.8343H170.612L178.608 54.7469C178.757 54.5394 178.933 54.4544 179.137 54.4922C179.286 54.511 179.407 54.5771 179.5 54.6903C179.592 54.7847 179.639 54.9074 179.639 55.0583V73.7414C179.639 73.8924 179.574 74.0245 179.444 74.1377C179.332 74.251 179.202 74.3076 179.054 74.3076C178.887 74.3076 178.747 74.251 178.636 74.1377C178.524 74.0245 178.469 73.8924 178.469 73.7414V56.3322H178.775L171.281 67.8534C171.244 67.9289 171.188 67.9855 171.113 68.0233C171.058 68.061 170.983 68.0799 170.891 68.0799C170.798 68.0799 170.705 68.061 170.612 68.0233C170.538 67.9855 170.482 67.9289 170.445 67.8534L162.783 56.1057H163.229V73.7414C163.229 73.8924 163.173 74.0245 163.062 74.1377C162.95 74.251 162.82 74.3076 162.672 74.3076C162.505 74.3076 162.365 74.251 162.254 74.1377C162.161 74.0245 162.114 73.8924 162.114 73.7414V55.0583C162.114 54.9262 162.161 54.8036 162.254 54.6903C162.347 54.5582 162.477 54.4922 162.644 54.4922Z" fill="black"/>
<path d="M196.135 60.182C196.302 60.182 196.432 60.2386 196.525 60.3519C196.637 60.4651 196.692 60.5972 196.692 60.7482V73.7414C196.692 73.8924 196.637 74.0245 196.525 74.1377C196.414 74.251 196.284 74.3076 196.135 74.3076C195.968 74.3076 195.829 74.251 195.717 74.1377C195.624 74.0245 195.578 73.8924 195.578 73.7414V69.7217L196.024 69.3537C196.024 69.9576 195.875 70.5709 195.578 71.1937C195.281 71.8165 194.872 72.3826 194.352 72.8922C193.832 73.4017 193.219 73.8169 192.513 74.1377C191.808 74.4397 191.046 74.5906 190.229 74.5906C188.984 74.5906 187.87 74.2604 186.885 73.5999C185.92 72.9394 185.158 72.043 184.601 70.9106C184.044 69.7783 183.765 68.5045 183.765 67.0891C183.765 65.6548 184.044 64.3904 184.601 63.2959C185.177 62.1824 185.948 61.3143 186.913 60.6916C187.898 60.0499 189.003 59.7291 190.229 59.7291C191.027 59.7291 191.78 59.8801 192.485 60.182C193.191 60.4651 193.804 60.8708 194.324 61.3993C194.863 61.9277 195.281 62.5504 195.578 63.2676C195.875 63.9658 196.024 64.7301 196.024 65.5605L195.578 64.8528V60.7482C195.578 60.5972 195.624 60.4651 195.717 60.3519C195.829 60.2386 195.968 60.182 196.135 60.182ZM190.284 73.515C191.325 73.515 192.253 73.2413 193.071 72.694C193.888 72.1279 194.529 71.3636 194.993 70.4011C195.457 69.4198 195.689 68.3158 195.689 67.0891C195.689 65.9191 195.457 64.8622 194.993 63.9186C194.529 62.9562 193.888 62.2013 193.071 61.654C192.253 61.0879 191.325 60.8048 190.284 60.8048C189.263 60.8048 188.344 61.0784 187.526 61.6257C186.709 62.1541 186.059 62.8901 185.576 63.8337C185.112 64.7773 184.88 65.8624 184.88 67.0891C184.88 68.3158 185.112 69.4198 185.576 70.4011C186.04 71.3636 186.681 72.1279 187.498 72.694C188.316 73.2413 189.244 73.515 190.284 73.515Z" fill="black"/>
<path d="M201.867 74.3076C201.7 74.3076 201.56 74.251 201.449 74.1377C201.356 74.0245 201.31 73.8924 201.31 73.7414V60.7482C201.31 60.5972 201.365 60.4651 201.477 60.3519C201.588 60.2386 201.718 60.182 201.867 60.182C202.034 60.182 202.164 60.2386 202.257 60.3519C202.368 60.4651 202.424 60.5972 202.424 60.7482V65.5322L201.951 66.2682C201.951 65.5322 202.071 64.7867 202.313 64.0319C202.573 63.277 202.944 62.5787 203.427 61.9371C203.91 61.2766 204.495 60.7482 205.182 60.3519C205.888 59.9367 206.696 59.7291 207.606 59.7291C207.866 59.7291 208.145 59.7668 208.442 59.8423C208.739 59.9178 208.888 60.0971 208.888 60.3802C208.888 60.55 208.841 60.6916 208.749 60.8048C208.656 60.918 208.535 60.9746 208.386 60.9746C208.275 60.9746 208.136 60.9369 207.968 60.8614C207.82 60.767 207.597 60.7199 207.3 60.7199C206.705 60.7199 206.12 60.8991 205.545 61.2577C204.969 61.6163 204.439 62.0975 203.956 62.7014C203.492 63.2864 203.121 63.9281 202.842 64.6263C202.563 65.3246 202.424 66.004 202.424 66.6645V73.7414C202.424 73.8924 202.368 74.0245 202.257 74.1377C202.146 74.251 202.016 74.3076 201.867 74.3076Z" fill="black"/>
<path d="M212.264 74.3076C212.096 74.3076 211.957 74.251 211.846 74.1377C211.753 74.0245 211.706 73.8924 211.706 73.7414V53.926C211.706 53.775 211.753 53.6429 211.846 53.5297C211.957 53.4165 212.096 53.3599 212.264 53.3599C212.431 53.3599 212.561 53.4165 212.654 53.5297C212.765 53.6429 212.821 53.775 212.821 53.926V73.7414C212.821 73.8924 212.765 74.0245 212.654 74.1377C212.561 74.251 212.431 74.3076 212.264 74.3076ZM221.931 60.0122C222.08 60.0122 222.21 60.0688 222.321 60.182C222.433 60.2953 222.488 60.4368 222.488 60.6066C222.488 60.7765 222.423 60.918 222.293 61.0313L212.626 69.2122L212.57 67.8534L221.569 60.182C221.68 60.0688 221.801 60.0122 221.931 60.0122ZM222.098 74.3076C221.95 74.3076 221.81 74.2415 221.68 74.1094L214.938 66.806L215.774 66.07L222.488 73.3168C222.6 73.43 222.656 73.5716 222.656 73.7414C222.656 73.9301 222.581 74.0717 222.433 74.166C222.284 74.2604 222.173 74.3076 222.098 74.3076Z" fill="black"/>
<path d="M231.709 74.5906C230.316 74.5906 229.081 74.2887 228.004 73.6848C226.945 73.0809 226.109 72.2317 225.496 71.1371C224.883 70.0237 224.577 68.7215 224.577 67.2306C224.577 65.6454 224.874 64.2961 225.468 63.1826C226.081 62.0692 226.861 61.22 227.809 60.6349C228.774 60.031 229.796 59.7291 230.873 59.7291C231.653 59.7291 232.415 59.8612 233.158 60.1254C233.901 60.3707 234.56 60.767 235.136 61.3143C235.73 61.8427 236.204 62.5127 236.557 63.3242C236.928 64.1168 237.133 65.0698 237.17 66.1833C237.17 66.3342 237.114 66.4758 237.003 66.6079C236.891 66.7211 236.761 66.7777 236.612 66.7777H225.245L225.078 65.702H236.306L236.027 65.9568V65.4473C235.935 64.447 235.619 63.6073 235.08 62.9279C234.56 62.2485 233.929 61.7389 233.186 61.3993C232.443 61.0407 231.672 60.8614 230.873 60.8614C230.316 60.8614 229.731 60.9935 229.118 61.2577C228.505 61.503 227.939 61.8899 227.418 62.4183C226.898 62.9279 226.471 63.5789 226.137 64.3716C225.821 65.1642 225.663 66.0889 225.663 67.1457C225.663 68.2969 225.886 69.3537 226.332 70.3162C226.796 71.2786 227.474 72.0524 228.366 72.6374C229.276 73.2224 230.39 73.515 231.709 73.515C232.34 73.515 232.935 73.4112 233.492 73.2036C234.049 72.9771 234.551 72.6846 234.997 72.326C235.442 71.9675 235.805 71.5806 236.083 71.1654C236.232 70.9956 236.39 70.9106 236.557 70.9106C236.687 70.9106 236.798 70.9673 236.891 71.0805C236.984 71.1748 237.03 71.2881 237.03 71.4202C237.03 71.5523 236.993 71.6655 236.919 71.7599C236.343 72.5147 235.6 73.1753 234.69 73.7414C233.799 74.3076 232.805 74.5906 231.709 74.5906Z" fill="black"/>
<path d="M239.534 60.0688H245.997C246.146 60.0688 246.267 60.1254 246.36 60.2386C246.471 60.3519 246.527 60.4745 246.527 60.6066C246.527 60.7576 246.471 60.8897 246.36 61.0029C246.267 61.0973 246.146 61.1445 245.997 61.1445H239.534C239.404 61.1445 239.283 61.0879 239.172 60.9746C239.06 60.8614 239.004 60.7387 239.004 60.6066C239.004 60.4557 239.06 60.333 239.172 60.2386C239.283 60.1254 239.404 60.0688 239.534 60.0688ZM242.376 55.9076C242.543 55.9076 242.673 55.9642 242.766 56.0774C242.877 56.1906 242.933 56.3227 242.933 56.4737V71.222C242.933 71.8448 243.007 72.3072 243.156 72.6091C243.323 72.8922 243.527 73.0809 243.769 73.1753C244.01 73.2507 244.242 73.2885 244.465 73.2885C244.595 73.2885 244.707 73.2696 244.799 73.2319C244.892 73.1941 245.004 73.1753 245.134 73.1753C245.264 73.1753 245.375 73.2319 245.468 73.3451C245.561 73.4395 245.607 73.5527 245.607 73.6848C245.607 73.8546 245.496 74.0056 245.273 74.1377C245.069 74.251 244.809 74.3076 244.493 74.3076C244.381 74.3076 244.177 74.3076 243.88 74.3076C243.601 74.2887 243.295 74.2038 242.961 74.0528C242.645 73.883 242.376 73.5904 242.153 73.1753C241.93 72.7412 241.818 72.109 241.818 71.2786V56.4737C241.818 56.3227 241.874 56.1906 241.985 56.0774C242.097 55.9642 242.227 55.9076 242.376 55.9076Z" fill="black"/>
<path d="M258.784 73.7131C258.765 73.883 258.7 74.0245 258.589 74.1377C258.477 74.251 258.347 74.3076 258.199 74.3076C258.013 74.3076 257.864 74.251 257.753 74.1377C257.66 74.0245 257.614 73.883 257.614 73.7131V55.0866C257.614 54.9168 257.669 54.7752 257.781 54.662C257.892 54.5488 258.031 54.4922 258.199 54.4922C258.366 54.4922 258.505 54.5488 258.617 54.662C258.728 54.7752 258.784 54.9168 258.784 55.0866V73.7131Z" fill="black"/>
<path d="M270.212 59.7291C271.382 59.7291 272.329 59.965 273.054 60.4368C273.797 60.9086 274.335 61.5502 274.67 62.3617C275.022 63.1732 275.199 64.0791 275.199 65.0793V73.7414C275.199 73.8924 275.143 74.0245 275.032 74.1377C274.92 74.251 274.79 74.3076 274.642 74.3076C274.475 74.3076 274.335 74.251 274.224 74.1377C274.131 74.0245 274.084 73.8924 274.084 73.7414V65.1925C274.084 64.381 273.945 63.645 273.667 62.9845C273.407 62.324 272.979 61.7956 272.385 61.3993C271.809 61.0029 271.048 60.8048 270.1 60.8048C269.283 60.8048 268.484 61.0029 267.704 61.3993C266.924 61.7956 266.274 62.324 265.754 62.9845C265.253 63.645 265.002 64.381 265.002 65.1925V73.7414C265.002 73.8924 264.946 74.0245 264.835 74.1377C264.723 74.251 264.593 74.3076 264.445 74.3076C264.278 74.3076 264.138 74.251 264.027 74.1377C263.934 74.0245 263.887 73.8924 263.887 73.7414V60.7482C263.887 60.5972 263.943 60.4651 264.055 60.3519C264.166 60.2386 264.296 60.182 264.445 60.182C264.612 60.182 264.742 60.2386 264.835 60.3519C264.946 60.4651 265.002 60.5972 265.002 60.7482V63.5223L264.305 64.8811C264.305 64.2017 264.482 63.5506 264.835 62.9279C265.188 62.3051 265.652 61.7578 266.228 61.286C266.804 60.7954 267.435 60.4179 268.122 60.1537C268.828 59.8706 269.525 59.7291 270.212 59.7291Z" fill="black"/>
<path d="M291.226 53.3599C291.393 53.3599 291.523 53.4165 291.616 53.5297C291.728 53.6429 291.783 53.775 291.783 53.926V73.7414C291.783 73.8924 291.728 74.0245 291.616 74.1377C291.505 74.251 291.375 74.3076 291.226 74.3076C291.059 74.3076 290.92 74.251 290.808 74.1377C290.715 74.0245 290.669 73.8924 290.669 73.7414V69.7217L291.115 69.0989C291.115 69.7406 290.966 70.3917 290.669 71.0522C290.39 71.6938 289.982 72.2883 289.443 72.8356C288.923 73.364 288.31 73.7886 287.604 74.1094C286.898 74.4302 286.137 74.5906 285.32 74.5906C284.094 74.5906 282.989 74.2698 282.004 73.6282C281.038 72.9677 280.268 72.0807 279.692 70.9673C279.135 69.8349 278.856 68.5611 278.856 67.1457C278.856 65.7303 279.135 64.4659 279.692 63.3525C280.268 62.2202 281.038 61.3332 282.004 60.6916C282.989 60.0499 284.094 59.7291 285.32 59.7291C286.081 59.7291 286.806 59.8801 287.493 60.182C288.199 60.4651 288.821 60.8708 289.36 61.3993C289.898 61.9277 290.325 62.5504 290.641 63.2676C290.957 63.9658 291.115 64.7301 291.115 65.5605L290.669 64.8528V53.926C290.669 53.775 290.715 53.6429 290.808 53.5297C290.92 53.4165 291.059 53.3599 291.226 53.3599ZM285.375 73.515C286.434 73.515 287.363 73.2413 288.162 72.694C288.979 72.1467 289.62 71.3919 290.084 70.4294C290.548 69.4669 290.78 68.3724 290.78 67.1457C290.78 65.9191 290.548 64.8339 290.084 63.8903C289.62 62.9279 288.979 62.173 288.162 61.6257C287.344 61.0784 286.416 60.8048 285.375 60.8048C284.354 60.8048 283.434 61.0784 282.617 61.6257C281.8 62.173 281.15 62.9279 280.667 63.8903C280.203 64.8339 279.97 65.9191 279.97 67.1457C279.97 68.3535 280.203 69.4386 280.667 70.4011C281.15 71.3636 281.8 72.1279 282.617 72.694C283.434 73.2413 284.354 73.515 285.375 73.515Z" fill="black"/>
<path d="M302.558 74.5906C301.165 74.5906 299.93 74.2887 298.852 73.6848C297.794 73.0809 296.958 72.2317 296.345 71.1371C295.732 70.0237 295.426 68.7215 295.426 67.2306C295.426 65.6454 295.723 64.2961 296.317 63.1826C296.93 62.0692 297.71 61.22 298.657 60.6349C299.623 60.031 300.645 59.7291 301.722 59.7291C302.502 59.7291 303.264 59.8612 304.007 60.1254C304.75 60.3707 305.409 60.767 305.985 61.3143C306.579 61.8427 307.053 62.5127 307.406 63.3242C307.777 64.1168 307.981 65.0698 308.019 66.1833C308.019 66.3342 307.963 66.4758 307.851 66.6079C307.74 66.7211 307.61 66.7777 307.461 66.7777H296.094L295.927 65.702H307.155L306.876 65.9568V65.4473C306.783 64.447 306.468 63.6073 305.929 62.9279C305.409 62.2485 304.777 61.7389 304.035 61.3993C303.292 61.0407 302.521 60.8614 301.722 60.8614C301.165 60.8614 300.58 60.9935 299.967 61.2577C299.354 61.503 298.787 61.8899 298.267 62.4183C297.747 62.9279 297.32 63.5789 296.986 64.3716C296.67 65.1642 296.512 66.0889 296.512 67.1457C296.512 68.2969 296.735 69.3537 297.181 70.3162C297.645 71.2786 298.323 72.0524 299.215 72.6374C300.125 73.2224 301.239 73.515 302.558 73.515C303.189 73.515 303.784 73.4112 304.341 73.2036C304.898 72.9771 305.4 72.6846 305.845 72.326C306.291 71.9675 306.653 71.5806 306.932 71.1654C307.081 70.9956 307.238 70.9106 307.406 70.9106C307.536 70.9106 307.647 70.9673 307.74 71.0805C307.833 71.1748 307.879 71.2881 307.879 71.4202C307.879 71.5523 307.842 71.6655 307.768 71.7599C307.192 72.5147 306.449 73.1753 305.539 73.7414C304.647 74.3076 303.654 74.5906 302.558 74.5906Z" fill="black"/>
<path d="M310.779 59.8706C310.965 59.8706 311.114 59.9556 311.225 60.1254L321.283 73.515C321.357 73.6093 321.394 73.7225 321.394 73.8546C321.394 74.0056 321.338 74.1377 321.227 74.251C321.134 74.3642 321.013 74.4208 320.865 74.4208C320.698 74.4208 320.54 74.3359 320.391 74.166L310.306 60.8048C310.231 60.7104 310.194 60.5972 310.194 60.4651C310.194 60.2953 310.25 60.1537 310.361 60.0405C310.491 59.9273 310.631 59.8706 310.779 59.8706ZM310.779 74.4208C310.649 74.4208 310.528 74.3831 310.417 74.3076C310.306 74.2132 310.25 74.0717 310.25 73.883C310.25 73.7509 310.287 73.6376 310.361 73.5433L315.237 67.1174L315.906 67.9949L311.225 74.1943C311.114 74.3453 310.965 74.4208 310.779 74.4208ZM320.865 59.8706C321.05 59.8706 321.181 59.9178 321.255 60.0122C321.348 60.1065 321.394 60.2198 321.394 60.3519C321.394 60.4085 321.376 60.4745 321.338 60.55C321.32 60.6066 321.292 60.6633 321.255 60.7199L316.379 67.3439L315.794 66.3531L320.391 60.1254C320.54 59.9556 320.698 59.8706 320.865 59.8706Z" fill="black"/>
</svg>
