<svg width="375" height="3662" viewBox="0 0 375 3662" fill="none" xmlns="http://www.w3.org/2000/svg">
<mask id="mask0" mask-type="alpha" maskUnits="userSpaceOnUse" x="0" y="0" width="375" height="3662">
<rect width="375" height="3662" fill="url(#paint0_linear)"/>
</mask>
<g mask="url(#mask0)">
<circle opacity="0.1" cx="62.6666" cy="1793.67" r="108.333" fill="url(#paint1_linear)"/>
<circle opacity="0.1" cx="19.3333" cy="1750.33" r="108.333" fill="#2DB5B3"/>
<circle cx="-67" cy="1695" r="128.5" stroke="white" stroke-opacity="0.7"/>
<circle cx="-67" cy="1695" r="116.773" stroke="white" stroke-opacity="0.7"/>
<circle cx="-67" cy="1695" r="105.045" stroke="white" stroke-opacity="0.7"/>
<circle cx="-66.9999" cy="1695" r="93.3182" stroke="white" stroke-opacity="0.7"/>
<circle cx="-66.9997" cy="1695" r="81.5909" stroke="white" stroke-opacity="0.7"/>
<circle opacity="0.08" cx="294.202" cy="180.598" r="137.005" fill="url(#paint2_linear)"/>
<circle opacity="0.1" cx="294.201" cy="180.598" r="108.508" fill="url(#paint3_linear)"/>
<circle opacity="0.1" cx="294.202" cy="180.598" r="76.7227" transform="rotate(-75 294.202 180.598)" fill="url(#paint4_linear)"/>
<circle opacity="0.1" cx="294.202" cy="180.645" r="51.2289" transform="rotate(-75 294.202 180.645)" fill="url(#paint5_linear)"/>
<circle opacity="0.08" cx="415.862" cy="85.2426" r="71.2425" transform="rotate(-180 415.862 85.2426)" fill="url(#paint6_linear)"/>
<circle cx="447.342" cy="263.342" r="81.9283" stroke="white"/>
<circle cx="447.342" cy="263.342" r="180.842" stroke="white"/>
<circle cx="447.342" cy="263.342" r="164.357" stroke="white"/>
<circle cx="447.342" cy="263.342" r="147.871" stroke="white"/>
<circle cx="447.343" cy="263.342" r="131.385" stroke="white"/>
<circle cx="447.343" cy="263.342" r="114.9" stroke="white"/>
<circle cx="447.342" cy="263.342" r="98.414" stroke="white"/>
</g>
<defs>
<linearGradient id="paint0_linear" x1="187.5" y1="0" x2="187.5" y2="3662" gradientUnits="userSpaceOnUse">
<stop stop-color="white"/>
<stop offset="0.479167" stop-color="white"/>
<stop offset="1" stop-color="#D2F2FF"/>
</linearGradient>
<linearGradient id="paint1_linear" x1="62.6666" y1="1685.33" x2="62.6666" y2="1902" gradientUnits="userSpaceOnUse">
<stop stop-color="#0A98C1"/>
<stop offset="1" stop-color="#2DB5B3" stop-opacity="0.16"/>
</linearGradient>
<linearGradient id="paint2_linear" x1="294.202" y1="43.593" x2="294.202" y2="317.603" gradientUnits="userSpaceOnUse">
<stop stop-color="#0A98C1"/>
<stop offset="1" stop-color="#2DB5B3" stop-opacity="0"/>
</linearGradient>
<linearGradient id="paint3_linear" x1="294.201" y1="72.0901" x2="294.201" y2="289.106" gradientUnits="userSpaceOnUse">
<stop stop-color="#0A98C1"/>
<stop offset="1" stop-color="#2DB5B3" stop-opacity="0"/>
</linearGradient>
<linearGradient id="paint4_linear" x1="294.202" y1="103.875" x2="294.202" y2="257.321" gradientUnits="userSpaceOnUse">
<stop stop-color="#0A98C1"/>
<stop offset="1" stop-color="#2DB5B3" stop-opacity="0"/>
</linearGradient>
<linearGradient id="paint5_linear" x1="294.202" y1="129.416" x2="294.202" y2="231.874" gradientUnits="userSpaceOnUse">
<stop stop-color="#0A98C1"/>
<stop offset="1" stop-color="#2DB5B3" stop-opacity="0"/>
</linearGradient>
<linearGradient id="paint6_linear" x1="415.862" y1="14" x2="415.862" y2="156.485" gradientUnits="userSpaceOnUse">
<stop stop-color="#2DB5B3"/>
<stop offset="0.838542" stop-color="#0A98C1" stop-opacity="0.46"/>
</linearGradient>
</defs>
</svg>
