<svg fill="none" height="58" viewBox="0 0 58 58" width="58" xmlns="http://www.w3.org/2000/svg"><g fill="#0d3857"><path d="m54.1484 22.6562h-9.7422v-3.5683c0-1.6553-1.3466-3.002-3.0019-3.002h-1.5199v-4.9843h-.0027c-.0001-.2948-.1125-.5845-.3291-.801l-9.9687-9.968799c-.205-.205039-.4882-.331801-.8011-.331801h-27.64999c-.62565 0-1.13281.507273-1.13281 1.13281v49.61719c0 .6255.50716 1.1328 1.13281 1.1328h10.19529v2.2656c0 2.1238 1.7278 3.8516 3.8516 3.8516h14.3867c.6257 0 1.1328-.5073 1.1328-1.1328 0-.6256-.5071-1.1328-1.1328-1.1328h-14.3867c-.8745 0-1.5859-.7114-1.5859-1.586v-16.6157l16.3124 4.744v1.11c0 2.6235 2.1344 4.7578 4.7579 4.7578 2.6234 0 4.7578-2.1343 4.7578-4.7578v-1.11l16.3125-4.744v16.6157c0 .8746-.7114 1.586-1.586 1.586h-14.3867c-.6256 0-1.1328.5072-1.1328 1.1328 0 .6255.5072 1.1328 1.1328 1.1328h14.3867c2.1238 0 3.8516-1.7278 3.8516-3.8516v-27.6406c0-2.1238-1.7278-3.8516-3.8516-3.8516zm-12.0078-3.5683v3.5683h-14.9531v-3.5683c0-.406.3303-.7363.7363-.7363h13.4805c.406 0 .7363.3303.7363.7363zm-12.2249-15.22014 6.1011 6.10099h-6.1011zm-27.65008 45.74944v-47.35158h25.38438v8.83598c0 .6255.5072 1.1328 1.1328 1.1328h8.836v3.8515h-9.695c-1.6552 0-3.0019 1.3467-3.0019 3.002v3.5683h-9.7422c-2.1238 0-3.8516 1.7278-3.8516 3.8516v23.1094zm32.39848-3.7383c-1.3743 0-2.4922-1.118-2.4922-2.4922v-3.3984h4.9843v3.3984c0 1.3742-1.1179 2.4922-2.4921 2.4922zm3.625-8.1562h-7.25c-.6257 0-1.1329.5072-1.1329 1.1328v1.0615l-16.3124-4.7439v-8.6653c0-.8745.7114-1.5859 1.5859-1.5859h38.9687c.8746 0 1.586.7114 1.586 1.5859v8.6653l-16.3125 4.7439v-1.0615c0-.6256-.5072-1.1328-1.1328-1.1328z"/><path d="m21.5241 17.4453c0-.6255-.5072-1.1328-1.1328-1.1328h-13.75556c-.62565 0-1.13281.5073-1.13281 1.1328 0 .6256.50716 1.1328 1.13281 1.1328h13.75556c.6256 0 1.1328-.5072 1.1328-1.1328z"/><path d="m6.63574 12.2344h13.75556c.6256 0 1.1328-.5073 1.1328-1.1328 0-.6256-.5072-1.13285-1.1328-1.13285h-13.75556c-.62565 0-1.13281.50725-1.13281 1.13285 0 .6255.50716 1.1328 1.13281 1.1328z"/><path d="m34.6641 55.7344c-.298 0-.5902.1211-.8009.3319-.2107.2107-.332.503-.332.8009s.1213.5902.332.8008c.2107.2107.5029.332.8009.332.2979 0 .5902-.1212.8009-.332.2107-.2106.3319-.5029.3319-.8008s-.1212-.5902-.3319-.8009-.503-.3319-.8009-.3319z"/></g></svg>