<svg width="1440" height="1916" viewBox="0 0 1440 1916" fill="none" xmlns="http://www.w3.org/2000/svg">
<mask id="mask0" mask-type="alpha" maskUnits="userSpaceOnUse" x="0" y="0" width="1440" height="1916">
<rect width="1440" height="1916" fill="url(#paint0_linear)"/>
</mask>
<g mask="url(#mask0)">
<circle opacity="0.1" cx="46.2499" cy="990.25" r="193.75" fill="url(#paint1_linear)"/>
<circle opacity="0.1" cx="-31.2499" cy="912.75" r="193.75" fill="#2DB5B3"/>
<circle cx="-46.5" cy="775.5" r="192" stroke="white" stroke-opacity="0.7"/>
<circle cx="-46.5" cy="775.5" r="174.5" stroke="white" stroke-opacity="0.7"/>
<circle cx="-46.5" cy="775.5" r="157" stroke="white" stroke-opacity="0.7"/>
<circle cx="-46.5" cy="775.5" r="139.5" stroke="white" stroke-opacity="0.7"/>
<circle cx="-46.4995" cy="775.5" r="122" stroke="white" stroke-opacity="0.7"/>
<circle opacity="0.08" cx="1322.05" cy="257.821" r="235.05" fill="url(#paint2_linear)"/>
<circle opacity="0.1" cx="1322.05" cy="257.821" r="186.16" fill="url(#paint3_linear)"/>
<circle opacity="0.1" cx="1322.05" cy="257.821" r="131.628" transform="rotate(-75 1322.05 257.821)" fill="url(#paint4_linear)"/>
<circle opacity="0.1" cx="1322.05" cy="257.902" r="87.8899" transform="rotate(-75 1322.05 257.902)" fill="url(#paint5_linear)"/>
<circle opacity="0.08" cx="1530.77" cy="94.2259" r="122.226" transform="rotate(-180 1530.77 94.2259)" fill="url(#paint6_linear)"/>
<circle cx="1461.5" cy="431.5" r="45.7727" stroke="white"/>
<circle cx="1461.5" cy="431.5" r="68.9091" stroke="white"/>
<circle cx="1461.5" cy="431.5" r="92.0455" stroke="white"/>
<circle cx="1461.5" cy="431.5" r="115.182" stroke="white"/>
<circle cx="1461.5" cy="431.5" r="254" stroke="white"/>
<circle cx="1461.5" cy="431.5" r="230.864" stroke="white"/>
<circle cx="1461.5" cy="431.5" r="207.727" stroke="white"/>
<circle cx="1461.5" cy="431.5" r="184.591" stroke="white"/>
<circle cx="1461.5" cy="431.5" r="161.455" stroke="white"/>
<circle cx="1461.5" cy="431.5" r="138.318" stroke="white"/>
</g>
<defs>
<linearGradient id="paint0_linear" x1="720" y1="0" x2="720" y2="1916" gradientUnits="userSpaceOnUse">
<stop stop-color="white"/>
<stop offset="0.869792" stop-color="#CAEFFF"/>
</linearGradient>
<linearGradient id="paint1_linear" x1="46.2499" y1="796.5" x2="46.2499" y2="1184" gradientUnits="userSpaceOnUse">
<stop stop-color="#0A98C1"/>
<stop offset="1" stop-color="#2DB5B3" stop-opacity="0.16"/>
</linearGradient>
<linearGradient id="paint2_linear" x1="1322.05" y1="22.7708" x2="1322.05" y2="492.871" gradientUnits="userSpaceOnUse">
<stop stop-color="#0A98C1"/>
<stop offset="1" stop-color="#2DB5B3" stop-opacity="0"/>
</linearGradient>
<linearGradient id="paint3_linear" x1="1322.05" y1="71.6611" x2="1322.05" y2="443.98" gradientUnits="userSpaceOnUse">
<stop stop-color="#0A98C1"/>
<stop offset="1" stop-color="#2DB5B3" stop-opacity="0"/>
</linearGradient>
<linearGradient id="paint4_linear" x1="1322.05" y1="126.193" x2="1322.05" y2="389.449" gradientUnits="userSpaceOnUse">
<stop stop-color="#0A98C1"/>
<stop offset="1" stop-color="#2DB5B3" stop-opacity="0"/>
</linearGradient>
<linearGradient id="paint5_linear" x1="1322.05" y1="170.012" x2="1322.05" y2="345.792" gradientUnits="userSpaceOnUse">
<stop stop-color="#0A98C1"/>
<stop offset="1" stop-color="#2DB5B3" stop-opacity="0"/>
</linearGradient>
<linearGradient id="paint6_linear" x1="1530.77" y1="-28" x2="1530.77" y2="216.452" gradientUnits="userSpaceOnUse">
<stop stop-color="#2DB5B3"/>
<stop offset="0.838542" stop-color="#0A98C1" stop-opacity="0.46"/>
</linearGradient>
</defs>
</svg>
