<svg fill="none" height="51" viewBox="0 0 40 51" width="40" xmlns="http://www.w3.org/2000/svg"><path d="m33.8987 6.06371c-3.6209-3.67178-8.4525-5.73588-13.6046-5.812232-5.2024-.073633-10.1367 1.891342-13.89127 5.542742-3.75086 3.64788-5.853922 8.51868-5.921664 13.71498-.045086 3.4501.821294 6.8578 2.505214 9.8548 1.62491 2.8916 3.967 5.3389 6.77297 7.0776 1.77265 1.0982 2.83095 2.9969 2.83095 5.0787v4.3845c0 .6257.5072 1.1329 1.1328 1.1329h1.6415v2.8295c0 .6256.5073 1.1328 1.1328 1.1328h7.004c.6255 0 1.1328-.5072 1.1328-1.1328v-2.8297h1.6416c.6255 0 1.1328-.5071 1.1328-1.1328v-4.3846c0-2.0832 1.0546-3.9795 2.8211-5.0725 1.0456-.6471 2.0374-1.3999 2.9476-2.2373.4604-.4237.4902-1.1403.0665-1.6007-.4236-.4603-1.1403-.4902-1.6007-.0665-.8048.7407-1.6815 1.4061-2.6054 1.9779-1.1668.7219-2.1087 1.6975-2.7736 2.8335l-.459-2.4997h.0601c.6256 0 1.1328-.5071 1.1328-1.1328 0-.5377-.3747-.988-.8773-1.1039l1.6655-4.07c.6626-1.315.6395-2.867-.0645-4.1628l-5.9216-10.901c-.1982-.3649-.5801-.5921-.9954-.5921h-1.6105c-.4153 0-.7972.2271-.9954.5921l-5.9215 10.9008c-.7041 1.296-.7272 2.848-.0646 4.1629l1.6656 4.07c-.5026.1159-.8774.566-.8774 1.1039 0 .6256.5073 1.1328 1.1328 1.1328h.0599l-.4595 2.5025c-.6667-1.1381-1.6111-2.1165-2.7816-2.8417-5.14066-3.1851-8.28501-8.9239-8.20594-14.9769.05982-4.5904 1.91933-8.8948 5.23598-12.12027 3.25776-3.16814 7.51616-4.90349 12.01826-4.90349.0863 0 .1733.00068.2597.00192 9.3703.13877 16.9936 7.87824 16.9936 17.25254 0 .8083-.0564 1.6217-.1676 2.4174-.0866.6195.3454 1.192.9651 1.2787.62.0864 1.1921-.3455 1.2787-.9651.1257-.8993.1895-1.8182.1895-2.7311-.0002-5.1625-1.9965-10.02997-5.6211-13.70549zm-11.53 42.67069h-4.7383v-1.6969h4.7383zm2.7744-3.9625h-10.2872v-2.1189h10.2872zm-10.875-19.3053 5.6-10.3088h.2628l5.6001 10.3088c.3531.6499.3604 1.4299.0197 2.0864-.0159.0303-.0301.0612-.043.0928l-2.0229 4.9431h-7.3704l-2.0229-4.9431c-.0129-.0316-.0272-.0625-.043-.0928-.3408-.6564-.3335-1.4365.0196-2.0864zm9.2335 9.3881 1.016 5.5328h-9.0363l1.016-5.5328z" fill="#0d3857"/></svg>