<svg enable-background="new 0 0 891.8 372.8" viewBox="0 0 891.8 372.8" xmlns="http://www.w3.org/2000/svg"><path d="m18.1 368.1c-6.9 0-12.5-5.6-12.5-12.5v-336.7c0-6.9 5.6-12.5 12.5-12.5h854.7c6.9 0 12.5 5.6 12.5 12.5v336.7c0 6.9-5.6 12.5-12.5 12.5z" fill="#fff"/><path d="m872.9 6.9c6.6 0 12 5.4 12 12v336.7c0 6.6-5.4 12-12 12h-854.8c-6.6 0-12-5.4-12-12v-336.7c0-6.6 5.4-12 12-12zm0-1h-854.8c-7.2 0-13 5.8-13 13v336.7c0 7.2 5.8 13 13 13h854.7c7.2 0 13-5.8 13-13v-336.7c.1-7.2-5.8-13-12.9-13z" fill="#fff"/><g clip-rule="evenodd" fill="#3d7a4a" fill-rule="evenodd"><path d="m102.6 203.3 3.1-3.9.3-.6.6-.8.6-.6.3-.6.6-.3.3-.6.3-.3.3-.6.6-.3.3-.3h.3l.3-.3v-.3h1.4v.3h.3v.3l.3.3v1.4h-.3v1.1l-.3.3-1.9 6.9v.3l-.3.3v.6l-.3.3v.3l-.3.3v.8l-.3.3v.6l-.3.3v.6l-.3.6-.3.3v.3l-1.4 1.4h-.3l-.3.3h-1.1l-.3.3h-.5l-4.2-.3h-25.5l-10.6.6-.6-.3h-1.7l-.3-.3h-.3v-.3h-.3l-.3-.3v-.3h-.3v-.8l.3-.3v-.3h.3l.6-.6h.6l.3-.3h1.1l.6-.3h2.8l.3-.3h.6l.3-.3h.3l.6-.6h.3v-.3h.1l.3-.3v-.3l.3-.3v-.3l.3-.3v-1.1l.3-.6v-42.8l-.3-.3v-.8l-.6-.6v-.3l-.8-.8h-.3v-.3h-.6l-.3-.3h-1.1l-3.3-.3h-.6l-.3-.3h-.3v-.3h-.3l-.3-.3v-1.7l.8-.8h.6v-.3h1.9l.3.3h2.5l.3.3h15l.3-.3h4.7l.3.3h.3v.3h.3v.6h.3v.8l-.3.3v.3l-.6.6h-.3l-.3.3-3.1.3h-1.4l-.3.3h-.4l-.6.6h-.3l-.6.6-.3.6v.3l-.3.3v.6l-.3.3v1.1l-.3.6v42.5h.3v.6l.8.8h.3l.3.3h3.3l16.4-1.7z"/><path d="m125.9 168.9v15.8h8.3v-.3h3.6l.6-.3h.6l.6-.6h.3l.6-.6v-.3l.3-.3v-.3l.3-.6v-.6l.3-2.5v-.3h.3v-.3h.3v-.3h1.9v.3h.3v.3h.3v14.7l.3.3h-.3v1.1h-.5v.3l-.3.3h-.3l-.3.3h-.8v-.3h-.6v-.3h-.3v-.6h-.3v-2.8l-.3-.6v-.8l-.8-.8v-.3h-.3l-.6-.3-.3-.3h-.8l-.3-.3h-12v17h.3v.8l.3.3v.3l.3.3v.3l.3.3.3.3.3.3h.3l.3.3h.3l.3.3h3.1l12.2-.6 7.2-9.2.3-.3v-.3h.3v-.3h.6v-.3h.8v.3h.3v.3h.3v1.1h-.3v.8l-.3.3v.6l-.3.3v.3l-.3.5v.3l-.3.6v.6l-1.4 3.3-.3.3v.6l-.3.3v.6l-.3.3v.6l-.3.3v.3l-.3.3v.6h-.3v.3l-.3.3v.3l-.3.3v.3h-.3l-.3.3h-.8v.3l-3.6-.3h-25.6l-.6.3h-6.4v-.3h-.3l-.3-.3v-.3l-.3-.3v-.6h.3v-.9h.3v-.3h.3l.3-.3h.6l.3-.3h2.5l.6-.3h.6l.3-.3 1.4-1.4.3-.6v-.3l.3-.6v-3.6l.3-.3v-28.1l-.3-.3v-2.8l-.3-.6v-.6l-.6-.6v-.3l-.6-.6h-.3l-.3-.3h-.3l-.3-.3h-3.1v-.3h-1.4v-.3l-.3-.3v-1.7l.3-.3.3-.3h36.7l.3.3h.3v.3h.3v.3l.3.3v.3l.3.3v4.2l.3.6v3.3l.3.6v1.9h-.3v.3h-.6v.3l-.3-.3h-.6l-.3-.3-1.4-2.2-3.3-5.6zm70.9 14.4v-12.5l-.3-.3v-.8l-.3-.3v-.3l-.8-.8h-.3l-.3-.3h-.3l-.3-.3h-.6l-.3-.3h-2.8v-.3h-.8v-.3h-.3v-.6h-.3v-.8h.3v-.4h.3v-.3h.8v-.3h2.5l.6.3h6.7l.6.3.6-.3h6.1l.6-.3h2.5l.3.3h.6v.3h.3l.3.3v1.4l-.3.3v.3h-.6l-.3.3h-2.8v.3h-1.1l-.3.3h-.3l-.3.3h-.2l-.3.3v.3l-.6.6v.3l-.3.3v.6l-.3.3v35.6l.3.3v.3l.3.6 1.1 1.1h.3l.3.3h.3l.6.3h1.9v.3h1.4l.3.3h.3v.3h.3v1.7h-.3v.3h-.3l-.3.3h-6.1l-.6-.3h-10l-.3.3h-3.9l-.3-.3h-.3l-.3-.3h-.2v-1.4l.3-.3v-.3h.6v-.3h1.4l.6-.3h.8l.6-.3h.3l.3-.3h.8l.3-.3h.3v-.3h.3l.6-.6v-.3h.3v-.8l.3-.3v-1.5l.3-.6v-16.4h-26.1v17.5l.3.3v.8l.3.3v.3l.3.3v.3h.3l.6.6h.3l.3.3h.3l.6.3h.3l.3.3h1.4l.6.3h1.4v.3h.6v.3l.3.3v1.1l-.6.6h-.3l-.3.3h-3.9l-.3-.3h-10l-.6.3h-6.1l-.3-.3h-.3v-.3h-.5v-1.4l.3-.3v-.3h.6v-.3h1.1l.3-.3h2.2l.3-.3h.3l.3-.3h.3l.3-.3h.3v-.3h.3v-.3l.3-.3v-.3l.3-.3v-.8l.3-.3v-34.7l-.3-.3v-.8l-.3-.3v-.3l-.3-.3v-.3h-.3l-.3-.3v-.3h-.3l-.3-.3h-.4l-.3-.3h-1.1l-.3-.3h-2.5l-.3-.3h-.3v-.3h-.2v-.3h-.3v-1.4l.3-.3h.3v-.3h.6l.3-.3h2.2l.6.3h5.6l.6.3 1.9-.3h9.7l.3.3.3.3v.3h.3v.8h-.3v.6h-.3l-.3.3h-1.1l-.3.3h-1.9l-.3.3h-.8v.3h-.6v.3h-.3l-.6.6v.3l-.6.6v.8l-.3.3v12.5zm29.5-3.9v-1.1l.3-.3v-5.8l-.3-.6v-.6l-.3-.6v-.4l-.3-.3-.3-.6-.3-.3-.6-.3-.3-.3-.6-.3-.3-.3-.8-.3h-4.4v-.3h-.8v-.3h-.3v-.6h-.3v-1.1h.3l.3-.3h.3v-.3h6.1l.3.3h2.8l.3-.3h3.3v.3h.6v.3h.3l.3.3.3.3v.3h.3l.3.3v.3l.3.3.6 1.1 2.5 4.7 1.1 2.2.3.3.3.6.3.3v.3l.3.3v.3l.3.3v.3h.3l1.9 3.9 9.7 18.6 9.7-18.6 1.9-3.6v-.3l.3-.3.3-.6v-.3l.6-.6v-.3l.3-.6.6-.6v-.3l.3-.3v-.3l.3-.6.3-.3v-.3l2.8-4.7.6-.8v-.3l.3-.3v-.3h.3v-.3h.3v-.3h.3v-.1h.3v-.3h7l.3-.3h5.3v.3h.3v.3h.3v1.4l-.6.6h-.3l-.3.3h-.9l-2.5.3-.3.3h-.6l-.3.3h-.6l-.3.3v.3h-.3l-.3.3v.3h-.3v.6l-.3.3v6.1l.3 25.3v3.6l.3.3v1.1l.3.6v.3l.3.3v.3h.3l.8.8h.3l.3.3.3.3h.8l.3.3h2.5v.3h.6v.3h.3v.3h.3v1.4h-.3v.3h-.3v.3h-.8l-.3.3-.3-.3h-5l-.3-.3h-8.3l-.3.3h-4.4l-.3.3-.3-.3h-1.3v-.3h-.3l-.3-.3v-1.4l.3-.3v-.3h.3l.3-.3h1.7l.3-.3h1.4l.3-.3h.6l.3-.3h.3l.6-.6h.3l.3-.3v-.3l.3-.3v-.3l.3-.3v-.3l.3-.3v-1.9l.3-.6v-2.2l-.3-26.7-10.6 20-.8 1.4-3.1 6.1-.3.3-.3.6v.3l-.3.3-.3.6v.3l-.3.3-.3.6v.3l-.3.3v.3l-.3.3v.3l-.3.3v.6l-.3.3v.3l-.3.3v.3l-.3.3v.6l-.3.3v.6h-.3v.3l-.3.3v.3h-.3v.3h-.3v.3h-1.1v-.3h-.3v-.3h-.3v-.3l-.3-.3v-1.4l-.3-.3v-.3l-.3-.3v-.3l-.3-.6v-.3l-.3-.3-.6-1.1-.3-.8-.3-.6-.3-.8-.6-1.1-.3-.8-.3-.6-.6-.8-.8-1.7-.3-.8-.6-1.1-.6-.6-10.6-20-.6 20.6v8.1l.3.6v.8l.3.3.3.3v.3l.3.3h.3l.6.6h.6l.3.3h.3l3.3.6h.6v.3h.3v.3h.3v1.4l-.3.3v.3h-.2v.3h-3.9l-1.7-.3h-7.5v.3h-5.3v-.3h-.3v-.3h-.3v-1.4l.6-.6h.3l.3-.3h.3l2.8-.6h.6l.3-.3h.6v-.3h.6v-.3h.3v-.3h.3v-.3l.3-.3v-.3l.3-.3v-.8l.3-.3v-1.1l.3-.3v-1.4l.6-7.8z"/><path d="m293.8 201.9-.8 1.7-.3.3-.3.6v.3l-.3.6v.3l-.3.3v.6l-.3.3v1.1h.3v.3h.3l.3.3h.6-.3.3l.3.3h1.4l.3.3h.8l.6.3h1.1l.6.3h.6l.3.3h.3l.3.3v.3h.3v1.1l-.3.3v.3h-.6v.3h-5l-.3-.3h-7.7l-.3.3h-6.1v-.3h-.3l-.3-.3v-2.1h.3v-.3h.6v-.3h.6l2.2-.6h.3l.3-.3h.6v-.3h.6v-.2h.3l.3-.3v-.3h.3l.3-.3.3-.3v-.3l.8-.8.3-.6v-.1l.3-.3.3-.6.3-.3.3-.6 21.1-38.1.3-.3v-.3l.3-.3v-.3h.3v-.3l.3-.3h.3v-.3h.8l.3.3h.3v.3h.3v.3l.3.3v.3h.3v.3l.3.3 18.3 39.2.3.6v.3l.3.6 1.4 1.4v.3l.8.8h.3l.3.3h.8l1.7.6h.3v.3h.6v.3l.3.3v1.4l-.6.6h-1.1l-.3.3-3.6-.3h-3.9l-5.3.3h-6.4l-.6-.6v-1.4l.6-.6h.3l.3-.3h.6l.3-.3h1.1l.6-.3h.6l.3-.3h.6l.3-.3h.3l.8-.8v-.3l.3-.3-.3-.3v-.8l-.3-.3v-.3l-.3-.6v-.3l-.3-.3v-.3l-.3-.3v-.6l-.3-.3-4.7-10.3h-18.6zm21.9-13-7.5-16.4-8.3 16.4z"/><path d="m379.9 173.6v-2.8l-.3-.6v-.2l-.3-.3v-.3l-.8-.8h-.3l-.3-.3h-.3l-.3-.3h-.3l-.6-.3h-.4l-3.1-.3h-.3l-.3-.3h-.3l-.3-.3-.3-.3v-1.4l.3-.3.3-.3h.3l.3-.3h3.1l.3.3h11.1l.6-.3h3.1v.3h.6v.3l.3.3v1.4l-.3.3v.3h-.6v.3h-.6l-2.8.3h-.8l-.3.3h-.3l-.6.3-.3.3v.3l-.3.6-.3.3-.3.6v.6l-.3.6v1.1l-.3.6v6.1l-.6 17.2-.3 4.2v11.9h-.3v.3l-.3.3h-.8l-.3-.3-.6-.6h-.3v-.3l-.3-.3h-.3v-.3l-.3-.3-31.7-36.7-.8 25.6v5.3l.3.3v.8l.3.3v.6h.3v.3l.8.8h.3l.3.3h.8l.3.3h.6l.3.3h1.1l.3.3h1.1v.3h.3l.3.3v.3l.3.3v.6l-.3.3v.6h-.3l-.3.3h-6.1l-.6-.3h-5.6l-.3.3h-4.4l-.3.3-.3-.3h-.8l-.3-.3h-.3v-.3l-.3-.3v-1.1l.3-.3v-.3h.3l.3-.3h.6l.6-.3h1.1l.3-.3h1.1l.3-.3h.6l.3-.3h.3l.3-.3h.3v-.3l.3-.3h.3v-.3l.3-.3v-.6l.3-.3v-.8l.3-.3v-1.4l.6-6.4 1.1-16.4v-2.9h.3v-4.7l-.3-.3v-2.2l-.3-.3v-.3l-.6-.6v-.3l-.8-.8h-.3l-.3-.3h-.3l-.6-.3h-.8l-.3-.3h-.6l-2.8-.3h-.8l-.3-.3h-.3v-.3l-.3-.3v-1.4h.3.3v-.3h.6l.3-.3h2.8l.3.3h6.7l.3-.3h2.8l.3.3h.6v.3h.3l.3.3.6.6v.3l.8.8.3.3.3.6.3.3.6.3 27 31.4zm83.9 11.7 1.7 1.1 1.1 1.1.8.6.3.8.6.6.6.8.3.6 1.1 3.3v1.7l.3.8-.3.6v2.2l-.3.3v.6l-.3.6v.6l-.3.3v.6l-.3.3-.6 1.1-.8 1.1-.6 1.1-1.1.8-.8.8-1.4.8-1.1.8-2.8 1.1-1.7.6-1.7.3-1.7.6-1.9.3h-1.9l-1.9.3h-3.3l-4.4-.3h-17.2l-.3.3h-3.1l-.6.3h-1.4l-.3-.3h-.5v-.3h-.3v-.3l-.3-.3v-1.6h.3v-.3l.6-.6h.6l.3-.3h.3l3.3-.3h.3l.3-.3h.8v-.3h.3v-.3h.3l.6-.6.3-.3v-.6l.3-.3v-.8l.3-.3v-42.2l-.3-.6v-.6l-.3-.6v-.3l-.3-.6-.3-.3v-.3l-.8-.8h-.6l-.3-.3h-.8l-.3-.3h-1.3l-.6-.3h-1.1l-.6-.3h-.7v-.3h-.3l-.6-.6v-1.4h.3v-.3l.3-.3h.3l.3-.3h6.4l.6.3h11.4l7.8-.3h3.6l1.1.3h1.1l1.1.3.8.3 1.1.3h.8l1.1.6 1.7.6.8.6.8.3.6.6.8.6.6.6.8.6.6.6.8.6.6.8.6.6.3.8.6.6 1.4 4.2v4.4l-.8 2.5-.6.8-.6.6-.6.8-.6.6-2.5 1.7-1.1.6-.8.6-1.1.3-1.4.6-2.5.6.8.3h2.2l.6.3h.8l.6.3.8.3h.6l3.3 1.7zm-28.3 15.5v3.1l.3.3v.6l.6.6.3.6.3.3 1.7.8h.6l.8.3h.8l.8.3h1.9l.8.3h2.2l1.1-.3h2.2l.8-.3.8-.3 2.5-.8.6-.3.8-.6.5-.3 1.7-1.7.3-.6.6-.6v-.3l.3-.6v-.3l.3-.3v-.6l.3-.6v-1.1l.3-.3v-1.9l-.3-.8v-.8l-.6-1.7-.3-.6-.3-.8-.5-.6-.3-.8-.8-.6-1.1-1.1-.8-.6-.8-.6-.6-.6-1.1-.3-.8-.6-.8-.3-.6-.3-1.6-.6-1.1-.3-.8-.3h-.8l-.8-.3-1.1-.3h-1.9l-.8-.3h-5.3zm4.2-20.5h2.8l1.1-.3h1.1l2.2-.6 1.1-.3.8-.3.8-.6.8-.3 2.5-1.7.6-.6.5-.8.6-.6v-.3l.6-.6v-.3l.3-.6v-.6l.3-.3v-.8l.3-.3v-2.5l-.3-.6v-.6l-1.4-2.8-.8-.8-.3-.6-.6-.3-.5-.6-1.1-.6-.6-.6-1.1-.6-.8-.3h-.6l-.6-.3-.8-.3-.6-.3h-.8l-.6-.3h-.8l-.8-.3h-5l-.3.3h-.3l-.3.3h-.6v.3h-.3l-.3.3-.3.3v.6l-.3.3v19.6h1.1l.3.3zm63.3 9.4 1.1.6h.6l.6.6.5.3.3.3.8.6.6.3 1.1 1.1.6.8.6.6.8.6 1.1 1.7.8.8 3.9 5.3 1.7 1.7.3.6 1.1 1.1 1.1.6.6.6.5.3h.6l.3.3.5.3h3.3v-.8h.6l.3-.3h.5v-.3h.8v-.3h.6l.6.6v1.7l-.3.3v.3l-1.9 1.9h-.6l-.6.3-.3.3-.6.3-.3.3h-.8l-.3.3h-.3l-.3.3h-1.1l-.3.3h-3.6l-.3-.3h-.8l-.3-.3h-.8l-.3-.3h-.3l-.6-.6h-.1l-.6-.3-.6-.6-.6-.3-1.1-1.1-.6-.3-.6-.8-.8-.6-.6-.6-.6-.8-.6-.6-.5-.8-.8-.8-1.1-1.7-.6-1.1-.3-.3-.3-.6-.3-.3-.3-.6-.3-.3-.3-.3-.3-.6-.6-.6-.3-.6-.8-.8v-.3l-.6-.6-.6-.8-1.4-1.4-.6-.8-.8-.6-1.1-1.1-.8-.3-.5-.6-.6-.3-.8-.3-.5-.3h-.8l-.8-.3h-4.2v15.8l.3.3v.6h.3v.6h.3v.3h.3l.8.8h.3l.6.3h.6l.3.3h.8l.5.3h2.2l.3.3h.8l.3.3h.3l.3.3h.3v.3h.3v1.4h-.3v.3h-.3l-.3.3h-.6v.3h-3.3l-.5-.3h-6.1l-.6-.3h-3.6l-.6.3h-5.6l-.6.3h-2.5v-.3h-.5l-.6-.6v-.3h-.3v-.8l.3-.3v.1h.3v-.3h.3l.3-.3h.8l1.9-.3h.3l.5-.3h.6l.3-.3h.5l.3-.3h.3l.3-.3h.3v-.3h.3l.6-.6v-.3l.3-.3v-.6l.3-.3v-35l-.3-.3v-.8l-.3-.3v-.3h-.3l-.6-.6h-.3v-.3h0l-.3-.3h-.8l-3.6-.3-.3-.3h-.6l-.3-.3-.3-.3v-1.4l.3-.3h.3v.3h1.1l.3-.3h1.4l6.9.3h3.6l5.3-.3h9.7l1.1.3h.8l.8.3.8.3h.8l1.7.6.6.6.8.3.6.3.6.6.8.3 2.8 2.8.3.6.6.6.3.8.6 1.1.3.8.3.6v.8l.3.8v2.5l-.3.6v1.1l-.3.3v.3l-.3.6v.3l-.6.6v.6l-.5.6-.3.6-.6.3-.5.6-.6.3-.6.6-1.7.8-.8.3-.5-.2-.8.3h-.8l-1.7.6h-.8l-.8.3-2.2.3h1.4v.3zm-15.3-2.5h6.9l.8-.3h.8l1.7-.6.6-.3 1.7-.6.6-.3.8-.3.6-.3.6-.6.6-.3.6-.6.5-.3.6-.6v-.6l.6-.6v-.6l.3-.3.3-.3v-3.9l-.3-.3v-.3l-.3-.6v-.3l-.3-.3-.3-.3v-.3l-.3-.3-.3-.6-.3-.3-.3-.3-.6-.3-.6-.6-.6-.3-.6-.6-.8-.3-.6-.3-3.3-1.1h-.8l-.8-.3h-1.9l-1.1-.3h-1.9l-2.5.3zm40.6-11.9.6-.8.3-.6.6-.8.6-.6.3-.6.6-.8 1.1-1.1.8-.6 1.1-1.1.6-.3.8-.6.6-.6.8-.3.5-.6 1.7-.6.6-.6 1.7-.6h.8l.8-.3.6-.3.8-.3h.8l.8-.3h1.7l1.1-.3h3.9l.3.3h1.9l.3.3h1.4l.6.3h.3l1.4.3 1.4.6 1.1.3 1.4.6 2.2 1.1 1.1.8.8.6 1.1.8.8.8.8.6.8 1.1.8.8.6.8.8 1.1.5 1.1.6.6.8 2.5.3.6 1.1 3.3v.8l.3.8v.8l.3.8v5.3l-.3.6v1.7l-.3.6v.8l-.3.6v.6l-.3.6-.6 2.2-1.1 2.2-.6.8-.5 1.1-.8.8-.6 1.1-2.5 2.5-1.1.8-.8.6-2.2 1.7-1.1.6-1.7.6-.8.6-2.5.8h-.8l-.6.3-.8.3h-.8l-.8.3h-.8l-.8.3h-5l-.6-.3h-1.7l-.3-.3h-1.4l-.3-.3h-.9l-3.3-1.1-.6-.3-.8-.6-.8-.3-.5-.3-.8-.6-.6-.3-.8-.6-.6-.3-.8-.6-1.1-1.1-1.1-.8-.8-.8-.8-1.1-.8-.8-.5-1.1-.6-.8-1.7-3.3-.3-1.1-.6-1.1v-1.4l-.3-1.1-.3-1.4v-6.1l.3-.3v-.8l.3-.6v-.8l.3-.3v-1.1l.3-.3.3-.6v-.6l.3-.3v-.6l.3-.6.3-.3v-.6l.3-.3.6-1.1v-.3l.3-.6.3-.3zm6.9 23.6.3.6.3.8.6.8.3.8.6.6.3.6.6.8.3.6 1.7 1.7.6.3 1.1 1.1.6.3.8.3.3.3.6.3h.3l.6.3h.6l.3.3h.6l.6.3h1.1l.6.3h6.1l.8-.3 1.1-.3.8-.3.8-.3 1.7-.6.8-.6.8-.3 1.1-1.1.8-.6.6-.8.5-.6.3-.6.6-.8.3-.6.6-.8 1.4-4.2v-.8l.3-.8v-1.1l.3-.8v-6.7l-.3-.8v-1.4l-.3-.8v-.8l-.3-.6-.3-.8v-.8l-.3-.6-.3-.8-.3-.6-.3-1.1-.5-.8-.3-1.1-2.2-3.3-.6-.6-.6-.8-.8-.6-.6-.6-.8-.6-.6-.3-.8-.6-.8-.3-.8-.6h-.6l-.3-.3h-.8l-.3-.3h-1.1l-.5-.3h-5.2l-1.1.3h-.8l-1.1.3-1.7.6-.8.6-.8.3-1.7 1.1-.6.8-.8.6-.6.8-.8.6-.6.8-.3.8-.6.6-.3.8-.3.6-.3.8-.6.8v.8l-.3.6-.3 1.1-.3.8v.8l-.3.8v7.8l.3.8v.6l.3.8v.8l.3.6v.8l.3.6v.8l.3.6zm51.7-25.9-3.6 5-.6.6h-.3v.3l-.3.3h-.3v.3h-.3v.3h-.3v.3h-1.2v-.3h-.3v-.3l-.3-.3v-.8h.3v-.8l1.9-6.4v-.8l.3-.3v-.6l.3-.3v-.8l.3-.3v-.8l.3-.6v-.6l.3-.3v-.3l.3-.3v-.2h.3v-.3h.3l.3-.3h1.1l8.3.3h26.7l8.3-.3h1.4v.3h.6v.3h.3v.6h.3v.8l.3.6v.3l.3.6v.8l.6 1.1v.8l.3.6 1.7 6.4.3.3v1.9h-.3v.3h-1.4v-.3h-.3l-.3-.3-.3-.3-1.1-1.1-3.6-5h-.3v-.3h-.3v-.3l-.3-.3-.3-.3v-.3l-.8-.8v-.6l-.5-.2h-14.2v35.6h.3v.8l.3.3v.6l1.1 1.1h.6l.3.3.6.3h.6l.6.3h1.1l.8.3h1.9l.3.3h.6v.3h.3v.3l.3.3v.8l-.3.3v.3h-.3v.3h-.6v.3h-1.7v-.3h-5.6l-5-.3-4.7.3h-5.6v.3h-1.7l-.3-.3h-.5v-.3h-.3v-1.7l.6-.6h.6v-.3h2.2l.6-.3h1.7l.3-.3h.3l.6-.3h.6l.5-.6h.3v-.3h.3l.3-.3v-.3l.3-.3v-.3l.3-.3v-1.9l.3-.6v-33.8h-14.2l-.5.6v.3l-.6.6v.3h-.3v.3l-.3.3v.3zm90.3 10.3v-12.8l-.3-.3v-.6l-.3-.3v-.3l-.3-.3h-.3v-.3l-.3-.3h-.3l-.3-.3h-.1l-.3-.3h-.5l-.3-.3h-2.8v-.3h-.8v-.3h-.3v-.3l-.3-.3v-.8l.3-.3v.1h.3v-.3h.8v-.3h2.5l.6.3h6.7l.6.3.6-.3h6.1l.6-.3h2.5l.3.3h.5v.3h.3v.3h.3v1.4l-.3.3-.3.3h-.3l-.3.3h-2.8v.3h-1.1l-.3.3h-.3l-.3.3h-.3l-.6.6v.3l-.3.3v.3l-.3.3v.6l-.3.3v35.6l.3.3v.3l.3.6 1.1 1.1h.3l.3.3h.3l.3.3h2.2v.3h1.4l.3.3h.3v.3h.3v1.4l-.3.3v.3h-.3l-.3.3h-6.1l-.6-.3h-10.3l-.3.3h-3.6l-.3-.3h-.2l-.3-.3h-.3v-1.4l.3-.3v-.3h.6v-.3h1.4l.6-.3h.8l.6-.3h.3l.3-.3h.8l.3-.3h.3v-.3h.3l.6-.6v-.3h.3v-.6l.3-.3v-1.1l.3-.3v-16.9h-25.8v17.5l.3.3v.8l.3.3v.6h.3v.3h.3l.6.6h.3l.3.3h.3l.3.3h.6l.3.3h1.4l.6.3h1.4v.3h.5v.3l.3.3v1.1l-.6.6h-.3l-.3.3h-3.9l-.3-.3h-10l-.6.3h-6.1l-.3-.3h-.3v-.3h-.3v-1.4l.3-.3v-.3h.6v-.3h1.1l.3-.3h2.2l.3-.3h.3l.3-.3h.3l.3-.3h.3v-.3h.3v-.3l.3-.3v-.3l.3-.3v-.8l.3-.3v-34.7l-.3-.3v-1.2l-.3-.3v-.3l-.3-.3v-.3h-.3l-.3-.3v-.3h-.3l-.3-.3h-.3l-.3-.3h-1.6l-.3-.3h-2.5l-.3-.3h-.3v-.3h-.3l-.3-.3v-1.4l.3-.3h.3v-.3h.6l.3-.3h2.2l.6.3h5.5l.6.3 1.9-.3h9.7v.3h.3l.3.3v.3h.3v.8h-.3v.6h-.3l-.3.3h-1.1l-.3.3h-1.9l-.3.3h-.8v.3h-.6v.3h-.3l-.8.8v.3l-.3.3v.8l-.3.3v12.5zm34.5-14.4v15.8h8.3l.3-.3h3.6l.3-.3h.8l.6-.6h.3l.3-.3v-.2l.6-.6v-.3l.3-.6v-.6l.3-2.5v-.4h.3v-.3l.3-.3h1.9v.3h.3v.3l.3.3v15.6l-.3.3v.3h-.3v.3h-.3l-.3.3h-.8l-.3-.3h-.3v-.3h-.3v-.6h-.3v-2.8l-.3-.6v-.8l-1.1-1.1h-.3l-.6-.6h-.8l-.6-.3h-11.9v14.4l.3.3v2.5l.3.3v.6l.3.3v.3l.8.8v.3h.3l.3.3h.3l.5.3h2.8l12.5-.6 7.2-9.2v-.3h.3v-.3h.3v-.3h.3v-.3h.8l.3.3h.3v1.9l-.3.3v.6l-.3.3v.3l-.3.3v.5l-.3.3v.6l-.3.6-1.4 3.3v.8l-.3.3v.3l-.3.3v.6l-.3.3v.3h-.3v.8l-.3.3v.3h-.2v.6h-.3v.3l-.3.3h-.3v.3h-.8v.3l-3.6-.3h-25.8l-.3.3h-6.4v-.3h-.2l-.3-.3v-.3h-.3v-.8l.3-.3v-.5l.3-.3h.3l.3-.3h.6l.3-.3h2.5l.6-.3h.3l.3-.3.6-.3 1.1-1.1v-.6l.3-.3v-.6l.3-.6v-34.2l-.3-.3v-.5l-.3-.3v-.3l-.5-.6v-.3l-.3-.3h-.3l-.3-.3h-.5l-.3-.3h-3.1v-.3h-1.4v-.3h-.2v-1.9l.3-.3.3-.3h36.7l.3.3h.3v.3h.3v.6h.3v2.5l.3.6v3.3l.3.6v2.8l.3.8h-.3v.8h-.6v.3l-.3-.3h-.8v-.3h-.3l-1.1-2.2-3.3-5.6zm59.7 20.8 1.1.6h.6l.6.6 1.1.6.6.6.6.3.6.6.8.6.6.8 1.1 1.1.6.8.8.8.5.8 3.9 5.3 3.3 3.3 1.1.6.8.8h.5l1.1.6h3.1l.3-.3h.6l.3-.3h.3l.3-.3h.6v-.3h.8v.3h.3v.3l.3.3v.6l-.3.6v.6l-.5.6v.3l-.3.3-.8.8-.6.3h-.3l-.6.3-.6.3-.6.3-.3.3h-.6l-.3.3h-.3l-.3.3h-1.4l-.3.3h-3.3l-.3-.3h-.8l-.3-.3h-.8l-.3-.3h-.3l-.5-.3-.3-.3h-.3l-.6-.3-.6-.6-.5-.3-1.1-1.1-.6-.3-.6-.8-1.1-1.1-.6-.8-1.4-1.4-1.1-1.7-.8-.8-.6-1.1-.3-.3-.3-.6-.3-.3-.3-.6-.3-.3-.3-.3-.3-.6-.5-.6v-.6l-1.4-1.4v-.3l-.8-.8-.5-.8-2.5-2.5-.8-.6-.6-.3-.8-.6-1.1-.6-.8-.3h-.6l-.8-.3h-4.5v15l.3.3v.8l.3.3v.3l.3.3v.3l.3.3h.3v.3l.3.3h.3l.3.3h.3l.3.3h.8l.3.3h.8l.3.3h2.2l.6.3h.6l.3.3h.6v.3h.3v.3h.3v1.4l-.3.3h-.3v.3h-.5l-.3.3h-3.1l-.8-.3h-5.8l-.8-.3h-3.6l-.6.3h-5.3l-.6.3h-2.5l-.3-.3h-.6v-.3h-.3v-.3h-.3v-1.9h.3v-.3h.5v-.3h.8l1.9-.3h.6l.3-.3h.8l.3-.3h.6l.3-.3h.3l.6-.6h.3v-.3h.3v-.5h.3v-.6l.3-.3v-.9l.3-.3v-33.6l-.3-.3v-.6l-.3-.6v-.3l-.8-.8h-.4l-.3-.3h-.3l-.3-.3h-.6l-3.6-.3h-.3l-.3-.3h-.6v-.3h-.3v-.3l-.3-.3v-1.1h.3v-.3h.3l.3-.3h.8l.3-.3h1.4l6.9.3h3.9l5-.3h10l.8.3h1.1l.8.3.8.3h.8l.8.3.6.3.8.6.8.3.5.3.6.6.6.3.8.6 1.7 1.7.3.6.6.6.3.6.6.8.6 1.1.3.8v.6l.3.8v4.2l-.3.6v.6l-.3.3v.6l-.3.3v.3l-.3.3-.3.6-.3.3v.3l-1.4 1.4-.5.3-.6.6-1.1.6-.8.3-.6.3-.8.6-.6.3h-.6l-1.7.6h-.8l-1.1.3-1.9.3h1.1l.3.3zm-15.3-2.5h6.9l.8-.3h.8l1.7-.6.8-.3.5-.3 1.7-.6 1.1-.6.6-.6 1.1-.6 1.1-1.1.3-.6.3-.3v-.3l.3-.6.3-.3v-.8l.3-.6v-2.5l-.3-.3v-.8l-.3-.3v-.6l-.3-.3v-.3l-.8-.8-.3-.6-.3-.3-.3-.3-.6-.3-.3-.6-.8-.3-.5-.6-.6-.3-.8-.3-.6-.3-2.5-.8h-.8l-1.1-.3h-1.9l-.8-.3h-1.9l-2.8.3z"/><path d="m798.1 211.1h-.8v-.3h-.3v-1.7l.8-2.5v-.6l.3-.6v-.4l.3-.6v-.6l.3-.6v-.6l.3-.6v-1.1l.3-.6v-1.4l.3-2.8v-.8h.3v-.3h.3 1.7v.3h.3v.6h.3v.3l.3 2.2v1.1l.3.6v.6l.3.6v.3l.3.6v.6l.3.3.6 1.1.3.3.3.6 1.1 1.1.3.6.6.3.6.6 1.1.6.6.3 1.1.6.5.3.8.3.6.3h1.4l.6.3h2.8l.6-.3h.8l.6-.3.6-.3.6-.3 1.7-.8.6-.6.6-.3.3-.6.6-.6.3-.6.6-.6v-.3l.6-.6v-.3l.3-.3v-.3l.3-.3v-.8l.3-.3v-.8l.3-.3v-1.4l-.3-.3v-1.1l-.3-.3v-.3l-.3-.6v-.3l-.5-.6v-.3l-.6-.6h-.3l-.3-.6h-.3l-.6-.6-.6-.3-.3-.3-.3-.3h-.3l-.6-.3-.3-.3h-.3l-.3-.3-.6-.3h-.3l-.3-.3h-.8l-.3-.3h-1.2l-.3-.3h-.5l-.3-.3h-.6l-.6-.3h-.3l-.6-.3h-.6l-.5-.3h-.6l-.8-.3h-.6l-.6-.3h-.6l-.6-.3h-.3l-.6-.3h-.6l-.3-.3-.6-.3h-.3l-.3-.3h-.5l-.3-.3-.3-.3h.2l-.5-.3h-.3l-.8-.8-.6-.3-1.1-1.1-.3-.3-.3-.6-.6-.6-.3-.6-.3-.3-.3-.6v-.3l-.3-.6-.3-.3v-.6l-.3-.3v-.8l-.3-.3v-5.3l.3-.6v-.6l.3-.8 1.4-2.8.6-.6.3-.6.6-.6.3-.6.6-.3 1.4-1.4.6-.3 1.7-.8h.6l.8-.3.6-.3h.6l.8-.3h3.9l.6.3h1.1l.6.3h.8l1.1.6.8.3.6.3.6.3.8.3 1.1.6 1.4.8v-.3h.3v-.6h.3v-.3l.3-.3v-.3l.3-.3.3-.3h.3v-.3h1.1v.3h.5v.6h.3v1.1l-.3 2.8v5.8h.3v1.9l.3.3v1.7h-.3v.6h-.6v.3h-1.4v-.3h-.3v-.3h-.3v-.8l-.3-.6v-.6l-.3-.6v-.6l-1.1-2.2-.3-.3-.8-1.7-.6-.3-.3-.6-.6-.3-.3-.6-.6-.6-.6-.3-.6-.3-.5-.6-.6-.3-.3-.3-1.1-.6-.6-.3h-.6l-.6-.3h-.6l-.5-.3h-3.1l-.3.3h-.6l-.3.3h-.3l-.6.3-.3.3-.1 2-.6.6-.5.3-.6.6v.6l-.3.3-.3.6v.3l-.3.6v2.8l.3.8v.6l.8 1.7.6.6.3.6.6.3.6.6.6.3.8.3.6.6.8.3.8.3h.8l.3.3h.8l.3.3h.6l.3.3h1.1l.3.3h.8l1.1.3 1.1.3 1.7.6 1.1.3.8.3.8.3.5.3.8.3.8.6 1.1.6.6.6.6.3 1.1 1.1.3.3.3.6.3.3.3.6.8.8v.6l.6 1.1v.6l.3.6v1.4l.3.6v3.1l-.3 1.1v.8l-1.4 4.2-.3.6-.6.8-.3.8-1.1 1.1-.5.8-.6.6-.8.6-1.1 1.1-.8.3-.6.6-.8.3-.6.3-1.7.6-.6.3-.8.3h-.8l-.8.3h-1.9l-.8.3-.6-.3h-2.2l-.6-.3h-.8l-.8-.3h-.6l-.8-.3-.6-.3h-.8l-.8-.3-.6-.3-.8-.6-.8-.3-.5-.3-2.5-1.1h-.3v.3l-.5-1.1h-.3v.3h-.3v.3h-.3l-.3.3h-.3v.3z"/></g></svg>