<svg width="410" height="113" viewBox="0 0 410 113" fill="none" xmlns="http://www.w3.org/2000/svg">
<path d="M56.5 112C87.1518 112 112 87.1518 112 56.5C112 25.8482 87.1518 1 56.5 1C25.8482 1 1 25.8482 1 56.5C1 87.1518 25.8482 112 56.5 112Z" fill="white"/>
<path d="M99.0055 65.0556H110.028C107.861 78.621 100.641 90.8597 89.8226 99.306C79.0043 107.752 65.3916 111.779 51.7272 110.574C38.0628 109.369 25.3622 103.022 16.1841 92.8122C7.00597 82.6024 2.03249 69.2884 2.26565 55.5524C2.49881 41.8165 7.92128 28.6794 17.4406 18.788C26.9599 8.89655 39.8686 2.98585 53.566 2.24669C67.2634 1.50754 80.7315 5.99486 91.257 14.8046C101.782 23.6143 108.583 36.0918 110.289 49.7231H99.3424C99.6871 51.9553 99.8611 54.2107 99.8629 56.4694C99.8687 59.3532 99.5814 62.23 99.0055 65.0556Z" fill="#0D3857"/>
<path d="M87.8608 65.0555H99.006C96.8587 75.6941 90.8122 85.1421 82.0572 91.5393C73.3021 97.9364 62.4729 100.819 51.7018 99.6197C40.9307 98.4203 30.9982 93.2258 23.86 85.059C16.7218 76.8921 12.8952 66.3447 13.1335 55.4935C13.3719 44.6424 17.658 34.2737 25.1479 26.4292C32.6379 18.5846 42.7889 13.8326 53.6022 13.1088C64.4156 12.385 75.1077 15.7419 83.5733 22.5184C92.039 29.295 97.6647 39.0002 99.3428 49.7231H88.3048C88.7731 51.9412 89.0091 54.2022 89.009 56.4693C89.0142 59.3701 88.628 62.2583 87.8608 65.0555Z" fill="#0A98C1"/>
<path d="M76.4093 65.0555H87.8607C85.7634 72.7462 80.9234 79.3998 74.2569 83.7568C67.5905 88.1137 59.5604 89.8716 51.6868 88.6975C43.8132 87.5235 36.6427 83.499 31.5328 77.386C26.4229 71.2731 23.7282 63.4959 23.959 55.5269C24.1897 47.5579 27.3299 39.9502 32.7849 34.1441C38.24 28.3379 45.6313 24.7364 53.5596 24.0213C61.4879 23.3062 69.4028 25.5271 75.8059 30.2637C82.209 35.0002 86.6559 41.9236 88.3047 49.7231H77.0829C78.7226 54.7465 78.4832 60.1957 76.4093 65.0555Z" fill="#2DB5B3"/>
<path d="M56.4159 65.0555H76.4099C74.4089 69.7341 70.8324 73.5612 66.3035 75.8703C61.7745 78.1794 56.5802 78.8239 51.6256 77.6917C46.6709 76.5595 42.2698 73.7222 39.1892 69.6742C36.1086 65.6263 34.5437 60.6242 34.7671 55.5394C34.9905 50.4546 36.988 45.6095 40.4117 41.8482C43.8354 38.0868 48.4683 35.6476 53.5031 34.9556C58.5379 34.2636 63.6556 35.3626 67.9646 38.0611C72.2735 40.7596 75.5005 44.8866 77.0835 49.7231H56.4159V65.0555Z" fill="#D9D9D9"/>
<path d="M55.8953 67.3707C61.89 67.3707 66.7497 62.5037 66.7497 56.5C66.7497 50.4962 61.89 45.6293 55.8953 45.6293C49.9007 45.6293 45.041 50.4962 45.041 56.5C45.041 62.5037 49.9007 67.3707 55.8953 67.3707Z" fill="white"/>
<path d="M220.163 41.7655C220.267 41.8327 220.356 41.9204 220.424 42.0232C220.493 42.1261 220.539 42.2419 220.561 42.3635C220.585 42.6059 220.526 42.8493 220.393 43.0534C220.331 43.1465 220.25 43.2249 220.155 43.2832C220.059 43.3414 219.953 43.3782 219.842 43.3908C219.615 43.4042 219.39 43.3451 219.199 43.2221C217.946 42.3635 216.581 41.6824 215.142 41.1982C213.639 40.6822 212.061 40.4231 210.472 40.4316C208.66 40.4201 206.863 40.7747 205.191 41.4742C203.573 42.1748 202.11 43.1912 200.889 44.464C199.621 45.7897 198.628 47.3528 197.965 49.0638C196.536 52.7685 196.536 56.8736 197.965 60.5784C198.624 62.2912 199.618 63.8549 200.889 65.1781C202.111 66.3673 203.558 67.3003 205.145 67.9226C206.817 68.6221 208.614 68.9767 210.426 68.9652C211.988 68.9722 213.541 68.7183 215.019 68.214C216.439 67.7212 217.792 67.0516 219.046 66.2207C219.235 66.0797 219.469 66.0141 219.704 66.0368C219.821 66.0536 219.934 66.0951 220.034 66.1585C220.134 66.2219 220.22 66.3058 220.286 66.4047C220.424 66.5949 220.484 66.8308 220.454 67.064C220.442 67.1791 220.404 67.2899 220.343 67.3881C220.282 67.4863 220.2 67.5695 220.102 67.6313C219.265 68.235 218.367 68.749 217.423 69.1646C216.318 69.6472 215.17 70.022 213.994 70.2838C212.805 70.57 211.587 70.7141 210.365 70.7131C208.314 70.7257 206.283 70.3187 204.395 69.5172C202.56 68.7333 200.896 67.5979 199.496 66.1747C198.064 64.7222 196.931 63.0033 196.158 61.115C194.525 57.0359 194.525 52.4836 196.158 48.4045C196.931 46.5207 198.065 44.8069 199.496 43.3601C200.906 41.9016 202.596 40.7427 204.463 39.9524C206.331 39.1622 208.338 38.7567 210.365 38.7604C212.131 38.7511 213.888 39.0202 215.57 39.5576C217.211 40.0384 218.762 40.7842 220.163 41.7655Z" fill="white"/>
<path d="M243.526 48.0978C243.644 48.093 243.763 48.1153 243.871 48.1631C243.98 48.211 244.077 48.283 244.153 48.3738C244.233 48.4543 244.296 48.5501 244.338 48.6554C244.38 48.7608 244.401 48.8736 244.398 48.9871V69.3179C244.402 69.4352 244.381 69.5519 244.336 69.6602C244.291 69.7686 244.223 69.8662 244.138 69.9465C243.975 70.1096 243.756 70.2031 243.526 70.2072C243.406 70.213 243.287 70.1927 243.176 70.1477C243.065 70.1027 242.965 70.034 242.883 69.9465C242.802 69.8632 242.739 69.7648 242.697 69.6569C242.655 69.5489 242.635 69.4337 242.638 69.3179V63.0316L243.342 62.449C243.333 63.4514 243.092 64.4381 242.638 65.3315C242.153 66.3296 241.495 67.233 240.693 67.9993C239.84 68.8072 238.85 69.4562 237.769 69.9159C236.624 70.412 235.388 70.6627 234.141 70.6518C232.267 70.6832 230.426 70.149 228.859 69.1186C227.289 68.0612 226.027 66.6065 225.2 64.9022C224.303 63.0387 223.852 60.9912 223.884 58.9225C223.84 56.859 224.302 54.8161 225.231 52.9735C226.07 51.3096 227.338 49.9012 228.905 48.8951C230.462 47.8803 232.283 47.347 234.141 47.3619C235.369 47.3538 236.586 47.5882 237.723 48.0518C238.82 48.4978 239.818 49.1541 240.663 49.9837C241.508 50.8079 242.179 51.7933 242.638 52.8816C243.117 54.0214 243.357 55.2479 243.342 56.4847L242.638 55.3807V49.0638C242.635 48.9503 242.656 48.8375 242.698 48.7321C242.74 48.6267 242.803 48.5309 242.883 48.4505C242.954 48.3444 243.049 48.257 243.161 48.1956C243.273 48.1342 243.398 48.1007 243.526 48.0978ZM234.233 68.9959C235.806 69.0214 237.349 68.5669 238.657 67.6927C239.979 66.7914 241.036 65.5527 241.719 64.1049C242.474 62.4889 242.851 60.7217 242.821 58.9379C242.843 57.2139 242.466 55.5083 241.719 53.9548C241.027 52.5254 239.971 51.3039 238.657 50.413C237.354 49.5226 235.81 49.0518 234.233 49.0638C232.682 49.0414 231.158 49.4788 229.854 50.321C228.542 51.1872 227.485 52.3888 226.793 53.8015C226.015 55.3837 225.627 57.1289 225.66 58.8919C225.628 60.6776 226.01 62.4465 226.777 64.0589C227.455 65.51 228.513 66.7499 229.839 67.6467C231.134 68.5312 232.666 69.0016 234.233 68.9959Z" fill="white"/>
<path d="M252.283 70.2072C252.163 70.213 252.044 70.1927 251.933 70.1477C251.822 70.1026 251.722 70.034 251.64 69.9465C251.559 69.8632 251.496 69.7648 251.454 69.6568C251.412 69.5489 251.392 69.4337 251.395 69.3179V49.0638C251.395 48.9493 251.418 48.8361 251.463 48.7308C251.508 48.6255 251.573 48.5302 251.655 48.4505C251.734 48.3629 251.831 48.2931 251.94 48.2456C252.048 48.198 252.165 48.1738 252.283 48.1745C252.404 48.1706 252.524 48.1933 252.635 48.241C252.746 48.2887 252.845 48.3602 252.926 48.4505C253.076 48.619 253.158 48.8378 253.155 49.0638V56.546L252.405 57.6959C252.412 56.5058 252.614 55.3249 253.002 54.2001C253.402 53.0139 253.991 51.9006 254.748 50.9036C255.516 49.9 256.473 49.0563 257.564 48.4198C258.735 47.7736 260.055 47.4459 261.392 47.4692C261.837 47.4732 262.279 47.5351 262.708 47.6532C262.913 47.6763 263.101 47.7762 263.234 47.9327C263.368 48.0893 263.437 48.2907 263.428 48.4965C263.435 48.737 263.353 48.9716 263.198 49.1558C263.129 49.239 263.043 49.3056 262.945 49.3507C262.847 49.3958 262.74 49.4183 262.632 49.4164C262.404 49.4062 262.183 49.3376 261.989 49.2171C261.648 49.063 261.275 48.9946 260.902 49.0178C259.913 49.036 258.949 49.3278 258.116 49.861C257.184 50.4387 256.355 51.1696 255.666 52.0229C254.924 52.9526 254.32 53.9856 253.875 55.0894C253.446 56.0987 253.217 57.1818 253.201 58.2785V69.3486C253.205 69.4658 253.183 69.5825 253.139 69.6909C253.094 69.7993 253.026 69.8969 252.941 69.9772C252.854 70.0596 252.75 70.1226 252.636 70.1622C252.523 70.2018 252.402 70.2172 252.283 70.2072Z" fill="white"/>
<path d="M276.119 70.6519C274.074 70.6941 272.054 70.2027 270.256 69.226C268.568 68.3032 267.181 66.9141 266.26 65.2242C265.217 63.3514 264.689 61.2351 264.729 59.0912C264.659 56.8919 265.155 54.7114 266.168 52.7589C267.036 51.1172 268.319 49.7321 269.888 48.7418C271.337 47.8277 273.014 47.3439 274.726 47.3466C275.96 47.3456 277.186 47.5476 278.354 47.9445C279.527 48.3372 280.606 48.9689 281.523 49.7998C282.476 50.6923 283.241 51.7661 283.774 52.9582C284.405 54.3886 284.739 55.9329 284.754 57.4966C284.748 57.7359 284.656 57.9649 284.493 58.1406C284.414 58.2281 284.317 58.2979 284.209 58.3455C284.101 58.393 283.984 58.4172 283.866 58.4166H265.862L265.586 56.73H283.422L282.978 57.1287V56.3314C282.866 54.8956 282.333 53.5248 281.447 52.3909C280.635 51.3495 279.585 50.5186 278.385 49.9684C277.236 49.4279 275.981 49.1503 274.711 49.1558C273.752 49.1715 272.806 49.3747 271.924 49.7538C270.918 50.1762 270.003 50.7907 269.23 51.563C268.359 52.4371 267.677 53.4808 267.225 54.6295C266.661 56.1245 266.398 57.7163 266.45 59.3135C266.503 60.9106 266.87 62.4817 267.531 63.9363C268.237 65.4289 269.359 66.6855 270.761 67.5547C272.35 68.5194 274.186 68.9989 276.043 68.9346C277.01 68.94 277.969 68.7685 278.875 68.4287C279.735 68.1024 280.54 67.6475 281.263 67.0794C281.927 66.5657 282.506 65.9499 282.978 65.2549C283.07 65.1382 283.186 65.0424 283.318 64.9737C283.45 64.905 283.595 64.865 283.743 64.8562C283.842 64.8581 283.94 64.8809 284.03 64.9232C284.119 64.9655 284.199 65.0262 284.264 65.1015C284.408 65.2496 284.49 65.447 284.493 65.6535C284.499 65.8487 284.433 66.0392 284.31 66.1901C283.328 67.4148 282.136 68.4534 280.789 69.2566C279.395 70.154 277.776 70.6377 276.119 70.6519Z" fill="white"/>
<path d="M300.063 70.6519C298.019 70.6919 295.998 70.2007 294.2 69.2259C292.512 68.3032 291.125 66.9141 290.204 65.2242C289.161 63.3513 288.633 61.2351 288.673 59.0912C288.611 56.8926 289.106 54.714 290.112 52.7589C290.98 51.1172 292.263 49.7321 293.832 48.7418C295.281 47.8293 296.959 47.3456 298.67 47.3466C299.904 47.3456 301.13 47.5476 302.299 47.9445C303.471 48.3372 304.55 48.9688 305.468 49.7997C306.434 50.6974 307.201 51.7894 307.718 53.0042C308.333 54.4226 308.656 55.9505 308.667 57.4966C308.668 57.7371 308.574 57.9682 308.407 58.1406C308.329 58.2262 308.235 58.2949 308.129 58.3424C308.024 58.3898 307.91 58.4151 307.795 58.4166H289.745L289.469 56.73H307.305L306.861 57.1286V56.3314C306.749 54.8956 306.216 53.5248 305.33 52.3909C304.518 51.3495 303.468 50.5186 302.268 49.9684C301.118 49.4279 299.863 49.1503 298.594 49.1558C297.635 49.1731 296.689 49.3761 295.807 49.7538C294.801 50.1762 293.885 50.7907 293.113 51.563C292.242 52.4371 291.56 53.4807 291.107 54.6295C290.561 56.0092 290.295 57.4845 290.327 58.9685C290.311 60.6853 290.682 62.3835 291.414 63.9362C292.12 65.4289 293.241 66.6855 294.644 67.5547C296.266 68.5672 298.154 69.0693 300.063 68.9959C301.03 69.0013 301.99 68.8298 302.896 68.49C303.755 68.1637 304.56 67.7088 305.284 67.1407C305.949 66.6229 306.532 66.0079 307.014 65.3162C307.102 65.1984 307.215 65.1016 307.344 65.0327C307.474 64.9638 307.617 64.9244 307.764 64.9175C307.863 64.9194 307.961 64.9423 308.05 64.9845C308.14 65.0268 308.22 65.0876 308.284 65.1628C308.428 65.3109 308.51 65.5083 308.514 65.7148C308.519 65.91 308.454 66.1005 308.33 66.2514C307.355 67.4759 306.167 68.5145 304.825 69.3179C303.396 70.2058 301.745 70.6684 300.063 70.6519Z" fill="white"/>
<path d="M315.005 70.2072C314.886 70.213 314.766 70.1927 314.655 70.1476C314.544 70.1026 314.444 70.034 314.362 69.9465C314.282 69.8632 314.219 69.7647 314.177 69.6568C314.135 69.5489 314.115 69.4337 314.117 69.3179V49.0638C314.118 48.9493 314.141 48.8361 314.186 48.7308C314.23 48.6255 314.296 48.5302 314.378 48.4505C314.457 48.3629 314.554 48.2931 314.662 48.2456C314.77 48.198 314.887 48.1738 315.005 48.1745C315.124 48.1696 315.242 48.192 315.351 48.2398C315.46 48.2876 315.556 48.3597 315.633 48.4505C315.713 48.5309 315.776 48.6267 315.818 48.7321C315.86 48.8375 315.881 48.9503 315.878 49.0638V56.546L315.128 57.6959C315.135 56.5058 315.336 55.3249 315.725 54.2001C316.125 53.0139 316.714 51.9006 317.47 50.9036C318.235 49.8967 319.193 49.0524 320.287 48.4198C321.458 47.7736 322.778 47.4459 324.114 47.4692C324.559 47.4732 325.002 47.5351 325.431 47.6532C325.635 47.6763 325.823 47.7762 325.957 47.9327C326.09 48.0893 326.16 48.2907 326.151 48.4965C326.157 48.737 326.076 48.9716 325.921 49.1558C325.852 49.239 325.765 49.3056 325.667 49.3507C325.569 49.3958 325.462 49.4183 325.355 49.4164C325.127 49.4062 324.905 49.3376 324.712 49.2171C324.37 49.0642 323.998 48.9958 323.625 49.0178C322.636 49.036 321.672 49.3278 320.838 49.861C319.884 50.4575 319.039 51.2148 318.343 52.0996C317.6 53.0293 316.997 54.0623 316.552 55.1661C316.123 56.1753 315.894 57.2585 315.878 58.3552V69.4252C315.882 69.5425 315.86 69.6592 315.815 69.7675C315.771 69.8759 315.703 69.9735 315.618 70.0538C315.439 70.1783 315.221 70.2329 315.005 70.2072Z" fill="white"/>
<path d="M350.859 65.9294C351.43 65.9245 351.98 66.1448 352.39 66.5427C352.786 66.9542 353.008 67.5039 353.008 68.0759C353.008 68.6479 352.786 69.1976 352.39 69.6092C351.98 70.007 351.43 70.2273 350.859 70.2225H336.009C335.709 70.2309 335.411 70.178 335.132 70.067C334.853 69.9559 334.6 69.7891 334.388 69.5767C334.176 69.3642 334.009 69.1107 333.898 68.8316C333.787 68.5524 333.735 68.2535 333.743 67.9533V41.3975C333.737 41.0947 333.794 40.7939 333.91 40.5142C334.026 40.2345 334.198 39.9819 334.417 39.7722C334.646 39.5578 334.916 39.3917 335.21 39.2837C335.505 39.1757 335.818 39.1281 336.131 39.1436C336.703 39.1477 337.252 39.3729 337.662 39.7722C337.883 39.9801 338.057 40.2324 338.173 40.5126C338.289 40.7927 338.345 41.0943 338.336 41.3975V66.6193L337.402 65.868L350.859 65.9294Z" fill="#0A98C1"/>
<path d="M369.215 44.9547L359.264 68.8732C359.112 69.3155 358.836 69.7042 358.468 69.9925C358.124 70.2533 357.705 70.3934 357.274 70.3912C356.992 70.4248 356.706 70.391 356.44 70.2923C356.174 70.1937 355.935 70.0331 355.743 69.8239C355.409 69.4347 355.219 68.9417 355.207 68.4286C355.215 68.1877 355.262 67.9496 355.345 67.7233L366.582 40.5236C366.758 40.0567 367.074 39.6553 367.485 39.3737C367.867 39.1138 368.325 38.9896 368.786 39.021C369.249 39.0314 369.697 39.1841 370.069 39.4585C370.442 39.7328 370.721 40.1154 370.868 40.5543L381.968 67.3553C382.087 67.6367 382.149 67.939 382.151 68.2446C382.16 68.525 382.112 68.8043 382.011 69.0661C381.911 69.3279 381.759 69.5671 381.565 69.7697C381.372 69.9723 381.14 70.1343 380.883 70.2462C380.626 70.3582 380.349 70.4179 380.069 70.4218C379.63 70.4175 379.204 70.2665 378.86 69.9925C378.491 69.7114 378.205 69.3351 378.033 68.9039L367.99 45.1233L369.215 44.9547ZM361.04 62.587L363.03 58.3399H375.553L376.303 62.587H361.04Z" fill="#0A98C1"/>
<path d="M400.141 39.205C402.363 39.0522 404.557 39.7665 406.265 41.1982C407.002 41.9619 407.57 42.8729 407.932 43.8717C408.293 44.8704 408.44 45.9344 408.362 46.9939C408.385 48.2598 408.056 49.5071 407.413 50.597C406.756 51.7062 405.787 52.5968 404.627 53.1575C403.187 53.8203 401.618 54.1504 400.034 54.1235L400.126 52.4829C401.189 52.4964 402.247 52.6302 403.28 52.8815C404.421 53.1577 405.508 53.6242 406.494 54.2615C407.514 54.9361 408.363 55.839 408.975 56.8986C409.658 58.1681 409.991 59.5971 409.939 61.0384C409.99 62.5826 409.692 64.1184 409.067 65.5308C408.53 66.6548 407.719 67.6252 406.709 68.352C405.74 69.0249 404.655 69.5134 403.509 69.7932C402.386 70.0641 401.235 70.203 400.08 70.2072H388.858C388.284 70.199 387.735 69.9681 387.327 69.5632C387.121 69.3646 386.956 69.1266 386.843 68.8633C386.73 68.6 386.671 68.3166 386.669 68.03V41.3975C386.66 41.0957 386.714 40.7954 386.827 40.5156C386.941 40.2358 387.111 39.9827 387.327 39.7723C387.737 39.3716 388.286 39.1462 388.858 39.1437L400.141 39.205ZM399.575 43.5441H390.848L391.384 42.8235V52.3602L390.894 51.8696H399.575C400.612 51.8488 401.609 51.4634 402.392 50.781C402.809 50.3929 403.135 49.9159 403.344 49.3852C403.553 48.8546 403.641 48.2837 403.601 47.7145C403.638 47.1549 403.559 46.5938 403.369 46.0662C403.179 45.5386 402.883 45.0558 402.499 44.648C401.704 43.9138 400.656 43.5179 399.575 43.5441ZM399.881 56.2087H391.078L391.384 55.902V66.3587L391.032 65.9601H400.141C401.489 66.0198 402.812 65.5835 403.861 64.7335C404.356 64.2613 404.739 63.6845 404.982 63.0453C405.226 62.4061 405.324 61.7204 405.27 61.0384C405.352 59.9495 405.054 58.8658 404.428 57.9719C403.901 57.3061 403.177 56.8233 402.361 56.592C401.541 56.347 400.691 56.218 399.835 56.2087H399.881Z" fill="#0A98C1"/>
<path d="M145.025 42.2102C145.226 42.3514 145.364 42.5662 145.408 42.8082C145.429 43.0505 145.37 43.293 145.239 43.4982C145.187 43.5918 145.112 43.6706 145.021 43.727C144.93 43.7833 144.826 43.8154 144.719 43.8201C144.503 43.8369 144.288 43.7831 144.106 43.6668C142.936 42.8144 141.653 42.1282 140.294 41.6276C138.879 41.1254 137.387 40.8712 135.885 40.8763C134.167 40.8647 132.465 41.2202 130.894 41.9189C129.351 42.6125 127.965 43.6142 126.822 44.8627C125.595 46.17 124.638 47.7071 124.005 49.3858C122.656 53.1052 122.656 57.1811 124.005 60.9005C124.61 62.6014 125.547 64.1649 126.761 65.5002C127.901 66.7527 129.287 67.755 130.833 68.444C132.404 69.1428 134.105 69.4982 135.824 69.4866C137.317 69.5005 138.8 69.246 140.203 68.7353C141.554 68.2379 142.835 67.568 144.015 66.7421C144.098 66.6671 144.197 66.6113 144.304 66.5787C144.412 66.5462 144.525 66.5376 144.636 66.5537C144.747 66.5698 144.853 66.6101 144.947 66.6718C145.04 66.7335 145.119 66.8151 145.178 66.9108C145.321 67.0624 145.412 67.2557 145.438 67.4627C145.426 67.5759 145.389 67.6851 145.331 67.7829C145.273 67.8808 145.195 67.965 145.102 68.03C144.316 68.6292 143.469 69.1432 142.575 69.5633C141.536 70.0367 140.455 70.4114 139.345 70.6825C138.224 70.9676 137.072 71.1119 135.916 71.1119C133.974 71.126 132.052 70.718 130.282 69.9159C128.546 69.1165 126.985 67.9805 125.689 66.5735C124.305 65.1023 123.213 63.3798 122.474 61.4984C120.943 57.4002 120.943 52.886 122.474 48.7878C123.193 46.9195 124.264 45.207 125.628 43.7435C126.919 42.3318 128.481 41.1951 130.221 40.401C131.99 39.5989 133.912 39.1909 135.855 39.2051C137.521 39.1966 139.176 39.466 140.754 40.0024C142.292 40.4919 143.736 41.2384 145.025 42.2102Z" fill="#0A98C1"/>
<path d="M151.425 44.832C151.228 44.8404 151.031 44.8079 150.847 44.7367C150.662 44.6655 150.494 44.557 150.354 44.418C150.222 44.2851 150.119 44.1269 150.051 43.953C149.983 43.779 149.95 43.5929 149.956 43.4061V43.0534C149.95 42.8615 149.985 42.6706 150.059 42.4934C150.133 42.3163 150.244 42.157 150.384 42.0261C150.681 41.7559 151.071 41.6128 151.471 41.6275C151.653 41.626 151.833 41.6605 152.001 41.7289C152.169 41.7973 152.322 41.8983 152.451 42.0261C152.714 42.3022 152.858 42.6717 152.849 43.0534V43.4061C152.853 43.5945 152.819 43.7818 152.749 43.9566C152.679 44.1315 152.575 44.2904 152.441 44.4237C152.308 44.5569 152.15 44.6618 151.975 44.732C151.801 44.8021 151.614 44.8362 151.425 44.832ZM152.267 69.7625C152.267 69.9983 152.174 70.2244 152.007 70.3911C151.931 70.4738 151.839 70.5399 151.736 70.585C151.633 70.6302 151.522 70.6535 151.41 70.6535C151.298 70.6535 151.187 70.6302 151.084 70.585C150.981 70.5399 150.889 70.4738 150.813 70.3911C150.662 70.2171 150.58 69.9932 150.583 69.7625V48.7264C150.583 48.4906 150.677 48.2645 150.844 48.0978C150.917 48.0165 151.007 47.9515 151.107 47.9066C151.207 47.8618 151.316 47.8381 151.425 47.8371C151.538 47.8328 151.65 47.854 151.754 47.8992C151.857 47.9443 151.949 48.0122 152.022 48.0978C152.178 48.2703 152.265 48.4939 152.267 48.7264V69.7625Z" fill="#0A98C1"/>
<path d="M157.519 48.3738H167.21C167.318 48.3696 167.426 48.3911 167.524 48.4363C167.622 48.4816 167.709 48.5495 167.776 48.6345C167.924 48.792 168.007 49.0006 168.006 49.2171C168.009 49.4387 167.927 49.6529 167.776 49.8151C167.702 49.8903 167.614 49.9496 167.517 49.9892C167.419 50.0287 167.315 50.0478 167.21 50.0451H157.519C157.416 50.0446 157.314 50.0209 157.221 49.9758C157.129 49.9306 157.047 49.8653 156.983 49.7844C156.904 49.7117 156.841 49.6242 156.796 49.5268C156.752 49.4295 156.727 49.3242 156.723 49.2171C156.721 49.1024 156.744 48.9887 156.789 48.8831C156.833 48.7775 156.9 48.6824 156.983 48.6038C157.124 48.4594 157.317 48.3767 157.519 48.3738ZM161.79 41.8576C161.903 41.8554 162.014 41.8776 162.117 41.9226C162.22 41.9675 162.312 42.0343 162.387 42.1182C162.539 42.2922 162.62 42.5161 162.617 42.7468V65.8222C162.575 66.5549 162.695 67.2879 162.969 67.9687C163.148 68.3679 163.471 68.6853 163.872 68.858C164.204 68.9877 164.557 69.0553 164.913 69.0573C165.086 69.0623 165.258 69.0309 165.418 68.9653C165.579 68.8997 165.751 68.8683 165.924 68.8733C166.018 68.8766 166.111 68.9002 166.195 68.9425C166.28 68.9848 166.354 69.0449 166.414 69.1186C166.548 69.2713 166.624 69.467 166.628 69.6706C166.62 69.8184 166.572 69.9612 166.488 70.083C166.405 70.2049 166.289 70.301 166.153 70.3606C165.79 70.5675 165.377 70.6684 164.959 70.6519H164.056C163.572 70.6262 163.101 70.4898 162.678 70.2532C162.134 69.9415 161.705 69.4632 161.453 68.8886C161.067 67.9576 160.894 66.9516 160.948 65.9448V42.7468C160.945 42.631 160.965 42.5158 161.008 42.4079C161.05 42.3 161.113 42.2015 161.193 42.1182C161.27 42.0365 161.362 41.9713 161.465 41.9265C161.568 41.8817 161.678 41.8583 161.79 41.8576Z" fill="#0A98C1"/>
<path d="M188.595 47.8371C188.71 47.8327 188.825 47.8538 188.931 47.8988C189.036 47.9439 189.131 48.0118 189.208 48.0978C189.359 48.2718 189.441 48.4957 189.437 48.7264V68.4746C189.494 70.5194 189.047 72.5466 188.136 74.3776C187.349 75.9552 186.134 77.2786 184.63 78.1953C183.102 79.1 181.353 79.5618 179.578 79.5293C178.411 79.5441 177.25 79.3786 176.133 79.0386C175.241 78.7805 174.398 78.3764 173.638 77.8427C173.454 77.6934 173.298 77.5115 173.179 77.306C173.126 77.2041 173.099 77.0911 173.099 76.9764C173.099 76.8617 173.126 76.7487 173.179 76.6468C173.279 76.4305 173.453 76.2567 173.669 76.1561C173.766 76.1095 173.875 76.0934 173.981 76.1098C174.088 76.1262 174.187 76.1744 174.266 76.2481C174.961 76.6489 175.682 77.0023 176.424 77.306C177.447 77.7348 178.546 77.9487 179.655 77.9347C181.156 77.9692 182.633 77.5526 183.895 76.7388C185.142 75.9089 186.137 74.7529 186.773 73.3963C187.481 71.8538 187.831 70.1715 187.799 68.4746V65.2088V66.3127C187.388 67.2343 186.782 68.0556 186.023 68.7199C185.254 69.4611 184.37 70.0722 183.405 70.5291C182.44 70.9526 181.398 71.1718 180.344 71.1731C178.854 71.2314 177.38 70.8531 176.103 70.0845C175.006 69.3641 174.16 68.3189 173.684 67.0947C173.135 65.6674 172.87 64.1466 172.903 62.6176V48.8184C172.9 48.5877 172.981 48.3638 173.133 48.1898C173.211 48.1054 173.306 48.0386 173.411 47.9937C173.517 47.9488 173.631 47.9267 173.745 47.9291C173.858 47.9248 173.97 47.946 174.073 47.9912C174.177 48.0363 174.269 48.1042 174.342 48.1898C174.498 48.3623 174.585 48.5859 174.587 48.8184V62.6176C174.493 64.3833 174.948 66.1349 175.888 67.6313C176.42 68.2849 177.106 68.7964 177.883 69.1201C178.66 69.4439 179.506 69.5697 180.344 69.4865C181.601 69.4843 182.834 69.1398 183.911 68.4899C185.019 67.8434 185.971 66.9584 186.697 65.8987C187.384 64.9412 187.763 63.7966 187.784 62.6176V48.8184C187.78 48.5877 187.862 48.3638 188.014 48.1898C188.078 48.0909 188.163 48.0078 188.264 47.9467C188.365 47.8856 188.478 47.8482 188.595 47.8371Z" fill="#0A98C1"/>
<path d="M135.318 83.4391C135.376 83.4731 135.425 83.5198 135.462 83.5755C135.499 83.6313 135.523 83.6947 135.533 83.7611C135.546 83.8956 135.514 84.0307 135.441 84.1444C135.411 84.1996 135.367 84.2458 135.313 84.2781C135.259 84.3105 135.197 84.3278 135.135 84.3284C135.002 84.3805 134.854 84.3805 134.721 84.3284C134.027 83.8484 133.269 83.4667 132.471 83.1938C131.642 82.9136 130.773 82.7737 129.899 82.7798C128.891 82.7692 127.891 82.9621 126.959 83.3471C126.062 83.7288 125.25 84.2866 124.571 84.9877C123.905 85.7143 123.385 86.5629 123.04 87.4869C122.244 89.5382 122.244 91.8138 123.04 93.8651C123.385 94.7891 123.905 95.6377 124.571 96.3643C125.288 97.0499 126.137 97.582 127.067 97.9282C127.998 98.3132 128.998 98.5061 130.006 98.4955C130.862 98.51 131.715 98.3858 132.532 98.1276C133.308 97.8394 134.044 97.453 134.721 96.9776C134.773 96.9379 134.832 96.9092 134.895 96.8933C134.959 96.8775 135.024 96.8749 135.089 96.8856C135.153 96.8903 135.215 96.9092 135.27 96.9411C135.326 96.9729 135.374 97.0168 135.41 97.0696C135.483 97.1776 135.516 97.3079 135.502 97.4376C135.497 97.5016 135.478 97.5638 135.447 97.6195C135.415 97.6752 135.371 97.7231 135.318 97.7596C134.836 98.0806 134.323 98.3528 133.787 98.5722C133.175 98.8388 132.54 99.0492 131.889 99.2008C131.231 99.352 130.558 99.4292 129.884 99.4308C128.748 99.4345 127.624 99.2103 126.577 98.7715C125.609 98.323 124.736 97.6933 124.005 96.9163C123.216 96.1123 122.587 95.1653 122.152 94.1258C121.254 91.8609 121.254 89.3378 122.152 87.0729C122.589 86.0478 123.218 85.1161 124.005 84.3284C124.781 83.535 125.708 82.9044 126.73 82.4732C127.775 82.0274 128.901 81.8029 130.037 81.8139C131.013 81.8144 131.984 81.9643 132.915 82.2585C133.771 82.5288 134.581 82.9268 135.318 83.4391Z" fill="#0A98C1"/>
<path d="M149.802 93.0065C149.815 94.1448 149.541 95.2679 149.006 96.2723C148.511 97.2215 147.771 98.0208 146.863 98.5875C145.94 99.1475 144.88 99.4395 143.801 99.4308C142.723 99.4355 141.664 99.1438 140.739 98.5875C139.83 98.0184 139.085 97.22 138.581 96.2723C138.038 95.2706 137.764 94.1456 137.784 93.0065C137.762 91.8574 138.037 90.722 138.581 89.71C139.068 88.7698 139.791 87.9722 140.678 87.3948C141.599 86.8318 142.66 86.5396 143.74 86.5515C144.82 86.5354 145.882 86.8279 146.802 87.3948C147.709 87.9615 148.449 88.7608 148.945 89.71C149.503 90.7191 149.798 91.8529 149.802 93.0065ZM148.807 93.0065C148.827 92.0227 148.606 91.0489 148.164 90.17C147.758 89.3641 147.138 88.6853 146.373 88.2074C145.597 87.7115 144.69 87.4604 143.77 87.4868C142.851 87.4687 141.947 87.7191 141.168 88.2074C140.385 88.6821 139.745 89.3603 139.315 90.17C138.882 91.0471 138.657 92.0126 138.657 92.9912C138.657 93.9698 138.882 94.9352 139.315 95.8123C139.737 96.6128 140.359 97.2893 141.122 97.7749C141.904 98.2568 142.806 98.5067 143.724 98.4955C144.643 98.511 145.547 98.2608 146.327 97.7749C147.089 97.2935 147.708 96.6156 148.118 95.8123C148.572 94.9471 148.809 93.984 148.807 93.0065Z" fill="#0A98C1"/>
<path d="M158.712 86.5515C159.59 86.511 160.461 86.7239 161.222 87.1648C161.855 87.5644 162.352 88.1473 162.646 88.836C162.955 89.5788 163.106 90.3776 163.09 91.1819V98.6948C163.09 98.7573 163.078 98.8193 163.055 98.8772C163.031 98.9351 162.996 98.9877 162.952 99.0321C162.908 99.0816 162.854 99.1209 162.793 99.1474C162.732 99.1738 162.666 99.1868 162.6 99.1854C162.534 99.1879 162.468 99.1754 162.407 99.1488C162.346 99.1223 162.292 99.0824 162.248 99.0321C162.204 98.9877 162.169 98.9351 162.146 98.8772C162.122 98.8193 162.11 98.7573 162.11 98.6948V91.2892C162.125 90.633 162.005 89.9807 161.758 89.3727C161.53 88.8123 161.141 88.3322 160.641 87.9927C160.03 87.6316 159.328 87.4558 158.62 87.4868C157.886 87.4901 157.163 87.6633 156.507 87.9927C155.847 88.3225 155.266 88.7935 154.808 89.3727C154.364 89.9119 154.126 90.5908 154.134 91.2892V98.6948C154.129 98.8229 154.074 98.944 153.981 99.0321C153.94 99.0812 153.888 99.1205 153.83 99.147C153.772 99.1735 153.708 99.1867 153.644 99.1854C153.577 99.1917 153.51 99.1809 153.448 99.1541C153.387 99.1273 153.333 99.0853 153.292 99.0321C153.248 98.9877 153.213 98.9351 153.19 98.8772C153.166 98.8193 153.154 98.7573 153.154 98.6948V87.3948C153.153 87.2638 153.202 87.1374 153.292 87.0421C153.386 86.9479 153.512 86.8931 153.644 86.8888C153.777 86.8915 153.904 86.9466 153.996 87.0421C154.086 87.1374 154.136 87.2638 154.134 87.3948V89.7866L153.522 90.9672C153.523 90.3743 153.682 89.7924 153.981 89.2807C154.298 88.7292 154.713 88.2407 155.206 87.8394C155.714 87.428 156.282 87.097 156.89 86.8581C157.474 86.6463 158.091 86.5424 158.712 86.5515Z" fill="#0A98C1"/>
<path d="M172.873 86.5515C173.752 86.511 174.623 86.7239 175.384 87.1648C176.017 87.5607 176.509 88.1452 176.793 88.836C177.106 89.5778 177.262 90.3765 177.252 91.1819V98.6948C177.253 98.7589 177.24 98.8224 177.214 98.8808C177.187 98.9392 177.148 98.9909 177.099 99.0321C177.058 99.0821 177.007 99.122 176.948 99.1486C176.89 99.1752 176.826 99.1878 176.762 99.1854C176.695 99.189 176.629 99.1771 176.568 99.1504C176.507 99.1238 176.453 99.0833 176.41 99.0321C176.366 98.9877 176.331 98.9351 176.307 98.8772C176.284 98.8193 176.272 98.7573 176.272 98.6948V91.2892C176.279 90.6336 176.16 89.9827 175.92 89.3727C175.687 88.8103 175.293 88.3299 174.787 87.9927C174.178 87.6282 173.475 87.4522 172.766 87.4868C172.037 87.4863 171.318 87.6597 170.669 87.9927C170.006 88.3263 169.422 88.7966 168.954 89.3727C168.519 89.9163 168.281 90.5923 168.281 91.2892V98.6948C168.281 98.7573 168.269 98.8193 168.245 98.8772C168.222 98.9351 168.187 98.9877 168.143 99.0321C168.099 99.0816 168.044 99.1209 167.984 99.1474C167.923 99.1738 167.857 99.1868 167.791 99.1854C167.724 99.1879 167.658 99.1754 167.597 99.1488C167.536 99.1223 167.482 99.0824 167.439 99.0321C167.395 98.9877 167.36 98.9351 167.336 98.8772C167.312 98.8193 167.3 98.7573 167.301 98.6948V87.3948C167.305 87.262 167.36 87.1358 167.454 87.0421C167.542 86.9489 167.663 86.8939 167.791 86.8888C167.859 86.8881 167.927 86.9013 167.99 86.9277C168.053 86.9541 168.11 86.993 168.158 87.0421C168.236 87.143 168.279 87.267 168.281 87.3948V89.7866L167.668 90.9672C167.676 90.3731 167.84 89.7915 168.143 89.2807C168.46 88.7292 168.875 88.2407 169.368 87.8394C169.87 87.4281 170.433 87.0971 171.036 86.8581C171.625 86.6461 172.248 86.5423 172.873 86.5515Z" fill="#0A98C1"/>
<path d="M186.881 99.4308C185.75 99.4544 184.632 99.1851 183.635 98.6488C182.703 98.1293 181.934 97.3593 181.416 96.4256C180.857 95.3908 180.578 94.2283 180.604 93.0525C180.572 91.8338 180.846 90.6265 181.4 89.5413C181.895 88.6609 182.606 87.9219 183.467 87.3948C184.272 86.8958 185.199 86.6304 186.146 86.6282C186.827 86.6279 187.504 86.7366 188.152 86.9502C188.801 87.1696 189.396 87.525 189.897 87.9928C190.431 88.4771 190.858 89.0671 191.152 89.7253C191.49 90.5155 191.667 91.3651 191.673 92.2245C191.671 92.3549 191.622 92.4803 191.535 92.5772C191.491 92.6266 191.436 92.666 191.376 92.6924C191.315 92.7189 191.249 92.7319 191.183 92.7305H181.201L181.048 91.8105H190.923L190.678 92.0252V91.5806C190.621 90.7894 190.334 90.0323 189.851 89.4033C189.414 88.8272 188.84 88.3688 188.182 88.0694C187.546 87.7672 186.85 87.6101 186.146 87.6094C185.618 87.6175 185.098 87.7322 184.615 87.9468C184.043 88.173 183.523 88.5119 183.084 88.9434C182.605 89.4298 182.23 90.0089 181.982 90.6453C181.679 91.4107 181.533 92.2294 181.553 93.0525C181.542 94.0008 181.746 94.9393 182.15 95.797C182.544 96.6277 183.165 97.3295 183.942 97.8209C184.823 98.3509 185.839 98.612 186.866 98.5721C187.388 98.5717 187.907 98.4783 188.397 98.2962C188.872 98.1073 189.321 97.8546 189.728 97.5449C190.094 97.2576 190.414 96.9164 190.678 96.5329C190.782 96.4097 190.93 96.3325 191.091 96.3183C191.147 96.3165 191.203 96.328 191.253 96.352C191.304 96.376 191.348 96.4118 191.382 96.4563C191.423 96.4956 191.455 96.5434 191.476 96.5963C191.497 96.6492 191.507 96.706 191.504 96.7629C191.507 96.8675 191.474 96.9699 191.413 97.0542C190.875 97.7415 190.216 98.3236 189.468 98.7715C188.683 99.2261 187.788 99.4543 186.881 99.4308Z" fill="#0A98C1"/>
<path d="M200.354 86.5515C201.05 86.5444 201.745 86.6269 202.42 86.7968C202.961 86.93 203.478 87.1473 203.951 87.4408C204.365 87.7168 204.564 87.9928 204.564 88.2994C204.559 88.4201 204.51 88.5347 204.426 88.6214C204.386 88.6733 204.335 88.7155 204.277 88.7447C204.219 88.774 204.154 88.7895 204.089 88.79C203.933 88.7916 203.781 88.7373 203.66 88.6367C203.542 88.5299 203.434 88.4118 203.339 88.2841C203.186 88.1171 202.998 87.9862 202.788 87.9008C202.483 87.7547 202.158 87.6564 201.823 87.6095C201.319 87.5146 200.806 87.4734 200.292 87.4868C199.377 87.478 198.479 87.7335 197.705 88.2228C196.919 88.7104 196.271 89.3913 195.822 90.2006C195.355 91.0498 195.117 92.0064 195.133 92.9758C195.12 93.9541 195.34 94.9214 195.776 95.797C196.188 96.6082 196.812 97.292 197.583 97.7749C198.401 98.2632 199.34 98.5128 200.292 98.4955C200.861 98.52 201.429 98.4527 201.976 98.2962C202.32 98.1699 202.653 98.0161 202.971 97.8362C203.243 97.6978 203.483 97.5047 203.676 97.2689C203.725 97.1914 203.793 97.1271 203.873 97.0817C203.953 97.0363 204.043 97.0111 204.135 97.0082C204.192 97.0007 204.25 97.008 204.304 97.0295C204.358 97.0509 204.405 97.0859 204.441 97.1309C204.481 97.1714 204.512 97.2193 204.533 97.2719C204.554 97.3246 204.564 97.3809 204.564 97.4375C204.564 97.642 204.38 97.9026 204.013 98.2195C203.559 98.5936 203.04 98.8797 202.482 99.0628C201.75 99.3227 200.977 99.4474 200.2 99.4308C199.087 99.4434 197.992 99.1518 197.031 98.5875C196.12 98.025 195.379 97.2246 194.888 96.2723C194.361 95.255 194.098 94.1215 194.123 92.9758C194.107 91.8702 194.37 90.7784 194.888 89.802C195.403 88.8172 196.169 87.9865 197.108 87.3948C198.084 86.8016 199.213 86.5084 200.354 86.5515Z" fill="#0A98C1"/>
<path d="M206.676 86.8429H212.371C212.433 86.8417 212.494 86.855 212.55 86.8816C212.606 86.9082 212.655 86.9475 212.693 86.9963C212.756 87.0605 212.799 87.1419 212.816 87.2303C212.833 87.3187 212.824 87.4102 212.79 87.4934C212.755 87.5767 212.698 87.648 212.623 87.6987C212.549 87.7493 212.461 87.7769 212.371 87.7782H206.676C206.56 87.7625 206.452 87.709 206.369 87.6259C206.286 87.5428 206.233 87.4347 206.217 87.3182C206.215 87.254 206.227 87.19 206.254 87.1315C206.28 87.0729 206.32 87.0214 206.37 86.9809C206.409 86.9385 206.457 86.9044 206.509 86.8806C206.562 86.8569 206.619 86.8441 206.676 86.8429ZM209.187 83.2398C209.254 83.2373 209.32 83.2498 209.381 83.2764C209.442 83.3029 209.496 83.3428 209.539 83.3931C209.585 83.4364 209.62 83.4889 209.644 83.547C209.668 83.6051 209.679 83.6677 209.677 83.7304V96.5943C209.649 96.9981 209.717 97.4027 209.876 97.7749C209.984 98.0021 210.176 98.1782 210.412 98.2656C210.608 98.3384 210.815 98.3748 211.024 98.3729C211.12 98.3901 211.219 98.3901 211.315 98.3729C211.411 98.3557 211.51 98.3557 211.606 98.3729C211.662 98.3711 211.717 98.3827 211.768 98.4067C211.819 98.4307 211.863 98.4664 211.897 98.5109C211.938 98.5503 211.97 98.598 211.991 98.6509C212.012 98.7038 212.022 98.7606 212.019 98.8175C212.011 98.8999 211.981 98.9787 211.932 99.0459C211.884 99.1131 211.819 99.1666 211.744 99.2009C211.526 99.3123 211.284 99.3651 211.04 99.3542H210.519C210.236 99.3447 209.959 99.2713 209.708 99.1395C209.392 98.9682 209.139 98.6994 208.988 98.3729C208.763 97.8622 208.663 97.3049 208.697 96.7477V83.7304C208.695 83.6677 208.706 83.6051 208.73 83.547C208.754 83.4889 208.79 83.4364 208.835 83.3931C208.91 83.3078 209.013 83.2532 209.126 83.2398H209.187Z" fill="#0A98C1"/>
<path d="M220.93 99.4308C219.799 99.4544 218.681 99.185 217.684 98.6488C216.749 98.1333 215.979 97.3623 215.464 96.4256C214.906 95.3908 214.627 94.2283 214.653 93.0525C214.621 91.8338 214.894 90.6265 215.449 89.5413C215.944 88.6609 216.655 87.9219 217.516 87.3948C218.321 86.8958 219.248 86.6304 220.195 86.6282C220.876 86.6279 221.553 86.7366 222.2 86.9502C222.85 87.1696 223.445 87.525 223.946 87.9928C224.479 88.4771 224.907 89.0671 225.201 89.7253C225.539 90.5155 225.716 91.3651 225.722 92.2245C225.72 92.3549 225.671 92.4803 225.584 92.5772C225.54 92.6266 225.485 92.666 225.425 92.6924C225.364 92.7189 225.298 92.7319 225.232 92.7305H215.25L215.097 91.8105H225.048L224.803 92.0252V91.5806C224.746 90.7894 224.459 90.0323 223.976 89.4033C223.539 88.8272 222.966 88.3688 222.308 88.0694C221.671 87.7672 220.976 87.6101 220.271 87.6094C219.744 87.6175 219.223 87.7322 218.741 87.9468C218.169 88.173 217.648 88.5119 217.21 88.9434C216.731 89.4298 216.356 90.0089 216.107 90.6453C215.805 91.4107 215.659 92.2294 215.679 93.0525C215.667 94.0008 215.872 94.9393 216.276 95.797C216.67 96.6277 217.291 97.3295 218.067 97.8209C218.948 98.3509 219.964 98.612 220.991 98.5721C221.514 98.5717 222.032 98.4783 222.522 98.2962C222.998 98.1073 223.446 97.8546 223.854 97.5449C224.22 97.2576 224.54 96.9164 224.803 96.5329C224.853 96.4706 224.916 96.4193 224.987 96.3824C225.058 96.3454 225.136 96.3236 225.216 96.3183C225.272 96.3165 225.328 96.328 225.378 96.352C225.429 96.376 225.473 96.4118 225.507 96.4563C225.548 96.4956 225.581 96.5434 225.602 96.5963C225.623 96.6492 225.632 96.706 225.63 96.7629C225.632 96.8675 225.6 96.9699 225.538 97.0542C224.971 97.7213 224.286 98.2775 223.517 98.6948C222.74 99.1763 221.844 99.4312 220.93 99.4308Z" fill="#0A98C1"/>
<path d="M239.101 81.0319C239.168 81.0295 239.234 81.042 239.295 81.0685C239.356 81.095 239.41 81.1349 239.453 81.1852C239.499 81.2285 239.535 81.281 239.558 81.3391C239.582 81.3973 239.593 81.4598 239.591 81.5226V98.6949C239.584 98.8226 239.53 98.9432 239.44 99.0337C239.349 99.1242 239.229 99.1782 239.101 99.1855C239.035 99.1892 238.968 99.1772 238.907 99.1506C238.846 99.1239 238.792 99.0834 238.749 99.0322C238.705 98.9878 238.67 98.9352 238.647 98.8773C238.623 98.8194 238.611 98.7574 238.611 98.6949V95.2144L238.994 94.6778C238.988 95.2543 238.863 95.8234 238.627 96.349C238.363 96.9235 237.994 97.4435 237.54 97.8823C237.071 98.3505 236.521 98.7297 235.917 99.0015C235.285 99.2795 234.602 99.4205 233.911 99.4155C232.88 99.4257 231.869 99.1325 231.003 98.5722C230.134 97.9916 229.432 97.1935 228.966 96.257C228.477 95.2273 228.223 94.1011 228.223 92.9606C228.223 91.82 228.477 90.6938 228.966 89.6641C229.432 88.7321 230.134 87.939 231.003 87.3642C231.87 86.8086 232.882 86.5206 233.911 86.5363C234.569 86.5329 235.22 86.6633 235.825 86.9196C236.435 87.1617 236.991 87.5211 237.463 87.9775C237.927 88.4149 238.306 88.9348 238.581 89.5108C238.86 90.1432 239.001 90.828 238.994 91.5193L238.611 90.906V81.5226C238.646 81.4108 238.723 81.3172 238.826 81.2619C238.852 81.2059 238.891 81.1564 238.938 81.1167C238.986 81.077 239.041 81.048 239.101 81.0319ZM233.957 98.4956C234.831 98.5139 235.69 98.2681 236.422 97.7903C237.144 97.2979 237.72 96.62 238.091 95.8277C238.512 94.9373 238.722 93.9611 238.703 92.9759C238.723 91.9954 238.514 91.0239 238.091 90.1394C237.719 89.3474 237.136 88.6736 236.407 88.1922C235.675 87.7322 234.829 87.4882 233.965 87.4882C233.101 87.4882 232.255 87.7322 231.523 88.1922C230.796 88.6812 230.21 89.3527 229.824 90.1394C229.421 91.0278 229.212 91.9924 229.212 92.9682C229.212 93.9441 229.421 94.9086 229.824 95.7971C230.21 96.5922 230.796 97.2737 231.523 97.7749C232.244 98.2531 233.092 98.5041 233.957 98.4956Z" fill="#0A98C1"/>
<path d="M260.672 83.439C260.732 83.4722 260.783 83.5183 260.823 83.574C260.863 83.6297 260.89 83.6936 260.902 83.761C260.916 83.8978 260.878 84.0351 260.795 84.1443C260.764 84.1996 260.72 84.2457 260.666 84.2781C260.613 84.3104 260.551 84.3278 260.488 84.3283C260.374 84.3638 260.251 84.3638 260.136 84.3283C259.446 83.851 258.694 83.4693 257.901 83.1937C257.067 82.9138 256.193 82.774 255.314 82.7798C254.311 82.7691 253.316 82.9621 252.39 83.3471C251.492 83.7288 250.68 84.2866 250.001 84.9876C249.312 85.6791 248.761 86.4962 248.379 87.3948C247.603 89.4499 247.603 91.718 248.379 93.7731C248.751 94.7045 249.302 95.5536 250.001 96.2723C250.68 96.9733 251.492 97.5312 252.39 97.9129C253.316 98.2978 254.311 98.4908 255.314 98.4802C256.188 98.4874 257.058 98.3475 257.886 98.0662C258.671 97.7981 259.418 97.4269 260.106 96.9623C260.157 96.9225 260.217 96.8938 260.28 96.878C260.343 96.8621 260.409 96.8595 260.473 96.8703C260.537 96.8749 260.599 96.8939 260.655 96.9257C260.71 96.9575 260.758 97.0015 260.795 97.0542C260.836 97.1052 260.867 97.1641 260.885 97.2273C260.904 97.2905 260.909 97.3568 260.902 97.4222C260.893 97.487 260.871 97.5492 260.837 97.6047C260.802 97.6602 260.757 97.7078 260.703 97.7442C260.22 98.0652 259.708 98.3374 259.172 98.5568C258.56 98.8258 257.924 99.0362 257.273 99.1855C256.616 99.3376 255.943 99.4147 255.268 99.4154C254.133 99.4191 253.008 99.1949 251.961 98.7562C250.943 98.3173 250.018 97.6876 249.236 96.9009C248.025 95.6062 247.208 93.9917 246.883 92.2478C246.557 90.5038 246.736 88.703 247.399 87.0575C248.265 84.9784 249.916 83.3256 251.992 82.4578C253.037 82.012 254.163 81.7875 255.298 81.7985C256.275 81.7978 257.246 81.9478 258.177 82.2431C259.065 82.5095 259.907 82.9129 260.672 83.439Z" fill="white"/>
<path d="M274.757 93.0066C274.775 94.1436 274.506 95.2669 273.976 96.2724C273.48 97.2216 272.74 98.0209 271.833 98.5876C270.902 99.1259 269.846 99.4092 268.771 99.4092C267.696 99.4092 266.64 99.1259 265.709 98.5876C264.794 98.0206 264.044 97.222 263.535 96.2724C263 95.268 262.726 94.1449 262.739 93.0066C262.724 91.8583 262.998 90.7248 263.535 89.7101C264.027 88.768 264.755 87.9702 265.648 87.3949C266.579 86.8566 267.635 86.5732 268.709 86.5732C269.784 86.5732 270.84 86.8566 271.771 87.3949C272.679 87.9616 273.419 88.7609 273.915 89.7101C274.468 90.7203 274.758 91.8543 274.757 93.0066ZM273.777 93.0066C273.796 92.0227 273.576 91.049 273.134 90.1701C272.727 89.3642 272.108 88.6853 271.343 88.2075C270.556 87.736 269.657 87.487 268.74 87.487C267.823 87.487 266.924 87.736 266.138 88.2075C265.368 88.6844 264.743 89.3631 264.331 90.1701C263.898 91.0472 263.672 92.0126 263.672 92.9912C263.672 93.9698 263.898 94.9353 264.331 95.8124C264.748 96.6163 265.371 97.2939 266.138 97.775C266.924 98.2465 267.823 98.4955 268.74 98.4955C269.657 98.4955 270.556 98.2465 271.343 97.775C272.105 97.2936 272.723 96.6157 273.134 95.8124C273.572 94.9431 273.793 93.9802 273.777 93.0066Z" fill="white"/>
<path d="M287.817 86.9349C287.883 86.9324 287.949 86.9449 288.01 86.9714C288.071 86.998 288.125 87.0379 288.169 87.0882C288.259 87.1834 288.308 87.3099 288.307 87.4408V98.6948C288.307 98.7574 288.295 98.8194 288.271 98.8772C288.248 98.9351 288.213 98.9878 288.169 99.0321C288.125 99.0816 288.07 99.121 288.01 99.1474C287.949 99.1739 287.883 99.1869 287.817 99.1855C287.75 99.1879 287.684 99.1755 287.623 99.1489C287.562 99.1224 287.508 99.0825 287.465 99.0321C287.421 98.9878 287.386 98.9351 287.362 98.8772C287.338 98.8194 287.326 98.7574 287.327 98.6948V95.2144L287.725 94.8924C287.706 95.4265 287.57 95.9499 287.327 96.4256C287.065 96.9976 286.702 97.5172 286.255 97.9589C285.783 98.4112 285.233 98.7747 284.632 99.0321C283.998 99.2993 283.315 99.4349 282.627 99.4308C281.588 99.4431 280.57 99.1441 279.703 98.5722C278.834 97.9891 278.137 97.1847 277.682 96.2417C277.181 95.2109 276.929 94.0763 276.947 92.9298C276.922 91.7858 277.179 90.6533 277.697 89.6334C278.131 88.7247 278.803 87.9511 279.642 87.3948C280.51 86.8408 281.521 86.553 282.55 86.5669C283.233 86.5604 283.909 86.6907 284.54 86.9502C285.148 87.1886 285.7 87.5486 286.163 88.0081C286.647 88.478 287.032 89.0404 287.295 89.6619C287.558 90.2835 287.694 90.9515 287.694 91.6266L287.296 91.0133V87.3948C287.295 87.2639 287.344 87.1374 287.434 87.0422C287.487 86.9993 287.549 86.9677 287.614 86.9492C287.68 86.9308 287.749 86.9259 287.817 86.9349ZM282.673 98.4955C283.543 98.5062 284.396 98.2552 285.122 97.7749C285.854 97.272 286.44 96.5844 286.822 95.7817C287.236 94.8888 287.445 93.9143 287.434 92.9298C287.442 91.9753 287.232 91.0315 286.822 90.17C286.44 89.376 285.853 88.6985 285.122 88.2075C284.399 87.72 283.544 87.4683 282.673 87.4868C281.817 87.4767 280.976 87.7165 280.254 88.1768C279.528 88.66 278.942 89.3263 278.555 90.1087C278.118 90.9835 277.903 91.9522 277.927 92.9298C277.908 93.9151 278.118 94.8912 278.539 95.7817C278.91 96.5866 279.492 97.2756 280.223 97.7749C280.928 98.2407 281.752 98.4911 282.596 98.4955H282.673Z" fill="white"/>
<path d="M297.368 86.5515C298.065 86.5444 298.76 86.6269 299.435 86.7968C299.975 86.9344 300.49 87.1514 300.966 87.4408C301.364 87.7168 301.563 87.9928 301.563 88.2994C301.558 88.4201 301.509 88.5347 301.425 88.6214C301.386 88.6733 301.335 88.7155 301.276 88.7447C301.218 88.774 301.154 88.7895 301.089 88.79C300.932 88.7916 300.78 88.7373 300.66 88.6367C300.542 88.5299 300.434 88.4118 300.338 88.2841C300.19 88.1189 300.007 87.9881 299.803 87.9008C299.492 87.755 299.162 87.6568 298.823 87.6095C298.318 87.5146 297.805 87.4734 297.292 87.4868C296.377 87.478 295.478 87.7335 294.705 88.2228C293.901 88.7231 293.241 89.4246 292.79 90.258C292.339 91.0914 292.112 92.0281 292.133 92.9758C292.119 93.9541 292.34 94.9214 292.776 95.797C293.188 96.6125 293.819 97.2972 294.597 97.7749C295.41 98.265 296.344 98.5149 297.292 98.4955C297.86 98.52 298.429 98.4527 298.976 98.2962C299.319 98.1699 299.652 98.0161 299.971 97.8362C300.242 97.6978 300.482 97.5047 300.675 97.2689C300.726 97.1892 300.797 97.1236 300.879 97.0781C300.962 97.0326 301.055 97.0086 301.15 97.0082C301.207 97.0034 301.264 97.0119 301.317 97.0332C301.371 97.0545 301.418 97.088 301.456 97.1309C301.525 97.2179 301.563 97.3261 301.563 97.4375C301.563 97.6369 301.379 97.8975 301.027 98.2195C300.571 98.5886 300.052 98.874 299.496 99.0628C298.765 99.3227 297.992 99.4474 297.215 99.4308C296.102 99.4434 295.006 99.1518 294.046 98.5875C293.135 98.025 292.394 97.2246 291.903 96.2723C291.383 95.2524 291.12 94.1207 291.137 92.9758C291.129 91.8711 291.392 90.7812 291.903 89.802C292.417 88.8172 293.183 87.9865 294.123 87.3948C295.099 86.8016 296.227 86.5084 297.368 86.5515Z" fill="white"/>
<path d="M309.724 86.7969C310.581 86.7655 311.428 86.9896 312.158 87.4409C312.797 87.8583 313.298 88.4558 313.597 89.1581C313.923 89.9072 314.085 90.7176 314.072 91.5346V98.6949C314.072 98.7574 314.06 98.8194 314.037 98.8773C314.013 98.9352 313.978 98.9878 313.934 99.0322C313.89 99.0817 313.836 99.121 313.775 99.1475C313.714 99.174 313.648 99.1869 313.582 99.1855C313.516 99.188 313.45 99.1755 313.389 99.149C313.328 99.1224 313.273 99.0825 313.23 99.0322C313.186 98.9878 313.151 98.9352 313.127 98.8773C313.104 98.8194 313.092 98.7574 313.092 98.6949V91.5346C313.104 90.88 312.99 90.2292 312.755 89.6181C312.535 89.0617 312.157 88.5821 311.668 88.2382C311.088 87.8726 310.409 87.6959 309.724 87.7322C309.005 87.7365 308.297 87.9098 307.657 88.2382C307.01 88.5688 306.445 89.0403 306.004 89.6181C305.579 90.1658 305.353 90.8414 305.361 91.5346V98.6949C305.356 98.823 305.301 98.9441 305.208 99.0322C305.167 99.0813 305.115 99.1206 305.057 99.1471C304.998 99.1737 304.935 99.1868 304.871 99.1855C304.802 99.1892 304.733 99.1773 304.67 99.1508C304.606 99.1243 304.549 99.0837 304.504 99.0322C304.425 98.9372 304.382 98.8181 304.381 98.6949V81.5226C304.379 81.4598 304.39 81.3973 304.414 81.3391C304.438 81.281 304.473 81.2285 304.519 81.1852C304.563 81.1358 304.617 81.0964 304.678 81.07C304.739 81.0435 304.805 81.0305 304.871 81.0319C304.937 81.0295 305.004 81.042 305.064 81.0685C305.125 81.095 305.18 81.1349 305.223 81.1852C305.269 81.2285 305.304 81.281 305.328 81.3391C305.352 81.3973 305.363 81.4598 305.361 81.5226V90.0781L304.749 91.2587C304.745 90.667 304.898 90.085 305.193 89.5721C305.486 89.0268 305.875 88.5387 306.341 88.1308C306.824 87.7237 307.366 87.3928 307.948 87.1496C308.513 86.9222 309.115 86.8026 309.724 86.7969Z" fill="white"/>
<path d="M318.434 84.8803C318.205 84.8895 317.981 84.813 317.806 84.6656C317.731 84.592 317.672 84.5036 317.632 84.4059C317.593 84.3083 317.574 84.2036 317.577 84.0983V83.899C317.573 83.7922 317.593 83.6859 317.635 83.5877C317.678 83.4896 317.741 83.4022 317.822 83.3317C317.998 83.1869 318.221 83.1107 318.449 83.1171C318.663 83.1134 318.871 83.19 319.031 83.3317C319.106 83.4054 319.165 83.4938 319.205 83.5914C319.244 83.689 319.263 83.7937 319.261 83.899V84.0983C319.263 84.2036 319.244 84.3083 319.205 84.4059C319.165 84.5036 319.106 84.592 319.031 84.6656C318.867 84.811 318.653 84.8878 318.434 84.8803ZM318.924 98.6795C318.917 98.8072 318.863 98.9278 318.772 99.0183C318.682 99.1088 318.561 99.1628 318.434 99.1701C318.367 99.1737 318.301 99.1618 318.24 99.1352C318.179 99.1085 318.125 99.068 318.082 99.0168C318.038 98.9724 318.003 98.9198 317.979 98.8619C317.956 98.804 317.944 98.742 317.944 98.6795V87.0268C317.942 86.9641 317.953 86.9015 317.977 86.8434C318.001 86.7853 318.036 86.7328 318.082 86.6895C318.126 86.64 318.18 86.6007 318.241 86.5742C318.302 86.5478 318.368 86.5348 318.434 86.5362C318.5 86.5337 318.566 86.5462 318.627 86.5728C318.688 86.5993 318.743 86.6392 318.786 86.6895C318.831 86.7328 318.867 86.7853 318.891 86.8434C318.915 86.9015 318.926 86.9641 318.924 87.0268V98.6795Z" fill="white"/>
<path d="M328.264 86.5515C329.142 86.511 330.014 86.7239 330.775 87.1648C331.407 87.5607 331.9 88.1452 332.183 88.836C332.497 89.5778 332.653 90.3765 332.643 91.1819V98.6948C332.644 98.7589 332.631 98.8224 332.604 98.8808C332.578 98.9392 332.538 98.9909 332.489 99.0321C332.449 99.0821 332.398 99.122 332.339 99.1486C332.281 99.1752 332.217 99.1878 332.153 99.1854C332.086 99.189 332.02 99.1771 331.958 99.1504C331.897 99.1238 331.843 99.0833 331.8 99.0321C331.756 98.9877 331.722 98.9351 331.698 98.8772C331.674 98.8193 331.662 98.7573 331.663 98.6948V91.2892C331.67 90.6336 331.55 89.9827 331.311 89.3727C331.078 88.8103 330.684 88.3299 330.178 87.9927C329.569 87.6282 328.866 87.4522 328.157 87.4868C327.428 87.4863 326.709 87.6597 326.059 87.9927C325.397 88.3263 324.813 88.7966 324.345 89.3727C323.909 89.9163 323.672 90.5923 323.671 91.2892V98.6948C323.672 98.7573 323.66 98.8193 323.636 98.8772C323.612 98.9351 323.577 98.9877 323.533 99.0321C323.489 99.0816 323.435 99.1209 323.374 99.1474C323.313 99.1738 323.248 99.1868 323.181 99.1854C323.115 99.1879 323.049 99.1754 322.988 99.1488C322.927 99.1223 322.873 99.0824 322.829 99.0321C322.785 98.9877 322.75 98.9351 322.727 98.8772C322.703 98.8193 322.691 98.7573 322.691 98.6948V87.3948C322.696 87.262 322.75 87.1358 322.845 87.0421C322.932 86.9489 323.053 86.8939 323.181 86.8888C323.25 86.8881 323.318 86.9013 323.381 86.9277C323.444 86.9541 323.501 86.993 323.549 87.0421C323.627 87.143 323.67 87.267 323.671 87.3948V89.7866L323.059 90.9672C323.067 90.3731 323.23 89.7915 323.533 89.2807C323.85 88.7292 324.265 88.2407 324.758 87.8394C325.261 87.4281 325.823 87.0971 326.427 86.8581C327.016 86.6461 327.638 86.5423 328.264 86.5515Z" fill="white"/>
<path d="M341.537 86.5515C342.239 86.5499 342.935 86.6799 343.589 86.9348C344.202 87.1902 344.771 87.5422 345.273 87.9774C345.722 88.3677 346.105 88.8286 346.406 89.342C346.658 89.7867 346.794 90.2874 346.804 90.7986L346.482 89.8786V87.3948C346.481 87.2638 346.53 87.1374 346.62 87.0421C346.665 86.9928 346.719 86.9534 346.78 86.9264C346.84 86.8995 346.906 86.8855 346.972 86.8855C347.039 86.8855 347.104 86.8995 347.165 86.9264C347.225 86.9534 347.28 86.9928 347.324 87.0421C347.38 87.084 347.426 87.137 347.461 87.1976C347.495 87.2583 347.516 87.3255 347.523 87.3948V97.9435C347.552 99.0749 347.288 100.194 346.758 101.194C346.265 102.089 345.527 102.823 344.63 103.31C343.686 103.806 342.634 104.058 341.568 104.046C340.906 104.041 340.248 103.954 339.608 103.785C339.029 103.651 338.473 103.434 337.955 103.141C337.511 102.881 337.297 102.605 337.297 102.298C337.293 102.242 337.301 102.186 337.319 102.134C337.337 102.081 337.366 102.032 337.404 101.991C337.441 101.947 337.488 101.913 337.542 101.892C337.595 101.87 337.653 101.862 337.71 101.869C337.8 101.873 337.887 101.898 337.964 101.944C338.042 101.989 338.107 102.053 338.154 102.129C338.356 102.356 338.615 102.526 338.904 102.62L339.501 102.819C339.803 102.908 340.11 102.98 340.42 103.034C340.823 103.059 341.226 103.059 341.629 103.034C342.305 103.069 342.981 102.961 343.612 102.715C344.243 102.469 344.814 102.092 345.288 101.608C346.199 100.581 346.677 99.2396 346.62 97.8668V95.5516H346.865C346.699 96.1998 346.407 96.8092 346.008 97.3455C345.653 97.8127 345.217 98.2126 344.722 98.5261C344.251 98.828 343.734 99.0507 343.191 99.1854C342.692 99.3215 342.177 99.3936 341.66 99.4001C340.58 99.4188 339.517 99.1261 338.598 98.5568C337.705 97.9815 336.977 97.1837 336.485 96.2416C335.972 95.2187 335.705 94.0898 335.705 92.9451C335.705 91.8004 335.972 90.6716 336.485 89.6487C336.975 88.7089 337.704 87.9154 338.598 87.3488C339.486 86.8178 340.503 86.542 341.537 86.5515ZM341.537 87.4868C340.635 87.4704 339.747 87.7153 338.981 88.1921C338.216 88.6639 337.596 89.3376 337.19 90.1393C336.766 91.022 336.546 91.9888 336.546 92.9681C336.546 93.9475 336.766 94.9142 337.19 95.797C337.595 96.6076 338.215 97.2916 338.981 97.7748C339.746 98.2562 340.634 98.5064 341.537 98.4955C342.432 98.5093 343.313 98.2702 344.079 97.8055C344.881 97.342 345.542 96.669 345.992 95.8583C346.426 94.9595 346.652 93.9741 346.652 92.9758C346.652 91.9775 346.426 90.9921 345.992 90.0933C345.584 89.3006 344.964 88.6371 344.201 88.1767C343.414 87.6979 342.504 87.4582 341.583 87.4868H341.537Z" fill="white"/>
</svg>
