<svg fill="none" height="113" viewBox="0 0 410 113" width="410" xmlns="http://www.w3.org/2000/svg"><path d="m56.5 112c30.6518 0 55.5-24.8482 55.5-55.5s-24.8482-55.5-55.5-55.5-55.5 24.8482-55.5 55.5 24.8482 55.5 55.5 55.5z" fill="#fff"/><path d="m99.0055 65.0556h11.0225c-2.167 13.5654-9.387 25.8041-20.2054 34.2504-10.8183 8.446-24.431 12.473-38.0954 11.268s-26.365-7.552-35.5431-17.7618c-9.17813-10.2098-14.15161-23.5238-13.91845-37.2598.23316-13.7359 5.65563-26.873 15.17495-36.7644 9.5193-9.89145 22.428-15.80215 36.1254-16.54131 13.6974-.73915 27.1655 3.74817 37.691 12.55791 10.525 8.8097 17.326 21.2872 19.032 34.9185h-10.9466c.3447 2.2322.5187 4.4876.5205 6.7463.0058 2.8838-.2815 5.7606-.8574 8.5862z" fill="#0d3857"/><path d="m87.8608 65.0555h11.1452c-2.1473 10.6386-8.1938 20.0866-16.9488 26.4838-8.7551 6.3971-19.5843 9.2797-30.3554 8.0804-10.7711-1.1994-20.7036-6.3939-27.8418-14.5607-7.1382-8.1669-10.9648-18.7143-10.7265-29.5655.2384-10.8511 4.5245-21.2198 12.0144-29.0643 7.49-7.8446 17.641-12.5966 28.4543-13.3204 10.8134-.7238 21.5055 2.6331 29.9711 9.4096 8.4657 6.7766 14.0914 16.4818 15.7695 27.2047h-11.038c.4683 2.2181.7043 4.4791.7042 6.7462.0052 2.9008-.381 5.789-1.1482 8.5862z" fill="#0a98c1"/><path d="m76.4093 65.0555h11.4514c-2.0973 7.6907-6.9373 14.3443-13.6038 18.7013-6.6664 4.3569-14.6965 6.1148-22.5701 4.9407-7.8736-1.174-15.0441-5.1985-20.154-11.3115-5.1099-6.1129-7.8046-13.8901-7.5738-21.8591.2307-7.969 3.3709-15.5767 8.8259-21.3828 5.4551-5.8062 12.8464-9.4077 20.7747-10.1228s15.8432 1.5058 22.2463 6.2424c6.4031 4.7365 10.85 11.6599 12.4988 19.4594h-11.2218c1.6397 5.0234 1.4003 10.4726-.6736 15.3324z" fill="#2db5b3"/><path d="m56.4159 65.0555h19.994c-2.001 4.6786-5.5775 8.5057-10.1064 10.8148-4.529 2.3091-9.7233 2.9536-14.6779 1.8214-4.9547-1.1322-9.3558-3.9695-12.4364-8.0175-3.0806-4.0479-4.6455-9.05-4.4221-14.1348s2.2209-9.9299 5.6446-13.6912c3.4237-3.7614 8.0566-6.2006 13.0914-6.8926s10.1525.407 14.4615 3.1055c4.3089 2.6985 7.5359 6.8255 9.1189 11.662h-20.6676z" fill="#d9d9d9"/><path d="m55.8953 67.3707c5.9947 0 10.8544-4.867 10.8544-10.8707 0-6.0038-4.8597-10.8707-10.8544-10.8707-5.9946 0-10.8543 4.8669-10.8543 10.8707 0 6.0037 4.8597 10.8707 10.8543 10.8707z" fill="#fff"/><path d="m220.163 41.7655c.104.0672.193.1549.261.2577.069.1029.115.2187.137.3403.024.2424-.035.4858-.168.6899-.062.0931-.143.1715-.238.2298-.096.0582-.202.095-.313.1076-.227.0134-.452-.0457-.643-.1687-1.253-.8586-2.618-1.5397-4.057-2.0239-1.503-.516-3.081-.7751-4.67-.7666-1.812-.0115-3.609.3431-5.281 1.0426-1.618.7006-3.081 1.717-4.302 2.9898-1.268 1.3257-2.261 2.8888-2.924 4.5998-1.429 3.7047-1.429 7.8098 0 11.5146.659 1.7128 1.653 3.2765 2.924 4.5997 1.222 1.1892 2.669 2.1222 4.256 2.7445 1.672.6995 3.469 1.0541 5.281 1.0426 1.562.007 3.115-.2469 4.593-.7512 1.42-.4928 2.773-1.1624 4.027-1.9933.189-.141.423-.2066.658-.1839.117.0168.23.0583.33.1217s.186.1473.252.2462c.138.1902.198.4261.168.6593-.012.1151-.05.2259-.111.3241s-.143.1814-.241.2432c-.837.6037-1.735 1.1177-2.679 1.5333-1.105.4826-2.253.8574-3.429 1.1192-1.189.2862-2.407.4303-3.629.4293-2.051.0126-4.082-.3944-5.97-1.1959-1.835-.7839-3.499-1.9193-4.899-3.3425-1.432-1.4525-2.565-3.1714-3.338-5.0597-1.633-4.0791-1.633-8.6314 0-12.7105.773-1.8838 1.907-3.5976 3.338-5.0444 1.41-1.4585 3.1-2.6174 4.967-3.4077 1.868-.7902 3.875-1.1957 5.902-1.192 1.766-.0093 3.523.2598 5.205.7972 1.641.4808 3.192 1.2266 4.593 2.2079z" fill="#fff"/><path d="m243.526 48.0978c.118-.0048.237.0175.345.0653.109.0479.206.1199.282.2107.08.0805.143.1763.185.2816.042.1054.063.2182.06.3317v20.3308c.004.1173-.017.234-.062.3423-.045.1084-.113.206-.198.2863-.163.1631-.382.2566-.612.2607-.12.0058-.239-.0145-.35-.0595s-.211-.1137-.293-.2012c-.081-.0833-.144-.1817-.186-.2896-.042-.108-.062-.2232-.059-.339v-6.2863l.704-.5826c-.009 1.0024-.25 1.9891-.704 2.8825-.485.9981-1.143 1.9015-1.945 2.6678-.853.8079-1.843 1.4569-2.924 1.9166-1.145.4961-2.381.7468-3.628.7359-1.874.0314-3.715-.5028-5.282-1.5332-1.57-1.0574-2.832-2.5121-3.659-4.2164-.897-1.8635-1.348-3.911-1.316-5.9797-.044-2.0635.418-4.1064 1.347-5.949.839-1.6639 2.107-3.0723 3.674-4.0784 1.557-1.0148 3.378-1.5481 5.236-1.5332 1.228-.0081 2.445.2263 3.582.6899 1.097.446 2.095 1.1023 2.94 1.9319.845.8242 1.516 1.8096 1.975 2.8979.479 1.1398.719 2.3663.704 3.6031l-.704-1.104v-6.3169c-.003-.1135.018-.2263.06-.3317s.105-.2012.185-.2816c.071-.1061.166-.1935.278-.2549s.237-.0949.365-.0978zm-9.293 20.8981c1.573.0255 3.116-.429 4.424-1.3032 1.322-.9013 2.379-2.14 3.062-3.5878.755-1.616 1.132-3.3832 1.102-5.167.022-1.724-.355-3.4296-1.102-4.9831-.692-1.4294-1.748-2.6509-3.062-3.5418-1.303-.8904-2.847-1.3612-4.424-1.3492-1.551-.0224-3.075.415-4.379 1.2572-1.312.8662-2.369 2.0678-3.061 3.4805-.778 1.5822-1.166 3.3274-1.133 5.0904-.032 1.7857.35 3.5546 1.117 5.167.678 1.4511 1.736 2.691 3.062 3.5878 1.295.8845 2.827 1.3549 4.394 1.3492z" fill="#fff"/><path d="m252.283 70.2072c-.12.0058-.239-.0145-.35-.0595-.111-.0451-.211-.1137-.293-.2012-.081-.0833-.144-.1817-.186-.2897-.042-.1079-.062-.2231-.059-.3389v-20.2541c0-.1145.023-.2277.068-.333s.11-.2006.192-.2803c.079-.0876.176-.1574.285-.2049.108-.0476.225-.0718.343-.0711.121-.0039.241.0188.352.0665s.21.1192.291.2095c.15.1685.232.3873.229.6133v7.4822l-.75 1.1499c.007-1.1901.209-2.371.597-3.4958.4-1.1862.989-2.2995 1.746-3.2965.768-1.0036 1.725-1.8473 2.816-2.4838 1.171-.6462 2.491-.9739 3.828-.9506.445.004.887.0659 1.316.184.205.0231.393.123.526.2795.134.1566.203.358.194.5638.007.2405-.075.4751-.23.6593-.069.0832-.155.1498-.253.1949s-.205.0676-.313.0657c-.228-.0102-.449-.0788-.643-.1993-.341-.1541-.714-.2225-1.087-.1993-.989.0182-1.953.31-2.786.8432-.932.5777-1.761 1.3086-2.45 2.1619-.742.9297-1.346 1.9627-1.791 3.0665-.429 1.0093-.658 2.0924-.674 3.1891v11.0701c.004.1172-.018.2339-.062.3423-.045.1084-.113.206-.198.2863-.087.0824-.191.1454-.305.185-.113.0396-.234.055-.353.045z" fill="#fff"/><path d="m276.119 70.6519c-2.045.0422-4.065-.4492-5.863-1.4259-1.688-.9228-3.075-2.3119-3.996-4.0018-1.043-1.8728-1.571-3.9891-1.531-6.133-.07-2.1993.426-4.3798 1.439-6.3323.868-1.6417 2.151-3.0268 3.72-4.0171 1.449-.9141 3.126-1.3979 4.838-1.3952 1.234-.001 2.46.201 3.628.5979 1.173.3927 2.252 1.0244 3.169 1.8553.953.8925 1.718 1.9663 2.251 3.1584.631 1.4304.965 2.9747.98 4.5384-.006.2393-.098.4683-.261.644-.079.0875-.176.1573-.284.2049-.108.0475-.225.0717-.343.0711h-18.004l-.276-1.6866h17.836l-.444.3987v-.7973c-.112-1.4358-.645-2.8066-1.531-3.9405-.812-1.0414-1.862-1.8723-3.062-2.4225-1.149-.5405-2.404-.8181-3.674-.8126-.959.0157-1.905.2189-2.787.598-1.006.4224-1.921 1.0369-2.694 1.8092-.871.8741-1.553 1.9178-2.005 3.0665-.564 1.495-.827 3.0868-.775 4.684.053 1.5971.42 3.1682 1.081 4.6228.706 1.4926 1.828 2.7492 3.23 3.6184 1.589.9647 3.425 1.4442 5.282 1.3799.967.0054 1.926-.1661 2.832-.5059.86-.3263 1.665-.7812 2.388-1.3493.664-.5137 1.243-1.1295 1.715-1.8245.092-.1167.208-.2125.34-.2812s.277-.1087.425-.1175c.099.0019.197.0247.287.067.089.0423.169.103.234.1783.144.1481.226.3455.229.552.006.1952-.06.3857-.183.5366-.982 1.2247-2.174 2.2633-3.521 3.0665-1.394.8974-3.013 1.3811-4.67 1.3953z" fill="#fff"/><path d="m300.063 70.6519c-2.044.04-4.065-.4512-5.863-1.426-1.688-.9227-3.075-2.3118-3.996-4.0017-1.043-1.8729-1.571-3.9891-1.531-6.133-.062-2.1986.433-4.3772 1.439-6.3323.868-1.6417 2.151-3.0268 3.72-4.0171 1.449-.9125 3.127-1.3962 4.838-1.3952 1.234-.001 2.46.201 3.629.5979 1.172.3927 2.251 1.0243 3.169 1.8552.966.8977 1.733 1.9897 2.25 3.2045.615 1.4184.938 2.9463.949 4.4924.001.2405-.093.4716-.26.644-.078.0856-.172.1543-.278.2018-.105.0474-.219.0727-.334.0742h-18.05l-.276-1.6866h17.836l-.444.3986v-.7972c-.112-1.4358-.645-2.8066-1.531-3.9405-.812-1.0414-1.862-1.8723-3.062-2.4225-1.15-.5405-2.405-.8181-3.674-.8126-.959.0173-1.905.2203-2.787.598-1.006.4224-1.922 1.0369-2.694 1.8092-.871.8741-1.553 1.9177-2.006 3.0665-.546 1.3797-.812 2.855-.78 4.339-.016 1.7168.355 3.415 1.087 4.9677.706 1.4927 1.827 2.7493 3.23 3.6185 1.622 1.0125 3.51 1.5146 5.419 1.4412.967.0054 1.927-.1661 2.833-.5059.859-.3263 1.664-.7812 2.388-1.3493.665-.5178 1.248-1.1328 1.73-1.8245.088-.1178.201-.2146.33-.2835.13-.0689.273-.1083.42-.1152.099.0019.197.0248.286.067.09.0423.17.1031.234.1783.144.1481.226.3455.23.552.005.1952-.06.3857-.184.5366-.975 1.2245-2.163 2.2631-3.505 3.0665-1.429.8879-3.08 1.3505-4.762 1.334z" fill="#fff"/><path d="m315.005 70.2072c-.119.0058-.239-.0145-.35-.0596-.111-.045-.211-.1136-.293-.2011-.08-.0833-.143-.1818-.185-.2897s-.062-.2231-.06-.3389v-20.2541c.001-.1145.024-.2277.069-.333.044-.1053.11-.2006.192-.2803.079-.0876.176-.1574.284-.2049.108-.0476.225-.0718.343-.0711.119-.0049.237.0175.346.0653s.205.1199.282.2107c.08.0804.143.1762.185.2816s.063.2182.06.3317v7.4822l-.75 1.1499c.007-1.1901.208-2.371.597-3.4958.4-1.1862.989-2.2995 1.745-3.2965.765-1.0069 1.723-1.8512 2.817-2.4838 1.171-.6462 2.491-.9739 3.827-.9506.445.004.888.0659 1.317.184.204.0231.392.123.526.2795.133.1566.203.358.194.5638.006.2405-.075.4751-.23.6593-.069.0832-.156.1498-.254.1949s-.205.0676-.312.0657c-.228-.0102-.45-.0788-.643-.1993-.342-.1529-.714-.2213-1.087-.1993-.989.0182-1.953.31-2.787.8432-.954.5965-1.799 1.3538-2.495 2.2386-.743.9297-1.346 1.9627-1.791 3.0665-.429 1.0092-.658 2.0924-.674 3.1891v11.07c.004.1173-.018.234-.063.3423-.044.1084-.112.206-.197.2863-.179.1245-.397.1791-.613.1534z" fill="#fff"/><g fill="#0a98c1"><path d="m350.859 65.9294c.571-.0049 1.121.2154 1.531.6133.396.4115.618.9612.618 1.5332s-.222 1.1217-.618 1.5333c-.41.3978-.96.6181-1.531.6133h-14.85c-.3.0084-.598-.0445-.877-.1555-.279-.1111-.532-.2779-.744-.4903-.212-.2125-.379-.466-.49-.7451-.111-.2792-.163-.5781-.155-.8783v-26.5558c-.006-.3028.051-.6036.167-.8833s.288-.5323.507-.742c.229-.2144.499-.3805.793-.4885.295-.108.608-.1556.921-.1401.572.0041 1.121.2293 1.531.6286.221.2079.395.4602.511.7404.116.2801.172.5817.163.8849v25.2218l-.934-.7513z"/><path d="m369.215 44.9547-9.951 23.9185c-.152.4423-.428.831-.796 1.1193-.344.2608-.763.4009-1.194.3987-.282.0336-.568-.0002-.834-.0989-.266-.0986-.505-.2592-.697-.4684-.334-.3892-.524-.8822-.536-1.3953.008-.2409.055-.479.138-.7053l11.237-27.1997c.176-.4669.492-.8683.903-1.1499.382-.2599.84-.3841 1.301-.3527.463.0104.911.1631 1.283.4375.373.2743.652.6569.799 1.0958l11.1 26.801c.119.2814.181.5837.183.8893.009.2804-.039.5597-.14.8215-.1.2618-.252.501-.446.7036-.193.2026-.425.3646-.682.4765-.257.112-.534.1717-.814.1756-.439-.0043-.865-.1553-1.209-.4293-.369-.2811-.655-.6574-.827-1.0886l-10.043-23.7806zm-8.175 17.6323 1.99-4.2471h12.523l.75 4.2471z"/><path d="m400.141 39.205c2.222-.1528 4.416.5615 6.124 1.9932.737.7637 1.305 1.6747 1.667 2.6735.361.9987.508 2.0627.43 3.1222.023 1.2659-.306 2.5132-.949 3.6031-.657 1.1092-1.626 1.9998-2.786 2.5605-1.44.6628-3.009.9929-4.593.966l.092-1.6406c1.063.0135 2.121.1473 3.154.3986 1.141.2762 2.228.7427 3.214 1.38 1.02.6746 1.869 1.5775 2.481 2.6371.683 1.2695 1.016 2.6985.964 4.1398.051 1.5442-.247 3.08-.872 4.4924-.537 1.124-1.348 2.0944-2.358 2.8212-.969.6729-2.054 1.1614-3.2 1.4412-1.123.2709-2.274.4098-3.429.414h-11.222c-.574-.0082-1.123-.2391-1.531-.644-.206-.1986-.371-.4366-.484-.6999s-.172-.5467-.174-.8333v-26.6325c-.009-.3018.045-.6021.158-.8819.114-.2798.284-.5329.5-.7433.41-.4007.959-.6261 1.531-.6286zm-.566 4.3391h-8.727l.536-.7206v9.5367l-.49-.4906h8.681c1.037-.0208 2.034-.4062 2.817-1.0886.417-.3881.743-.8651.952-1.3958.209-.5306.297-1.1015.257-1.6707.037-.5596-.042-1.1207-.232-1.6483s-.486-1.0104-.87-1.4182c-.795-.7342-1.843-1.1301-2.924-1.1039zm.306 12.6646h-8.803l.306-.3067v10.4567l-.352-.3986h9.109c1.348.0597 2.671-.3766 3.72-1.2266.495-.4722.878-1.049 1.121-1.6882.244-.6392.342-1.3249.288-2.0069.082-1.0889-.216-2.1726-.842-3.0665-.527-.6658-1.251-1.1486-2.067-1.3799-.82-.245-1.67-.374-2.526-.3833z"/><path d="m145.025 42.2102c.201.1412.339.356.383.598.021.2423-.038.4848-.169.69-.052.0936-.127.1724-.218.2288-.091.0563-.195.0884-.302.0931-.216.0168-.431-.037-.613-.1533-1.17-.8524-2.453-1.5386-3.812-2.0392-1.415-.5022-2.907-.7564-4.409-.7513-1.718-.0116-3.42.3439-4.991 1.0426-1.543.6936-2.929 1.6953-4.072 2.9438-1.227 1.3073-2.184 2.8444-2.817 4.5231-1.349 3.7194-1.349 7.7953 0 11.5147.605 1.7009 1.542 3.2644 2.756 4.5997 1.14 1.2525 2.526 2.2548 4.072 2.9438 1.571.6988 3.272 1.0542 4.991 1.0426 1.493.0139 2.976-.2406 4.379-.7513 1.351-.4974 2.632-1.1673 3.812-1.9932.083-.075.182-.1308.289-.1634.108-.0325.221-.0411.332-.025s.217.0564.311.1181c.093.0617.172.1433.231.239.143.1516.234.3449.26.5519-.012.1132-.049.2224-.107.3202-.058.0979-.136.1821-.229.2471-.786.5992-1.633 1.1132-2.527 1.5333-1.039.4734-2.12.8481-3.23 1.1192-1.121.2851-2.273.4294-3.429.4294-1.942.0141-3.864-.3939-5.634-1.196-1.736-.7994-3.297-1.9354-4.593-3.3424-1.384-1.4712-2.476-3.1937-3.215-5.0751-1.531-4.0982-1.531-8.6124 0-12.7106.719-1.8683 1.79-3.5808 3.154-5.0443 1.291-1.4117 2.853-2.5484 4.593-3.3425 1.769-.8021 3.691-1.2101 5.634-1.1959 1.666-.0085 3.321.2609 4.899.7973 1.538.4895 2.982 1.236 4.271 2.2078z"/><path d="m151.425 44.832c-.197.0084-.394-.0241-.578-.0953-.185-.0712-.353-.1797-.493-.3187-.132-.1329-.235-.2911-.303-.465-.068-.174-.101-.3601-.095-.5469v-.3527c-.006-.1919.029-.3828.103-.56.074-.1771.185-.3364.325-.4673.297-.2702.687-.4133 1.087-.3986.182-.0015.362.033.53.1014s.321.1694.45.2972c.263.2761.407.6456.398 1.0273v.3527c.004.1884-.03.3757-.1.5505-.07.1749-.174.3338-.308.4671-.133.1332-.291.2381-.466.3083-.174.0701-.361.1042-.55.1zm.842 24.9305c0 .2358-.093.4619-.26.6286-.076.0827-.168.1488-.271.1939-.103.0452-.214.0685-.326.0685s-.223-.0233-.326-.0685c-.103-.0451-.195-.1112-.271-.1939-.151-.174-.233-.3979-.23-.6286v-21.0361c0-.2358.094-.4619.261-.6286.073-.0813.163-.1463.263-.1912.1-.0448.209-.0685.318-.0695.113-.0043.225.0169.329.0621.103.0451.195.113.268.1986.156.1725.243.3961.245.6286z"/><path d="m157.519 48.3738h9.691c.108-.0042.216.0173.314.0625.098.0453.185.1132.252.1982.148.1575.231.3661.23.5826.003.2216-.079.4358-.23.598-.074.0752-.162.1345-.259.1741-.098.0395-.202.0586-.307.0559h-9.691c-.103-.0005-.205-.0242-.298-.0693-.092-.0452-.174-.1105-.238-.1914-.079-.0727-.142-.1602-.187-.2576-.044-.0973-.069-.2026-.073-.3097-.002-.1147.021-.2284.066-.334.044-.1056.111-.2007.194-.2793.141-.1444.334-.2271.536-.23zm4.271-6.5162c.113-.0022.224.02.327.065.103.0449.195.1117.27.1956.152.174.233.3979.23.6286v23.0754c-.042.7327.078 1.4657.352 2.1465.179.3992.502.7166.903.8893.332.1297.685.1973 1.041.1993.173.005.345-.0264.505-.092.161-.0656.333-.097.506-.092.094.0033.187.0269.271.0692.085.0423.159.1024.219.1761.134.1527.21.3484.214.552-.008.1478-.056.2906-.14.4124-.083.1219-.199.218-.335.2776-.363.2069-.776.3078-1.194.2913h-.903c-.484-.0257-.955-.1621-1.378-.3987-.544-.3117-.973-.79-1.225-1.3646-.386-.931-.559-1.937-.505-2.9438v-23.198c-.003-.1158.017-.231.06-.3389.042-.1079.105-.2064.185-.2897.077-.0817.169-.1469.272-.1917s.213-.0682.325-.0689z"/><path d="m188.595 47.8371c.115-.0044.23.0167.336.0617.105.0451.2.113.277.199.151.174.233.3979.229.6286v19.7482c.057 2.0448-.39 4.072-1.301 5.903-.787 1.5776-2.002 2.901-3.506 3.8177-1.528.9047-3.277 1.3665-5.052 1.334-1.167.0148-2.328-.1507-3.445-.4907-.892-.2581-1.735-.6622-2.495-1.1959-.184-.1493-.34-.3312-.459-.5367-.053-.1019-.08-.2149-.08-.3296s.027-.2277.08-.3296c.1-.2163.274-.3901.49-.4907.097-.0466.206-.0627.312-.0463.107.0164.206.0646.285.1383.695.4008 1.416.7542 2.158 1.0579 1.023.4288 2.122.6427 3.231.6287 1.501.0345 2.978-.3821 4.24-1.1959 1.247-.8299 2.242-1.9859 2.878-3.3425.708-1.5425 1.058-3.2248 1.026-4.9217v-3.2658 1.1039c-.411.9216-1.017 1.7429-1.776 2.4072-.769.7412-1.653 1.3523-2.618 1.8092-.965.4235-2.007.6427-3.061.644-1.49.0583-2.964-.32-4.241-1.0886-1.097-.7204-1.943-1.7656-2.419-2.9898-.549-1.4273-.814-2.9481-.781-4.4771v-13.7992c-.003-.2307.078-.4546.23-.6286.078-.0844.173-.1512.278-.1961.106-.0449.22-.067.334-.0646.113-.0043.225.0169.328.0621.104.0451.196.113.269.1986.156.1725.243.3961.245.6286v13.7992c-.094 1.7657.361 3.5173 1.301 5.0137.532.6536 1.218 1.1651 1.995 1.4888.777.3238 1.623.4496 2.461.3664 1.257-.0022 2.49-.3467 3.567-.9966 1.108-.6465 2.06-1.5315 2.786-2.5912.687-.9575 1.066-2.1021 1.087-3.2811v-13.7992c-.004-.2307.078-.4546.23-.6286.064-.0989.149-.182.25-.2431s.214-.0985.331-.1096z"/><path d="m135.318 83.4391c.058.034.107.0807.144.1364.037.0558.061.1192.071.1856.013.1345-.019.2696-.092.3833-.03.0552-.074.1014-.128.1337-.054.0324-.116.0497-.178.0503-.133.0521-.281.0521-.414 0-.694-.48-1.452-.8617-2.25-1.1346-.829-.2802-1.698-.4201-2.572-.414-1.008-.0106-2.008.1823-2.94.5673-.897.3817-1.709.9395-2.388 1.6406-.666.7266-1.186 1.5752-1.531 2.4992-.796 2.0513-.796 4.3269 0 6.3782.345.924.865 1.7726 1.531 2.4992.717.6856 1.566 1.2177 2.496 1.5639.931.385 1.931.5779 2.939.5673.856.0145 1.709-.1097 2.526-.3679.776-.2882 1.512-.6746 2.189-1.15.052-.0397.111-.0684.174-.0843.064-.0158.129-.0184.194-.0077.064.0047.126.0236.181.0555.056.0318.104.0757.14.1285.073.108.106.2383.092.368-.005.064-.024.1262-.055.1819-.032.0557-.076.1036-.129.1401-.482.321-.995.5932-1.531.8126-.612.2666-1.247.477-1.898.6286-.658.1512-1.331.2284-2.005.23-1.136.0037-2.26-.2205-3.307-.6593-.968-.4485-1.841-1.0782-2.572-1.8552-.789-.804-1.418-1.751-1.853-2.7905-.898-2.2649-.898-4.788 0-7.0529.437-1.0251 1.066-1.9568 1.853-2.7445.776-.7934 1.703-1.424 2.725-1.8552 1.045-.4458 2.171-.6703 3.307-.6593.976.0005 1.947.1504 2.878.4446.856.2703 1.666.6683 2.403 1.1806z"/><path d="m149.802 93.0065c.013 1.1383-.261 2.2614-.796 3.2658-.495.9492-1.235 1.7485-2.143 2.3152-.923.56-1.983.852-3.062.8433-1.078.0047-2.137-.287-3.062-.8433-.909-.5691-1.654-1.3675-2.158-2.3152-.543-1.0017-.817-2.1267-.797-3.2658-.022-1.1491.253-2.2845.797-3.2965.487-.9402 1.21-1.7378 2.097-2.3152.921-.563 1.982-.8552 3.062-.8433 1.08-.0161 2.142.2764 3.062.8433.907.5667 1.647 1.366 2.143 2.3152.558 1.0091.853 2.1429.857 3.2965zm-.995 0c.02-.9838-.201-1.9576-.643-2.8365-.406-.8059-1.026-1.4847-1.791-1.9626-.776-.4959-1.683-.747-2.603-.7206-.919-.0181-1.823.2323-2.602.7206-.783.4747-1.423 1.1529-1.853 1.9626-.433.8771-.658 1.8426-.658 2.8212s.225 1.944.658 2.8211c.422.8005 1.044 1.477 1.807 1.9626.782.4819 1.684.7318 2.602.7206.919.0155 1.823-.2347 2.603-.7206.762-.4814 1.381-1.1593 1.791-1.9626.454-.8652.691-1.8283.689-2.8058z"/><path d="m158.712 86.5515c.878-.0405 1.749.1724 2.51.6133.633.3996 1.13.9825 1.424 1.6712.309.7428.46 1.5416.444 2.3459v7.5129c0 .0625-.012.1245-.035.1824-.024.0579-.059.1105-.103.1549-.044.0495-.098.0888-.159.1153-.061.0264-.127.0394-.193.038-.066.0025-.132-.01-.193-.0366-.061-.0265-.115-.0664-.159-.1167-.044-.0444-.079-.097-.102-.1549-.024-.0579-.036-.1199-.036-.1824v-7.4056c.015-.6562-.105-1.3085-.352-1.9165-.228-.5604-.617-1.0405-1.117-1.38-.611-.3611-1.313-.5369-2.021-.5059-.734.0033-1.457.1765-2.113.5059-.66.3298-1.241.8008-1.699 1.38-.444.5392-.682 1.2181-.674 1.9165v7.4056c-.005.1281-.06.2492-.153.3373-.041.0491-.093.0884-.151.1149s-.122.0397-.186.0384c-.067.0063-.134-.0045-.196-.0313-.061-.0268-.115-.0688-.156-.122-.044-.0444-.079-.097-.102-.1549-.024-.0579-.036-.1199-.036-.1824v-11.3c-.001-.131.048-.2574.138-.3527.094-.0942.22-.149.352-.1533.133.0027.26.0578.352.1533.09.0953.14.2217.138.3527v2.3918l-.612 1.1806c.001-.5929.16-1.1748.459-1.6865.317-.5515.732-1.04 1.225-1.4413.508-.4114 1.076-.7424 1.684-.9813.584-.2118 1.201-.3157 1.822-.3066z"/><path d="m172.873 86.5515c.879-.0405 1.75.1724 2.511.6133.633.3959 1.125.9804 1.409 1.6712.313.7418.469 1.5405.459 2.3459v7.5129c.001.0641-.012.1276-.038.186-.027.0584-.066.1101-.115.1513-.041.05-.092.0899-.151.1165-.058.0266-.122.0392-.186.0368-.067.0036-.133-.0083-.194-.035-.061-.0266-.115-.0671-.158-.1183-.044-.0444-.079-.097-.103-.1549-.023-.0579-.035-.1199-.035-.1824v-7.4056c.007-.6556-.112-1.3065-.352-1.9165-.233-.5624-.627-1.0428-1.133-1.38-.609-.3645-1.312-.5405-2.021-.5059-.729-.0005-1.448.1729-2.097.5059-.663.3336-1.247.8039-1.715 1.38-.435.5436-.673 1.2196-.673 1.9165v7.4056c0 .0625-.012.1245-.036.1824-.023.0579-.058.1105-.102.1549-.044.0495-.099.0888-.159.1153-.061.0264-.127.0394-.193.038-.067.0025-.133-.01-.194-.0366-.061-.0265-.115-.0664-.158-.1167-.044-.0444-.079-.097-.103-.1549s-.036-.1199-.035-.1824v-11.3c.004-.1328.059-.259.153-.3527.088-.0932.209-.1482.337-.1533.068-.0007.136.0125.199.0389s.12.0653.168.1144c.078.1009.121.2249.123.3527v2.3918l-.613 1.1806c.008-.5941.172-1.1757.475-1.6865.317-.5515.732-1.04 1.225-1.4413.502-.4113 1.065-.7423 1.668-.9813.589-.212 1.212-.3158 1.837-.3066z"/><path d="m186.881 99.4308c-1.131.0236-2.249-.2457-3.246-.782-.932-.5195-1.701-1.2895-2.219-2.2232-.559-1.0348-.838-2.1973-.812-3.3731-.032-1.2187.242-2.426.796-3.5112.495-.8804 1.206-1.6194 2.067-2.1465.805-.499 1.732-.7644 2.679-.7666.681-.0003 1.358.1084 2.006.322.649.2194 1.244.5748 1.745 1.0426.534.4843.961 1.0743 1.255 1.7325.338.7902.515 1.6398.521 2.4992-.002.1304-.051.2558-.138.3527-.044.0494-.099.0888-.159.1152-.061.0265-.127.0395-.193.0381h-9.982l-.153-.92h9.875l-.245.2147v-.4446c-.057-.7912-.344-1.5483-.827-2.1773-.437-.5761-1.011-1.0345-1.669-1.3339-.636-.3022-1.332-.4593-2.036-.46-.528.0081-1.048.1228-1.531.3374-.572.2262-1.092.5651-1.531.9966-.479.4864-.854 1.0655-1.102 1.7019-.303.7654-.449 1.5841-.429 2.4072-.011.9483.193 1.8868.597 2.7445.394.8307 1.015 1.5325 1.792 2.0239.881.53 1.897.7911 2.924.7512.522-.0004 1.041-.0938 1.531-.2759.475-.1889.924-.4416 1.331-.7513.366-.2873.686-.6285.95-1.012.104-.1232.252-.2004.413-.2146.056-.0018.112.0097.162.0337.051.024.095.0598.129.1043.041.0393.073.0871.094.14s.031.1097.028.1666c.003.1046-.03.207-.091.2913-.538.6873-1.197 1.2694-1.945 1.7173-.785.4546-1.68.6828-2.587.6593z"/><path d="m200.354 86.5515c.696-.0071 1.391.0754 2.066.2453.541.1332 1.058.3505 1.531.644.414.276.613.552.613.8586-.005.1207-.054.2353-.138.322-.04.0519-.091.0941-.149.1233-.058.0293-.123.0448-.188.0453-.156.0016-.308-.0527-.429-.1533-.118-.1068-.226-.2249-.321-.3526-.153-.167-.341-.2979-.551-.3833-.305-.1461-.63-.2444-.965-.2913-.504-.0949-1.017-.1361-1.531-.1227-.915-.0088-1.813.2467-2.587.736-.786.4876-1.434 1.1685-1.883 1.9778-.467.8492-.705 1.8058-.689 2.7752-.013.9783.207 1.9456.643 2.8212.412.8112 1.036 1.495 1.807 1.9779.818.4883 1.757.7379 2.709.7206.569.0245 1.137-.0428 1.684-.1993.344-.1263.677-.2801.995-.46.272-.1384.512-.3315.705-.5673.049-.0775.117-.1418.197-.1872s.17-.0706.262-.0735c.057-.0075.115-.0002.169.0213.054.0214.101.0564.137.1014.04.0405.071.0884.092.141.021.0527.031.109.031.1656 0 .2045-.184.4651-.551.782-.454.3741-.973.6602-1.531.8433-.732.2599-1.505.3846-2.282.368-1.113.0126-2.208-.279-3.169-.8433-.911-.5625-1.652-1.3629-2.143-2.3152-.527-1.0173-.79-2.1508-.765-3.2965-.016-1.1056.247-2.1974.765-3.1738.515-.9848 1.281-1.8155 2.22-2.4072.976-.5932 2.105-.8864 3.246-.8433z"/><path d="m206.676 86.8429h5.695c.062-.0012.123.0121.179.0387s.105.0659.143.1147c.063.0642.106.1456.123.234s.008.1799-.026.2631c-.035.0833-.092.1546-.167.2053-.074.0506-.162.0782-.252.0795h-5.695c-.116-.0157-.224-.0692-.307-.1523s-.136-.1912-.152-.3077c-.002-.0642.01-.1282.037-.1867.026-.0586.066-.1101.116-.1506.039-.0424.087-.0765.139-.1003.053-.0237.11-.0365.167-.0377zm2.511-3.6031c.067-.0025.133.01.194.0366.061.0265.115.0664.158.1167.046.0433.081.0958.105.1539s.035.1207.033.1834v12.8639c-.028.4038.04.8084.199 1.1806.108.2272.3.4033.536.4907.196.0728.403.1092.612.1073.096.0172.195.0172.291 0s.195-.0172.291 0c.056-.0018.111.0098.162.0338s.095.0597.129.1042c.041.0394.073.0871.094.14s.031.1097.028.1666c-.008.0824-.038.1612-.087.2284-.048.0672-.113.1207-.188.155-.218.1114-.46.1642-.704.1533h-.521c-.283-.0095-.56-.0829-.811-.2147-.316-.1713-.569-.4401-.72-.7666-.225-.5107-.325-1.068-.291-1.6252v-13.0173c-.002-.0627.009-.1253.033-.1834s.06-.1106.105-.1539c.075-.0853.178-.1399.291-.1533z"/><path d="m220.93 99.4308c-1.131.0236-2.249-.2458-3.246-.782-.935-.5155-1.705-1.2865-2.22-2.2232-.558-1.0348-.837-2.1973-.811-3.3731-.032-1.2187.241-2.426.796-3.5112.495-.8804 1.206-1.6194 2.067-2.1465.805-.499 1.732-.7644 2.679-.7666.681-.0003 1.358.1084 2.005.322.65.2194 1.245.5748 1.746 1.0426.533.4843.961 1.0743 1.255 1.7325.338.7902.515 1.6398.521 2.4992-.002.1304-.051.2558-.138.3527-.044.0494-.099.0888-.159.1152-.061.0265-.127.0395-.193.0381h-9.982l-.153-.92h9.951l-.245.2147v-.4446c-.057-.7912-.344-1.5483-.827-2.1773-.437-.5761-1.01-1.0345-1.668-1.3339-.637-.3022-1.332-.4593-2.037-.46-.527.0081-1.048.1228-1.53.3374-.572.2262-1.093.5651-1.531.9966-.479.4864-.854 1.0655-1.103 1.7019-.302.7654-.448 1.5841-.428 2.4072-.012.9483.193 1.8868.597 2.7445.394.8307 1.015 1.5325 1.791 2.0239.881.53 1.897.7911 2.924.7512.523-.0004 1.041-.0938 1.531-.2759.476-.1889.924-.4416 1.332-.7513.366-.2873.686-.6285.949-1.012.05-.0623.113-.1136.184-.1505.071-.037.149-.0588.229-.0641.056-.0018.112.0097.162.0337.051.024.095.0598.129.1043.041.0393.074.0871.095.14s.03.1097.028.1666c.002.1046-.03.207-.092.2913-.567.6671-1.252 1.2233-2.021 1.6406-.777.4815-1.673.7364-2.587.736z"/><path d="m239.101 81.0319c.067-.0024.133.0101.194.0366s.115.0664.158.1167c.046.0433.082.0958.105.1539.024.0582.035.1207.033.1835v17.1723c-.007.1277-.061.2483-.151.3388-.091.0905-.211.1445-.339.1518-.066.0037-.133-.0083-.194-.0349-.061-.0267-.115-.0672-.158-.1184-.044-.0444-.079-.097-.102-.1549-.024-.0579-.036-.1199-.036-.1824v-3.4805l.383-.5366c-.006.5765-.131 1.1456-.367 1.6712-.264.5745-.633 1.0945-1.087 1.5333-.469.4682-1.019.8474-1.623 1.1192-.632.278-1.315.419-2.006.414-1.031.0102-2.042-.283-2.908-.8433-.869-.5806-1.571-1.3787-2.037-2.3152-.489-1.0297-.743-2.1559-.743-3.2964 0-1.1406.254-2.2668.743-3.2965.466-.932 1.168-1.7251 2.037-2.2999.867-.5556 1.879-.8436 2.908-.8279.658-.0034 1.309.127 1.914.3833.61.2421 1.166.6015 1.638 1.0579.464.4374.843.9573 1.118 1.5333.279.6324.42 1.3172.413 2.0085l-.383-.6133v-9.3834c.035-.1118.112-.2054.215-.2607.026-.056.065-.1055.112-.1452.048-.0397.103-.0687.163-.0848zm-5.144 17.4637c.874.0183 1.733-.2275 2.465-.7053.722-.4924 1.298-1.1703 1.669-1.9626.421-.8904.631-1.8666.612-2.8518.02-.9805-.189-1.952-.612-2.8365-.372-.792-.955-1.4658-1.684-1.9472-.732-.46-1.578-.704-2.442-.704s-1.71.244-2.442.704c-.727.489-1.313 1.1605-1.699 1.9472-.403.8884-.612 1.853-.612 2.8288 0 .9759.209 1.9404.612 2.8289.386.7951.972 1.4766 1.699 1.9778.721.4782 1.569.7292 2.434.7207z"/></g><path d="m260.672 83.439c.06.0332.111.0793.151.135s.067.1196.079.187c.014.1368-.024.2741-.107.3833-.031.0553-.075.1014-.129.1338-.053.0323-.115.0497-.178.0502-.114.0355-.237.0355-.352 0-.69-.4773-1.442-.859-2.235-1.1346-.834-.2799-1.708-.4197-2.587-.4139-1.003-.0107-1.998.1823-2.924.5673-.898.3817-1.71.9395-2.389 1.6405-.689.6915-1.24 1.5086-1.622 2.4072-.776 2.0551-.776 4.3232 0 6.3783.372.9314.923 1.7805 1.622 2.4992.679.701 1.491 1.2589 2.389 1.6406.926.3849 1.921.5779 2.924.5673.874.0072 1.744-.1327 2.572-.414.785-.2681 1.532-.6393 2.22-1.1039.051-.0398.111-.0685.174-.0843.063-.0159.129-.0185.193-.0077.064.0046.126.0236.182.0554.055.0318.103.0758.14.1285.041.051.072.1099.09.1731.019.0632.024.1295.017.1949-.009.0648-.031.127-.065.1825-.035.0555-.08.1031-.134.1395-.483.321-.995.5932-1.531.8126-.612.269-1.248.4794-1.899.6287-.657.1521-1.33.2292-2.005.2299-1.135.0037-2.26-.2205-3.307-.6592-1.018-.4389-1.943-1.0686-2.725-1.8553-1.211-1.2947-2.028-2.9092-2.353-4.6531-.326-1.744-.147-3.5448.516-5.1903.866-2.0791 2.517-3.7319 4.593-4.5997 1.045-.4458 2.171-.6703 3.306-.6593.977-.0007 1.948.1493 2.879.4446.888.2664 1.73.6698 2.495 1.1959z" fill="#fff"/><path d="m274.757 93.0066c.018 1.137-.251 2.2603-.781 3.2658-.496.9492-1.236 1.7485-2.143 2.3152-.931.5383-1.987.8216-3.062.8216s-2.131-.2833-3.062-.8216c-.915-.567-1.665-1.3656-2.174-2.3152-.535-1.0044-.809-2.1275-.796-3.2658-.015-1.1483.259-2.2818.796-3.2965.492-.9421 1.22-1.7399 2.113-2.3152.931-.5383 1.987-.8217 3.061-.8217 1.075 0 2.131.2834 3.062.8217.908.5667 1.648 1.366 2.144 2.3152.553 1.0102.843 2.1442.842 3.2965zm-.98 0c.019-.9839-.201-1.9576-.643-2.8365-.407-.8059-1.026-1.4848-1.791-1.9626-.787-.4715-1.686-.7205-2.603-.7205s-1.816.249-2.602.7205c-.77.4769-1.395 1.1556-1.807 1.9626-.433.8771-.659 1.8425-.659 2.8211s.226 1.9441.659 2.8212c.417.8039 1.04 1.4815 1.807 1.9626.786.4715 1.685.7205 2.602.7205s1.816-.249 2.603-.7205c.762-.4814 1.38-1.1593 1.791-1.9626.438-.8693.659-1.8322.643-2.8058z" fill="#fff"/><path d="m287.817 86.9349c.066-.0025.132.01.193.0365.061.0266.115.0665.159.1168.09.0952.139.2217.138.3526v11.254c0 .0626-.012.1246-.036.1824-.023.0579-.058.1106-.102.1549-.044.0495-.099.0889-.159.1153-.061.0265-.127.0395-.193.0381-.067.0024-.133-.01-.194-.0366-.061-.0265-.115-.0664-.158-.1168-.044-.0443-.079-.097-.103-.1549-.024-.0578-.036-.1198-.035-.1824v-3.4804l.398-.322c-.019.5341-.155 1.0575-.398 1.5332-.262.572-.625 1.0916-1.072 1.5333-.472.4523-1.022.8158-1.623 1.0732-.634.2672-1.317.4028-2.005.3987-1.039.0123-2.057-.2867-2.924-.8586-.869-.5831-1.566-1.3875-2.021-2.3305-.501-1.0308-.753-2.1654-.735-3.3119-.025-1.144.232-2.2765.75-3.2964.434-.9087 1.106-1.6823 1.945-2.2386.868-.554 1.879-.8418 2.908-.8279.683-.0065 1.359.1238 1.99.3833.608.2384 1.16.5984 1.623 1.0579.484.4699.869 1.0323 1.132 1.6538.263.6216.399 1.2896.399 1.9647l-.398-.6133v-3.6185c-.001-.1309.048-.2574.138-.3526.053-.0429.115-.0745.18-.093.066-.0184.135-.0233.203-.0143zm-5.144 11.5606c.87.0107 1.723-.2403 2.449-.7206.732-.5029 1.318-1.1905 1.7-1.9932.414-.8929.623-1.8674.612-2.8519.008-.9545-.202-1.8983-.612-2.7598-.382-.794-.969-1.4715-1.7-1.9625-.723-.4875-1.578-.7392-2.449-.7207-.856-.0101-1.697.2297-2.419.69-.726.4832-1.312 1.1495-1.699 1.9319-.437.8748-.652 1.8435-.628 2.8211-.019.9853.191 1.9614.612 2.8519.371.8049.953 1.4939 1.684 1.9932.705.4658 1.529.7162 2.373.7206z" fill="#fff"/><path d="m297.368 86.5515c.697-.0071 1.392.0754 2.067.2453.54.1376 1.055.3546 1.531.644.398.276.597.552.597.8586-.005.1207-.054.2353-.138.322-.039.0519-.09.0941-.149.1233-.058.0293-.122.0448-.187.0453-.157.0016-.309-.0527-.429-.1533-.118-.1068-.226-.2249-.322-.3526-.148-.1652-.331-.296-.535-.3833-.311-.1458-.641-.244-.98-.2913-.505-.0949-1.018-.1361-1.531-.1227-.915-.0088-1.814.2467-2.587.736-.804.5003-1.464 1.2018-1.915 2.0352s-.678 1.7701-.657 2.7178c-.014.9783.207 1.9456.643 2.8212.412.8155 1.043 1.5002 1.821 1.9779.813.4901 1.747.74 2.695.7206.568.0245 1.137-.0428 1.684-.1993.343-.1263.676-.2801.995-.46.271-.1384.511-.3315.704-.5673.051-.0797.122-.1453.204-.1908.083-.0455.176-.0695.271-.0699.057-.0048.114.0037.167.025.054.0213.101.0548.139.0977.069.087.107.1952.107.3066 0 .1994-.184.46-.536.782-.456.3691-.975.6545-1.531.8433-.731.2599-1.504.3846-2.281.368-1.113.0126-2.209-.279-3.169-.8433-.911-.5625-1.652-1.3629-2.143-2.3152-.52-1.0199-.783-2.1516-.766-3.2965-.008-1.1047.255-2.1946.766-3.1738.514-.9848 1.28-1.8155 2.22-2.4072.976-.5932 2.104-.8864 3.245-.8433z" fill="#fff"/><path d="m309.724 86.7969c.857-.0314 1.704.1927 2.434.644.639.4174 1.14 1.0149 1.439 1.7172.326.7491.488 1.5595.475 2.3765v7.1603c0 .0625-.012.1245-.035.1824-.024.0579-.059.1105-.103.1549-.044.0495-.098.0888-.159.1153s-.127.0394-.193.038c-.066.0025-.132-.01-.193-.0365-.061-.0266-.116-.0665-.159-.1168-.044-.0444-.079-.097-.103-.1549-.023-.0579-.035-.1199-.035-.1824v-7.1603c.012-.6546-.102-1.3054-.337-1.9165-.22-.5564-.598-1.036-1.087-1.3799-.58-.3656-1.259-.5423-1.944-.506-.719.0043-1.427.1776-2.067.506-.647.3306-1.212.8021-1.653 1.3799-.425.5477-.651 1.2233-.643 1.9165v7.1603c-.005.1281-.06.2492-.153.3373-.041.0491-.093.0884-.151.1149-.059.0266-.122.0397-.186.0384-.069.0037-.138-.0082-.201-.0347-.064-.0265-.121-.0671-.166-.1186-.079-.095-.122-.2141-.123-.3373v-17.1723c-.002-.0628.009-.1253.033-.1835.024-.0581.059-.1106.105-.1539.044-.0494.098-.0888.159-.1152.061-.0265.127-.0395.193-.0381.066-.0024.133.0101.193.0366.061.0265.116.0664.159.1167.046.0433.081.0958.105.1539.024.0582.035.1207.033.1835v8.5555l-.612 1.1806c-.004-.5917.149-1.1737.444-1.6866.293-.5453.682-1.0334 1.148-1.4413.483-.4071 1.025-.738 1.607-.9812.565-.2274 1.167-.347 1.776-.3527z" fill="#fff"/><path d="m318.434 84.8803c-.229.0092-.453-.0673-.628-.2147-.075-.0736-.134-.162-.174-.2597-.039-.0976-.058-.2023-.055-.3076v-.1993c-.004-.1068.016-.2131.058-.3113.043-.0981.106-.1855.187-.256.176-.1448.399-.221.627-.2146.214-.0037.422.0729.582.2146.075.0737.134.1621.174.2597.039.0976.058.2023.056.3076v.1993c.002.1053-.017.21-.056.3076-.04.0977-.099.1861-.174.2597-.164.1454-.378.2222-.597.2147zm.49 13.7992c-.007.1277-.061.2483-.152.3388-.09.0905-.211.1445-.338.1518-.067.0036-.133-.0083-.194-.0349-.061-.0267-.115-.0672-.158-.1184-.044-.0444-.079-.097-.103-.1549-.023-.0579-.035-.1199-.035-.1824v-11.6527c-.002-.0627.009-.1253.033-.1834s.059-.1106.105-.1539c.044-.0495.098-.0888.159-.1153.061-.0264.127-.0394.193-.038.066-.0025.132.01.193.0366.061.0265.116.0664.159.1167.045.0433.081.0958.105.1539s.035.1207.033.1834z" fill="#fff"/><path d="m328.264 86.5515c.878-.0405 1.75.1724 2.511.6133.632.3959 1.125.9804 1.408 1.6712.314.7418.47 1.5405.46 2.3459v7.5129c.001.0641-.012.1276-.039.186-.026.0584-.066.1101-.115.1513-.04.05-.091.0899-.15.1165-.058.0266-.122.0392-.186.0368-.067.0036-.133-.0083-.195-.035-.061-.0266-.115-.0671-.158-.1183-.044-.0444-.078-.097-.102-.1549s-.036-.1199-.035-.1824v-7.4056c.007-.6556-.113-1.3065-.352-1.9165-.233-.5624-.627-1.0428-1.133-1.38-.609-.3645-1.312-.5405-2.021-.5059-.729-.0005-1.448.1729-2.098.5059-.662.3336-1.246.8039-1.714 1.38-.436.5436-.673 1.2196-.674 1.9165v7.4056c.001.0625-.011.1245-.035.1824s-.059.1105-.103.1549c-.044.0495-.098.0888-.159.1153-.061.0264-.126.0394-.193.038-.066.0025-.132-.01-.193-.0366-.061-.0265-.115-.0664-.159-.1167-.044-.0444-.079-.097-.102-.1549-.024-.0579-.036-.1199-.036-.1824v-11.3c.005-.1328.059-.259.154-.3527.087-.0932.208-.1482.336-.1533.069-.0007.137.0125.2.0389s.12.0653.168.1144c.078.1009.121.2249.122.3527v2.3918l-.612 1.1806c.008-.5941.171-1.1757.474-1.6865.317-.5515.732-1.04 1.225-1.4413.503-.4113 1.065-.7423 1.669-.9813.589-.212 1.211-.3158 1.837-.3066z" fill="#fff"/><path d="m341.537 86.5515c.702-.0016 1.398.1284 2.052.3833.613.2554 1.182.6074 1.684 1.0426.449.3903.832.8512 1.133 1.3646.252.4447.388.9454.398 1.4566l-.322-.92v-2.4838c-.001-.131.048-.2574.138-.3527.045-.0493.099-.0887.16-.1157.06-.0269.126-.0409.192-.0409.067 0 .132.014.193.0409.06.027.115.0664.159.1157.056.0419.102.0949.137.1555.034.0607.055.1279.062.1972v10.5487c.029 1.1314-.235 2.2505-.765 3.2505-.493.895-1.231 1.629-2.128 2.116-.944.496-1.996.748-3.062.736-.662-.005-1.32-.092-1.96-.261-.579-.134-1.135-.351-1.653-.644-.444-.26-.658-.536-.658-.843-.004-.056.004-.112.022-.164.018-.053.047-.102.085-.143.037-.044.084-.078.138-.099.053-.022.111-.03.168-.023.09.004.177.029.254.075.078.045.143.109.19.185.202.227.461.397.75.491l.597.199c.302.089.609.161.919.215.403.025.806.025 1.209 0 .676.035 1.352-.073 1.983-.319s1.202-.623 1.676-1.107c.911-1.027 1.389-2.3684 1.332-3.7412v-2.3152h.245c-.166.6482-.458 1.2576-.857 1.7939-.355.4672-.791.8671-1.286 1.1806-.471.3019-.988.5246-1.531.6593-.499.1361-1.014.2082-1.531.2147-1.08.0187-2.143-.274-3.062-.8433-.893-.5753-1.621-1.3731-2.113-2.3152-.513-1.0229-.78-2.1518-.78-3.2965s.267-2.2735.78-3.2964c.49-.9398 1.219-1.7333 2.113-2.2999.888-.531 1.905-.8068 2.939-.7973zm0 .9353c-.902-.0164-1.79.2285-2.556.7053-.765.4718-1.385 1.1455-1.791 1.9472-.424.8827-.644 1.8495-.644 2.8288 0 .9794.22 1.9461.644 2.8289.405.8106 1.025 1.4946 1.791 1.9778.765.4814 1.653.7316 2.556.7207.895.0138 1.776-.2253 2.542-.69.802-.4635 1.463-1.1365 1.913-1.9472.434-.8988.66-1.8842.66-2.8825s-.226-1.9837-.66-2.8825c-.408-.7927-1.028-1.4562-1.791-1.9166-.787-.4788-1.697-.7185-2.618-.6899z" fill="#fff"/></svg>