<svg fill="none" height="52" viewBox="0 0 190 52" width="190" xmlns="http://www.w3.org/2000/svg"><path d="m101.882 18.5401c.142.071.142.142.213.2839 0 .071 0 .2129-.071.2839s-.142.142-.284.142-.213 0-.284-.071c-.569-.4259-1.208-.7098-1.847-.9227-.7103-.2129-1.4205-.3549-2.1308-.3549-.8523 0-1.7046.142-2.4859.4969-.7812.3548-1.4205.7807-1.9887 1.3485s-.9943 1.2776-1.3494 2.0583c-.3552.7807-.4972 1.7034-.4972 2.697 0 .9937.142 1.8454.4972 2.6971.3551.7807.7812 1.4905 1.3494 2.0583s1.2075 1.0646 1.9887 1.3485c.7813.3549 1.5626.4969 2.4859.4969.7813 0 1.4916-.142 2.1308-.3549.639-.2129 1.278-.5678 1.847-.9227.071-.071.213-.071.284-.071.142 0 .213.071.284.142s.071.2129.071.2839c0 .1419-.071.2129-.142.2839-.355.2129-.71.4258-1.208.7097-.497.213-1.065.4259-1.5622.4969-.5682.1419-1.1364.2129-1.7046.2129-.9943 0-1.9177-.2129-2.77-.5678s-1.6335-.8517-2.2728-1.5615c-.6392-.6387-1.2074-1.4195-1.5625-2.3422-.3551-.9226-.5682-1.8453-.5682-2.91 0-1.0646.2131-2.0582.5682-2.9099.3551-.9227.9233-1.7035 1.5625-2.3422.6393-.6388 1.4205-1.2066 2.2728-1.5615s1.7757-.5678 2.77-.5678c.8523 0 1.6336.142 2.4149.3549.7099.2839 1.3499.5678 1.9889 1.0646z" fill="#fff"/><path d="m112.749 21.4501c.142 0 .213.071.284.1419.071.071.142.213.142.2839v9.4398c0 .1419-.071.2129-.142.2839s-.142.1419-.284.1419-.213-.0709-.284-.1419-.142-.142-.142-.2839v-2.981l.355-.2839c0 .4259-.142.8517-.355 1.3485-.213.4259-.497.8517-.924 1.2066-.355.3549-.852.6388-1.349.9227-.497.2129-1.065.3549-1.705.3549-.923 0-1.704-.2129-2.486-.7098-.71-.4968-1.278-1.1356-1.704-1.9163-.426-.8517-.639-1.7744-.639-2.7681 0-1.0646.213-1.9873.639-2.768s.994-1.4195 1.704-1.9163c.711-.4259 1.563-.7098 2.415-.7098.569 0 1.137.071 1.634.2839s.994.4968 1.349.9227.711.8517.924 1.3485c.213.4969.355 1.0647.355 1.7034l-.355-.4968v-2.981c0-.1419.071-.2129.142-.2839.213-.0709.284-.1419.426-.1419zm-4.333 9.6526c.782 0 1.421-.2129 2.06-.6387.568-.4259 1.065-.9227 1.421-1.6325.355-.7097.497-1.4904.497-2.4131 0-.8517-.142-1.6325-.497-2.3422-.356-.7098-.782-1.2066-1.421-1.6325-.568-.4258-1.278-.6387-2.06-.6387-.781 0-1.42.2129-2.059.5678-.64.3548-1.066.9227-1.421 1.6324-.355.7098-.497 1.4905-.497 2.3422s.142 1.7034.497 2.4132c.355.7097.781 1.2775 1.421 1.6324.639.4968 1.278.7097 2.059.7097z" fill="#fff"/><path d="m116.797 31.6706c-.142 0-.213-.071-.284-.1419-.071-.071-.142-.142-.142-.2839v-9.3688c0-.1419.071-.2129.142-.2839s.142-.1419.284-.1419.213.0709.284.1419.142.2129.142.2839v3.4778l-.355.5678c0-.5678.071-1.0646.284-1.6324s.427-1.0647.782-1.5615.781-.8517 1.278-1.1356 1.137-.4258 1.776-.4258c.213 0 .426 0 .639.0709.213.071.355.213.355.3549 0 .142 0 .2129-.071.2839s-.142.142-.284.142c-.071 0-.213 0-.284-.071-.142-.071-.284-.071-.497-.071-.426 0-.853.142-1.279.3549-.426.2839-.781.6388-1.136 1.0646-.355.4259-.639.9227-.852 1.4195-.214.4969-.285.9937-.285 1.4905v5.1102c0 .142-.071.213-.142.2839-.142.071-.284.071-.355.071z" fill="#fff"/><path d="m128.303 31.8835c-.995 0-1.918-.2129-2.699-.6387-.782-.4259-1.421-1.0647-1.847-1.8454s-.71-1.7744-.71-2.839c0-1.1356.213-2.1293.639-2.91s.994-1.4195 1.705-1.8454c.71-.4258 1.42-.6387 2.273-.6387.568 0 1.136.0709 1.704.2839.568.2129 1.065.4968 1.492.8517.426.3548.781.8517 1.065 1.4904.284.5679.426 1.2776.426 2.0583 0 .142-.071.213-.142.2839-.071.071-.142.142-.284.142h-8.381l-.142-.7807h8.239l-.213.2129v-.3549c-.071-.7097-.284-1.3485-.71-1.8454-.427-.4968-.853-.8517-1.421-1.1356s-.994-.4258-1.633-.4258c-.427 0-.853.071-1.279.2839s-.852.4968-1.278.8517c-.356.3549-.711.8517-.924 1.4195s-.355 1.2776-.355 1.9873c0 .8517.142 1.6325.497 2.2712.355.7098.853 1.2776 1.492 1.7034.639.4259 1.491.6388 2.486.6388.497 0 .923-.071 1.278-.2129.426-.142.781-.3549 1.137-.6388.355-.2839.568-.5678.781-.8517.142-.1419.213-.2129.355-.2129.071 0 .142.071.213.1419.071.071.071.142.071.2839 0 .071 0 .213-.071.213-.426.5678-.994.9936-1.634 1.4195-.568.4258-1.349.6387-2.13.6387z" fill="#fff"/><path d="m139.383 31.8835c-.995 0-1.918-.2129-2.699-.6387-.781-.4259-1.421-1.0647-1.847-1.8454s-.71-1.7744-.71-2.839c0-1.1356.213-2.1293.639-2.91s.995-1.4195 1.705-1.8454c.71-.4258 1.42-.6387 2.273-.6387.568 0 1.136.0709 1.704.2839.568.2129 1.066.4968 1.492.8517.426.3548.781.8517 1.065 1.4904.284.5679.426 1.2776.426 2.0583 0 .142-.071.213-.142.2839-.071.071-.142.142-.284.142h-8.381l-.142-.7807h8.239l-.213.2129v-.3549c-.071-.7097-.284-1.3485-.71-1.8454-.426-.4968-.853-.8517-1.421-1.1356s-1.136-.3548-1.704-.3548c-.427 0-.853.0709-1.279.2839-.426.2129-.852.4968-1.278.8517-.355.3548-.711.8517-.924 1.4195s-.355 1.2775-.355 1.9873c0 .8517.142 1.6324.497 2.2712.356.7098.853 1.2776 1.492 1.7034.639.4259 1.491.6388 2.486.6388.497 0 .923-.071 1.278-.2129.426-.142.782-.3549 1.137-.6388s.568-.5678.781-.8517c.142-.142.213-.2129.355-.2129.071 0 .142.0709.213.1419s.071.142.071.2839c0 .071 0 .2129-.071.2129-.426.5678-.994.9937-1.633 1.4195-.498.3549-1.279.5678-2.06.5678z" fill="#fff"/><path d="m146.344 31.6706c-.142 0-.213-.071-.284-.1419-.071-.071-.142-.142-.142-.2839v-9.3688c0-.1419.071-.2129.142-.2839s.142-.1419.284-.1419.213.0709.284.1419.142.2129.142.2839v3.4778l-.355.5678c0-.5678.071-1.0646.284-1.6324s.426-1.0647.782-1.5615c.355-.4968.781-.8517 1.278-1.1356s1.136-.4258 1.776-.4258c.213 0 .426 0 .639.0709.213.071.355.213.355.3549 0 .142 0 .2129-.071.2839s-.142.142-.284.142c-.071 0-.213 0-.284-.071-.142-.071-.284-.071-.497-.071-.427 0-.853.142-1.279.3549-.426.2839-.781.6388-1.136 1.0646-.355.4259-.64.9227-.853 1.4195-.213.4969-.284.9937-.284 1.4905v5.1102c0 .142-.071.213-.142.2839-.142.071-.284.071-.355.071z" fill="#fff"/><g fill="#0a98c1"><path d="m156.551 30.0067h6.914v1.572h-8.848v-14.5787h1.934z"/><path d="m173.915 27.7738h-6.112l-1.372 3.8049h-1.984l5.571-14.5787h1.683l5.581 14.5787h-1.974zm-5.531-1.582h4.96l-2.485-6.8188z"/><path d="m179.246 31.5787v-14.5787h4.769c1.584 0 2.773.3271 3.567.9813.802.6541 1.203 1.622 1.203 2.9037 0 .6809-.194 1.285-.581 1.8123-.388.5207-.915.9245-1.583 1.2116.788.2202 1.409.6408 1.863 1.2616.461.6141.692 1.3484.692 2.2028 0 1.3083-.425 2.3363-1.273 3.084-.848.7476-2.047 1.1214-3.597 1.1214zm1.924-6.8188v5.2468h3.176c.895 0 1.6-.2303 2.114-.6909.521-.4673.782-1.1081.782-1.9225 0-1.7556-.955-2.6334-2.866-2.6334zm0-1.5419h2.906c.841 0 1.513-.2103 2.014-.6308.507-.4206.761-.9913.761-1.7122 0-.8011-.234-1.3818-.701-1.7423-.468-.3671-1.179-.5507-2.135-.5507h-2.845z"/><path d="m67.0089 18.7531c.071.0709.1421.1419.1421.2839 0 .071 0 .2129-.0711.2839-.071.071-.142.1419-.2131.1419-.071 0-.213 0-.2841-.0709-.5682-.4259-1.1364-.7098-1.7756-.9227-.6392-.213-1.3495-.3549-2.0597-.3549-.8523 0-1.6336.1419-2.3438.4968-.7103.3549-1.3495.7808-1.9177 1.3486-.4262.5678-.8523 1.2775-1.2074 2.0582-.2841.7808-.4972 1.7035-.4972 2.6971 0 .9937.142 1.8454.4972 2.6971.2841.7807.7102 1.4905 1.2784 2.0583s1.2074 1.0646 1.9177 1.3485c.7102.3549 1.4915.4968 2.3438.4968.7103 0 1.4205-.1419 2.0597-.3549.6393-.2129 1.2075-.5678 1.7757-.9226.071-.071.213-.071.2841-.071.071 0 .213.071.2841.1419v.3549c0 .142-.071.2129-.1421.2839-.2841.2129-.7102.4259-1.2074.7098-.4972.2129-.9944.4258-1.4915.4968-.4972.142-1.0654.2129-1.5626.2129-.9233 0-1.7756-.2129-2.6279-.5678-.7813-.3549-1.5626-.8517-2.1308-1.5614-.6392-.6388-1.1364-1.4195-1.4915-2.3422s-.5682-1.8454-.5682-2.91.1421-2.0583.5682-2.91c.3551-.9227.8523-1.7034 1.4915-2.3422.6393-.6388 1.3495-1.2066 2.1308-1.5615.7813-.3548 1.7046-.5678 2.6279-.5678.7813 0 1.5626.142 2.2728.3549.7103.2129 1.3495.4968 1.9177.9937z"/><path d="m69.9927 19.9597c-.213 0-.3551-.071-.4971-.213-.1421-.1419-.1421-.2839-.1421-.4968v-.142c0-.2129.071-.3548.2131-.4968.142-.1419.2841-.2129.4972-.2129.213 0 .3551.071.4261.2129.1421.142.2131.2839.2131.4968v.142c0 .2129-.071.3549-.2131.4968-.142.142-.2841.213-.4972.213zm.4262 11.498c0 .1419-.071.2129-.1421.2839-.071.0709-.142.1419-.2841.1419-.142 0-.213-.071-.2841-.1419-.071-.071-.142-.142-.142-.2839v-9.7237c0-.1419.071-.2129.142-.2839.0711-.0709.1421-.1419.2841-.1419.1421 0 .2131.071.2841.1419.0711.071.1421.213.1421.2839z"/><path d="m72.8324 21.592h4.4746c.071 0 .2131.071.2841.1419.071.071.142.142.142.2839 0 .142 0 .213-.142.2839-.071.071-.1421.142-.2841.142h-4.4746c-.071 0-.1421-.071-.2841-.142-.071-.0709-.1421-.1419-.1421-.2839 0-.1419.0711-.2129.1421-.2839.071-.1419.2131-.1419.2841-.1419zm1.9887-3.052c.1421 0 .2131.071.2841.142s.1421.1419.1421.2839v10.7173c0 .4258.071.7807.142.9936.1421.213.2131.3549.4262.4259.213.071.3551.071.4971.071.0711 0 .1421 0 .2131-.071s.1421-.071.2131-.071.142.071.2131.142c.071.0709.071.1419.071.2839 0 .1419-.071.2129-.2131.2839-.142.0709-.3551.1419-.5682.1419-.071 0-.2131 0-.4261 0-.2131 0-.4262-.071-.6393-.2129-.213-.142-.4261-.3549-.5682-.6388-.142-.2839-.213-.7807-.213-1.3485v-10.7173c0-.142.071-.2129.142-.2839s.1421-.142.2841-.142z"/><path d="m87.2509 21.3081c.1421 0 .2131.071.2841.142.0711.0709.1421.2129.1421.2839v9.1558c0 1.0646-.2131 1.9873-.5682 2.6971-.3551.7097-.9233 1.3485-1.6336 1.7743-.7102.4259-1.4915.6388-2.3438.6388-.5682 0-1.1364-.071-1.5626-.2129-.4971-.142-.8523-.3549-1.1364-.5678-.071-.071-.142-.142-.213-.2129-.0711-.071-.0711-.213 0-.2839.071-.142.142-.213.213-.213.0711-.0709.2131 0 .2841.071.2131.142.5682.2839.9944.4968.4261.213.9233.2839 1.4915.2839.7813 0 1.4205-.2129 1.9887-.5678.5682-.3548.9944-.8517 1.3495-1.5614.2841-.6388.4972-1.4195.4972-2.2712v-1.4905l.071.4968c-.2131.4259-.4261.7807-.8523 1.1356-.3551.3549-.7813.5678-1.2074.7807-.4262.213-.9234.2839-1.4205.2839-.7813 0-1.4916-.1419-1.9887-.4968-.4972-.3549-.8523-.7807-1.1364-1.4195-.2131-.5678-.3552-1.2775-.3552-2.0583v-6.3878c0-.1419 0-.2129.1421-.2839.071-.0709.142-.1419.2841-.1419.142 0 .2131.071.2841.1419.071.071.142.213.142.2839v6.3878c0 .9937.2131 1.7744.6393 2.3422.4261.5678 1.0653.8517 2.0597.8517.5682 0 1.1364-.1419 1.6336-.4968.4971-.3549.9233-.7098 1.2784-1.2066.3552-.4968.4972-.9937.4972-1.4905v-6.3878c0-.1419.071-.2129.142-.2839.0711-.0709-.142-.2129 0-.2129z"/></g><circle cx="26" cy="26" fill="#d9d9d9" r="25.15" stroke="#fff" stroke-width=".3"/><path clip-rule="evenodd" d="m50.8218 23h-5.8218v6h5.8218c-1.482 12.3927-12.03 22-24.8218 22-13.8071 0-25-11.1929-25-25s11.1929-25 25-25c12.7918 0 23.3398 9.6073 24.8218 22z" fill="#0d3857" fill-rule="evenodd"/><circle cx="26" cy="26" fill="#0d3857" r="20"/><circle cx="26" cy="26" fill="#0a98c1" r="15"/><circle cx="26" cy="26" fill="#2db5b3" r="10"/><path clip-rule="evenodd" d="m45.7765 23h-19.7765v6h19.7765c-1.4475 9.6225-9.7504 17-19.7765 17-11.0457 0-20-8.9543-20-20s8.9543-20 20-20c10.0261 0 18.329 7.3775 19.7765 17z" fill="#0a98c1" fill-rule="evenodd"/><path clip-rule="evenodd" d="m40.6999 23h-14.6999v6h14.6999c-1.3898 6.8467-7.443 12-14.6999 12-8.2843 0-15-6.7157-15-15s6.7157-15 15-15c7.2569 0 13.3101 5.1533 14.6999 12z" fill="#2db5b3" fill-rule="evenodd"/><path clip-rule="evenodd" d="m35.5422 23h-9.5422v6h9.5422c-1.2743 4.0571-5.0646 7-9.5422 7-5.5228 0-10-4.4772-10-10s4.4772-10 10-10c4.4776 0 8.2679 2.9429 9.5422 7z" fill="#d9d9d9" fill-rule="evenodd"/><circle cx="26" cy="26" fill="#fff" r="5"/></svg>