<svg width="190" height="52" viewBox="0 0 190 52" fill="none" xmlns="http://www.w3.org/2000/svg">
<path d="M101.882 18.5401C102.024 18.6111 102.024 18.6821 102.095 18.824C102.095 18.895 102.095 19.0369 102.024 19.1079C101.953 19.1789 101.882 19.2499 101.74 19.2499C101.598 19.2499 101.527 19.2499 101.456 19.1789C100.887 18.753 100.248 18.4691 99.609 18.2562C98.8987 18.0433 98.1885 17.9013 97.4782 17.9013C96.6259 17.9013 95.7736 18.0433 94.9923 18.3982C94.2111 18.753 93.5718 19.1789 93.0036 19.7467C92.4354 20.3145 92.0093 21.0243 91.6542 21.805C91.299 22.5857 91.157 23.5084 91.157 24.502C91.157 25.4957 91.299 26.3474 91.6542 27.1991C92.0093 27.9798 92.4354 28.6896 93.0036 29.2574C93.5718 29.8252 94.2111 30.322 94.9923 30.6059C95.7736 30.9608 96.5549 31.1028 97.4782 31.1028C98.2595 31.1028 98.9698 30.9608 99.609 30.7479C100.248 30.535 100.887 30.1801 101.456 29.8252C101.527 29.7542 101.669 29.7542 101.74 29.7542C101.882 29.7542 101.953 29.8252 102.024 29.8962C102.095 29.9672 102.095 30.1091 102.095 30.1801C102.095 30.322 102.024 30.393 101.953 30.464C101.598 30.6769 101.243 30.8898 100.745 31.1737C100.248 31.3867 99.68 31.5996 99.1828 31.6706C98.6146 31.8125 98.0464 31.8835 97.4782 31.8835C96.4839 31.8835 95.5605 31.6706 94.7082 31.3157C93.8559 30.9608 93.0747 30.464 92.4354 29.7542C91.7962 29.1155 91.228 28.3347 90.8729 27.412C90.5178 26.4894 90.3047 25.5667 90.3047 24.502C90.3047 23.4374 90.5178 22.4438 90.8729 21.5921C91.228 20.6694 91.7962 19.8886 92.4354 19.2499C93.0747 18.6111 93.8559 18.0433 94.7082 17.6884C95.5605 17.3335 96.4839 17.1206 97.4782 17.1206C98.3305 17.1206 99.1118 17.2626 99.8931 17.4755C100.603 17.7594 101.243 18.0433 101.882 18.5401Z" fill="white"/>
<path d="M112.749 21.4501C112.891 21.4501 112.962 21.5211 113.033 21.592C113.104 21.663 113.175 21.805 113.175 21.8759V31.3157C113.175 31.4576 113.104 31.5286 113.033 31.5996C112.962 31.6706 112.891 31.7415 112.749 31.7415C112.607 31.7415 112.536 31.6706 112.465 31.5996C112.394 31.5286 112.323 31.4576 112.323 31.3157V28.3347L112.678 28.0508C112.678 28.4767 112.536 28.9025 112.323 29.3993C112.11 29.8252 111.826 30.251 111.399 30.6059C111.044 30.9608 110.547 31.2447 110.05 31.5286C109.553 31.7415 108.985 31.8835 108.345 31.8835C107.422 31.8835 106.641 31.6706 105.859 31.1737C105.149 30.6769 104.581 30.0381 104.155 29.2574C103.729 28.4057 103.516 27.483 103.516 26.4893C103.516 25.4247 103.729 24.502 104.155 23.7213C104.581 22.9406 105.149 22.3018 105.859 21.805C106.57 21.3791 107.422 21.0952 108.274 21.0952C108.843 21.0952 109.411 21.1662 109.908 21.3791C110.405 21.592 110.902 21.8759 111.257 22.3018C111.612 22.7277 111.968 23.1535 112.181 23.6503C112.394 24.1472 112.536 24.715 112.536 25.3537L112.181 24.8569V21.8759C112.181 21.734 112.252 21.663 112.323 21.592C112.536 21.5211 112.607 21.4501 112.749 21.4501ZM108.416 31.1027C109.198 31.1027 109.837 30.8898 110.476 30.464C111.044 30.0381 111.541 29.5413 111.897 28.8315C112.252 28.1218 112.394 27.3411 112.394 26.4184C112.394 25.5667 112.252 24.7859 111.897 24.0762C111.541 23.3664 111.115 22.8696 110.476 22.4437C109.908 22.0179 109.198 21.805 108.416 21.805C107.635 21.805 106.996 22.0179 106.357 22.3728C105.717 22.7276 105.291 23.2955 104.936 24.0052C104.581 24.715 104.439 25.4957 104.439 26.3474C104.439 27.1991 104.581 28.0508 104.936 28.7606C105.291 29.4703 105.717 30.0381 106.357 30.393C106.996 30.8898 107.635 31.1027 108.416 31.1027Z" fill="white"/>
<path d="M116.797 31.6706C116.655 31.6706 116.584 31.5996 116.513 31.5287C116.442 31.4577 116.371 31.3867 116.371 31.2448V21.876C116.371 21.7341 116.442 21.6631 116.513 21.5921C116.584 21.5211 116.655 21.4502 116.797 21.4502C116.939 21.4502 117.01 21.5211 117.081 21.5921C117.152 21.6631 117.223 21.805 117.223 21.876V25.3538L116.868 25.9216C116.868 25.3538 116.939 24.857 117.152 24.2892C117.365 23.7214 117.579 23.2245 117.934 22.7277C118.289 22.2309 118.715 21.876 119.212 21.5921C119.709 21.3082 120.349 21.1663 120.988 21.1663C121.201 21.1663 121.414 21.1663 121.627 21.2372C121.84 21.3082 121.982 21.4502 121.982 21.5921C121.982 21.7341 121.982 21.805 121.911 21.876C121.84 21.947 121.769 22.018 121.627 22.018C121.556 22.018 121.414 22.018 121.343 21.947C121.201 21.876 121.059 21.876 120.846 21.876C120.42 21.876 119.993 22.018 119.567 22.2309C119.141 22.5148 118.786 22.8697 118.431 23.2955C118.076 23.7214 117.792 24.2182 117.579 24.715C117.365 25.2119 117.294 25.7087 117.294 26.2055V31.3157C117.294 31.4577 117.223 31.5287 117.152 31.5996C117.01 31.6706 116.868 31.6706 116.797 31.6706Z" fill="white"/>
<path d="M128.303 31.8835C127.308 31.8835 126.385 31.6706 125.604 31.2448C124.822 30.8189 124.183 30.1801 123.757 29.3994C123.331 28.6187 123.047 27.625 123.047 26.5604C123.047 25.4248 123.26 24.4311 123.686 23.6504C124.112 22.8697 124.68 22.2309 125.391 21.805C126.101 21.3792 126.811 21.1663 127.664 21.1663C128.232 21.1663 128.8 21.2372 129.368 21.4502C129.936 21.6631 130.433 21.947 130.86 22.3019C131.286 22.6567 131.641 23.1536 131.925 23.7923C132.209 24.3602 132.351 25.0699 132.351 25.8506C132.351 25.9926 132.28 26.0636 132.209 26.1345C132.138 26.2055 132.067 26.2765 131.925 26.2765H123.544L123.402 25.4958H131.641L131.428 25.7087V25.3538C131.357 24.6441 131.144 24.0053 130.718 23.5084C130.291 23.0116 129.865 22.6567 129.297 22.3728C128.729 22.0889 128.303 21.947 127.664 21.947C127.237 21.947 126.811 22.018 126.385 22.2309C125.959 22.4438 125.533 22.7277 125.107 23.0826C124.751 23.4375 124.396 23.9343 124.183 24.5021C123.97 25.0699 123.828 25.7797 123.828 26.4894C123.828 27.3411 123.97 28.1219 124.325 28.7606C124.68 29.4704 125.178 30.0382 125.817 30.464C126.456 30.8899 127.308 31.1028 128.303 31.1028C128.8 31.1028 129.226 31.0318 129.581 30.8899C130.007 30.7479 130.362 30.535 130.718 30.2511C131.073 29.9672 131.286 29.6833 131.499 29.3994C131.641 29.2575 131.712 29.1865 131.854 29.1865C131.925 29.1865 131.996 29.2575 132.067 29.3284C132.138 29.3994 132.138 29.4704 132.138 29.6123C132.138 29.6833 132.138 29.8253 132.067 29.8253C131.641 30.3931 131.073 30.8189 130.433 31.2448C129.865 31.6706 129.084 31.8835 128.303 31.8835Z" fill="white"/>
<path d="M139.383 31.8835C138.388 31.8835 137.465 31.6706 136.684 31.2448C135.903 30.8189 135.263 30.1801 134.837 29.3994C134.411 28.6187 134.127 27.625 134.127 26.5604C134.127 25.4248 134.34 24.4311 134.766 23.6504C135.192 22.8697 135.761 22.2309 136.471 21.805C137.181 21.3792 137.891 21.1663 138.744 21.1663C139.312 21.1663 139.88 21.2372 140.448 21.4502C141.016 21.6631 141.514 21.947 141.94 22.3019C142.366 22.6567 142.721 23.1536 143.005 23.7923C143.289 24.3602 143.431 25.0699 143.431 25.8506C143.431 25.9926 143.36 26.0636 143.289 26.1345C143.218 26.2055 143.147 26.2765 143.005 26.2765H134.624L134.482 25.4958H142.721L142.508 25.7087V25.3538C142.437 24.6441 142.224 24.0053 141.798 23.5084C141.372 23.0116 140.945 22.6567 140.377 22.3728C139.809 22.0889 139.241 22.018 138.673 22.018C138.246 22.018 137.82 22.0889 137.394 22.3019C136.968 22.5148 136.542 22.7987 136.116 23.1536C135.761 23.5084 135.405 24.0053 135.192 24.5731C134.979 25.1409 134.837 25.8506 134.837 26.5604C134.837 27.4121 134.979 28.1928 135.334 28.8316C135.69 29.5414 136.187 30.1092 136.826 30.535C137.465 30.9609 138.317 31.1738 139.312 31.1738C139.809 31.1738 140.235 31.1028 140.59 30.9609C141.016 30.8189 141.372 30.606 141.727 30.3221C142.082 30.0382 142.295 29.7543 142.508 29.4704C142.65 29.3284 142.721 29.2575 142.863 29.2575C142.934 29.2575 143.005 29.3284 143.076 29.3994C143.147 29.4704 143.147 29.5414 143.147 29.6833C143.147 29.7543 143.147 29.8962 143.076 29.8962C142.65 30.464 142.082 30.8899 141.443 31.3157C140.945 31.6706 140.164 31.8835 139.383 31.8835Z" fill="white"/>
<path d="M146.344 31.6706C146.202 31.6706 146.131 31.5996 146.06 31.5287C145.989 31.4577 145.918 31.3867 145.918 31.2448V21.876C145.918 21.7341 145.989 21.6631 146.06 21.5921C146.131 21.5211 146.202 21.4502 146.344 21.4502C146.486 21.4502 146.557 21.5211 146.628 21.5921C146.699 21.6631 146.77 21.805 146.77 21.876V25.3538L146.415 25.9216C146.415 25.3538 146.486 24.857 146.699 24.2892C146.912 23.7214 147.125 23.2245 147.481 22.7277C147.836 22.2309 148.262 21.876 148.759 21.5921C149.256 21.3082 149.895 21.1663 150.535 21.1663C150.748 21.1663 150.961 21.1663 151.174 21.2372C151.387 21.3082 151.529 21.4502 151.529 21.5921C151.529 21.7341 151.529 21.805 151.458 21.876C151.387 21.947 151.316 22.018 151.174 22.018C151.103 22.018 150.961 22.018 150.89 21.947C150.748 21.876 150.606 21.876 150.393 21.876C149.966 21.876 149.54 22.018 149.114 22.2309C148.688 22.5148 148.333 22.8697 147.978 23.2955C147.623 23.7214 147.338 24.2182 147.125 24.715C146.912 25.2119 146.841 25.7087 146.841 26.2055V31.3157C146.841 31.4577 146.77 31.5287 146.699 31.5996C146.557 31.6706 146.415 31.6706 146.344 31.6706Z" fill="white"/>
<path d="M156.551 30.0067H163.465V31.5787H154.617V17H156.551V30.0067Z" fill="#0A98C1"/>
<path d="M173.915 27.7738H167.803L166.431 31.5787H164.447L170.018 17H171.701L177.282 31.5787H175.308L173.915 27.7738ZM168.384 26.1918H173.344L170.859 19.373L168.384 26.1918Z" fill="#0A98C1"/>
<path d="M179.246 31.5787V17H184.015C185.599 17 186.788 17.3271 187.582 17.9813C188.384 18.6354 188.785 19.6033 188.785 20.885C188.785 21.5659 188.591 22.17 188.204 22.6973C187.816 23.218 187.289 23.6218 186.621 23.9089C187.409 24.1291 188.03 24.5497 188.484 25.1705C188.945 25.7846 189.176 26.5189 189.176 27.3733C189.176 28.6816 188.751 29.7096 187.903 30.4573C187.055 31.2049 185.856 31.5787 184.306 31.5787H179.246ZM181.17 24.7599V30.0067H184.346C185.241 30.0067 185.946 29.7764 186.46 29.3158C186.981 28.8485 187.242 28.2077 187.242 27.3933C187.242 25.6377 186.287 24.7599 184.376 24.7599H181.17ZM181.17 23.218H184.076C184.917 23.218 185.589 23.0077 186.09 22.5872C186.597 22.1666 186.851 21.5959 186.851 20.875C186.851 20.0739 186.617 19.4932 186.15 19.1327C185.682 18.7656 184.971 18.582 184.015 18.582H181.17V23.218Z" fill="#0A98C1"/>
<path d="M67.0089 18.7531C67.0799 18.824 67.151 18.895 67.151 19.037C67.151 19.108 67.151 19.2499 67.0799 19.3209C67.0089 19.3919 66.9379 19.4628 66.8668 19.4628C66.7958 19.4628 66.6538 19.4628 66.5827 19.3919C66.0145 18.966 65.4463 18.6821 64.8071 18.4692C64.1679 18.2562 63.4576 18.1143 62.7474 18.1143C61.8951 18.1143 61.1138 18.2562 60.4036 18.6111C59.6933 18.966 59.0541 19.3919 58.4859 19.9597C58.0597 20.5275 57.6336 21.2372 57.2785 22.0179C56.9944 22.7987 56.7813 23.7214 56.7813 24.715C56.7813 25.7087 56.9233 26.5604 57.2785 27.4121C57.5626 28.1928 57.9887 28.9026 58.5569 29.4704C59.1251 30.0382 59.7643 30.535 60.4746 30.8189C61.1848 31.1738 61.9661 31.3157 62.8184 31.3157C63.5287 31.3157 64.2389 31.1738 64.8781 30.9608C65.5174 30.7479 66.0856 30.393 66.6538 30.0382C66.7248 29.9672 66.8668 29.9672 66.9379 29.9672C67.0089 29.9672 67.1509 30.0382 67.222 30.1091C67.222 30.2511 67.222 30.3221 67.222 30.464C67.222 30.606 67.151 30.6769 67.0799 30.7479C66.7958 30.9608 66.3697 31.1738 65.8725 31.4577C65.3753 31.6706 64.8781 31.8835 64.381 31.9545C63.8838 32.0965 63.3156 32.1674 62.8184 32.1674C61.8951 32.1674 61.0428 31.9545 60.1905 31.5996C59.4092 31.2447 58.6279 30.7479 58.0597 30.0382C57.4205 29.3994 56.9233 28.6187 56.5682 27.696C56.2131 26.7733 56 25.8506 56 24.786C56 23.7214 56.1421 22.7277 56.5682 21.876C56.9233 20.9533 57.4205 20.1726 58.0597 19.5338C58.699 18.895 59.4092 18.3272 60.1905 17.9723C60.9718 17.6175 61.8951 17.4045 62.8184 17.4045C63.5997 17.4045 64.381 17.5465 65.0912 17.7594C65.8015 17.9723 66.4407 18.2562 67.0089 18.7531Z" fill="#0A98C1"/>
<path d="M69.9927 19.9597C69.7797 19.9597 69.6376 19.8887 69.4956 19.7467C69.3535 19.6048 69.3535 19.4628 69.3535 19.2499V19.1079C69.3535 18.895 69.4245 18.7531 69.5666 18.6111C69.7086 18.4692 69.8507 18.3982 70.0638 18.3982C70.2768 18.3982 70.4189 18.4692 70.4899 18.6111C70.632 18.7531 70.703 18.895 70.703 19.1079V19.2499C70.703 19.4628 70.632 19.6048 70.4899 19.7467C70.3479 19.8887 70.2058 19.9597 69.9927 19.9597ZM70.4189 31.4577C70.4189 31.5996 70.3479 31.6706 70.2768 31.7416C70.2058 31.8125 70.1348 31.8835 69.9927 31.8835C69.8507 31.8835 69.7797 31.8125 69.7086 31.7416C69.6376 31.6706 69.5666 31.5996 69.5666 31.4577V21.734C69.5666 21.5921 69.6376 21.5211 69.7086 21.4501C69.7797 21.3792 69.8507 21.3082 69.9927 21.3082C70.1348 21.3082 70.2058 21.3792 70.2768 21.4501C70.3479 21.5211 70.4189 21.6631 70.4189 21.734V31.4577Z" fill="#0A98C1"/>
<path d="M72.8324 21.592H77.307C77.378 21.592 77.5201 21.663 77.5911 21.7339C77.6621 21.8049 77.7331 21.8759 77.7331 22.0178C77.7331 22.1598 77.7331 22.2308 77.5911 22.3017C77.5201 22.3727 77.449 22.4437 77.307 22.4437H72.8324C72.7614 22.4437 72.6903 22.3727 72.5483 22.3017C72.4773 22.2308 72.4062 22.1598 72.4062 22.0178C72.4062 21.8759 72.4773 21.8049 72.5483 21.7339C72.6193 21.592 72.7614 21.592 72.8324 21.592ZM74.8211 18.54C74.9632 18.54 75.0342 18.611 75.1052 18.682C75.1762 18.753 75.2473 18.8239 75.2473 18.9659V29.6832C75.2473 30.109 75.3183 30.4639 75.3893 30.6768C75.5314 30.8898 75.6024 31.0317 75.8155 31.1027C76.0285 31.1737 76.1706 31.1737 76.3126 31.1737C76.3837 31.1737 76.4547 31.1737 76.5257 31.1027C76.5967 31.0317 76.6678 31.0317 76.7388 31.0317C76.8098 31.0317 76.8808 31.1027 76.9519 31.1737C77.0229 31.2446 77.0229 31.3156 77.0229 31.4576C77.0229 31.5995 76.9519 31.6705 76.8098 31.7415C76.6678 31.8124 76.4547 31.8834 76.2416 31.8834C76.1706 31.8834 76.0285 31.8834 75.8155 31.8834C75.6024 31.8834 75.3893 31.8124 75.1762 31.6705C74.9632 31.5285 74.7501 31.3156 74.608 31.0317C74.466 30.7478 74.395 30.251 74.395 29.6832V18.9659C74.395 18.8239 74.466 18.753 74.537 18.682C74.608 18.611 74.6791 18.54 74.8211 18.54Z" fill="#0A98C1"/>
<path d="M87.2509 21.3081C87.393 21.3081 87.464 21.3791 87.535 21.4501C87.6061 21.521 87.6771 21.663 87.6771 21.734V30.8898C87.6771 31.9544 87.464 32.8771 87.1089 33.5869C86.7538 34.2966 86.1856 34.9354 85.4753 35.3612C84.7651 35.7871 83.9838 36 83.1315 36C82.5633 36 81.9951 35.929 81.5689 35.7871C81.0718 35.6451 80.7166 35.4322 80.4325 35.2193C80.3615 35.1483 80.2905 35.0773 80.2195 35.0064C80.1484 34.9354 80.1484 34.7934 80.2195 34.7225C80.2905 34.5805 80.3615 34.5095 80.4325 34.5095C80.5036 34.4386 80.6456 34.5095 80.7166 34.5805C80.9297 34.7225 81.2848 34.8644 81.711 35.0773C82.1371 35.2903 82.6343 35.3612 83.2025 35.3612C83.9838 35.3612 84.623 35.1483 85.1912 34.7934C85.7594 34.4386 86.1856 33.9417 86.5407 33.232C86.8248 32.5932 87.0379 31.8125 87.0379 30.9608V29.4703L87.1089 29.9671C86.8958 30.393 86.6828 30.7478 86.2566 31.1027C85.9015 31.4576 85.4753 31.6705 85.0492 31.8834C84.623 32.0964 84.1258 32.1673 83.6287 32.1673C82.8474 32.1673 82.1371 32.0254 81.64 31.6705C81.1428 31.3156 80.7877 30.8898 80.5036 30.251C80.2905 29.6832 80.1484 28.9735 80.1484 28.1927V21.8049C80.1484 21.663 80.1484 21.592 80.2905 21.521C80.3615 21.4501 80.4325 21.3791 80.5746 21.3791C80.7166 21.3791 80.7877 21.4501 80.8587 21.521C80.9297 21.592 81.0007 21.734 81.0007 21.8049V28.1927C81.0007 29.1864 81.2138 29.9671 81.64 30.5349C82.0661 31.1027 82.7053 31.3866 83.6997 31.3866C84.2679 31.3866 84.8361 31.2447 85.3333 30.8898C85.8304 30.5349 86.2566 30.18 86.6117 29.6832C86.9669 29.1864 87.1089 28.6895 87.1089 28.1927V21.8049C87.1089 21.663 87.1799 21.592 87.2509 21.521C87.322 21.4501 87.1089 21.3081 87.2509 21.3081Z" fill="#0A98C1"/>
<circle cx="26" cy="26" r="25.15" fill="#D9D9D9" stroke="white" stroke-width="0.3"/>
<path fill-rule="evenodd" clip-rule="evenodd" d="M50.8218 23H45V29H50.8218C49.3398 41.3927 38.7918 51 26 51C12.1929 51 1 39.8071 1 26C1 12.1929 12.1929 1 26 1C38.7918 1 49.3398 10.6073 50.8218 23Z" fill="#0D3857"/>
<circle cx="26" cy="26" r="20" fill="#0D3857"/>
<circle cx="26" cy="26" r="15" fill="#0A98C1"/>
<circle cx="26" cy="26" r="10" fill="#2DB5B3"/>
<path fill-rule="evenodd" clip-rule="evenodd" d="M45.7765 23H26V29H45.7765C44.329 38.6225 36.0261 46 26 46C14.9543 46 6 37.0457 6 26C6 14.9543 14.9543 6 26 6C36.0261 6 44.329 13.3775 45.7765 23Z" fill="#0A98C1"/>
<path fill-rule="evenodd" clip-rule="evenodd" d="M40.6999 23H26V29H40.6999C39.3101 35.8467 33.2569 41 26 41C17.7157 41 11 34.2843 11 26C11 17.7157 17.7157 11 26 11C33.2569 11 39.3101 16.1533 40.6999 23Z" fill="#2DB5B3"/>
<path fill-rule="evenodd" clip-rule="evenodd" d="M35.5422 23H26V29H35.5422C34.2679 33.0571 30.4776 36 26 36C20.4772 36 16 31.5228 16 26C16 20.4772 20.4772 16 26 16C30.4776 16 34.2679 18.9429 35.5422 23Z" fill="#D9D9D9"/>
<circle cx="26" cy="26" r="5" fill="white"/>
</svg>
