<svg fill="none" height="1819" viewBox="0 0 375 1819" width="375" xmlns="http://www.w3.org/2000/svg" xmlns:xlink="http://www.w3.org/1999/xlink"><linearGradient id="a" gradientUnits="userSpaceOnUse" x1="187.5" x2="187.5" y1="0" y2="1819"><stop offset="0" stop-color="#e7f8ff"/><stop offset=".479167" stop-color="#fff"/><stop offset="1" stop-color="#d2f2ff"/></linearGradient><linearGradient id="b"><stop offset="0" stop-color="#0a98c1"/><stop offset="1" stop-color="#2db5b3" stop-opacity="0"/></linearGradient><linearGradient id="c" gradientUnits="userSpaceOnUse" x1="326.388" x2="326.388" xlink:href="#b" y1="1533.45" y2="1810.22"/><linearGradient id="d"><stop offset="0" stop-color="#2db5b3"/><stop offset="1" stop-color="#0a98c1" stop-opacity="0"/></linearGradient><linearGradient id="e" gradientUnits="userSpaceOnUse" x1="386.171" x2="386.171" xlink:href="#d" y1="1513.52" y2="1699.51"/><linearGradient id="f" gradientUnits="userSpaceOnUse" x1="386.13" x2="386.13" xlink:href="#d" y1="1532.07" y2="1681.05"/><linearGradient id="g" gradientUnits="userSpaceOnUse" x1="226.749" x2="226.749" y1="1710.75" y2="1788.25"><stop offset="0" stop-color="#2db5b3"/><stop offset="1" stop-color="#0a98c1"/></linearGradient><linearGradient id="h" gradientUnits="userSpaceOnUse" x1="62.6665" x2="62.6665" y1="635.333" y2="852"><stop offset="0" stop-color="#0a98c1"/><stop offset="1" stop-color="#2db5b3" stop-opacity=".16"/></linearGradient><linearGradient id="i" gradientUnits="userSpaceOnUse" x1="383.005" x2="383.005" xlink:href="#b" y1="29.5931" y2="303.603"/><linearGradient id="j" gradientUnits="userSpaceOnUse" x1="383.005" x2="383.005" xlink:href="#b" y1="58.0901" y2="275.106"/><linearGradient id="k" gradientUnits="userSpaceOnUse" x1="383.005" x2="383.005" xlink:href="#b" y1="89.8752" y2="243.321"/><linearGradient id="l" gradientUnits="userSpaceOnUse" x1="383.005" x2="383.005" xlink:href="#b" y1="115.416" y2="217.874"/><mask id="m" height="1819" maskUnits="userSpaceOnUse" width="375" x="0" y="0"><path d="m0 0h375v1819h-375z" fill="url(#a)"/></mask><g mask="url(#m)"><circle cx="326.388" cy="1671.84" fill="url(#c)" opacity=".1" r="138.388"/><ellipse cx="386.171" cy="1606.52" fill="url(#e)" opacity=".1" rx="92.9967" ry="92.9967" transform="matrix(.70710678 -.70710678 .70710678 .70710678 -1022.874319 743.602947)"/><circle cx="386.13" cy="1606.56" fill="url(#f)" opacity=".1" r="74.4921"/><ellipse cx="226.749" cy="1749.5" fill="url(#g)" opacity=".05" rx="38.7486" ry="38.7486" transform="matrix(-1 0 0 -1 453.498 3499)"/><circle cx="62.6665" cy="743.667" fill="url(#h)" opacity=".1" r="108.333"/><circle cx="19.3333" cy="700.333" fill="#2db5b3" opacity=".1" r="108.333"/><circle cx="-67" cy="645" r="128.5" stroke="#fff" stroke-opacity=".7"/><circle cx="-67" cy="645" r="116.773" stroke="#fff" stroke-opacity=".7"/><circle cx="-67" cy="645" r="105.045" stroke="#fff" stroke-opacity=".7"/><circle cx="-67" cy="645" r="93.3182" stroke="#fff" stroke-opacity=".7"/><circle cx="-66.9996" cy="645" r="81.5909" stroke="#fff" stroke-opacity=".7"/><circle cx="383.005" cy="166.598" fill="url(#i)" opacity=".08" r="137.005"/><circle cx="383.005" cy="166.598" fill="url(#j)" opacity=".1" r="108.508"/><circle cx="383.005" cy="166.598" fill="url(#k)" opacity=".1" r="76.7227" transform="matrix(.25881905 -.96592583 .96592583 .25881905 122.954701 493.433686)"/><circle cx="383.005" cy="166.645" fill="url(#l)" opacity=".1" r="51.2289" transform="matrix(.25881905 -.96592583 .96592583 .25881905 122.909302 493.468521)"/><g stroke="#fff"><circle cx="398.545" cy="249.455" r="29.376"/><circle cx="398.545" cy="249.455" r="39.3347"/><circle cx="398.545" cy="249.455" r="49.2934"/><circle cx="398.545" cy="249.455" r="109.045"/><circle cx="398.545" cy="249.455" r="99.0868"/><circle cx="398.545" cy="249.455" r="89.1281"/><circle cx="398.546" cy="249.455" r="79.1694"/><circle cx="398.546" cy="249.455" r="69.2107"/><circle cx="398.546" cy="249.455" r="59.2521"/></g></g></svg>