<svg fill="none" height="6607" viewBox="0 0 1440 6607" width="1440" xmlns="http://www.w3.org/2000/svg" xmlns:xlink="http://www.w3.org/1999/xlink"><linearGradient id="a" gradientUnits="userSpaceOnUse" x1="720" x2="720" y1="0" y2="6607"><stop offset="0" stop-color="#fff"/><stop offset=".869792" stop-color="#caefff"/></linearGradient><linearGradient id="b" gradientUnits="userSpaceOnUse" x1="46.2501" x2="46.2501" y1="1954.5" y2="2342"><stop offset="0" stop-color="#0a98c1"/><stop offset="1" stop-color="#2db5b3" stop-opacity=".16"/></linearGradient><linearGradient id="c"><stop offset="0" stop-color="#0a98c1"/><stop offset="1" stop-color="#2db5b3" stop-opacity="0"/></linearGradient><linearGradient id="d" gradientUnits="userSpaceOnUse" x1="1322.05" x2="1322.05" xlink:href="#c" y1="22.7708" y2="492.871"/><linearGradient id="e" gradientUnits="userSpaceOnUse" x1="1322.05" x2="1322.05" xlink:href="#c" y1="71.6611" y2="443.98"/><linearGradient id="f" gradientUnits="userSpaceOnUse" x1="1322.05" x2="1322.05" xlink:href="#c" y1="126.193" y2="389.449"/><linearGradient id="g" gradientUnits="userSpaceOnUse" x1="1322.05" x2="1322.05" xlink:href="#c" y1="170.012" y2="345.792"/><linearGradient id="h" gradientUnits="userSpaceOnUse" x1="1530.77" x2="1530.77" y1="-28" y2="216.452"><stop offset="0" stop-color="#2db5b3"/><stop offset=".838542" stop-color="#0a98c1" stop-opacity=".46"/></linearGradient><linearGradient id="i" gradientUnits="userSpaceOnUse" x1="1290.92" x2="1290.92" xlink:href="#c" y1="6333.31" y2="6775.15"/><linearGradient id="j"><stop offset="0" stop-color="#2db5b3"/><stop offset="1" stop-color="#0a98c1" stop-opacity="0"/></linearGradient><linearGradient id="k" gradientUnits="userSpaceOnUse" x1="1386.36" x2="1386.36" xlink:href="#j" y1="6301.49" y2="6598.41"/><linearGradient id="l" gradientUnits="userSpaceOnUse" x1="1386.29" x2="1386.29" xlink:href="#j" y1="6331.1" y2="6568.94"/><mask id="m" height="6607" maskUnits="userSpaceOnUse" width="1440" x="0" y="0"><path d="m0 0h1440v6607h-1440z" fill="url(#a)"/></mask><g mask="url(#m)"><circle cx="46.2501" cy="2148.25" fill="url(#b)" opacity=".1" r="193.75"/><circle cx="-31.2499" cy="2070.75" fill="#2db5b3" opacity=".1" r="193.75"/><circle cx="-46.5" cy="1933.5" r="192" stroke="#fff" stroke-opacity=".7"/><circle cx="-46.5" cy="1933.5" r="174.5" stroke="#fff" stroke-opacity=".7"/><circle cx="-46.5" cy="1933.5" r="157" stroke="#fff" stroke-opacity=".7"/><circle cx="-46.5" cy="1933.5" r="139.5" stroke="#fff" stroke-opacity=".7"/><circle cx="-46.4995" cy="1933.5" r="122" stroke="#fff" stroke-opacity=".7"/><circle cx="1322.05" cy="257.821" fill="url(#d)" opacity=".08" r="235.05"/><circle cx="1322.05" cy="257.821" fill="url(#e)" opacity=".1" r="186.16"/><circle cx="1322.05" cy="257.821" fill="url(#f)" opacity=".1" r="131.628" transform="matrix(.25881905 -.96592583 .96592583 .25881905 730.842319 1468.094254)"/><circle cx="1322.05" cy="257.902" fill="url(#g)" opacity=".1" r="87.8899" transform="matrix(.25881905 -.96592583 .96592583 .25881905 730.764079 1468.154289)"/><circle cx="1530.77" cy="94.2259" fill="url(#h)" opacity=".08" r="122.226" transform="matrix(-1 0 0 -1 3061.54 188.4518)"/><g stroke="#fff"><circle cx="1461.5" cy="431.5" r="45.7727"/><circle cx="1461.5" cy="431.5" r="68.9091"/><circle cx="1461.5" cy="431.5" r="92.0455"/><circle cx="1461.5" cy="431.5" r="115.182"/><circle cx="1461.5" cy="431.5" r="254"/><circle cx="1461.5" cy="431.5" r="230.864"/><circle cx="1461.5" cy="431.5" r="207.727"/><circle cx="1461.5" cy="431.5" r="184.591"/><circle cx="1461.5" cy="431.5" r="161.455"/><circle cx="1461.5" cy="431.5" r="138.318"/></g><circle cx="1290.92" cy="6554.23" fill="url(#i)" opacity=".1" r="220.921"/><ellipse cx="1386.36" cy="6449.95" fill="url(#k)" opacity=".1" rx="148.459" ry="148.459" transform="matrix(.70710678 -.70710678 .70710678 .70710678 -4154.74794 2869.451174)"/><circle cx="1386.29" cy="6450.02" fill="url(#l)" opacity=".1" r="118.918"/></g></svg>