<svg enable-background="new 0 0 891.8 372.8" viewBox="0 0 891.8 372.8" xmlns="http://www.w3.org/2000/svg"><path d="m18.1 368.1c-6.9 0-12.5-5.6-12.5-12.5v-336.7c0-6.9 5.6-12.5 12.5-12.5h854.7c6.9 0 12.5 5.6 12.5 12.5v336.7c0 6.9-5.6 12.5-12.5 12.5z" fill="#fff"/><path d="m872.9 6.9c6.6 0 12 5.4 12 12v336.7c0 6.6-5.4 12-12 12h-854.8c-6.6 0-12-5.4-12-12v-336.7c0-6.6 5.4-12 12-12zm0-1h-854.8c-7.2 0-13 5.8-13 13v336.7c0 7.2 5.8 13 13 13h854.7c7.2 0 13-5.8 13-13v-336.7c.1-7.2-5.8-13-12.9-13z" fill="#fff"/><g clip-rule="evenodd" fill-rule="evenodd"><path d="m467.4 240.3c-7-6.5-15-11.7-23.7-15.4-8.2-3.5-16.9-5.2-25.8-5.3-2.4 0-4.9.2-7.3.6-2.3.4-4.6.9-6.8 1.6 4.9 7.1 11.4 13 19 17.1 7.5 3.9 15.8 5.9 24.3 5.9 3.3 0 6.6-.4 9.8-1.1 3.5-.9 7.1-2 10.5-3.4m15.8-11.8c9.9-10.5 15.3-24.5 14.9-39 0-6.5-1.2-13-3.6-19.1s-6-11.8-10.5-16.6c-4.9-5.5-10.8-9.9-17.4-13-12.8-5.5-27.3-5.6-40.1-.3-6.1 2.6-11.7 6.4-16.3 11.1-5.1 5.1-9.1 11.2-11.7 17.9-2.7 6.7-4.1 13.9-4.1 21.1 0 2.4.2 4.8.5 7.1.4 2.7.9 5.3 1.6 7.9 3.3-1.7 6.9-2.9 10.5-3.6 4.3-.8 8.8-1.2 13.2-1.2 11.1.1 22.1 2.5 32.3 7.1 11.3 5.2 21.7 12.1 30.7 20.6m2.8 25.1c-19.1 12.2-42.7 15-64.2 7.7-7.7-2.7-14.9-6.7-21.3-11.8-8.8-7-15.8-16-20.6-26.3-4.8-10.5-7.3-22-7.2-33.6 0-9.8 1.9-19.5 5.7-28.5 4-9.1 9.7-17.4 16.8-24.4 6.7-6.6 14.6-11.9 23.3-15.6 8.7-3.6 18-5.3 27.5-5.3 9.6-.1 19.1 1.7 28 5.3 18.1 7.8 32.5 22.3 40.1 40.5 3.8 9.5 5.7 19.7 5.6 29.9 0 8.9-1.5 17.7-4.5 26-3.1 8.2-7.7 15.8-13.5 22.3 2.5 1.2 5.2 2.1 7.9 2.6 2.8.6 5.8.9 8.7.9h2.6v20.1h-1.9c-5.5 0-11-.9-16.3-2.4-5.9-1.8-11.5-4.3-16.9-7.4m67.9-74.6h6.7c10.9 0 18.6-1.6 23.3-4.9s6.9-8.7 6.9-16.4c0-6.7-2.1-11.7-6.3-14.9s-10.7-4.9-19.3-4.9h-11.3zm-.2 64.8h16.7c9.7 0 16.8-1.8 21.4-5.5 4.6-3.6 6.9-9.2 6.9-16.8 0-8.2-2.4-14.5-7.2-18.7s-11.9-6.4-21.1-6.4h-16.7zm10.6-125.8c15.5 0 27.3 3.4 35.4 10.2s12.1 16.7 12.1 29.7c.1 5.6-1.3 11-4 15.9-2.8 4.7-6.8 8.7-11.6 11.4 6.9 2 12.9 6.3 16.8 12.3 4.3 6.4 6.4 14 6.2 21.7.1 6.6-1.1 13.1-3.6 19.2-4.4 11.2-13.8 19.6-25.4 22.8-5.5 1.6-13.4 2.4-23.5 2.4h-33.5v-145.5h31.2zm139.6 145.4h-75.4v-145.3h75.5v19.4h-54.4v43.5h54.4v18.9h-54.4v43.5h54.4z" fill="#221f1f"/><path d="m307.1 224.6c8.7 0 15.8-7.1 15.8-15.8 0-2.9-.7-5.7-2.2-8.1l-32.5-56.1c-1.6-10.7-7.7-20.2-16.7-26.1 13.5-2.6 27.1 3.7 34 15.6l33.2 57.5c9.1 15.3 4.1 35.1-11.2 44.3-15.3 9.1-35.1 4.1-44.3-11.2m23.8-26.1h-40.5l-11.7 20.2h52.2c5.6 0 10.1-4.5 10.1-10.1s-4.5-10.1-10.1-10.1m-39.9-53.7 11.9 20.6c7.9-16 1.3-35.3-14.7-43.2-14.8-7.3-32.8-2.2-41.6 11.8l-33.2 57.5c-6.9 11.9-5.5 26.8 3.5 37.3.6-10.8 5.8-20.7 14.2-27.5l32.5-56.2c1.4-2.5 3.4-4.6 5.9-6 7.5-4.4 17.1-1.9 21.5 5.7m-22.4 13 20.2 35h23.4l-26.1-45.2c-2.9-4.8-9.2-6.2-13.9-3.3-4.6 2.9-6.2 8.8-3.6 13.5m-26.6 61.5 12-20.6c-17.8.7-31.7 15.7-31 33.5.7 17.2 14.7 30.8 31.9 31h66.4c13.7 0 25.9-8.7 30.5-21.6-9.6 4.8-20.9 5.3-30.9 1.3h-65c-2.8 0-5.7-.7-8.1-2.1-7.6-4.4-10.2-14.1-5.8-21.5m22.4 12.8 20.3-35.1-11.7-20.1-26.1 45.2c-2.8 4.9-1.1 11 3.8 13.8 4.9 2.7 11 1.1 13.7-3.8" fill="#009ae4"/></g></svg>