<svg fill="none" height="58" viewBox="0 0 58 58" width="58" xmlns="http://www.w3.org/2000/svg" xmlns:xlink="http://www.w3.org/1999/xlink"><clipPath id="a"><path d="m0 0h58v58h-58z"/></clipPath><g clip-path="url(#a)" fill="#0d3857"><path d="m56.6794 50.2372-14.72-14.7199c5.8926-8.8824 4.9287-21.004-2.893-28.8258-8.9221-8.922-23.4391-8.922-32.36119 0-3.71617 3.7163-6.05463 8.6371-6.584671 13.8561-.522451 5.1449.721712 10.3605 3.503211 14.686.33848.5262 1.03946.6783 1.56554.3401.5263-.3384.67844-1.0394.34007-1.5656-5.201631-8.0887-4.03337-18.9032 2.77787-25.71447 8.03867-8.038635 21.11837-8.038635 29.15697 0 8.0387 8.03867 8.0387 21.11837 0 29.15687-6.8183 6.8186-17.2887 8.0266-25.4616 2.938-.5311-.3305-1.2297-.1683-1.5605.3629-.3306.5311-.1681 1.2297.363 1.5603 3.6173 2.2522 7.8382 3.4418 12.1025 3.4418.8203 0 1.6428-.044 2.4623-.1331 3.6275-.3939 7.1095-1.666 10.1355-3.6645l14.7276 14.7277c.8781.878 2.0325 1.3165 3.1901 1.3164 1.1684-.0001 2.3403-.447 3.2331-1.3398 1.7771-1.7774 1.7875-4.6586.0232-6.423zm-19.3267-9.6383c.5951-.485 1.1678-1.0005 1.7137-1.5464.5439-.5439 1.0543-1.1091 1.532-1.6923l2.8702 2.8702-3.2422 3.2422zm17.7014 14.4593c-.894.8941-2.338.9043-3.2191.0232l-10.0067-10.0067 3.2422-3.2423 10.0067 10.0067c.8811.8812.8707 2.3252-.0231 3.2191z"/><path d="m8.305 37.4481-.02696-.027c-.44372-.441-1.1609-.4388-1.60202.005-.441.4437-.43885 1.1609.00487 1.602l.02696.027c.22102.2195.50977.3293.79852.3293.29102 0 .58204-.1115.80351-.3343.441-.4437.43885-1.1609-.00488-1.602z"/><path d="m22.8857 5.42676c-9.6194 0-17.44527 7.82584-17.44527 17.44524s7.82587 17.4452 17.44527 17.4452c9.6193 0 17.4452-7.8258 17.4452-17.4452s-7.8259-17.44524-17.4452-17.44524zm0 32.62494c-5.4793 0-10.2895-2.9184-12.95878-7.2821l6.70128-6.7012 5.375 5.3751c.2124.2125.5006.332.801.332s.5886-.1195.801-.332l8.4431-8.443v.3426c0 .6256.5071 1.1328 1.1328 1.1328.6256 0 1.1328-.5072 1.1328-1.1328v-3.0775c0-.6257-.5072-1.1329-1.1328-1.1329h-3.0775c-.6257 0-1.1328.5072-1.1328 1.1329 0 .6256.5071 1.1328 1.1328 1.1328h.3425l-7.642 7.642-5.3751-5.3752c-.2124-.2124-.5005-.3318-.801-.3318-.3004 0-.5886.1194-.801.3318l-6.97954 6.9795c-.73485-1.7806-1.14141-3.7299-1.14141-5.7726 0-8.3701 6.80955-15.17961 15.17965-15.17961s15.1796 6.80951 15.1796 15.17961c0 8.37-6.8095 15.1796-15.1796 15.1796z"/></g></svg>