<svg width="40" height="40" viewBox="0 0 40 40" fill="none" xmlns="http://www.w3.org/2000/svg">
<path d="M6.875 7.5C6.875 7.16848 7.0067 6.85054 7.24112 6.61612C7.47554 6.3817 7.79348 6.25 8.125 6.25H13.75V5H8.125C7.46196 5 6.82607 5.26339 6.35723 5.73223C5.88839 6.20107 5.625 6.83696 5.625 7.5V10H6.875V7.5Z" fill="white"/>
<path d="M36.25 21.875H35V28.125H36.25V21.875Z" fill="white"/>
<path d="M38.125 35H36.875V33.125C36.875 32.9592 36.8092 32.8003 36.6919 32.6831C36.5747 32.5658 36.4158 32.5 36.25 32.5H35V30C35 29.8342 34.9342 29.6753 34.8169 29.5581C34.6997 29.4408 34.5408 29.375 34.375 29.375H33.75V20.625H34.375C34.5408 20.625 34.6997 20.5592 34.8169 20.4419C34.9342 20.3247 35 20.1658 35 20V17.5H36.25C36.4158 17.5 36.5747 17.4342 36.6919 17.3169C36.8092 17.1997 36.875 17.0408 36.875 16.875V14.375C36.875 14.2092 36.8092 14.0503 36.6919 13.9331C36.5747 13.8158 36.4158 13.75 36.25 13.75H33.9206L31.875 12.5413V8.125C31.875 7.95924 31.8092 7.80027 31.6919 7.68306C31.5747 7.56585 31.4158 7.5 31.25 7.5H23.3438L20.625 5.89313V5H23.75C23.9158 5 24.0747 4.93415 24.1919 4.81694C24.3092 4.69973 24.375 4.54076 24.375 4.375V1.875C24.375 1.70924 24.3092 1.55027 24.1919 1.43306C24.0747 1.31585 23.9158 1.25 23.75 1.25H20C19.8342 1.25 19.6753 1.31585 19.5581 1.43306C19.4408 1.55027 19.375 1.70924 19.375 1.875V5.89313L16.6562 7.5H8.75C8.58424 7.5 8.42527 7.56585 8.30806 7.68306C8.19085 7.80027 8.125 7.95924 8.125 8.125V12.5413L6.07938 13.75H3.75C3.58424 13.75 3.42527 13.8158 3.30806 13.9331C3.19085 14.0503 3.125 14.2092 3.125 14.375V16.875C3.125 17.0408 3.19085 17.1997 3.30806 17.3169C3.42527 17.4342 3.58424 17.5 3.75 17.5H5V20C5 20.1658 5.06585 20.3247 5.18306 20.4419C5.30027 20.5592 5.45924 20.625 5.625 20.625H6.25V29.375H5.625C5.45924 29.375 5.30027 29.4408 5.18306 29.5581C5.06585 29.6753 5 29.8342 5 30V32.5H3.75C3.58424 32.5 3.42527 32.5658 3.30806 32.6831C3.19085 32.8003 3.125 32.9592 3.125 33.125V35H1.875C1.70924 35 1.55027 35.0658 1.43306 35.1831C1.31585 35.3003 1.25 35.4592 1.25 35.625V38.125C1.25 38.2908 1.31585 38.4497 1.43306 38.5669C1.55027 38.6842 1.70924 38.75 1.875 38.75H38.125C38.2908 38.75 38.4497 38.6842 38.5669 38.5669C38.6842 38.4497 38.75 38.2908 38.75 38.125V35.625C38.75 35.4592 38.6842 35.3003 38.5669 35.1831C38.4497 35.0658 38.2908 35 38.125 35ZM20.625 2.5H23.125V3.75H20.625V2.5ZM28.75 32.5V30.625H33.75V32.5H28.75ZM19.375 28.75H18.125V30H19.375V32.5H16.25V26.25C16.2516 25.3647 16.5662 24.5084 17.138 23.8325C17.7098 23.1566 18.5022 22.7045 19.375 22.5562V28.75ZM20.625 30H21.875V28.75H20.625V22.5562C21.4978 22.7045 22.2902 23.1566 22.862 23.8325C23.4338 24.5084 23.7484 25.3647 23.75 26.25V32.5H20.625V30ZM20 21.25C18.6744 21.2515 17.4035 21.7788 16.4661 22.7161C15.5288 23.6535 15.0015 24.9244 15 26.25V32.5H12.5V30C12.5 29.8342 12.4342 29.6753 12.3169 29.5581C12.1997 29.4408 12.0408 29.375 11.875 29.375H11.25V20.625H11.875C12.0408 20.625 12.1997 20.5592 12.3169 20.4419C12.4342 20.3247 12.5 20.1658 12.5 20V17.5H27.5V20C27.5 20.1658 27.5658 20.3247 27.6831 20.4419C27.8003 20.5592 27.9592 20.625 28.125 20.625H28.75V29.375H28.125C27.9592 29.375 27.8003 29.4408 27.6831 29.5581C27.5658 29.6753 27.5 29.8342 27.5 30V32.5H25V26.25C24.9985 24.9244 24.4712 23.6535 23.5339 22.7161C22.5965 21.7788 21.3256 21.2515 20 21.25ZM32.5 29.375H30V20.625H32.5V29.375ZM33.75 19.375H28.75V17.5H33.75V19.375ZM30.625 8.75V11.8025L25.4594 8.75H30.625ZM9.375 8.75H14.5406L9.375 11.8025V8.75ZM20 6.97625L31.4637 13.75H8.53625L20 6.97625ZM4.375 15H35.625V16.25H4.375V15ZM11.25 17.5V19.375H6.25V17.5H11.25ZM7.5 20.625H10V29.375H7.5V20.625ZM6.25 30.625H11.25V32.5H6.25V30.625ZM4.375 33.75H35.625V35H4.375V33.75ZM37.5 37.5H2.5V36.25H37.5V37.5Z" fill="white"/>
<path d="M18.125 18.75H16.875V20H18.125V18.75Z" fill="white"/>
<path d="M20.625 18.75H19.375V20H20.625V18.75Z" fill="white"/>
<path d="M23.125 18.75H21.875V20H23.125V18.75Z" fill="white"/>
<path d="M20 8.75C19.6292 8.75 19.2667 8.85997 18.9583 9.06599C18.65 9.27202 18.4096 9.56486 18.2677 9.90747C18.1258 10.2501 18.0887 10.6271 18.161 10.9908C18.2334 11.3545 18.412 11.6886 18.6742 11.9508C18.9364 12.213 19.2705 12.3916 19.6342 12.464C19.9979 12.5363 20.3749 12.4992 20.7175 12.3573C21.0602 12.2154 21.353 11.975 21.559 11.6667C21.765 11.3583 21.875 10.9958 21.875 10.625C21.875 10.1277 21.6775 9.6508 21.3258 9.29917C20.9742 8.94754 20.4973 8.75 20 8.75ZM20 11.25C19.8764 11.25 19.7556 11.2133 19.6528 11.1447C19.55 11.076 19.4699 10.9784 19.4226 10.8642C19.3753 10.75 19.3629 10.6243 19.387 10.5031C19.4111 10.3818 19.4707 10.2705 19.5581 10.1831C19.6455 10.0956 19.7568 10.0361 19.8781 10.012C19.9993 9.98789 20.125 10.0003 20.2392 10.0476C20.3534 10.0949 20.451 10.175 20.5197 10.2778C20.5884 10.3805 20.625 10.5014 20.625 10.625C20.625 10.7908 20.5592 10.9497 20.4419 11.0669C20.3247 11.1842 20.1658 11.25 20 11.25Z" fill="white"/>
<path d="M16.25 5H15V6.25H16.25V5Z" fill="white"/>
</svg>
