<svg enable-background="new 0 0 891.8 372.8" viewBox="0 0 891.8 372.8" xmlns="http://www.w3.org/2000/svg"><path d="m18.1 368.1c-6.9 0-12.5-5.6-12.5-12.5v-336.7c0-6.9 5.6-12.5 12.5-12.5h854.7c6.9 0 12.5 5.6 12.5 12.5v336.7c0 6.9-5.6 12.5-12.5 12.5z" fill="#fff"/><path d="m872.9 6.9c6.6 0 12 5.4 12 12v336.7c0 6.6-5.4 12-12 12h-854.8c-6.6 0-12-5.4-12-12v-336.7c0-6.6 5.4-12 12-12zm0-1h-854.8c-7.2 0-13 5.8-13 13v336.7c0 7.2 5.8 13 13 13h854.7c7.2 0 13-5.8 13-13v-336.7c.1-7.2-5.8-13-12.9-13z" fill="#fff"/><path d="m607.5 351.6c-107.7 0-215.5 0-323.2 0 0-107.7 0-215.5 0-323.2h323.2zm-129.9-301.3c-3.8 3.7-7.3 7.3-11 11 11.3 11.3 22.6 22.6 34 34-11.4 11.4-22.7 22.7-33.9 33.9 3.7 3.6 7.2 7.2 11 10.9 7.6-7.6 15.3-15.3 23.2-23.2 7.7 7.7 15.4 15.4 22.9 23 3.6-3.6 7.2-7.2 11-11-11.2-11.2-22.6-22.5-33.9-33.9 11.2-11.2 22.6-22.5 33.8-33.8-3.6-3.6-7.2-7.2-10.8-10.8-7.6 7.6-15.4 15.4-23 23-7.8-7.7-15.5-15.3-23.3-23.1zm114.4 33c-11 0-21.9 0-32.9 0 0-11 0-21.9 0-32.8-5.2 0-10.1 0-15.1 0v48.1h48.1c-.1-5.1-.1-10.1-.1-15.3zm-.1 246.7c0-10.4 0-20.2 0-30-1.6 0-3.1 0-4.8 0v19.4c-.6-.6-1-.9-1.4-1.3-6-5.8-12.1-11.5-18.2-17.3-.5-.5-1.2-.7-2-1.2v29.9h4.8c0-6.5 0-13 0-19.7.7.6 1 1 1.4 1.4 6 5.8 12.1 11.7 18.1 17.5.6.5 1.3.8 2.1 1.3zm-277.4-11.1c.5.6.9 1.1 1.3 1.6 2.2 2.8 4.3 5.5 6.5 8.2.3.4.8.9 1.2.9 1.9.1 3.7 0 5.9 0-4-5.1-7.8-10-11.6-14.9 3.8-4.9 7.6-9.8 11.6-14.8-1.9 0-3.5.1-5 0-.9 0-1.6.2-2.2 1-2.5 3.3-5 6.4-7.6 9.7-2.6-3.3-5.1-6.5-7.5-9.6-.3-.4-.7-1-1.1-1.1-1.9-.1-3.9 0-6.1 0 3.7 4.8 7.2 9.2 10.7 13.6.7.9.8 1.4 0 2.3-2.5 3.1-4.9 6.2-7.4 9.4-1.1 1.4-2.1 2.8-3.4 4.4 2 0 3.6.1 5.2 0 .7-.1 1.5-.5 1.9-1 2.5-3.2 5-6.4 7.6-9.7zm114.3 10.6c5.3.6 5.3.6 7.4-3.9.2-.4.3-.9.6-1.1.4-.4 1-.9 1.5-1 2.4-.1 4.8-.1 7.3 0 1.8 0 3.9-.6 5.2.2s1.7 3 2.6 4.5c.1.3.2.6.4.9.2.2.5.5.7.5h5c-.2-.5-.3-.7-.4-.8-4.7-9.3-9.4-18.6-14.1-27.9-.2-.4-.6-.7-.9-1-.3.4-.8.7-1 1.1-4.3 8.5-8.6 17-12.8 25.5-.5 1-1 2-1.5 3zm-11.7-23.2c0-1.5-.1-2.8 0-4.2.1-.9-.3-1.3-1.2-1.6-3.5-1.3-7-1.5-10.6-.9-9 1.4-14.7 10.1-12.6 18.9 2.7 11.2 15.2 13.9 23.6 10.4.3-.1.7-.6.7-.9.1-1.5 0-3 0-4.5-8.8 3.2-14 2.4-17.5-2.4-2.8-3.9-2.5-9.5.6-13.2 3.8-4.5 9.5-5.1 17-1.6zm74.6-2.1c0-1.6 0-2.9 0-4.2-9.2 0-18.3 0-27.3 0v4.3h11.3v25.2h4.9c0-8.4 0-16.8 0-25.3zm-150.3-4.2v29.5h21.3c0-1-.1-1.9 0-2.8.1-1.2-.3-1.6-1.5-1.6-3.8.1-7.6 0-11.5 0-1.1 0-2.2 0-3.5 0 0-8.5 0-16.8 0-25.2-1.7.1-3.2.1-4.8.1zm170 25.3c0-8.6 0-16.9 0-25.2-1.7 0-3.2 0-4.7 0v29.5h21.2c0-1.4 0-2.8 0-4.2-5.5-.1-10.8-.1-16.5-.1zm31.8-25.3v29.5h4.7c0-9.9 0-19.7 0-29.5-1.6 0-3.1 0-4.7 0z"/><g fill="#fff"><path d="m477.6 50.3c7.7 7.7 15.4 15.4 23.2 23.2 7.7-7.7 15.4-15.4 23-23 3.6 3.6 7.2 7.2 10.8 10.8-11.3 11.3-22.6 22.6-33.8 33.8 11.4 11.4 22.7 22.7 33.9 33.9-3.8 3.8-7.4 7.4-11 11-7.5-7.6-15.2-15.3-22.9-23-7.9 7.9-15.6 15.6-23.2 23.2-3.8-3.7-7.3-7.3-11-10.9 11.2-11.2 22.5-22.5 33.9-33.9-11.4-11.4-22.8-22.8-34-34 3.8-3.8 7.4-7.3 11.1-11.1z"/><path d="m592 83.3v15.3c-16.1 0-32 0-48.1 0 0-16.1 0-32 0-48.1h15.1v32.8z"/><path d="m591.9 330c-.9-.5-1.5-.8-2-1.3-6.1-5.8-12.1-11.7-18.1-17.5-.4-.4-.8-.7-1.4-1.4v19.7c-1.7 0-3.2 0-4.8 0 0-9.8 0-19.6 0-29.9.8.5 1.5.7 2 1.2 6.1 5.7 12.1 11.5 18.2 17.3.4.4.8.7 1.4 1.3 0-6.6 0-13 0-19.4h4.8c-.1 9.8-.1 19.6-.1 30z"/><path d="m314.5 318.9c-2.6 3.3-5.1 6.6-7.7 9.7-.4.5-1.3.9-1.9 1-1.6.1-3.2 0-5.2 0 1.3-1.6 2.3-3 3.4-4.4 2.5-3.1 4.9-6.3 7.4-9.4.7-.9.7-1.4 0-2.3-3.5-4.4-7-8.9-10.7-13.6 2.2 0 4.2-.1 6.1 0 .4 0 .8.6 1.1 1.1 2.5 3.2 5 6.3 7.5 9.6 2.6-3.3 5.1-6.5 7.6-9.7.6-.8 1.2-1.1 2.2-1 1.5.1 3.1 0 5 0-4 5.1-7.8 9.9-11.6 14.8 3.8 4.9 7.6 9.8 11.6 14.9-2.2 0-4.1.1-5.9 0-.4 0-.9-.5-1.2-.9-2.2-2.7-4.3-5.5-6.5-8.2-.3-.6-.7-1.1-1.2-1.6z"/><path d="m428.8 329.5c.5-1 1-2 1.5-3 4.3-8.5 8.5-17 12.8-25.5.2-.4.7-.7 1-1.1.3.3.7.6.9 1 4.7 9.3 9.4 18.6 14.1 27.9.1.2.2.4.4.8-1.8 0-3.4 0-5 0-.3 0-.5-.3-.7-.5s-.3-.6-.4-.9c-.8-1.6-1.3-3.7-2.6-4.5s-3.4-.2-5.2-.2c-2.4 0-4.8-.1-7.3 0-.5 0-1.1.6-1.5 1-.3.3-.4.7-.6 1.1-2.2 4.5-2.2 4.5-7.4 3.9zm15.3-20.8c-1.7 3.8-3.3 7.2-4.9 10.7h9.7c-1.5-3.6-3.1-7-4.8-10.7z"/><path d="m417.1 306.3c-7.5-3.4-13.2-2.9-16.9 1.5-3.1 3.7-3.3 9.3-.6 13.2 3.5 4.9 8.7 5.6 17.5 2.4v4.5c0 .3-.4.8-.7.9-8.4 3.5-20.9.8-23.6-10.4-2.2-8.8 3.6-17.4 12.6-18.9 3.6-.6 7.2-.4 10.6.9.8.3 1.2.7 1.2 1.6-.2 1.4-.1 2.8-.1 4.3z"/><path d="m491.7 304.2c-3.7 0-7.4 0-11.2 0v25.3c-1.7 0-3.2 0-4.9 0 0-8.3 0-16.6 0-25.2-3.8 0-7.5 0-11.3 0 0-1.5 0-2.9 0-4.3h27.3c.1 1.3.1 2.6.1 4.2z"/><path d="m341.4 300h4.8v25.2h3.5 11.5c1.2 0 1.6.4 1.5 1.6-.1.9 0 1.8 0 2.8-7.2 0-14.2 0-21.3 0 0-9.9 0-19.7 0-29.6z"/><path d="m511.4 325.3h16.4v4.2c-7 0-14.1 0-21.2 0 0-9.8 0-19.6 0-29.5h4.7c.1 8.3.1 16.7.1 25.3z"/><path d="m543.2 300h4.7v29.5c-1.5 0-3 0-4.7 0 0-9.8 0-19.6 0-29.5z"/></g><path d="m444.1 308.7c1.7 3.8 3.2 7.1 4.9 10.7-3.3 0-6.3 0-9.7 0 1.5-3.6 3.1-7 4.8-10.7z"/></svg>